<svg id="Livello_1" data-name="Livello 1" xmlns="http://www.w3.org/2000/svg" viewBox="0 0 100 66"><defs><style>.cls-1{fill:#060606;}</style></defs><title>iconTavola disegno 54</title><path class="cls-1" d="M81.1,30.63h0c-1,0-.92-1.09-1-1.78-.18-1.32-.44-1.71.94-2.08l.22-.39-1-3.59c-.1-.39-.54-.19-.8-.11-1,.25-1.17-.79-1.44-1.45l-.39-.87c-.46-1,.8-1.25.9-1.57v-.24l-1.87-3.22c-.2-.34-.58-.05-.8.09-.87.52-1.33-.43-1.78-1-.83-1.07-1.25-1.25-.23-2.29v-.48L71.24,9c-.29-.28-.59.13-.77.31-.7.7-1.4-.1-2-.54S67,7.91,67.47,7c.13-.22.46-.62.1-.82L64.32,4.34c-.31-.15-.5.3-.63.49-.49.89-1.38.3-2.06,0C60.5,4.36,59.89,4.34,60.3,3a.33.33,0,0,0,0-.24l-.2-.15-3.58-1a.33.33,0,0,0-.24,0L56,2.23c-.25,1-1.28.63-2,.52-1.33-.17-1.78,0-1.78-1.45L51.94,1H48.21c-.4,0-.32.49-.32.76,0,1-1.09.92-1.78,1C44.8,3,44.39,3.24,44,1.86l-.39-.22-3.58,1c-.39.11-.19.55-.12.82.26,1-.8,1.17-1.45,1.44l-.86.37c-.77.35-1.13-.32-1.37-.75l-.44-.11L32.6,6.22c-.34.21-.05.57.09.8.52.87-.43,1.34-1,1.79-1.07.82-1.25,1.24-2.29.23h-.47l-2.63,2.6v.46l.32.32c.69.69-.11,1.4-.55,2s-.88,1.53-1.76,1c-.22-.13-.62-.46-.82-.1l-1.87,3.25c-.15.31.3.5.49.63.9.5.3,1.39,0,2.06s-.49,1.7-1.44,1.45L20,22.62l-.15.19-1,3.58a.36.36,0,0,0,0,.25l.63.26c1,.25.62,1.28.51,2-.17,1.33,0,1.78-1.45,1.78l-.31.31V34.7c0,.4.49.31.76.32,1,0,.92,1.08,1,1.77.18,1.32.44,1.72-.94,2.09l-.22.39,1,3.59c.1.38.54.18.81.11.95-.26,1.16.79,1.44,1.45l.41.83c.46,1-.8,1.25-.89,1.57v.24l1.86,3.22c.19.34.59,0,.8-.08.87-.53,1.34.42,1.79,1,.83,1.07,1.24,1.25.23,2.29V54l2.64,2.62c.28.28.58-.13.77-.31.69-.7,1.4.1,2,.54s1.52.91,1,1.76c-.13.22-.45.62-.1.82l3.26,1.87c.31.15.49-.29.62-.49.5-.89,1.39-.3,2.06,0,1.24.51,1.71.48,1.34,1.87a.33.33,0,0,0,0,.24l.19.15,3.59,1a.33.33,0,0,0,.24,0l.26-.62c.25-1,1.28-.62,2-.52,1.33.18,1.78,0,1.78,1.45l.31.32h3.74c.4,0,.32-.49.32-.76,0-1,1.08-.92,1.78-1,1.31-.17,1.71-.44,2.08.94l.39.22,3.59-.95c.38-.11.18-.55.11-.81-.26-1,.79-1.17,1.45-1.44l.88-.38c1-.46,1.25.8,1.57.9h.24l3.22-1.87c.34-.19.05-.59-.08-.8-.53-.87.42-1.34,1-1.78,1.07-.84,1.25-1.25,2.29-.23h.46L73.86,54v-.46c-.35-.35-.92-.87-.37-1.52l1.14-1.49c.67-1,1.48.06,1.87,0a.43.43,0,0,0,.2-.15l1.86-3.26c.16-.3-.29-.5-.48-.62-.9-.5-.3-1.39,0-2,.47-1.14.48-1.75,1.87-1.34a.33.33,0,0,0,.24,0l.15-.2,1-3.58a.33.33,0,0,0,0-.24l-.63-.26c-1-.26-.62-1.29-.51-2,.17-1.33,0-1.78,1.45-1.78l.32-.32V30.94C81.85,30.55,81.36,30.63,81.1,30.63Zm-13.21,20h0a25.19,25.19,0,0,1-35.7-35.56c.56-.56,1.14-1.1,1.75-1.61l.09-.07A25.19,25.19,0,0,1,67.89,50.62Z"/><path class="cls-1" d="M73,37.27c.12-.61.22-1.23.29-1.86l-6.18-2.7L73.27,30c-.08-.62-.17-1.24-.3-1.87l-8.11,3.61-4.23-1.87,2.7-3.67,8.85-1c-.21-.59-.44-1.17-.68-1.75l-6.7.75,4-5.41c-.38-.5-.78-1-1.19-1.45h0L62.34,24.5,57.75,25l.51-4.55,7.16-5.27c-.47-.41-1-.81-1.46-1.17l-5.43,4,.75-6.68c-.58-.25-1.16-.47-1.75-.67l-1,8.82-3.73,2.74L51,18l3.58-8.15a18.7,18.7,0,0,0-1.87-.28L50,15.77l-2.7-6.16q-.93.12-1.86.3L49,18l-1.87,4.24-3.67-2.71-1-8.85c-.6.22-1.18.44-1.76.68l.75,6.7-5.41-4c-.5.37-1,.76-1.45,1.18l7.14,5.25.51,4.59-4.55-.5-5.27-7.16q-.62.7-1.17,1.47l4,5.42L28.6,23.6c-.24.57-.46,1.16-.66,1.75l8.81,1,2.74,3.74L35.3,31.9l-8.15-3.58c-.12.61-.22,1.24-.29,1.87L33,32.89l-6.16,2.7c.07.62.17,1.24.29,1.86l8.12-3.59,4.24,1.87L36.82,39.4l-8.84,1c.21.59.44,1.17.68,1.75l6.7-.75-4,5.41c.38.5.77,1,1.19,1.45l5.25-7.13,4.59-.51-.5,4.54-7.17,5.27c.47.41,1,.81,1.47,1.18l5.42-4-.75,6.68c.57.24,1.16.46,1.75.66l1-8.8,3.74-2.74,1.83,4.19L45.6,55.73c.61.12,1.23.22,1.86.29l2.7-6.17L52.86,56c.62-.07,1.24-.17,1.87-.29l-3.6-8.12L53,43.35l3.67,2.71,1,8.85c.59-.21,1.18-.44,1.75-.68l-.74-6.7,5.4,4a18.21,18.21,0,0,0,1.45-1.18l-7.13-5.26-.51-4.59,4.54.51,5.27,7.16a18.51,18.51,0,0,0,1.18-1.47l-4-5.42,6.69.74q.36-.86.66-1.74l-8.82-1-2.74-3.74,4.19-1.83ZM39.2,26.58l3.28.37.19,1.69-1.49.62Zm3.34,8.09.12.43L42.33,35Zm-.25-3.88.32-.14-.11.43Zm-4.74,2.08,3-1.31,1,1.36-1,1.31Zm5.06,5.89-3.34.37,2-2.66,1.56.69ZM56.3,22l-.37,3.29-1.68.18-.63-1.48Zm-.62,5.11,0,.35-.32-.31Zm-3.62-2,.14.32-.43-.11ZM50,20.28l1.34,3-1.36,1-1.31-1Zm-2.09,4.78.28.21-.42.12ZM46.4,24l-.68,1.56-1.59-.18L43.75,22ZM44.68,27.2l-.31.32,0-.32Zm-.83,16.48.37-3.28,1.69-.19.62,1.49Zm.63-5.13,0-.35.32.31Zm3.62,2-.16-.32.43.12Zm2.07,4.74-1.34-3,1.37-1,1.3,1Zm2.09-4.78-.32-.21.43-.12ZM45.86,37a6,6,0,1,1,8.42,0A5.92,5.92,0,0,1,45.86,37Zm10,1.42h-.35l.31-.32Zm-2.09,3.21.7-1.52,1.62.18.37,3.34Zm3.82-14.76,3.33-.38-2,2.68-1.55-.71Zm.1,7.67.21.29-.32.14Zm-.15-4,.32.15-.21.28ZM61,39l-3.29-.37L57.48,37,59,36.35Zm-1.4-5-1-1.36,1-1.31,3.08,1.36Z"/></svg>