<svg id="Livello_1" data-name="Livello 1" xmlns="http://www.w3.org/2000/svg" viewBox="0 0 100 66"><defs><style>.cls-1{fill:#030402;}</style></defs><title>iconTavola disegno 35</title><path class="cls-1" d="M74.34,1.91H24.13L12.18,19.84l37,43.7L86.27,20.31ZM47.9,21.4l-.32,27.13L38.15,21.4Zm3.36,0h10.1L50.94,49.08ZM47.94,18H39.47l8.59-9.89ZM34.59,21.4l9.63,27.7L28,21.4ZM65,21.4h5.53L55,47.74ZM51.3,18l.12-10,8.69,10ZM53.47,5.27h17l-6.93,11.6ZM36,17,28.17,5.27H46.11ZM32.65,18H17.42L25,6.62ZM24.07,21.4,37.94,45l-20-23.63Zm50.32,0h6.52L60.22,45.54ZM66.75,18,73.49,6.77,80.8,18Z"/></svg>