<svg id="Livello_1" data-name="Livello 1" xmlns="http://www.w3.org/2000/svg" viewBox="0 0 100 66"><defs><style>.cls-1{fill:#060606;}</style></defs><title>iconTavola disegno 115</title><path class="cls-1" d="M68.47.67C62.34.67,57,3.59,53.05,9.12a27.44,27.44,0,0,0-2,3.19,27.59,27.59,0,0,0-2-3.19C45.15,3.59,39.82.67,33.68.67,22.31.67,14,10.13,14,21.73c0,12.93,10.5,21.78,26.41,35.17,3,2.49,6,5.07,9.28,7.9a2.18,2.18,0,0,0,2.85,0c3.26-2.83,6.32-5.41,9.29-7.9,15.9-13.39,26.4-22.24,26.4-35.17C88.19,10.13,79.84.67,68.47.67ZM59,53.57c-2.54,2.14-5.15,4.34-7.9,6.71-2.76-2.37-5.37-4.57-7.91-6.71-8.55-7.2-15.44-13-19.78-18.69H33.68a2.17,2.17,0,0,0,1.94-1.2L38,28.87l6.75,13.51a2.18,2.18,0,0,0,3.89,0l2.41-4.81,2.4,4.81a2.18,2.18,0,0,0,3.89,0l6.75-13.51,2.41,4.81a2.16,2.16,0,0,0,1.94,1.19H78.76C74.42,40.56,67.53,46.37,59,53.57Zm10.84-23L66.07,23a2.18,2.18,0,0,0-3.89,0L55.43,36.55,53,31.74a2.18,2.18,0,0,0-3.89,0l-2.4,4.81L40,23a2.18,2.18,0,0,0-3.89,0l-3.75,7.5H20.58a18.73,18.73,0,0,1-2.27-8.81C18.31,12.2,24.92,5,33.68,5c4.7,0,8.68,2.2,11.81,6.53a24.78,24.78,0,0,1,3.49,7,2.17,2.17,0,0,0,4.19,0C53.21,18.37,57,5,68.47,5c8.76,0,15.37,7.18,15.37,16.71a18.73,18.73,0,0,1-2.27,8.81Z"/></svg>