<svg id="Livello_1" data-name="Livello 1" xmlns="http://www.w3.org/2000/svg" viewBox="0 0 100 66"><title>iconTavola disegno 84</title><path d="M41.68,55.9a3.87,3.87,0,0,1-.56.58.85.85,0,0,1-.56.22c-.39-.09-.49.13-.65.39a14,14,0,0,1-10.67,7,10.13,10.13,0,0,1-1.46.09H11.33v-.06l11.19-.86A14.17,14.17,0,1,1,34.61,37.73l1.24-1.82c.45-.67.91-1.33,1.35-2a.59.59,0,0,0,.11-.46C37,32,36.6,30.6,36.25,29.18L36.18,29l-17.69-.8v-.07H36c0-.06,0-.09,0-.12-.24-.85,0-.71-.9-.75l-12.63-.54L16,26.48a2,2,0,0,1-.59-.08H34.23a10.1,10.1,0,0,1-3.64-1.48,6.18,6.18,0,0,1-2-1.88c-.14-.24-.29-.62-.19-.83s.53-.15.82-.11l2,.33a8.28,8.28,0,0,1,.79-6c1.19-2.55,3.22-4.29,5.29-6.06a17.48,17.48,0,0,1,8-3.66.18.18,0,0,0,.13-.11l-12.89-.4V6.18h17.3a30.37,30.37,0,0,1,5.61.67A10.07,10.07,0,0,0,57.23,7c.54,0,.59-.12.59-.65a.87.87,0,0,1,.31-.62c.2-.16.28-.28.15-.55L40.53,4.61V4.54H58.28c0-.43-.2-.9-.06-1.22s.62-.44,1-.67L59,1.54l.93-.08L59.47.62l.37,0c.88,0,1.77,0,2.65.05A4.08,4.08,0,0,1,64,1a16.94,16.94,0,0,1,3.78,2.6A5.13,5.13,0,0,1,69.6,7.29c.05,1.18,0,2.37,0,3.56-.51,0-.9,0-1.29,0a.7.7,0,0,0-.44.18,2.37,2.37,0,0,0-.88,1.7c0,.49-.49.79-1,.71a.43.43,0,0,0-.45.19,6.65,6.65,0,0,1-.74.65c0,.34-.25.64-.72.8-.11,0-.2.16-.28.26a1.16,1.16,0,0,1-1.76.33,2.08,2.08,0,0,0-1.11-.32,2.47,2.47,0,0,1-.67-.28c-.18.1-.26.35-.26.69a4.27,4.27,0,0,1-.14.93.85.85,0,0,1-.09.22,7.42,7.42,0,0,0-.67,4.92,5.55,5.55,0,0,0,.14,1.44c.19.4.68.64,1,1,.53.56,1,1.13,1.53,1.72a.65.65,0,0,0,.69.22,5.91,5.91,0,0,1,1.49-.16,4.12,4.12,0,0,0,1.64,0,1,1,0,0,1,.42.08c.53.17,1.07.31,1.57.52a6.21,6.21,0,0,0,3.1.44.79.79,0,0,0,.43-.21c.28-.29.53-.62.8-.93a.59.59,0,0,1,1-.06l.75.65a.61.61,0,0,1,0,.91l-.55.65s0,.08,0,.09a2,2,0,0,1,.49,2.48A2,2,0,0,0,74,32.8c.37.49.32.75-.18,1.11l-.3.2a.6.6,0,0,1-.93-.13c-.34-.43-.65-.89-1-1.35a7.43,7.43,0,0,1-1,1.08,5.07,5.07,0,0,1-1.43.81,15.28,15.28,0,0,1-2.48.63,10,10,0,0,1-1.74,0L65.81,37a15.42,15.42,0,0,1,4-.75,14.15,14.15,0,1,1,.57,28.28H45.71a4,4,0,0,1-.91-.07l10.43-.32,10.57-.32c-5.4-2.21-8.72-6-9.4-11.77s1.67-10.24,6.36-13.61l-.46-.88L51.5,48.65c.69.54,1.33,1.1,2,1.56a2.75,2.75,0,0,1,1.45,2c.05.42,0,.76-.35,1a2.73,2.73,0,0,1-1,.41,15.06,15.06,0,0,1-1.9,0,2.52,2.52,0,0,1-1.49-.55c-.15-.11-.31-.2-.49-.31a4.48,4.48,0,0,1-8,3.15Zm-3.92-3.3.17.65c-.46-.53-.75-.55-1.43-.1A3.34,3.34,0,0,0,38,54.74c.75.41,1.52.78,2.27,1.19.3.16.49.11.64-.17l-.62-.37.05-.11.36.11.39.11c.34-.58.34-.9,0-1.19l-.24.3a.41.41,0,0,1,0-.3c.1-.34.06-.53-.35-.6a2.6,2.6,0,0,1-1-.43.94.94,0,0,0-.8-.21.79.79,0,0,1-1-.47c-.44-.7-.31-1.1.45-1.34.3-.1.62-.14.93-.21.06,0,.11-.09.16-.13s-.12-.11-.17-.11a7.71,7.71,0,0,0-2.7.25c-.52.22-.88,0-1.09-.53s-.17-1,.39-1.22a7.86,7.86,0,0,1,1.54-.47,6.5,6.5,0,0,1,1-.07l0-.12c-.16-.1-.31-.27-.48-.3a5.41,5.41,0,0,1-2.18-1c-.09-.07-.23,0-.34-.07s0,.28.06.37.36.42.54.63l-.08.12-1.08-.58-.17.21c-.33.37-.34.42,0,.76a7.15,7.15,0,0,0,.59.5c-1.06-.16-1.55-.94-2.15-1.62-.19.32-.25.56.06.79a7.68,7.68,0,0,1,.69.59,2.59,2.59,0,0,1,.31.35l-.07.07-1.2-.76a1.09,1.09,0,0,0,.44,1.21,11,11,0,0,1,2.66,2.47c.32.44.33.44.91.15l-.43-.81A2.09,2.09,0,0,0,37.76,52.6Zm39.47-7.51a10,10,0,0,0-9-2.51l.18.43c1,2.2,2,4.41,2.92,6.62a1.86,1.86,0,0,1,.16.83,1.23,1.23,0,0,1-1,1.07,1.28,1.28,0,0,1-1.38-.77Q67.37,47.4,65.63,44l-.21-.35-1.84,1.4L63.51,45l1.7-1.78L64,40.84a11.56,11.56,0,1,0,16.24,3.43,11.39,11.39,0,0,0-13.34-4.8L68,42A8.7,8.7,0,0,1,77.23,45.09ZM33.12,39.91a11.44,11.44,0,0,0-12.47.93A11.55,11.55,0,1,0,37.83,55.43a4.28,4.28,0,0,1-1.89-1.85,1.83,1.83,0,0,0-.32-.45,1.49,1.49,0,0,0-.6-.38c-1.7-.34-3.41-.65-5.13-1a.71.71,0,0,0-.43.08c-.47.26-.93.55-1.38.83.27.2.83.19.92.74s-.48.74-.72,1.14c0,.07.1.14.14.22a1.09,1.09,0,0,1-1.89,1.09,1.08,1.08,0,0,1,.31-1.47c.37-.26.35-.44-.07-.64s-.77-.35-1.14-.55a.68.68,0,0,1-.29-1c.1-.17.21-.33.31-.49s0-.09-.06-.12a2.47,2.47,0,0,1-.23-2.69,2.53,2.53,0,0,1,2.35-1.42.62.62,0,0,0,.42-.25q1.41-2,2.8-4.09c.09-.14.18-.28.31-.46A9.92,9.92,0,0,0,20.9,44.91a8.51,8.51,0,0,1,4.1-3,8.75,8.75,0,0,1,6.53.34l.93-1.37c-.7-.3-1.34-.61-2-.84s-1.34-.37-2.11-.57a10.84,10.84,0,0,1,4.3,1.14ZM59.18,11.56c0-.52,0-1,0-1.54A1.32,1.32,0,0,0,58.6,8.9a7,7,0,0,0-1.77-1,25.92,25.92,0,0,0-6.94-1A22,22,0,0,0,43.55,7.9a12.35,12.35,0,0,0-4.62,2.17c-1.39,1.14-2.74,2.32-4.11,3.49a3.66,3.66,0,0,0-1,1.72,2.63,2.63,0,0,0,0,.84h1.5s0,0,0,0l-.21.1a4.78,4.78,0,0,0-2.55,2.93,5.51,5.51,0,0,0,.1,2.82.63.63,0,0,0,.58.51l1.34.16c.53.05.62.13.71.66a1.89,1.89,0,0,0,.61,1.17c.44.38.85.79,1.31,1.15.92.71,1.85,1.41,2.79,2.08a1.35,1.35,0,0,0,1.17.26l-1.28-1.38.36.14c1,.48,2,.92,2.9,1.44a3.67,3.67,0,0,0,2.78.41c.47-.12.55-.19.35-.65a8.36,8.36,0,0,0-.85-1.59,9,9,0,0,0-3.22-2.7,1.08,1.08,0,0,0-1.62.44c-.14.19-.24.39-.37.6A3.61,3.61,0,0,1,41,22a7.48,7.48,0,0,0-3.21,1.6,6.68,6.68,0,0,1,1.9-2.34,6.76,6.76,0,0,0-3.4.66,2,2,0,0,1,.52-.53c.57-.35,1.17-.67,1.68-1a11.68,11.68,0,0,0-4.11.86,7.88,7.88,0,0,1,4.57-2v-.14l-2.76-.58v-.11l3-.16-1.77-.64,0-.1h2l0-.15-1.69-1a6.42,6.42,0,0,1,1.32.11,7.7,7.7,0,0,1,1.5.6,2.22,2.22,0,0,0,2.12.1c.16-.08.41-.25.4-.34a1.11,1.11,0,0,0-.33-.63,2.32,2.32,0,0,0-.65-.32v-.1a7.73,7.73,0,0,1,1.61.25,2.49,2.49,0,0,0,1.88,0,1.53,1.53,0,0,1,1.19,0,7.34,7.34,0,0,0,.83.19,2.55,2.55,0,0,1-.37-2.38,4.56,4.56,0,0,0,2.17,2.58,1.83,1.83,0,0,0,2,0,.37.37,0,0,0,.09-.34c-.07-.16-.23-.28-.32-.44-.3-.51-.57-1-.86-1.54l.1-.06a3.52,3.52,0,0,0,2,1.38,3.49,3.49,0,0,1-.79-3.57,3.2,3.2,0,0,0,1.61,2.58,1.62,1.62,0,0,1,1-1.33c-.27.54-.51,1-.2,1.53a7,7,0,0,1,.9-1.1,1.71,1.71,0,0,1,1.46-.18c-1,.3-1.59.81-1.33,1.94A6.66,6.66,0,0,1,56,15a5.73,5.73,0,0,1,1-.08c-1.52.8-1.52.8-1.62,1.23a1.69,1.69,0,0,1,1.9.1,2,2,0,0,0-2.07,1.25,12.78,12.78,0,0,1,1.62.79,12.2,12.2,0,0,1,1.36,1.25c.11-.47.18-.93.32-1.38s.46-1.06.65-1.61a1.89,1.89,0,0,0,.11-.85,3.81,3.81,0,0,0-1.08-2.32c-.18-.17-.39-.31-.59-.47l.13-.15,1.32.67a7.69,7.69,0,0,0-.25-1.3,5,5,0,0,0-.61-1c-.23-.33-.51-.64-.82-1A3.65,3.65,0,0,1,59.18,11.56ZM62.66,36a4.34,4.34,0,0,0,.23,1c2.26,4.42,4.55,8.82,6.82,13.22.07.12.14.24.2.36l.07,0-1.67-3.44.07,0,1.54,2.74.07,0-.8-1.74.06,0,1.41,2.48.13-.05a1.85,1.85,0,0,0-.11-.54Q67.5,42.71,64.3,35.5c-.15-.34-.35-.41-.69-.23s-.39.26-.61.41c0-.66.56-.81.94-1a1.94,1.94,0,0,1-.12-.72,2.7,2.7,0,0,0-.34-1.39c0-.08-.13-.15-.21-.2-1.13-.59-2.28-1.16-3.39-1.78a2,2,0,0,0-1.25-.25l-6.51.55-2,.18c.45,1,.17.87,1.19.79l.68-.05c2.48-.23,5-.46,7.45-.67a.55.55,0,0,1,.41.16,3.5,3.5,0,0,1,1.06,2A2.78,2.78,0,0,1,60.1,36c-4.47,4.19-8.9,8.42-13.36,12.64a1.74,1.74,0,0,1-.4.23,7.33,7.33,0,0,0,.71.35.37.37,0,0,0,.51-.08L54,43.3l.31-.26,0,0-6.47,6.56.44.36L61.73,36.28l-.16.86.07,0Zm-4.47-6.43c-.7-.53-1.34-1-2-1.48A3.81,3.81,0,0,1,54.61,25c0-.82-.07-1.63-.08-2.45a1.71,1.71,0,0,0-.27-.93,2.7,2.7,0,0,1-.3-.88c-.17-1.05-.32-2.11-.48-3.2l-.72.32a3.07,3.07,0,0,1-2,.26,11.87,11.87,0,0,0-4.32-.32,2.4,2.4,0,0,0-.55.19,9.79,9.79,0,0,1-1,.42c-.48.14-1,.22-1.46.33a.47.47,0,0,0-.26.83,4.25,4.25,0,0,0,.78.6,15.25,15.25,0,0,1,1.51.93c1.43,1.15,3.06,2.09,4.11,3.68a1.21,1.21,0,0,0,.2.19c.86.8,1.72,1.6,2.6,2.39a2.6,2.6,0,0,1,1,2c0,.2,0,.41.07.65ZM46.38,34.17v.08l-.94.24a10.49,10.49,0,0,0-2.12.56,5.26,5.26,0,0,0-3.09,3.77,5.89,5.89,0,0,1-1.48,2.85.79.79,0,0,0-.12.86l.61-.57a3,3,0,0,1-.17.62c-.09.32,0,.58.33.71s.85.35,1.29.5a.49.49,0,0,0,.41-.07c1.61-1.51,3.24-3,4.79-4.57a28.54,28.54,0,0,0,1.94-2.42l-.53-.35A6.62,6.62,0,0,0,48.72,36,3.09,3.09,0,0,0,50,32.73a7.92,7.92,0,0,0-1.92-3.24c-.38-.43-.49-.45-1-.1a1.57,1.57,0,0,0-.24.21L45.53,31c-.45.45-.47.63-.06,1.13a1.59,1.59,0,0,0,.6.42c.5.22,1,.4,1.64.64a7.47,7.47,0,0,1-.8.16,4.85,4.85,0,0,1-2.12-.37.74.74,0,0,0-.5.07c-.06,0,0,.28,0,.41a1,1,0,0,0,.86.6Zm2.88,10.95.15-.09q5.21-4.92,10.4-9.87a1.17,1.17,0,0,0,.32-.53A3,3,0,0,0,60,32.92a.63.63,0,0,0-.79-.48c-1.79.17-3.58.33-5.37.45a1.17,1.17,0,0,0-1.22.8,16.34,16.34,0,0,0-1,2.74,37,37,0,0,1-1.49,6.13C49.84,43.38,49.58,44.22,49.26,45.12Zm9.24-22c-.18-.77.14-1.65-.55-2.32-.81.71-1.43.81-1.84.35a3.3,3.3,0,0,0,.72-.18,1,1,0,0,0,.43-.5,1.46,1.46,0,0,0-.66-1.57c-.48-.27-1-.48-1.49-.72-.29-.14-.44,0-.45.27,0,.78,0,1.56,0,2.33a1.4,1.4,0,0,0,.25.58c.23.4.49.78.71,1.18a2.07,2.07,0,0,1-.08,1.61l-.16-.91-.14,0c0,.59,0,1.18.09,1.76a3.82,3.82,0,0,0,.32,1.36,4.76,4.76,0,0,0,1.09,1.28,32.75,32.75,0,0,0,6.09,3.74c.87.46,1.06.4,1.6-.45a1.38,1.38,0,0,0-.24-1.68c-.57-.52-1.14-1-1.68-1.57-1.07-1.11-2.12-2.24-3.17-3.37a1.67,1.67,0,0,0-2-.53l-.06-.05C57.49,23.23,58,23.22,58.5,23.1ZM28.32,49.45,38.58,35.23l.9,3.72c.22-.63.41-1.16.59-1.7a.62.62,0,0,0,0-.27c-.25-1.31-.51-2.62-.76-3.94l2.75-.23c-.52-.67-1-1.28-1.94-1a1,1,0,0,1-.35,0c-.6,0-.6,0-.63.63l-.08,0a3.12,3.12,0,0,1-.15-.39c-.24-.95-.46-1.9-.7-2.84a.54.54,0,0,0-.11-.29c-.42-.38-.86-.74-1.37-1.17,0,.21.05.31.08.42.43,1.69.85,3.4,1.29,5.09a.86.86,0,0,1-.14.8q-4.85,7.09-9.67,14.2l-.53.79ZM60.4,1.15c.23.41.38.71.55,1a25.59,25.59,0,0,0,2.67,4.16,16.23,16.23,0,0,0,4,3.16c.08.06.41-.09.41-.12,0-.33,0-.68-.37-.89a15.07,15.07,0,0,1-1.37-.87c-.25-.19-.47-.43-.73-.67a1.06,1.06,0,0,1,1.13.33,4.89,4.89,0,0,0,.91.7l.09-.08c-.16-.33-.31-.66-.48-1s-.4-.61-.25-1a5.86,5.86,0,0,1,1.45,3.94l-.39.14c.22.47.6.24,1,.36,0-.87,0-1.64,0-2.42a4.78,4.78,0,0,0-1.94-4.05C66,3,64.85,2.29,63.71,1.53a1.3,1.3,0,0,0-.61-.25C62.23,1.22,61.37,1.19,60.4,1.15Zm3.24,39.08a12.26,12.26,0,1,0,17.37,4A12,12,0,0,0,66.6,38.87a.72.72,0,0,0,.4.05,12.2,12.2,0,0,1,5.44-.32,12,12,0,1,1-8.95,2C63.63,40.54,63.87,40.47,63.64,40.23Zm3-28.42c-.26,0-.42-.05-.57-.09s-.31-.06-.38-.16c-.33-.47-.7-.94-.46-1.59a.35.35,0,0,0-.07-.33,1.14,1.14,0,0,0-1.29-.2,4.68,4.68,0,0,0-1.76,1.66,2.15,2.15,0,0,0-.24.83,11.17,11.17,0,0,0,0,1.42,2.24,2.24,0,0,0,.52,1.73c.37.37.59.38,1,0,.15-.16.28-.41.46-.46.42-.11.49-.38.48-.73a1.64,1.64,0,0,1,0-.25c.76-.16.76-.16,1-.54-.14-.26-.31-.44-.31-.62a.48.48,0,0,1,.42-.48c0,.21,0,.46.13.52.26.15.54.57.84.31S66.47,12.19,66.59,11.81ZM33.48,39.45l0-.17-.42-.21a12,12,0,0,0-7.5-1.1,12.23,12.23,0,0,0-10,14.18,11.74,11.74,0,0,0,8.28,9.54A11.8,11.8,0,0,0,36.1,58.93a11.48,11.48,0,0,0,2.23-2.86,1.43,1.43,0,0,0,.06-.37l-.14,0c0,.08-.09.15-.14.23a12,12,0,0,1-22.42-4.74,12,12,0,0,1,13.65-13,11.44,11.44,0,0,1,3.78,1.2A1.43,1.43,0,0,0,33.48,39.45Zm12.25.9-.31.27c-.81.79-1.63,1.57-2.43,2.37a.56.56,0,0,0-.1.47c.32,1.36.67,2.71,1,4.06,0,.07.06.14.1.24,1.33-2,1.61-2.49,1.75-3.92A34.15,34.15,0,0,0,45.73,40.35Zm4.73-11.51a2.32,2.32,0,0,0,.1.62c.1.2.25.5.4.51a16.45,16.45,0,0,0,1.72,0,2.29,2.29,0,0,0-.76-2.18c-.74-.64-1.45-1.31-2.17-2-.55-.5-.71-.52-1.3-.06a3.7,3.7,0,0,0-.42.37A.58.58,0,0,0,48,27c.2.25.43.47.63.72.34.44.67.9,1,1.35l.42.59ZM48.7,37.58a2.2,2.2,0,0,0-1.19,2.81,3.58,3.58,0,0,0,1.79-1.88,9.7,9.7,0,0,1-.56,3.69A4.68,4.68,0,0,0,50.27,40c.28-1.45.56-2.89.82-4.35a1.33,1.33,0,0,0-.2-1.18c-.39.79-.8,1.54-1.13,2.32a5.31,5.31,0,0,1-1.18,1.58ZM38.48,44.14l0,0-.8-.37a11.25,11.25,0,0,0-.89,1.28,2.21,2.21,0,0,0,.87,2.46.83.83,0,0,0,1-.15c.4-.54.79-1.08,1.16-1.65.16-.25.21-.54-.16-.72a2.85,2.85,0,0,1-.42-.34c.5,0,1,.51,1.39-.21l-1.48-.61A2.15,2.15,0,0,1,38,42.82c-.34.21-.33.44-.09.69ZM32.06,49.4C32,49.23,32,49.11,32,49a1.72,1.72,0,0,1,.82-2.17c.39-.26.77-.52,1.13-.81.73-.59,1.45-1.21,2.21-1.84L34.9,42.78,34,44l.57.67,0,.05-.66-.54-3.8,5ZM45.24,24l.68.49c.31.22.63.42.92.66a.89.89,0,0,0,1.36-.11c.26-.25.21-.71-.14-1.1a1.86,1.86,0,0,0-.29-.27l-2.71-2.11a7.83,7.83,0,0,0-2.71-1.14,3.72,3.72,0,0,0,2.39,1.61l-1,.48,2.39,1.31a1,1,0,0,1-.44.09ZM34,38.59a11.61,11.61,0,0,0-9.58-1.53,11.4,11.4,0,0,0-8.17,6.58,13.14,13.14,0,0,1,7.85-6.12A13.38,13.38,0,0,1,34,38.59ZM63.82,8.87c-.69-.43-.48-.42-1,0s-1,.89-1.54,1.35c-.77-.8-.58-1.8-.66-2.73h-.66c0,1.13,0,2.25.79,3.17a.64.64,0,0,1,.08.4c0,1.18-.05,2.35-.08,3.52,0,.13,0,.26,0,.39h.14l.15-2.57a22.42,22.42,0,0,0,.22,2.6.55.55,0,0,0,.14-.36c0-1.08.07-2.16.07-3.24a.92.92,0,0,1,.35-.78C62.49,10.08,63.14,9.48,63.82,8.87ZM80.91,58.25l0,0c-4.79,5.59-10.51,6.59-17,3.58C68.87,65.65,77.86,63.83,80.91,58.25Zm-60,3c5.28,4.3,14.61,2,17.31-3.52a13.1,13.1,0,0,1-17.31,3.52ZM60.16,2.92c-.36.17-.7.34-1.06.47s-.38.36-.28.68a2.92,2.92,0,0,0,3.12,1.84,4.84,4.84,0,0,0-.19-1.45,18.53,18.53,0,0,0-1.3-2.12.63.63,0,0,0-.83-.21ZM43,49.51A23.68,23.68,0,0,0,41.75,44c-.47.49-.86,1-.55,1.73a6.52,6.52,0,0,1,.25,1l.81,3.16h.12a1.12,1.12,0,0,0,.07-.4c-.1-.58-.23-1.16-.34-1.74l-.36-1.87h.07Zm35.14-9.63a11.37,11.37,0,0,0-6.68-2.82,12.69,12.69,0,0,0-5.26.67c0,.38.23.31.45.24a12.9,12.9,0,0,1,11.24,1.75ZM64.93,27.38c.17-.44.42-.41.73-.31.88.3,1.75.61,2.63.86a6.19,6.19,0,0,0,1.35.19,10.34,10.34,0,0,0,1.47-.07.78.78,0,0,0,.46-.21c.33-.34.63-.71.94-1.06l.63.38.09-.13-.84-.74a7.69,7.69,0,0,0-.6.7,1.6,1.6,0,0,1-1.48.75,6.46,6.46,0,0,1-2.51-.37c-.67-.27-1.37-.46-2.07-.68C65.25,26.54,64.94,26.78,64.93,27.38Zm-19.62,29,0-.06a6.17,6.17,0,0,0,.62-.08c.24,0,.31-.18.2-.41l-.8-1.71c-.13-.26-.28-.27-.44,0l-1,1.58c-.12.19-.08.33.14.39C44.47,56.19,44.89,56.28,45.31,56.39Zm19.18-27.8a3.67,3.67,0,0,0,2.09,1.33.67.67,0,0,0,.42,0c.41-.15.81-.34,1.3-.54-.84-.28-1.6-.51-2.34-.78A1.48,1.48,0,0,0,64.49,28.59ZM71,31.94l.11.09c.15-.17.41-.33.43-.52s-.22-.38-.4-.49a13.88,13.88,0,0,0-1.7-.91,1.31,1.31,0,0,0-1,0c-1,.45-1.94.86-3,.14.93,1,1.32,1,2.49.54a4.73,4.73,0,0,1,.47-.2,1.32,1.32,0,0,1,.61-.09,7.24,7.24,0,0,1,2.27,1Zm-30,4c.41-.32.78-.6,1.13-.9a1,1,0,0,0,.41-1.16l-2,.18Zm-3.7,3.78L38.53,41c.16-.34.45-.65.43-.93a14.57,14.57,0,0,0-.47-2Zm24-29.9L62.17,9c.53-.46.58-.74.22-1.33a.67.67,0,0,0-.75-.31c-.32,0-.64.21-.66.53A3.14,3.14,0,0,0,61.29,9.78ZM46.53,54c-.33,0-.43.1-.3.39s.35.77.53,1.15c.11.23.29.25.44.08a13.16,13.16,0,0,0,.86-1.11c.15-.23.07-.41-.23-.43Zm0-2.79-2-.59c.14.53.29,1.13.47,1.72a.51.51,0,0,0,.32.27.48.48,0,0,0,.39-.16C46,52.07,46.27,51.65,46.53,51.23Zm-2.42,1.25c0-.07.17-.21.15-.31-.09-.45-.23-.89-.35-1.33-.07-.24-.25-.27-.39-.12a12.58,12.58,0,0,0-1,1.18c-.15.19,0,.35.2.39Zm3.11-1.06-.65,1c-.14.24,0,.38.21.42S47.56,53,48,53c.22,0,.37,0,.36-.29A1.32,1.32,0,0,0,47.22,51.42Zm-4.51,2.35c-.39,0-.51.1-.35.46a6.5,6.5,0,0,0,.58,1c.14.22.32.22.46,0s.42-.64.61-1,.06-.4-.23-.42ZM63.14,39.2A10.21,10.21,0,0,0,59.07,44a13.77,13.77,0,0,1,4.22-4.44ZM30.67,50.37v0h1.45a1,1,0,0,0-.45-.23c-.79-.11-1.57-.19-2.36-.32a.6.6,0,0,0-.75.46l4.11.62,0-.11Zm36.4-15.81c-.69-.37-1.34-.69-1.95-1.06a.42.42,0,0,0-.63.14.58.58,0,0,0,.52.91C65.68,34.58,66.35,34.56,67.07,34.56ZM26.16,51.08c.12-.29.3-.51.28-.71a1.81,1.81,0,0,1,.41-1.24c.19-.26.36-.54.55-.82A1.77,1.77,0,0,0,26.16,51.08Zm10.23-7.31c.14-.18.28-.34.39-.51a.29.29,0,0,0,0-.27c-.34-.42-.7-.82-1.08-1.25l-.51.67Zm.28,5.49a5.49,5.49,0,0,0-1,.69c-.08.09.13.65.23.66a5.53,5.53,0,0,0,1.24-.12ZM62,26.84a1.37,1.37,0,0,0,1.15.42c.32,0,.63-.06.94-.12a.55.55,0,0,1,.69.37s.07.1.13.21c0-.63-.3-1.08-.78-1.07C63.39,26.66,62.7,26.77,62,26.84Zm-2.13-16.7V13h.09L60,11.62h0l.13.94C60.57,11.56,60.35,10.38,59.82,10.14ZM72.51,28.43l-.11.06a1.57,1.57,0,0,1,.3,2,2.63,2.63,0,0,0-.08.3,2.25,2.25,0,0,0,.66,2.1c-.11-.3-.26-.61-.36-.94a3,3,0,0,1,.25-1.88A1,1,0,0,0,73,29ZM39.11,52.56l-.36-.77c-.15-.34-.37-.13-.56-.08a.29.29,0,0,0-.22.42C38.12,52.64,38.38,52.75,39.11,52.56ZM60.51,6.41l-1.42-.73.14.92ZM41,52l.24-.65-1-.14C40.45,51.94,40.52,52,41,52Zm-13.83-.2a1.8,1.8,0,0,0,1.49-.27C28.08,51.55,27.55,51.09,27.16,51.8ZM37.8,50.32c-.25-1-.32-1.08-.63-1C37.45,50.27,37.47,50.31,37.8,50.32ZM71,30.19l.48.28.22-.73-.13-.06Zm-31.42.15c.1.81.1.81.64.7Z"/><path d="M63.67,55.82a9.89,9.89,0,0,0,13.41,0A8.53,8.53,0,0,1,63.67,55.82Z"/><path d="M69.82,61a10.55,10.55,0,0,1-9.93-12.06,11.41,11.41,0,0,0,2.66,7.94A11.59,11.59,0,0,0,69.82,61Z"/><path d="M71.13,39.83a10.54,10.54,0,0,1,9.8,11.75,11.79,11.79,0,0,0-2.72-7.68A11.55,11.55,0,0,0,71.13,39.83Z"/><path d="M34.66,55.41a8.57,8.57,0,0,1-13.64,0,9.84,9.84,0,0,0,13.64,0Z"/><path d="M17.31,48.69a11.64,11.64,0,0,0,9.78,12,10.26,10.26,0,0,1-7.52-3.84A10.48,10.48,0,0,1,17.31,48.69Z"/><path d="M55.18,12.26c1-1.1.75-2.32.33-3.55l.11-.05a15.32,15.32,0,0,1,.85,1.9A1.14,1.14,0,0,1,56,11.67C55.74,11.89,55.45,12.07,55.18,12.26Z"/><path d="M46.27,11.45c-.51,2.16-.51,2.16-.05,3.44a5,5,0,0,1-.78-.89,1.07,1.07,0,0,1-.08-.82A19,19,0,0,1,46.27,11.45Z"/><path d="M38.13,15.11A5.15,5.15,0,0,1,41.71,13Z"/><path d="M51,11.17c1.27-.39,2.14-1,1.63-2.53a1.93,1.93,0,0,1,.29,1.83.48.48,0,0,1-.26.28c-.51.19-1,.35-1.56.51Z"/><path d="M57.55,14.19l-1.48.11C56.35,13.85,56.85,13.79,57.55,14.19Z"/><path d="M44.32,36.88c-.57,1.92-2,3-3.63,4C41.92,39.57,43.45,38.53,44.32,36.88Z"/><path d="M57.2,27.28l1.64,1A1.59,1.59,0,0,1,57.2,27.28Z"/><path d="M59.07,25.34c1,.22,1.31.49,1.73,1.57A8.28,8.28,0,0,0,60,26,6.74,6.74,0,0,0,59.07,25.34Z"/><path d="M55.34,20.5l-.22-1,.13,0,.2,1Z"/><path d="M63.24,3.32c.35.45.68.91,1.05,1.33s.77.84,1.16,1.25a.8.8,0,0,1-1.16-.26A7.58,7.58,0,0,1,62.81,3c0-.11-.05-.21-.07-.31a.92.92,0,0,1,0-.17,7.12,7.12,0,0,1,.83.38c.67.4,1.31.84,2,1.23A.72.72,0,0,1,66,5L63.36,3.18Z"/><path d="M64.34,2.66a6.4,6.4,0,0,1,4.25,5.69c-.12-.41-.21-.74-.31-1.06a1.45,1.45,0,0,0-.21-.51,12.93,12.93,0,0,1-.88-1.69c-.08-.16-.32-.23-.48-.34s-.21-.09-.23-.16a2.19,2.19,0,0,0-1.07-1.26C65.07,3.08,64.69,2.88,64.34,2.66Z"/><path d="M59.09,3.88l1.16-.55c.23-.12.37-.05.45.23l-.85.33V4l.76.15.54,1A5.45,5.45,0,0,1,59.09,3.88Z"/><path d="M61.37,8c.42-.23.67-.2.78.08.19.46-.18.55-.48.63l.13.46-.08,0c-.06-.07-.1-.15-.16-.22-.22-.25-.18-.38.11-.54A1.1,1.1,0,0,0,62,8.17L61.54,8A.87.87,0,0,0,61.37,8Z"/></svg>