<svg id="Livello_1" data-name="Livello 1" xmlns="http://www.w3.org/2000/svg" viewBox="0 0 100 66"><title>iconTavola disegno 73</title><path d="M34.13,38.44a5.05,5.05,0,0,0-.9-.51c-.42-.12-.87-.13-1.31-.21a5,5,0,0,1-4.33-4.4,3.53,3.53,0,0,0-1.5-2.47,3.86,3.86,0,0,0-.34,2.47A3.57,3.57,0,0,1,25,36.11a.57.57,0,0,1-.24.19c-.06,0-.15,0-.12,0,.09-1.11.2-2.22.27-3.34A14.87,14.87,0,0,1,25,30.66c.23-1,.21-1.34-.81-2.11-.08.9-.2,1.69-.2,2.47a3.24,3.24,0,0,1-1,2.31,1.41,1.41,0,0,1-.72.32c.9-1.39.62-2.95.79-4.42A8.6,8.6,0,0,1,23.37,28c0-.17.19-.39.13-.49-.52-.92.24-1.11.88-1.53.21.35.41.66.59,1a3.57,3.57,0,0,0,3.64,1.4c.08,0,.14-.14.22-.19.6-.41,1.2-.81,1.8-1.19.18-.12.4-.14.57-.26,2.55-1.73,5.1-3.46,7.62-5.23a1.8,1.8,0,0,0,.68-1.07c.3-2.3.55-4.61.78-6.92.06-.54-.73-.89-1.29-.67a15.91,15.91,0,0,1-1.92.62c-.46.12-.74,0-.9-.57a19.59,19.59,0,0,0-1-2.34c-.86.09-.91-.42-.71-1.12a2.43,2.43,0,0,0,0-1.74c-.13-.31.09-.76.16-1.18-1.19.22-1.83-.52-1.48-1.65C34.08,1.94,35.88.52,38.91.57a9.34,9.34,0,0,1,5.4,1.83,1.9,1.9,0,0,1,.94,1.93A2.06,2.06,0,0,1,43.68,6c-.52.13-.63.4-.5.85s.29,1,.43,1.45c7-1.25,12.51,1.3,17.23,6a12.31,12.31,0,0,1,3.88,9.36,26.24,26.24,0,0,1-.64,3.66,10.58,10.58,0,0,1,1.68,0c.66.1.76.49.31,1a13.32,13.32,0,0,1-5.49,2.59l-1.33,4.69c.73,1.07,0,2.14,0,3.2a1.62,1.62,0,0,0,.43.8c.34.42.71.82,1.11,1.27a14.47,14.47,0,0,1,6.46-3.23,13.93,13.93,0,1,1,4.46,27.47c-5.59.62-10.05-1.54-13.29-6.16a2.26,2.26,0,0,0-2.6-.58A4.73,4.73,0,0,1,49,57.18s-.08-.06-.14-.1l-2.17,1.39c-.87.53-1.25.34-1.37-.74a3.87,3.87,0,0,1-1.36.2c-.32-.07-.56-.51-.84-.78l.14-.18-1.44-.17A14,14,0,1,1,34,38.69Zm-.81,2.46a11.81,11.81,0,1,0,1.63.86,1.31,1.31,0,0,0-.17.24c-1.36,2.55-2.72,5.11-4.05,7.68a1,1,0,0,0,.07.75A2.41,2.41,0,1,1,29,49.27a.86.86,0,0,0,.69-.37C30.89,46.26,32.09,43.6,33.32,40.9ZM61,58.55c1.87,2.88,6.59,5.37,11.68,4.28a11.78,11.78,0,0,0,1.78-22.46c-4.41-1.77-9.6-.41-12,2.21,1.72,1.79,3.47,3.55,5.14,5.38a2.56,2.56,0,0,0,2.41,1,2.26,2.26,0,0,1,2.51,2.78,6.14,6.14,0,0,1-2.71,4.14c-.65.38-.68.74-.18,1.33a4.52,4.52,0,0,1,.48.5c.2.32.35.66.52,1a3.28,3.28,0,0,1-1.11.39c-1.33,0-2.66-.15-4-.24ZM38.19,33a6.16,6.16,0,0,0,1.07.39c1.18.19,2.38.3,3.56.5a.72.72,0,0,0,.93-.53,5.94,5.94,0,0,1,1-1.59c2.49-2.74,5.12-5.31,8.77-6.48a1,1,0,0,0,.56-.48,1.93,1.93,0,0,0-1-2.52c-1.83-.79-3.7-1.49-5.62-2.25a22.22,22.22,0,0,0-.5,2.83,4.18,4.18,0,0,1-3,4c-2.43,1-4.75,2.27-7.4,2.69a7.28,7.28,0,0,0-1.65.68l.07.24c.87-.09,1.7.67,2.64-.07.2-.16.86.17,1.25.38.1.05.06.51,0,.75C38.69,31.94,38.46,32.37,38.19,33Zm-2.36,6.65c5.61,3.86,7.7,9,6.47,15.49,2.18,0,3.56-1.31,5-2.62a1.68,1.68,0,0,0,.09-2.43c-.89-1-1.79-2-2.69-3.05-2.36-2.66-4.71-5.32-7.08-8-.16-.18-.54-.41-.66-.34A8.25,8.25,0,0,0,35.83,39.62ZM68.19,53.27l-9.32,1.57c.19.49.35.87.49,1.26.44,1.3,1.18,2.16,2.73,1.91a3.36,3.36,0,0,1,.77.05l5.07.36L68.5,57C67.15,55.15,67.1,54.68,68.19,53.27ZM47,45.93l.27-.13c-.57-2.48-1-5-1.78-7.43a3.66,3.66,0,0,0-2.06-1.93,23.31,23.31,0,0,0-4.22-.79c-.18,0-.48,0-.53.11a.74.74,0,0,0,.07.57,2.45,2.45,0,0,0,.4.57c1.21,1.41,2.41,2.82,3.63,4.22Q44.92,43.54,47,45.93ZM67.59,52l.48-2.37a3.37,3.37,0,0,0-.74-.12c-1.84.11-3.69.25-5.53.37a1.94,1.94,0,0,0-1.46.53,3.24,3.24,0,0,1-1.37.87c-.67.17-.66.54-.59,1l.17,1ZM51.77,41.29l-.21.1c1.07,3-.34,5.87-.16,8.84A12.45,12.45,0,0,1,52.77,50c.42,0,.58-.18.68-.56.5-1.94,1-3.87,1.52-5.82a.86.86,0,0,0-.28-.73C53.74,42.34,52.75,41.83,51.77,41.29ZM29,32.35a6,6,0,0,0,1.2.78c1,.29,2,.46,3,.74.24.06.61.37.58.48a1.16,1.16,0,0,1-.53.76,2.13,2.13,0,0,1-1.15,0c-.84-.18-1.66-.44-2.58-.69a3.12,3.12,0,0,0,.21.35c.94,1.29,2.35,1.53,3.8,1.71a.93.93,0,0,0,1.14-.64c.42-1,.9-2,1.4-2.89a8.86,8.86,0,0,1,.86-1.11,15.1,15.1,0,0,0-1.78-.21,6.46,6.46,0,0,0-2.07.2,2.67,2.67,0,0,1-2,0A2.16,2.16,0,0,0,29,32.35ZM63.64,45.5c-1,1.4-2.7,2.21-3.3,4l7-.46Zm-5.93-9.76,1.46-4.88c-2.56.64-3.84,2.68-5.56,4.37Zm-.82,8.75-1.42,5,.25.14a8.26,8.26,0,0,0,.75-1.23c.34-.87.54-1.8.91-2.65C57.65,45.09,57.46,44.8,56.89,44.49Zm1.61-4a1.38,1.38,0,0,0,1.3,1.41Z"/></svg>