<svg id="Livello_1" data-name="Livello 1" xmlns="http://www.w3.org/2000/svg" viewBox="0 0 100 66"><defs><style>.cls-1{fill:#030402;}</style></defs><title>iconTavola disegno 4</title><path class="cls-1" d="M37.35,1A6.05,6.05,0,1,1,31.3,7,6.05,6.05,0,0,1,37.35,1Z"/><path class="cls-1" d="M74.13,31.61A16.7,16.7,0,1,1,57.43,48.3,16.69,16.69,0,0,1,74.13,31.61Z"/><circle class="cls-1" cx="25.87" cy="48.3" r="16.7" transform="translate(-28.59 54.39) rotate(-68.21)"/><path class="cls-1" d="M20.35,18.85a2.91,2.91,0,0,0,1.11,4l11.45,5.93a1.33,1.33,0,0,0,1.44-.19L42,22.16a.87.87,0,0,1,1.25,0l7.31,8.11a.83.83,0,0,1-.1,1.22c-1.86,1.52-5.7,4.77-7.27,6.09a1.41,1.41,0,0,0-.39,1.43l5.25,15a1.75,1.75,0,0,1-.28,1.53l-1.58,1.89a3.87,3.87,0,1,0,5.94,5l4.47-5.36a1.68,1.68,0,0,0,.26-1.53l-5.26-14A1.3,1.3,0,0,1,52,40.2c2.69-2.08,10.48-7.94,12.89-9.75a.81.81,0,0,0,.11-1.2L48.21,10A.9.9,0,0,0,46.94,10l-13.78,12a1.27,1.27,0,0,1-1.43.16L24.3,17.74A2.89,2.89,0,0,0,20.35,18.85Z"/></svg>