<svg id="Livello_1" data-name="Livello 1" xmlns="http://www.w3.org/2000/svg" viewBox="0 0 100 66"><defs><style>.cls-1{fill:#030402;}</style></defs><title>iconTavola disegno 27</title><path class="cls-1" d="M95.51,31.41A70.44,70.44,0,0,0,82.92,19.69C72.46,12,61.08,7.94,50,7.94S27.54,12,17.08,19.69A70.44,70.44,0,0,0,4.49,31.41L2.87,33.46l1.62,2A70.44,70.44,0,0,0,17.08,47.23C27.54,54.92,38.92,59,50,59s22.46-4.06,32.92-11.75A70.44,70.44,0,0,0,95.51,35.51l1.62-2ZM50,51.34A17.87,17.87,0,0,1,32.69,29l-4.08-.69a21.94,21.94,0,0,0,6.44,21.3A58.07,58.07,0,0,1,21.14,42a69.23,69.23,0,0,1-9.67-8.56,69.23,69.23,0,0,1,9.67-8.56,57.72,57.72,0,0,1,13.91-7.57l2.74,3.08A17.88,17.88,0,1,1,50,51.34ZM78.86,42A58.07,58.07,0,0,1,65,49.6a22,22,0,0,0,0-32.27A57.72,57.72,0,0,1,78.86,24.9a69.23,69.23,0,0,1,9.67,8.56A69.23,69.23,0,0,1,78.86,42Z"/><path class="cls-1" d="M38.62,30A11.89,11.89,0,1,0,50,21.57a11.83,11.83,0,0,0-8.24,3.32l5.87,6.61Z"/></svg>