<svg id="Livello_1" data-name="Livello 1" xmlns="http://www.w3.org/2000/svg" viewBox="0 0 100 66"><title>iconTavola disegno 105</title><path d="M16.1,21.09V9.17c3.44,0,6.88,0,10.32,0a18.49,18.49,0,0,1,3.49.31A21.65,21.65,0,0,1,46.53,23.1c.34.81.58,1.66.93,2.69.24-.32.53-.53.53-.73a60.39,60.39,0,0,0-.26-6.6A15.69,15.69,0,0,0,36.11,5.74c-1.29-.31-2.63-.44-3.94-.65V1.17c8.07.36,13.95,4.09,17.83,11.1,3.9-7,9.78-10.76,17.83-11.09v4c-.89.11-1.72.18-2.55.31A15.86,15.86,0,0,0,52.49,17.18a32.22,32.22,0,0,0-.49,7.9c0,.2.31.39.56.7.12-.37.18-.53.23-.7A21.84,21.84,0,0,1,73.06,9.19c3.49-.1,7,0,10.46,0l.38,0v.69c0,3.13,0,6.26,0,9.4A21.11,21.11,0,0,1,78.1,33.85C77.06,35,75.87,36,74.75,37l.07,0a1.39,1.39,0,0,0,.19.06,5.73,5.73,0,0,1,4.68,4.8,13.4,13.4,0,0,1-.39,5.63c-2.23,8.95-7.84,14.59-16.8,16.75a16.74,16.74,0,0,1-5.37.42,5.77,5.77,0,0,1-5.15-6v-2H48c0,.66,0,1.4,0,2.15a5.92,5.92,0,0,1-4.7,5.79,14.23,14.23,0,0,1-5.7-.31A21.87,21.87,0,0,1,20.2,42.87a5.92,5.92,0,0,1,3.91-5.52c.38-.14.79-.24,1.24-.38l-.48-.41a21.67,21.67,0,0,1-8.16-12.31C16.45,23.21,16.3,22.14,16.1,21.09Zm63.81-7.94H77.3a37.85,37.85,0,0,0-7,.38,17.69,17.69,0,0,0-14,14.67A85.81,85.81,0,0,0,56,36.85s0,.07,0,0c2.53,0,5,.19,7.46,0,7-.65,12-4.35,15-10.69C80.39,22,79.87,17.58,79.91,13.15Zm-59.84.1c0,1.1,0,2.24,0,3.38a43.91,43.91,0,0,0,.25,5.14A17.69,17.69,0,0,0,34.57,36.58a26.16,26.16,0,0,0,3.94.39c1.82.06,3.65,0,5.52,0,0-2.14,0-4.21,0-6.28a17.53,17.53,0,0,0-5.09-12.13,16.9,16.9,0,0,0-11.28-5.3C25.16,13.12,22.64,13.25,20.07,13.25ZM44,41l-.22,0H26.22a2,2,0,0,0-2,2.14,18.32,18.32,0,0,0,.24,2.56A17.85,17.85,0,0,0,41.51,60.8c1.72.07,2.53-.71,2.53-2.44V41ZM56,41a1.66,1.66,0,0,0,0,.28c0,5.84,0,11.69,0,17.53a2,2,0,0,0,2.13,2,20.32,20.32,0,0,0,3-.29A17.88,17.88,0,0,0,75.8,43.43,2.1,2.1,0,0,0,73.44,41H56Zm-8,0c0,3.29,0,6.58,0,9.87a2,2,0,1,0,4,0Q52,41,52,31.1a1.93,1.93,0,0,0-1.28-1.91,2,2,0,0,0-2.68,2C48,34.42,48,37.67,48,40.91Z"/><path d="M69.87,29a6,6,0,1,1,5.95-6A5.93,5.93,0,0,1,69.87,29Zm0-4a2,2,0,0,0,.07-4,2.07,2.07,0,0,0-2,1.95A2,2,0,0,0,69.84,25.05Z"/><path d="M60,33v-3.9h3.89V33Z"/><path d="M36.1,23.07a6,6,0,1,1-6-6A6,6,0,0,1,36.1,23.07Zm-6-2a2,2,0,1,0,2,2A2.06,2.06,0,0,0,30.14,21.09Z"/><path d="M36.12,33V29.08H40V33Z"/><path d="M36.11,54.86a6,6,0,1,1,5.94-6A5.93,5.93,0,0,1,36.11,54.86Zm0-7.94a2,2,0,1,0,2,2A2,2,0,0,0,36.11,46.92Z"/><path d="M69.86,48.94a6,6,0,1,1-5.92-6A5.94,5.94,0,0,1,69.86,48.94Zm-4,0a2,2,0,1,0-2,2A2,2,0,0,0,65.88,48.91Z"/></svg>