<svg id="Livello_1" data-name="Livello 1" xmlns="http://www.w3.org/2000/svg" viewBox="0 0 100 66"><title>iconTavola disegno 120</title><path d="M89.6,21.09c-.32,1-.59,2-1,3a1.59,1.59,0,0,1-.94.82,1.12,1.12,0,0,1-1-.37,1.63,1.63,0,0,1-.14-1.29A9.25,9.25,0,0,0,87.27,19a6.14,6.14,0,0,0-1.18-3.24c-.7-1-1.48-1.86-2.32-2.91-.53.57-1,1.07-1.44,1.54a1.24,1.24,0,0,1-2,0c-.36-.35-.69-.72-1-1.05-.65.33-.71.7-.35,1.23s.74,1.23,1.1,1.86c2,3.47,1.57,6.6-1.25,9.48a2.86,2.86,0,0,1-.56.39,1.25,1.25,0,0,0,1.45.89,10.27,10.27,0,0,0,4-1,1.15,1.15,0,0,1,1.71.44,1.13,1.13,0,0,1-.65,1.59,14.54,14.54,0,0,1-2.06.83c-.71.22-1.44.33-2.21.5A13.65,13.65,0,0,1,82.2,35c.11,1.58.08,3.18.08,4.77,0,3.26,1.56,5,4.8,5.38,1.23.14,1.66.59,1.67,1.82q0,7.77,0,15.52a2.8,2.8,0,0,1-3,3c-1.2,0-2.44.23-3.56-.46a.47.47,0,0,0-.41,0,6.61,6.61,0,0,1-4,.33,2.67,2.67,0,0,1-2.36-2.88c0-3.55,0-7.11,0-10.67a1,1,0,0,0-.65-1.06,40.57,40.57,0,0,1-3.7-2.35,1.16,1.16,0,0,1-.36-1.8c.47-.55,1.14-.54,1.83,0a13.87,13.87,0,0,0,8.83,3.27c1.39,0,1.83.46,1.83,1.83,0,3.48,0,7,0,10.44,0,.76.32,1,1,1,2.35.11,2.35.12,2.35-2.2V47.41c-.59-.17-1.16-.31-1.72-.5A6.63,6.63,0,0,1,80,40.28a45.82,45.82,0,0,0-.27-6.1,11.92,11.92,0,0,0-10.66-9.8c-3.6-.22-7.21-.13-10.81-.15s-7.36,0-11,0A11.32,11.32,0,0,1,39,20.86l-5.62-5.53c-.07.18-.12.4-.22.61a1.1,1.1,0,0,1-1.33.68A1,1,0,0,1,31,15.48c.07-.66.26-1.31.36-2a.86.86,0,0,0-.11-.6A38.43,38.43,0,0,0,28.38,9.6v2c0,1.37-.37,1.82-1.73,1.68a2.58,2.58,0,0,0-3,1.7A15,15,0,0,1,22,17.72,3.9,3.9,0,0,1,20.57,19c-1.57.74-3.19,1.36-4.79,2,.51.88.7,1,1.58.65,1.12-.39,2.24-.8,3.37-1.18a1.17,1.17,0,0,1,1.64.67c.23.62-.09,1.18-.86,1.49l-1.26.48c2,.28,3.94.48,5.82.85a29.12,29.12,0,0,1,3.82,1.2c.85.31,1.14,1,.85,1.62s-.92.83-1.7.53L28.35,27c.53,5.73,6.34,12.2,11.88,13.19-.08-.31-.14-.58-.23-.85a19.64,19.64,0,0,0-6.32-9.29,2,2,0,0,1-.58-.66A1.07,1.07,0,0,1,33.48,28a1.16,1.16,0,0,1,1.55.18,22,22,0,0,1,7,9.85,29.93,29.93,0,0,1,1.34,8.35c.31,5,.72,9.91,1,14.87.11,2,.24,1.82,2.06,1.83h.38c1,0,1.07-.12,1.07-1.07V40.56a5.12,5.12,0,0,1,0-.68,1.08,1.08,0,0,1,1.07-1,1,1,0,0,1,1.18.91c.06.31.07.63.11,1H67.78c1.14,0,1.36.17,1.71,1.24.14.42.32.83.46,1.25a1.14,1.14,0,0,1-.59,1.44c-.54.24-1.32.08-1.45-.49-.29-1.23-1.14-1.11-2-1.11-4.83,0-9.65,0-14.48,0H50.15v.79q0,9,0,18c0,2.34-1.09,3.43-3.41,3.44-.6,0-1.19,0-1.79,0a2.85,2.85,0,0,1-2.81-2.72Q41.48,53,40.8,43.35a2,2,0,0,0-.29-.61,2.06,2.06,0,0,0-.5.36c-1.85,2.49-3.68,5-5.54,7.48a1,1,0,0,0-.11,1.23c.55,1.14,1.07,2.3,1.59,3.45a2,2,0,0,1-1.15,3c-1.19.51-2.38,1-3.57,1.49a2,2,0,0,1-2.79-1.06c-1.1-2.14-2.18-4.29-3.29-6.43a3,3,0,0,1,.24-3.35q3.28-4.71,6.55-9.43c.14-.2.26-.41.44-.69a16.86,16.86,0,0,1-4.9-6.92c-.51-1.18-.87-2.43-1.3-3.64-.13-.37-.28-.74-.43-1.11a1.71,1.71,0,0,0-1.54-1.18c-2.1-.17-4.2-.44-6.3-.64a2.93,2.93,0,0,1-2.06-.87c-.54-.58-1.16-1.09-1.74-1.63-1.46-1.36-1.18-3.07.64-3.85,1.48-.63,3-1.21,4.45-1.89a2.86,2.86,0,0,0,1.12-1c.77-1.16,1.5-2.35,2.17-3.56A2.62,2.62,0,0,1,25.17,11c.26,0,.53,0,.88,0,0-1.27,0-2.45,0-3.64q0-1.41,1-1.74a1.53,1.53,0,0,1,1.86.73,113.69,113.69,0,0,0,11.72,12.9A9.3,9.3,0,0,0,47.42,22H67.94A14.15,14.15,0,0,1,76,24.55l.42.29c2.12-1.48,3.17-3.92,2.17-6.13-.43-.94-1-1.84-1.49-2.74a12.88,12.88,0,0,1-1.91-5.12C74.69,5.57,77.8,1.14,83.77.94c1,0,1.52.6,1.3,1.64C84.76,4,84.47,5.49,84.2,7a5,5,0,0,0,1.21,4.22c.7.88,1.42,1.73,2.13,2.6a11,11,0,0,1,2.06,4.47ZM33.82,56.14c-.55-1.19-1-2.3-1.58-3.39a3.14,3.14,0,0,1,.37-3.55c1.45-1.92,2.87-3.87,4.3-5.8l1-1.36-3.65-1.87c-2.35,3.38-4.7,6.74-7,10.13a1.14,1.14,0,0,0,0,.94c.49,1.06,1,2.09,1.58,3.13l1.62,3.17ZM77.66,51.8v.81c0,2.78,0,5.57,0,8.35,0,2.26,0,2.26,2.29,2.15.13,0,.29,0,.36,0s.5-.4.51-.61c0-3.27,0-6.55,0-9.83a.65.65,0,0,0-.38-.48C79.55,52,78.64,51.92,77.66,51.8ZM82.31,3.53c-3.9.41-5.54,4.78-4.53,8l.38-.36c.86-.84,1.34-.84,2.19,0,.3.32.55.7.83,1.06a7.35,7.35,0,0,1,.66-.62,1.09,1.09,0,0,0,.38-1.51A5,5,0,0,1,81.86,8C81.94,6.51,82.15,5,82.31,3.53Z"/><path d="M26.69,17.16a1.11,1.11,0,0,1-1.14,1.13,1.14,1.14,0,1,1,1.14-1.13Z"/></svg>