<svg id="Livello_1" data-name="Livello 1" xmlns="http://www.w3.org/2000/svg" viewBox="0 0 100 66"><defs><style>.cls-1{fill:#060606;}</style></defs><title>iconTavola disegno 148</title><path class="cls-1" d="M69.53,19.82h.27l3.77-3.77L69.8,12.28l-4,4a26.65,26.65,0,0,0-12.93-4.58V6.08h5.38V.7H42.05V6.08h5.39v5.66a26.65,26.65,0,0,0-12.93,4.58l-4-4L26.7,16.05l3.77,3.77a26.94,26.94,0,1,0,39.06,0ZM50.13,60A21.55,21.55,0,1,1,71.68,38.4,21.54,21.54,0,0,1,50.13,60Z"/><path class="cls-1" d="M50.13,19.55A18.86,18.86,0,1,0,69,38.4,18.85,18.85,0,0,0,50.13,19.55Zm2.43,21A3.24,3.24,0,0,1,48,36l12.93-8.35Z"/></svg>