<svg id="Livello_1" data-name="Livello 1" xmlns="http://www.w3.org/2000/svg" viewBox="0 0 100 66"><defs><style>.cls-1{fill:#060606;}</style></defs><title>iconTavola disegno 128</title><path class="cls-1" d="M54.16,58H48.85a1.28,1.28,0,1,0,0,2.55h5.31a1.28,1.28,0,0,0,0-2.55Z"/><path class="cls-1" d="M77,10.55H69.36V7.77A3.82,3.82,0,0,0,68.09.34H34.91a3.82,3.82,0,0,0-1.27,7.43v2.78H26a1.27,1.27,0,0,0-1.27,1.27v8.93A10.22,10.22,0,0,0,34.91,31H36c.25.43.51.85.79,1.26a18,18,0,0,0,7.09,6c0,.15,0,.3,0,.45a3.83,3.83,0,0,0,2.89,3.71C45.2,47.53,42.48,52.9,39.25,52.9H36.19A1.28,1.28,0,0,0,34.92,54L33.65,64.23a1.26,1.26,0,0,0,.31,1,1.28,1.28,0,0,0,.95.43H68.09a1.28,1.28,0,0,0,1-.43,1.23,1.23,0,0,0,.31-1L68.08,54a1.28,1.28,0,0,0-1.27-1.12H63.75c-2,0-3.6-2-4.65-3.77a30.56,30.56,0,0,1-2.84-6.71,3.84,3.84,0,0,0,2.9-3.71,3.4,3.4,0,0,0,0-.45,17.87,17.87,0,0,0,7.09-6c.28-.4.54-.82.79-1.25h1.08a10.22,10.22,0,0,0,10.2-10.21V11.82A1.27,1.27,0,0,0,77,10.55ZM27.26,20.75V13.1h6.38v9a17.57,17.57,0,0,0,1.15,6.28A7.66,7.66,0,0,1,27.26,20.75ZM66.64,63.11H36.36l1-7.66H65.68ZM58.72,52.9H44.28a15.27,15.27,0,0,0,1.79-2.44,33.15,33.15,0,0,0,3.29-7.92h4.28a33.86,33.86,0,0,0,3.28,7.91A16,16,0,0,0,58.72,52.9ZM55.33,40H47.67a1.28,1.28,0,0,1,0-2.56h7.66a1.28,1.28,0,0,1,0,2.56ZM58,36a3.82,3.82,0,0,0-2.67-1.09H47.67A3.82,3.82,0,0,0,45,36a15.25,15.25,0,0,1-8.81-13.85V8h9.57a1.28,1.28,0,0,0,0-2.55H34.91a1.28,1.28,0,0,1,0-2.55H68.09a1.28,1.28,0,0,1,0,2.55H57.24a1.28,1.28,0,0,0,0,2.55h9.57V22.12A15.25,15.25,0,0,1,58,36ZM75.74,20.75a7.66,7.66,0,0,1-7.53,7.65,17.57,17.57,0,0,0,1.15-6.28v-9h6.38Z"/><path class="cls-1" d="M58,17l-2.86-.51-1.42-2.62h0a2.64,2.64,0,0,0-1-1,2.57,2.57,0,0,0-3.45,1l-1.36,2.57L45,17a2.49,2.49,0,0,0-1.36.68,2.54,2.54,0,0,0-.07,3.61l2,2.09-.37,2.82A2.55,2.55,0,0,0,46.91,29a2.43,2.43,0,0,0,.84.14,2.53,2.53,0,0,0,1.11-.25l2.61-1.28,2.69,1.29a2.55,2.55,0,0,0,3.13-.77,2.55,2.55,0,0,0,.49-1.89l-.4-2.88,2-2.08A2.55,2.55,0,0,0,58,17Zm-.5,2.56L55.1,22.09a1.28,1.28,0,0,0-.33,1.06l.49,3.48L52,25.09a1.25,1.25,0,0,0-1.1,0l-3.17,1.54a.29.29,0,0,0,0-.09l.45-3.47A1.27,1.27,0,0,0,47.87,22l-2.45-2.53h0l3.5-.65a1.27,1.27,0,0,0,.89-.65l1.65-3.1,1.71,3.15a1.25,1.25,0,0,0,.9.64l3.47.62-.06.05Z"/><path class="cls-1" d="M51.5,8a1.28,1.28,0,1,0,0-2.55h0A1.28,1.28,0,1,0,51.5,8Z"/></svg>