<svg id="Livello_1" data-name="Livello 1" xmlns="http://www.w3.org/2000/svg" viewBox="0 0 100 66"><defs><style>.cls-1{fill:#030402;fill-rule:evenodd;}</style></defs><title>iconTavola disegno 31</title><path class="cls-1" d="M82.37,46.44c3.95.17,11.61.23,11.44-1.91s-7.17-2.81-10.75-3a7.28,7.28,0,0,1-.89-1.93,193.24,193.24,0,0,1-5-19.63c-.68-3.31-1.33-6.63-2-9.94-.58-2.91-.72-6.39-2.46-8.92C72,0,62.76,13.22,62.23,14s-1.85,1.76-2.61,1.62a47.68,47.68,0,0,0-17.42.58A4,4,0,0,1,39,14.9c-3.17-4-6.19-10.84-10.89-13.21-2.27,2.44-1.95,6.46-2.3,9.55-.42,3.75-.82,7.5-1.28,11.24-.39,3.21-2.67,16.7-5.81,20.91C15.43,43.9,7,45.53,7.7,48.75s9.07.57,12.39-.61a4.1,4.1,0,0,1,.58,1.09,3.34,3.34,0,0,1,.24,1c-2.48,1.17-10.13,5-8.4,7.64,1.59,2.39,8.06-1.26,11-3.07a1.42,1.42,0,0,1,.5.28c8.1,7.7,18.12,9.88,29,9.47,8.38-.33,16.52-2.17,22.72-7.91A19,19,0,0,1,80,53.21c2.72,1.42,9,4.28,10.4,1.53s-5.83-4.82-8.83-5.51C81.41,47.72,81.72,46.93,82.37,46.44ZM40.42,36.3a5.77,5.77,0,0,1-2.49,4.24c-5.53,3.48-9.39-4-5.2-8.07C37.59,27.75,40.85,32.2,40.42,36.3Zm30.69-1.24c-.89,5.77-5.06,5.81-7.07,3.7-2.59-2.7-2.52-8.79,3.1-9.35C70.18,29.1,71.44,32.91,71.11,35.06Z"/></svg>