<svg id="Livello_1" data-name="Livello 1" xmlns="http://www.w3.org/2000/svg" viewBox="0 0 100 66"><defs><style>.cls-1{fill:#060606;}</style></defs><title>iconTavola disegno 136</title><path class="cls-1" d="M99.24,32.4a2.39,2.39,0,0,0-1.75-1H77.1L63.36,15.61a1.74,1.74,0,0,0-1.2-.55H45.8a.4.4,0,0,0-.11-.33L39.58,3.17a1.7,1.7,0,0,0-1.41-.87H30a1.68,1.68,0,0,0-1.64,1.64V15H21.81a1.88,1.88,0,0,0-1.42.76l-9.27,15.6H6.32A1.6,1.6,0,0,0,4.69,33a31.45,31.45,0,0,0,2.5,12.32,12.6,12.6,0,0,0-4.9-.87,1.64,1.64,0,1,0,0,3.27c3.6,0,5.34,1.31,7.41,2.94s4.58,3.6,9.38,3.6h1.53a1.48,1.48,0,0,0,.65-.22c3.38-.43,5.35-2.07,7.2-3.38,2-1.52,3.71-2.94,7.42-2.94s5.34,1.31,7.41,2.94,4.58,3.6,9.38,3.6,7.2-2,9.38-3.6c2-1.52,3.71-2.94,7.42-2.94s5.34,1.31,7.41,2.94,4.58,3.6,9.38,3.6a1.64,1.64,0,1,0,0-3.27,8.5,8.5,0,0,1-3.05-.44l15.7-16.35A1.71,1.71,0,0,0,99.24,32.4ZM39.48,10.15l2.61,5H31.62v-5Zm-8-4.47h5.57l.65,1.2H31.51V5.68ZM22.79,18.33H61.4l5.12,5.89H19.19Zm-5.45,9.16h52l3.49,3.93H14.94Zm62.6,21.6-1.31-1c-2.18-1.63-4.58-3.59-9.38-3.59s-7.2,2-9.38,3.59c-2,1.53-3.71,2.95-7.42,2.95S47.11,49.74,45,48.1s-4.58-3.59-9.38-3.59-7.2,2-9.38,3.59c-1.85,1.42-3.49,2.73-6.65,2.84a10.08,10.08,0,0,1-7-3c-3.71-3.82-4.58-10.26-4.8-13.2H93.57Z"/><path class="cls-1" d="M86.26,60.43c-3.6,0-5.34-1.31-7.41-3s-4.58-3.6-9.38-3.6-7.2,2-9.38,3.6c-2,1.53-3.71,3-7.42,3s-5.34-1.31-7.41-3-4.58-3.6-9.38-3.6-7.2,2-9.38,3.6c-2,1.53-3.71,3-7.42,3s-5.34-1.31-7.41-3-4.58-3.6-9.38-3.6a1.64,1.64,0,1,0,0,3.28c3.6,0,5.34,1.31,7.41,2.94a13.56,13.56,0,0,0,9.38,3.6c4.69,0,7.2-2,9.38-3.6,2-1.53,3.71-2.94,7.42-2.94s5.34,1.31,7.41,2.94,4.58,3.6,9.38,3.6,7.2-2,9.38-3.6c2-1.53,3.71-2.94,7.42-2.94s5.34,1.31,7.41,2.94,4.58,3.6,9.38,3.6a1.64,1.64,0,1,0,0-3.27Z"/></svg>