<svg id="Livello_1" data-name="Livello 1" xmlns="http://www.w3.org/2000/svg" viewBox="0 0 100 66"><title>iconTavola disegno 79</title><path d="M78.54,65.24c-.8.11-1.59.29-2.38.44H74.77c-.82-.14-1.66-.21-2.46-.43C65.14,63.29,60,59,57.54,51.88c-1.48-4.31-.36-8.15,3.27-11.1.07-.05.18-.07.24-.18a2.76,2.76,0,0,1-1.89-1.93l-8.09,8.51a4.66,4.66,0,0,1,.76,3.69c.89.29,1.78.55,2.63.89a2.22,2.22,0,0,1,1.15.8c.62,1.19.4,1.72-.75,2-1.33.28-2.68.48-4.14.74.07-.13,0-.09,0-.06.09.43.27.92-.32,1.11s-.76-.36-.94-.77L48.85,54a4.78,4.78,0,0,1-4.22-.83,3.36,3.36,0,0,0-1.17-.3c-.42.67-.78,1.32-1.22,1.91a9.35,9.35,0,0,1-7.44,3.9c-4.56.22-8.42-1.56-11.83-4.43a18.17,18.17,0,0,1-6.51-10.11c-.72-3.36-.15-6.43,2.44-8.9a9.59,9.59,0,0,1,6.33-2.32,15.85,15.85,0,0,1,8.69,2l.54.24,1.76-3.39-.82-.48a53.33,53.33,0,0,1-7.81-5.54c-2.71-2.2-3.07-4.91-2.09-8a10.34,10.34,0,0,1,2.85-4.22A21.91,21.91,0,0,1,39.22,7.22a27.63,27.63,0,0,1,7.49-.14c1.11.07,2.22.2,3.41.31a11.19,11.19,0,0,1,0-1.64c.1-.68.32-1.34.48-2a4.49,4.49,0,0,0,.23-1.34c-.11-1.1,0-1.24,1.06-1.18l.61.05L52.23.63a22.62,22.62,0,0,1,2.51.46,11.85,11.85,0,0,1,5.68,3.85,5.87,5.87,0,0,1,1,4.62,1.09,1.09,0,0,1-1.06,1.11.4.4,0,0,0-.25.19,1.85,1.85,0,0,1-1.3,1.24c-.12,0-.21.34-.25.53-.12.67-.21,1.36-.28,1.87-.44.13-.87.12-1,.32-.4.45-.68,1-.15,1.59a4.38,4.38,0,0,1,.61,1A6,6,0,0,0,61,20.35a9.67,9.67,0,0,1,2.13,1.52c.94.75,1.83,1.56,2.76,2.35a3,3,0,0,1,2.93-.63c1.09.26,2.19.44,3.28.67.34.06.61.07.79-.32s.63-.4,1-.22.71.55.51,1.06a1.46,1.46,0,0,1-1.27,1l-.63.08a18.33,18.33,0,0,1-.47,2,1.29,1.29,0,0,1-1.69.95,7.1,7.1,0,0,1-3.67-1.49c-.68-.64-.91-.56-1.5.19s-1.5,1.78-2.15,2.74a7.27,7.27,0,0,0-1,2.11c-.1.36.21.85.37,1.26.1.26.34.46.41.72a1.8,1.8,0,0,0,2.2,1.42c.08,0,.19,0,.25-.05a.72.72,0,0,1,1.18.16,1,1,0,0,1,0,1.46c-.28.3-.6.56-1,1a4.39,4.39,0,0,0,1.36.42c5.49-.27,9.91,2,13.65,5.8a16.93,16.93,0,0,1,5.08,9.76c.48,3.7-.35,7-3.52,9.34m-.56.47L81.3,64M62.78,41.61l-.66.42a7.76,7.76,0,0,0-3,8.95c2.24,6.78,7.08,10.84,13.94,12.6a10,10,0,0,0,4.91-.1c4.29-1,6.5-4.53,5.78-9-1.06-6.67-7.4-12.91-14.11-13.82a27.12,27.12,0,0,0-3.5,0c.29.48.52.9.8,1.3q2.46,3.59,4.94,7.16c.29.41.48,1,1.19.83.1,0,.29.15.37.28a1.62,1.62,0,0,1-.71,2,1.43,1.43,0,0,0-1,1.14,2.14,2.14,0,0,1-.81,1,3.28,3.28,0,0,1-1,.31.61.61,0,0,1-.79-.68,1.72,1.72,0,0,0-.2-.85,60.18,60.18,0,0,1-5.62-10Zm-29.18-5a32.7,32.7,0,0,0-3.06-1.31,15.28,15.28,0,0,0-6-.58c-3.17.28-5.48,2-6.3,4.76a7.82,7.82,0,0,0,0,4.74A17.29,17.29,0,0,0,31.59,56.47a8.92,8.92,0,0,0,8.64-2.25,20.93,20.93,0,0,0,1.36-1.66l-.49-.12c-2.68-.54-5.36-1.06-8.05-1.61-1.37-.28-1.67-.08-1.64-1.9,0,0,0-.07-.12-.2a24.5,24.5,0,0,0-2.8-.4c-.62,0-.77-.08-.64-.7a5.06,5.06,0,0,0,.24-1.78c-.08-.49-.56-.91-.85-1.36A2,2,0,0,1,27,42.32a1.85,1.85,0,0,1,2-.89,15.92,15.92,0,0,1,1.84.39Zm11.19-4c-.24.84-.5,1.6-.67,2.38a2.32,2.32,0,0,0,0,1.14c.39,1.48.85,2.93,1.24,4.41s.8,3.22,1.16,4.72l3.18.43,7.48-8.19-.35-.21-8-4.45a1.78,1.78,0,0,0-.71-.22C47,32.66,45.9,32.67,44.79,32.67ZM52,16.08c-.83.35-1.63.69-2.43,1.06a.76.76,0,0,0-.28.37,7.59,7.59,0,0,0-.09,6.09,12.31,12.31,0,0,1,1,4.57c0,.21,0,.51.13.59a7.45,7.45,0,0,0,2.54,1.61,40.41,40.41,0,0,0,5.34.33c-.21-.64-.42-1.2-.57-1.77-.27-1,0-1.44,1.12-1.44a26,26,0,0,1,3.06.13,1.89,1.89,0,0,0,2.06-1.27c-1.63-.68-3.21-1.42-4.84-2A10.4,10.4,0,0,1,53.43,19C52.91,18.09,52.47,17.09,52,16.08Zm-5.6,14c-.47-1.08-1-2.18-1.43-3.32-.64-1.74-1.19-3.51-1.77-5.26-.42-1.27-.41-1.27-1.74-1-1.1.25-1.24.45-.74,1.46a11.78,11.78,0,0,1,1.37,5.12,2.13,2.13,0,0,0,1.09,2.18c.19.1.31.35.48.5a1,1,0,0,0,.45.27C44.87,30.09,45.65,30.07,46.38,30.07ZM38.73,46.48l.11-.18a15.31,15.31,0,0,0-2.53-1.76c-1.79-.79-2.42-1.9-1.66-3.67a5.11,5.11,0,0,1,1.27-1.37c.14-.14.46-.22.48-.35a1,1,0,0,0-.16-.8,6.31,6.31,0,0,0-1.1-.78L31.87,43.5Zm26.45-3.79c.87,3.38,3,6.19,4.55,9.3a1.08,1.08,0,0,1,.34-.1c.5,0,1-.13,1.15-.68s.32-1.26-.39-1.7a1.67,1.67,0,0,1-.38-.41ZM41.43,49.27l.06-.15-8.64-4v2.7ZM42.21,51,33.42,49.2v.94l8.49,1.65ZM55.69,32.83,55.6,33l3.2,2.18c.29.19.61.27.6-.23,0-.69-.09-1.38-.15-2.14Zm-25.35,10c-1.15-.82-2.05-.82-2.57-.1s-.24,1.15.44,1.63Zm7.45-10.12L36,36.08l.82.4a4.13,4.13,0,0,1,1.33-2.56C38.57,33.51,38.29,33.09,37.79,32.72Z"/></svg>