<svg id="Livello_1" data-name="Livello 1" xmlns="http://www.w3.org/2000/svg" viewBox="0 0 100 66"><defs><style>.cls-1{fill:#060606;}</style></defs><title>iconTavola disegno 60</title><path class="cls-1" d="M28.84,37a3.81,3.81,0,1,0,3.81,3.8A3.81,3.81,0,0,0,28.84,37Zm0,5.07a1.27,1.27,0,1,1,1.27-1.27A1.26,1.26,0,0,1,28.84,42.09Z"/><path class="cls-1" d="M28.84,29.41A3.81,3.81,0,1,0,25,25.6,3.82,3.82,0,0,0,28.84,29.41Zm0-5.07a1.27,1.27,0,1,1-1.26,1.26A1.27,1.27,0,0,1,28.84,24.34Z"/><path class="cls-1" d="M22.5,33.21a4.27,4.27,0,0,1-.87,2.48,8.9,8.9,0,0,0-1.23,7.92,8.73,8.73,0,0,0,6.79,5.94,6.27,6.27,0,0,0,4,1.8,2.95,2.95,0,0,1,3.08,3.08,6.22,6.22,0,0,0,1.8,4,8.91,8.91,0,0,0,8.72,7.22A8.75,8.75,0,0,0,50.05,64a4,4,0,0,1,2.38-.81,4.29,4.29,0,0,1,2.48.88,8.86,8.86,0,0,0,7.92,1.22,8.7,8.7,0,0,0,5.66-5.66,9.17,9.17,0,0,0,.28-1.12,6.27,6.27,0,0,0,1.8-4,2.95,2.95,0,0,1,3.08-3.08,6.24,6.24,0,0,0,4-1.81,8.9,8.9,0,0,0,7.22-8.72,8.66,8.66,0,0,0-.44-2.72,1.26,1.26,0,0,0-1.6-.81,1.28,1.28,0,0,0-.81,1.6,6,6,0,0,1,.31,1.93,6.36,6.36,0,0,1-5.48,6.29,6.26,6.26,0,0,1-7-4.58h0a6.3,6.3,0,0,1,1-5.34,6.78,6.78,0,0,0,1.36-4,6.52,6.52,0,0,0-1.3-3.89,6.18,6.18,0,0,1-1.24-3.72A6,6,0,0,1,69.9,24a6.38,6.38,0,0,1,7-4.64A6.16,6.16,0,0,1,82,23.57a6.41,6.41,0,0,1,0,4,1.28,1.28,0,0,0,.81,1.6,1.27,1.27,0,0,0,1.6-.81,8.94,8.94,0,0,0,0-5.51,8.7,8.7,0,0,0-6.78-5.94,6.25,6.25,0,0,0-4-1.8,3.33,3.33,0,0,1-2.22-.86A3.36,3.36,0,0,1,70.57,12a6.26,6.26,0,0,0-1.81-4A8.9,8.9,0,0,0,60,.75a8.75,8.75,0,0,0-5.23,1.73,3.92,3.92,0,0,1-2.37.8A4.33,4.33,0,0,1,50,2.41,8.89,8.89,0,0,0,42,1.18,8.72,8.72,0,0,0,36.1,8a6.22,6.22,0,0,0-1.8,4,3.36,3.36,0,0,1-.86,2.22,3.36,3.36,0,0,1-2.22.86,6.25,6.25,0,0,0-4,1.8A8.91,8.91,0,0,0,20,25.6a8.75,8.75,0,0,0,1.73,5.23,3.94,3.94,0,0,1,.8,2.38ZM32.4,49a8.82,8.82,0,0,0,3.32-2.52,5.16,5.16,0,0,0,3.45,3.48,8.82,8.82,0,0,0-2.49,3.28,5.45,5.45,0,0,0-1.45-2.77A5.55,5.55,0,0,0,32.4,49Zm3.66-18.22a8.73,8.73,0,0,0,1.47-7A6.29,6.29,0,0,0,38,21.81,3,3,0,0,1,41,18.73,6.29,6.29,0,0,0,43,18.31a9,9,0,0,0,1.86.19,8.75,8.75,0,0,0,5.23-1.73,3.94,3.94,0,0,1,2.38-.8,4.27,4.27,0,0,1,2.48.87,8.74,8.74,0,0,0,7,1.47,6.22,6.22,0,0,0,1.92.42,3.29,3.29,0,0,1,2.22.87,3.33,3.33,0,0,1,.86,2.22,6.36,6.36,0,0,0,.43,1.93,8.81,8.81,0,0,0-.2,1.85,8.7,8.7,0,0,0,1.74,5.23,4,4,0,0,1,.8,2.38,4.27,4.27,0,0,1-.87,2.48,8.72,8.72,0,0,0-1.47,7,6.3,6.3,0,0,0-.43,1.92,2.95,2.95,0,0,1-3.08,3.08,6.6,6.6,0,0,0-1.93.43A8.9,8.9,0,0,0,60,47.93a8.75,8.75,0,0,0-5.23,1.73,4,4,0,0,1-2.37.8A4.33,4.33,0,0,1,50,49.59a8.69,8.69,0,0,0-7-1.47A6.6,6.6,0,0,0,41,47.69a3.33,3.33,0,0,1-2.21-.86A3.29,3.29,0,0,1,38,44.61a6.14,6.14,0,0,0-.43-1.93,8.9,8.9,0,0,0,.2-1.86A8.72,8.72,0,0,0,36,35.6a4,4,0,0,1-.81-2.38,4.34,4.34,0,0,1,.88-2.49Zm26,32.09A6.23,6.23,0,0,1,56.4,62a6.83,6.83,0,0,0-4-1.35,6.5,6.5,0,0,0-3.89,1.3,6.2,6.2,0,0,1-3.72,1.23,6.36,6.36,0,0,1-6.28-5.48,6.25,6.25,0,0,1,4.36-6.91,6.39,6.39,0,0,1,5.57.89,6.78,6.78,0,0,0,4,1.36,6.47,6.47,0,0,0,3.88-1.3A6.23,6.23,0,0,1,60,50.46a6.38,6.38,0,0,1,6.29,7.21,6.16,6.16,0,0,1-4.26,5.15ZM72.41,49a5.29,5.29,0,0,0-4.24,4.3,8.9,8.9,0,0,0-2.53-3.33,5.19,5.19,0,0,0,3.49-3.46A8.71,8.71,0,0,0,72.41,49Zm.07-31.48A8.88,8.88,0,0,0,69.15,20a5.15,5.15,0,0,0-3.46-3.48,8.71,8.71,0,0,0,2.49-3.28,5.29,5.29,0,0,0,4.3,4.24ZM42.79,3.6a6.28,6.28,0,0,1,5.68.87,6.83,6.83,0,0,0,4,1.35,6.47,6.47,0,0,0,3.88-1.3A6.23,6.23,0,0,1,60,3.28a6.37,6.37,0,0,1,6.29,5.48,6.31,6.31,0,0,1-9.93,6,6.83,6.83,0,0,0-4-1.35,6.5,6.5,0,0,0-3.89,1.3A6.18,6.18,0,0,1,44.82,16a6.36,6.36,0,0,1-6.28-7.21A6.2,6.2,0,0,1,42.79,3.6ZM35.23,16a5.51,5.51,0,0,0,1.47-2.84,9,9,0,0,0,2.52,3.33A5.1,5.1,0,0,0,35.74,20a8.74,8.74,0,0,0-3.28-2.5A5.45,5.45,0,0,0,35.23,16Zm-6.39,3.25a6.31,6.31,0,0,1,5.16,10,6.83,6.83,0,0,0-1.35,4A6.52,6.52,0,0,0,34,37.11a6.17,6.17,0,0,1,1.23,3.71A6.32,6.32,0,0,1,28,47.11a6.16,6.16,0,0,1-5.2-4.26,6.26,6.26,0,0,1,.87-5.67,6.83,6.83,0,0,0,1.35-4,6.52,6.52,0,0,0-1.3-3.89A6.18,6.18,0,0,1,22.5,25.6a6.36,6.36,0,0,1,6.34-6.34Z"/><path class="cls-1" d="M76,37a3.81,3.81,0,1,0,3.81,3.8A3.8,3.8,0,0,0,76,37Zm0,5.07a1.27,1.27,0,1,1,1.27-1.27A1.27,1.27,0,0,1,76,42.09Z"/><path class="cls-1" d="M76,21.8a3.81,3.81,0,1,0,3.81,3.8A3.8,3.8,0,0,0,76,21.8Zm0,5.07a1.27,1.27,0,1,1,1.27-1.27A1.27,1.27,0,0,1,76,26.87Z"/><path class="cls-1" d="M60,53a3.81,3.81,0,1,0,3.81,3.8A3.8,3.8,0,0,0,60,53Zm0,5.07a1.27,1.27,0,1,1,1.27-1.27A1.27,1.27,0,0,1,60,58.07Z"/><path class="cls-1" d="M60,13.43a3.81,3.81,0,1,0-3.8-3.81A3.82,3.82,0,0,0,60,13.43Zm0-5.07a1.27,1.27,0,1,1-1.27,1.26A1.27,1.27,0,0,1,60,8.36Z"/><path class="cls-1" d="M44.82,13.43A3.81,3.81,0,1,0,41,9.62,3.82,3.82,0,0,0,44.82,13.43Zm0-5.07a1.27,1.27,0,1,1-1.26,1.26A1.27,1.27,0,0,1,44.82,8.36Z"/><path class="cls-1" d="M44.82,53a3.81,3.81,0,1,0,3.81,3.8A3.8,3.8,0,0,0,44.82,53Zm0,5.07a1.27,1.27,0,1,1,1.27-1.27A1.26,1.26,0,0,1,44.82,58.07Z"/><circle class="cls-1" cx="81.09" cy="33.21" r="1.27"/></svg>