<svg id="Livello_1" data-name="Livello 1" xmlns="http://www.w3.org/2000/svg" viewBox="0 0 100 66"><title>iconTavola disegno 97</title><path d="M50.08.46a23.13,23.13,0,0,1,8.2,1.29,15.33,15.33,0,0,1,9.72,15,14.73,14.73,0,0,1-1.15,4.31,5.7,5.7,0,0,0,.49,5.76,4,4,0,0,1-.49,5.64,4.06,4.06,0,0,1-2.4.89c-2.35.1-3.26.43-4,3.19-.17.65-.29,1.31-.43,2a2.62,2.62,0,0,1-1.81,2.09,23,23,0,0,1-16.47,0,2.62,2.62,0,0,1-1.76-2c-.24-1-.44-2-.75-3a2.72,2.72,0,0,0-2.59-2.1,9.69,9.69,0,0,1-2.53-.4,3.91,3.91,0,0,1-2-5.36,7.21,7.21,0,0,1,.64-1.07,5.13,5.13,0,0,0,.53-5.09A14.92,14.92,0,0,1,43.86,1.09,10.18,10.18,0,0,1,45.58.78C47.08.65,48.58.56,50.08.46ZM41.39,30.28l1.39-.11c2.74-.34,4.36-1.71,4.91-4.15a3.46,3.46,0,0,0-2.49-4.5,12.45,12.45,0,0,0-5.68-.5,3,3,0,0,0-1.62.77,5.23,5.23,0,0,0-1.4,5.07A4.12,4.12,0,0,0,39.64,30,10.73,10.73,0,0,0,41.39,30.28Zm17.25-9.39-.06-.2c-1.5.38-3,.66-4.48,1.16a2.84,2.84,0,0,0-1.91,2.53,4.89,4.89,0,0,0,3.43,5.35,11.4,11.4,0,0,0,4,.39,4.06,4.06,0,0,0,3.79-3,5.13,5.13,0,0,0-1.35-5.3A4,4,0,0,0,60.3,21,8.33,8.33,0,0,0,58.64,20.89Zm-5,13.7a2.11,2.11,0,0,0-.17-.72c-.67-1.28-1.35-2.55-2.09-3.78a1.42,1.42,0,0,0-.82-.63c-1.43-.24-1.77,0-2.48,1.33-.4.76-.85,1.5-1.23,2.27a3.79,3.79,0,0,0-.51,1.48,2.2,2.2,0,0,0,.43,1.57,1.52,1.52,0,0,0,1.94.09,1.9,1.9,0,0,1,2.53,0C52.46,37,53.67,36.21,53.68,34.59Z"/><path d="M57,52.33c4,1.25,7.57,3.11,11.59,3.32a38.49,38.49,0,0,0,5.21-.47,9,9,0,0,1,2.07,0,3,3,0,0,1,2.39,2.29,2.32,2.32,0,0,1-.8,2.68,5.89,5.89,0,0,0-1.58,2.68c-.8,2.51-3.68,3.56-5.42,1.78-3-3-6.69-4.51-10.47-6-3.11-1.2-6.22-2.4-9.34-3.57a1.84,1.84,0,0,0-1.18,0c-4.69,1.81-9.36,3.67-14,5.49a13.31,13.31,0,0,0-4.58,3c-.31.31-.64.61-1,.9a3.41,3.41,0,0,1-5.75-1.63,6.39,6.39,0,0,0-1.6-2.68A2.89,2.89,0,0,1,24,55.26a8.46,8.46,0,0,1,3.21.08,16,16,0,0,0,8.63-.57c2.31-.8,4.62-1.58,7.17-2.45-1.75-.61-3.25-1.19-4.78-1.65-2.68-.82-5.36-1.66-8.08-2.3a35.52,35.52,0,0,0-3.74-.16,10.25,10.25,0,0,1-3.11-.8A2.94,2.94,0,0,1,22.07,43a1.89,1.89,0,0,1,.86-.72,2.55,2.55,0,0,0,1.59-1.8,8.1,8.1,0,0,1,.26-.79,2.25,2.25,0,0,1,3.41-1.2,4.73,4.73,0,0,1,1.37,1.19,12.14,12.14,0,0,0,5.52,4.27c4.82,1.84,9.62,3.75,14.44,5.62a1.44,1.44,0,0,0,.94,0c5-1.93,9.92-3.89,14.9-5.82a11.79,11.79,0,0,0,5-3.92A5.84,5.84,0,0,1,72,38.37a2.15,2.15,0,0,1,3.07,1.06,12.25,12.25,0,0,0,.48,1.24,4.24,4.24,0,0,0,1.27,1.44,2.87,2.87,0,0,1,.4,4.93,5.55,5.55,0,0,1-3.07,1.1c-5.65-.33-10.64,2-15.8,3.68C58,52,57.6,52.11,57,52.33Z"/></svg>