<svg id="Livello_1" data-name="Livello 1" xmlns="http://www.w3.org/2000/svg" viewBox="0 0 100 66"><defs><style>.cls-1{fill:#030402;fill-rule:evenodd;}</style></defs><title>iconTavola disegno 25</title><path class="cls-1" d="M72.71,56a4.17,4.17,0,0,0,2.19-2.93,8.76,8.76,0,0,0-.24-4.46A19.61,19.61,0,0,0,73,44.75a14.5,14.5,0,0,1-1.66-9.53c.36-2.37.94-4.68,1.5-7A19.78,19.78,0,0,0,73,20a22.47,22.47,0,0,0-3.84-8.92A24,24,0,0,0,58.75,2.42,17.71,17.71,0,0,0,48.22,1.18a32.86,32.86,0,0,0-6.74,2.07,22.88,22.88,0,0,0-6.69,4.13,26.67,26.67,0,0,0-5.07,6.45A20.64,20.64,0,0,0,27,21.34a25.64,25.64,0,0,0,.45,9.24,32.83,32.83,0,0,1,.86,4.61,18.79,18.79,0,0,1-.86,6.57c-.44,1.62-1.19,3.12-1.75,4.69a12.58,12.58,0,0,0-.61,6.08,5.84,5.84,0,0,0,1.87,3.83.61.61,0,0,1,.17.78,45,45,0,0,0-1.48,6.06c-.2,1.11.08,1.42,1.21,1.41h.91c2.85,0,5.71,0,8.56-.16,4.33-.19,8.67-.09,13,0,3.32,0,6.64,0,10,0,3.93,0,7.85.09,11.77.14a10.09,10.09,0,0,0,2.13-.15c.7-.14.82-.33.75-1a29.73,29.73,0,0,0-1.47-6.65C72.3,56.38,72.31,56.21,72.71,56ZM34.56,26a24.28,24.28,0,0,1,6.09-6.84,56,56,0,0,0,5.6-4.84c.79-.8,1.53-1.65,2.24-2.52a9.35,9.35,0,0,0,1.83-3.43,20.91,20.91,0,0,0,1.4,2.47,21.91,21.91,0,0,0,4.82,4.45c1.84,1.29,3.7,2.56,5.54,3.85a11.43,11.43,0,0,1,4.36,6.58.69.69,0,0,1,0,.47,23.18,23.18,0,0,1-4.22,7.46,19,19,0,0,1-10.68,6,13,13,0,0,1-7-.66c-5.66-2-8.73-6.27-10.18-11.89A1.35,1.35,0,0,1,34.56,26Zm9.69,18.83a30.42,30.42,0,0,0,2.56,3.11,19.38,19.38,0,0,0,2.27,2.26c.77.56,1.08.6,1.7-.1,1.66-1.89,3.47-3.67,5.07-5.62a3.34,3.34,0,0,0,.49-1.77c1.38.5,1.39.5.95,1.79a8.48,8.48,0,0,1-1.2,2.24,20.16,20.16,0,0,1-5.85,5.49.77.77,0,0,1-1-.07A25.41,25.41,0,0,1,45.93,49c-.88-1-1.68-2.1-2.51-3.15a5.3,5.3,0,0,1-.92-1.55c-.22-.67-.08-1,.58-1.2l.84-.27a1.49,1.49,0,0,1,0,.7A1.78,1.78,0,0,0,44.25,44.81Zm10.92-.53c-1.12,1.17-2.21,2.37-3.29,3.57-.48.53-.92,1.09-1.39,1.63s-.53.6-1.16.07a26.79,26.79,0,0,1-2.48-2.63c-.59-.66-1.09-1.38-1.67-2a2.8,2.8,0,0,1-.55-2.68c.26-.2.52-.08.78,0A15.59,15.59,0,0,0,54.87,42a1.08,1.08,0,0,1,.79-.1h0a1.52,1.52,0,0,1,0,1A1.6,1.6,0,0,1,55.17,44.28ZM73.41,63.14c.1.64,0,.7-.61.74-1.1.08-2.2-.07-3.29-.08q-6.8,0-13.59,0c-.51,0-.82-.06-1-.62a2.14,2.14,0,0,0-2.19-1.44,2.4,2.4,0,0,0-2.28,1.48.85.85,0,0,1-1,.58c-3.87,0-7.74-.11-11.61,0-.37,0-.6-.06-.71-.47a2.55,2.55,0,0,0-4.93,0c-.2.69-.2.69-.88.69-1.34,0-2.69,0-4,0s-1.32,0-1.1-1.2a28.59,28.59,0,0,1,3.34-9.49,19.6,19.6,0,0,1,4.95-5.24,42.23,42.23,0,0,1,5.32-3.57,9.07,9.07,0,0,1,2-.87,4.17,4.17,0,0,0,1.07,2.73,38.66,38.66,0,0,0,3.53,4.34,22.94,22.94,0,0,0,2.34,2.07c1,.68,1.06.66,2.05,0a22.89,22.89,0,0,0,5.78-5.32,8.56,8.56,0,0,0,1.87-3.85c.3-.09.47.09.65.18a53.07,53.07,0,0,1,5.53,3.26,19.19,19.19,0,0,1,6.12,7.08A27.1,27.1,0,0,1,73.41,63.14Z"/><path class="cls-1" d="M55.69,42.88a3.79,3.79,0,0,1,0-1A.93.93,0,0,1,55.69,42.88Z"/><path class="cls-1" d="M45.17,55.65a2.39,2.39,0,0,1-2.42,2.2,2,2,0,0,1-2.09-2,2.6,2.6,0,0,1,2.46-2.5A2.24,2.24,0,0,1,45.17,55.65Z"/><path class="cls-1" d="M37.54,48.73a3.76,3.76,0,0,1-.65,2.16,2.1,2.1,0,0,1-1.63,1,3.89,3.89,0,0,1-2.33-.59c-.31-.19-.35-.38-.07-.71a12,12,0,0,1,3.54-2.74c.78-.42,1.08-.24,1.14.66A1.92,1.92,0,0,1,37.54,48.73Z"/><path class="cls-1" d="M54.52,55.38a2,2,0,0,1,4,.12,2.09,2.09,0,0,1-2.14,2A2,2,0,0,1,54.52,55.38Z"/><path class="cls-1" d="M67,61.3c-.83,0-1.28-.33-1.37-1.06a2.69,2.69,0,0,1,.79-2.41,1.68,1.68,0,0,1,1.75-.44,1.74,1.74,0,0,1,1.27,1.39,2,2,0,0,1-.83,1.94A2.15,2.15,0,0,1,67,61.3Z"/><path class="cls-1" d="M64.2,50.3A2.36,2.36,0,0,1,62,47.41c.14-.59.46-1,1.16-.53a17.16,17.16,0,0,1,2.66,1.9c.54.5.33.81-.12,1.08A2.4,2.4,0,0,1,64.2,50.3Z"/><path class="cls-1" d="M38.84,26.93a2.23,2.23,0,0,1,1-2.12,2.07,2.07,0,0,1,3.31,1.51,2.74,2.74,0,0,1-1.54,2.74,1.8,1.8,0,0,1-2.51-.94A2.29,2.29,0,0,1,38.84,26.93Z"/><path class="cls-1" d="M57.28,26.34a2.21,2.21,0,0,1,2.27-2.43,1.76,1.76,0,0,1,1.7,1.18,3,3,0,0,1-1,3.43,1.69,1.69,0,0,1-2.75-.89A4.37,4.37,0,0,1,57.28,26.34Z"/><path class="cls-1" d="M54.34,26.55c.08.43-.2.6-.44.77a6,6,0,0,1-7,.18,1.65,1.65,0,0,1-.27-.19c-.18-.19-.56-.4-.39-.64s.46.06.67.19a6.31,6.31,0,0,0,4.56.9,9,9,0,0,0,2.1-.93C53.8,26.72,54,26.5,54.34,26.55Z"/><path class="cls-1" d="M57.11,21a.73.73,0,0,1,.69-.77c.35,0,.55.28.52.69s-.33.81-.68.79A.62.62,0,0,1,57.11,21Z"/><path class="cls-1" d="M43.63,21.19a.68.68,0,0,1-.67.67.66.66,0,0,1-.57-.68.63.63,0,1,1,1.24,0Z"/><path class="cls-1" d="M51.68,23.64a.43.43,0,0,1-.56.09,1.2,1.2,0,0,0-1.43.22,1.13,1.13,0,0,1-.21.12c-.08,0-.18.05-.22-.05a.29.29,0,0,1,0-.22,1.66,1.66,0,0,1,1.22-.73A1.12,1.12,0,0,1,51.68,23.64Z"/></svg>