<svg id="Livello_1" data-name="Livello 1" xmlns="http://www.w3.org/2000/svg" viewBox="0 0 100 66"><defs><style>.cls-1{fill:#060606;}</style></defs><title>iconTavola disegno 100</title><path class="cls-1" d="M67.78,38.18c-5-6-11.31-9.36-17.78-9.36s-12.79,3.33-17.78,9.36c-4.49,5.42-7.17,12.25-7.17,18.28,0,2.92.89,5.15,2.66,6.62A10,10,0,0,0,34.31,65a50.34,50.34,0,0,0,8.74-1.1A42.73,42.73,0,0,1,50,63a40.91,40.91,0,0,1,6.38.88c5.7,1.06,12.16,2.26,15.9-.84A8.11,8.11,0,0,0,75,56.46C75,50.43,72.27,43.6,67.78,38.18Z"/><path class="cls-1" d="M68.29,5.42a8.84,8.84,0,0,0-7.18-4.24,8.84,8.84,0,0,0-7.18,4.24,16.45,16.45,0,0,0-2.6,9.16,16.39,16.39,0,0,0,2.6,9.15A8.82,8.82,0,0,0,61.11,28a8.82,8.82,0,0,0,7.18-4.24,16.39,16.39,0,0,0,2.61-9.15A16.45,16.45,0,0,0,68.29,5.42Z"/><path class="cls-1" d="M46.07,5.42a8.84,8.84,0,0,0-7.18-4.24,8.84,8.84,0,0,0-7.18,4.24,16.45,16.45,0,0,0-2.61,9.16,16.39,16.39,0,0,0,2.61,9.15A8.82,8.82,0,0,0,38.89,28a8.82,8.82,0,0,0,7.18-4.24,16.39,16.39,0,0,0,2.6-9.15A16.45,16.45,0,0,0,46.07,5.42Z"/><path class="cls-1" d="M86.69,26.45a7.44,7.44,0,0,0-4.44-5.13,7,7,0,0,0-5.45.31,11.25,11.25,0,0,0-5.57,6.58,12.1,12.1,0,0,0-.3,7.34,7.5,7.5,0,0,0,4.45,5.13,6.68,6.68,0,0,0,2.3.41,7.45,7.45,0,0,0,3.15-.72,11.2,11.2,0,0,0,5.56-6.58h0A12.1,12.1,0,0,0,86.69,26.45Z"/><path class="cls-1" d="M28.77,28.21a11.25,11.25,0,0,0-5.57-6.58,7,7,0,0,0-5.45-.31,7.44,7.44,0,0,0-4.44,5.13,12.1,12.1,0,0,0,.3,7.34h0a11.2,11.2,0,0,0,5.56,6.58,7.45,7.45,0,0,0,3.15.72,6.68,6.68,0,0,0,2.3-.41,7.5,7.5,0,0,0,4.45-5.13A12.1,12.1,0,0,0,28.77,28.21Z"/></svg>