<svg id="Livello_1" data-name="Livello 1" xmlns="http://www.w3.org/2000/svg" viewBox="0 0 100 66"><defs><style>.cls-1{fill:#060606;}</style></defs><title>iconTavola disegno 71</title><path class="cls-1" d="M43.2,38.63A1.36,1.36,0,0,0,41.84,40V56.31a1.36,1.36,0,0,0,2.72,0V40A1.36,1.36,0,0,0,43.2,38.63Z"/><path class="cls-1" d="M63.6,16.87V14.15a2.72,2.72,0,0,0-2.72-2.72V8.71A2.72,2.72,0,0,0,58.16,6H52.72V1.91A1.36,1.36,0,0,0,51.88.65,1.34,1.34,0,0,0,50.4,1L47.68,3.67a1.33,1.33,0,0,0-.4,1V6H41.84a2.72,2.72,0,0,0-2.72,2.72v2.72a2.72,2.72,0,0,0-2.72,2.72v2.72A2.67,2.67,0,0,0,37.54,19a5.33,5.33,0,0,0-1.14,3.29V24.2a5.44,5.44,0,0,0,2.42,4.53l.91.61a1.35,1.35,0,0,1,0,2.26l-.91.61a5.43,5.43,0,0,0-2.42,4.52V60.39a5.45,5.45,0,0,0,5.44,5.44H58.16a5.45,5.45,0,0,0,5.44-5.44V36.73a5.43,5.43,0,0,0-2.42-4.52l-.91-.61a1.35,1.35,0,0,1,0-2.26l.91-.61A5.44,5.44,0,0,0,63.6,24.2V22.31A5.33,5.33,0,0,0,62.46,19,2.67,2.67,0,0,0,63.6,16.87ZM41.84,8.71H58.16v2.72H41.84V8.71Zm19,15.49a2.72,2.72,0,0,1-1.21,2.27l-.91.6a4.08,4.08,0,0,0,0,6.79l.91.61a2.7,2.7,0,0,1,1.21,2.26V60.39a2.72,2.72,0,0,1-2.72,2.72H41.84a2.72,2.72,0,0,1-2.72-2.72V36.73a2.7,2.7,0,0,1,1.21-2.26l.91-.61a4.08,4.08,0,0,0,0-6.79l-.91-.6a2.72,2.72,0,0,1-1.21-2.27V22.31a2.72,2.72,0,0,1,2.72-2.72H58.16a2.72,2.72,0,0,1,2.72,2.72Zm0-6.58h0v-.75H39.12V14.15H60.88v2.72h0Z"/></svg>