<svg id="Livello_1" data-name="Livello 1" xmlns="http://www.w3.org/2000/svg" viewBox="0 0 100 66"><title>iconTavola disegno 42</title><path d="M35,29.05c-.88.08-1.56.17-2.25.2-1.82.05-2.93-1.05-3.09-3a2.83,2.83,0,0,1,2.54-2.81c3.17-.41,6.35-.8,9.53-1.13.83-.08,1.12-.35,1.1-1.2-.05-2.27,0-4.55,0-6.82,0-3.21,1.84-5.07,5.07-5.21a13.41,13.41,0,0,1,7.35,2,41,41,0,0,1,12.47,11.7A8.51,8.51,0,0,1,69,26.21c.53,2.64-.45,4.29-2.85,5.54a4.85,4.85,0,0,0-1.63,1.62c-.88,1.31-1.66,2.69-2.44,4.06-1.13,2-1.23,1.32.32,2.9,3.37,3.44,6.78,6.85,10.14,10.3A6.1,6.1,0,0,1,73.29,52a5.72,5.72,0,0,1-1.36.67q-7.77,1.49-15.57,2.87a1.36,1.36,0,0,0-1.28,1.17A3.83,3.83,0,0,1,49.7,59.2c-.35-.18-.79-.77-.73-1.08.15-.71.75-.55,1.31-.36a2.34,2.34,0,0,0,3.2-1.18,2.3,2.3,0,0,0-1.29-3.14c-1.06-.49-.84-1.07-.39-1.83q5-8.34,9.91-16.69c.22-.36.42-.73.76-1.33-.47.15-.74.2-1,.31-2.53,1.2-5.05,2.44-7.6,3.6A1.82,1.82,0,0,0,52.77,39c-.82,3.68-1.63,7.37-2.51,11-.29,1.2-.8,2.35-1.27,3.7a20.29,20.29,0,0,1,2.21,1.06c.37.23.55.77.81,1.17-.46.08-1,.37-1.38.23-1.91-.71-3.78-1.52-5.66-2.3a3.56,3.56,0,0,1-2.13-4.16c1-4.66,2.39-9.26,3.18-14,.51-3.08,3-3.62,5-4.91s4-2.35,6.13-3.63A37.93,37.93,0,0,0,49,20.28c-.06,1.34-.13,2.45-.15,3.57-.07,2.75-.75,3.55-3.48,3.91-2.93.37-5.86.7-8.82,1.32l2.72.53c1.92.34,3.86.63,5.77,1,.36.08.63.6.95.91-.43.19-.89.61-1.28.55-2.67-.43-5.34-1-8-1.42a1,1,0,0,0-.76.48c-.29.74-.91,1.46-.18,2.34q3,3.69,6,7.45c.4.52,1.34,1.12.49,1.83s-1.26-.32-1.67-.84c-1.93-2.39-3.82-4.81-5.86-7.39-.22.49-.4.84-.54,1.21q-2.85,7.68-5.69,15.38a2.86,2.86,0,0,1-.41.94c-.2.21-.66.44-.84.35a1.28,1.28,0,0,1-.52-.87,2.43,2.43,0,0,1,.31-1l7.52-20.37C34.64,29.89,34.76,29.57,35,29.05Zm13.5-18.41c-2.92-.06-4.16,1.19-4.14,4.1,0,2.5,0,5,0,7.51,0,1-.32,1.36-1.31,1.46q-5.06.51-10.1,1.2a2.37,2.37,0,0,0-1.57.92c-.58,1,.34,2,1.66,1.82,4.25-.48,8.49-1,12.74-1.5a1.58,1.58,0,0,0,1.54-1.78c0-2.32.1-4.63.25-6.94,0-.41.45-1.07.77-1.13.73-.13.85.54.76,1.1-.14.88.3,1.28,1,1.71a36.72,36.72,0,0,1,8.56,7.36c.63.74.68,1.31-.26,1.85-2.84,1.61-5.67,3.23-8.48,4.89-1,.6-2.06,1.16-2.27,2.56s-.63,2.85-1,4.28c-.74,3.26-1.51,6.53-2.21,9.8A2.09,2.09,0,0,0,47,52.49a2.39,2.39,0,0,0,1.6-2.07Q50,44.21,51.39,38c.13-.59.23-1.1,1-1.4,1.51-.62,2.92-1.45,4.4-2.17,2.89-1.4,5.78-2.8,8.7-4.16,1.48-.68,2.26-1.59,2-3.19a7.68,7.68,0,0,0-1.18-3.43,39.88,39.88,0,0,0-11.57-11A12.17,12.17,0,0,0,48.45,10.64ZM60.08,40.76,53.36,52.09a5.75,5.75,0,0,1,1.12,1.21c.38.83.94.81,1.69.67,4.64-.87,9.29-1.71,13.94-2.57a3.55,3.55,0,0,0,.68-.3Z"/><path d="M39.11,51A11.35,11.35,0,0,0,35,42.87a3,3,0,0,1-.73-.73.93.93,0,0,1,.07-.83.94.94,0,0,1,.8-.23,2.59,2.59,0,0,1,.85.57,13.25,13.25,0,1,1-21.69,12,13.12,13.12,0,0,1,8.46-14.33,23.24,23.24,0,0,1,3.91-.84c.6-.1,1.39-.17,1.45.69s-.69.83-1.31.88c-4.87.39-8.38,2.8-10.22,7.3a11.1,11.1,0,0,0,2.14,12.17,11.52,11.52,0,0,0,12.87,3.1C36.14,60.9,39.12,56.54,39.11,51Z"/><path d="M72.51,39.78c-1.49.45-3,.85-4.47,1.35-.54.18-1.12.53-1.34-.17a1.45,1.45,0,0,1,.64-1.22,11.78,11.78,0,0,1,10.17-.28A13.26,13.26,0,1,1,60.76,57.81c-.1-.21-.3-.43-.28-.62A7.19,7.19,0,0,1,60.82,56a4.4,4.4,0,0,1,1,.5c.22.18.28.53.43.8A11.69,11.69,0,1,0,72.59,40.06Z"/><path d="M36.12,14.42A6.53,6.53,0,0,1,29.6,7.76a6.55,6.55,0,0,1,6.68-6.51,6.59,6.59,0,0,1-.16,13.17Zm5.07-6.58a5,5,0,1,0-5,5A5,5,0,0,0,41.19,7.84Z"/><path d="M58.42,5.17c-1.19,0-2.38.06-3.57,0-.37,0-.72-.48-1.08-.74.36-.26.7-.75,1.06-.77,2.34-.06,4.69-.06,7,0,.34,0,.68.52,1,.8-.34.24-.66.67-1,.7C60.73,5.23,59.57,5.17,58.42,5.17Z"/><path d="M34.93,51.71a7.77,7.77,0,0,1-1.7,4.52c-.23.27-.82.25-1.25.37,0-.41-.18-.94,0-1.22a6.06,6.06,0,0,0,.72-6.11c-.13-.32.2-.83.31-1.25.38.23,1,.39,1.09.72A27.14,27.14,0,0,1,34.93,51.71Z"/><path d="M78.45,52.06a26.46,26.46,0,0,1-.71-2.77A3.68,3.68,0,0,1,78,48c.37.19.89.29,1.07.59a7.24,7.24,0,0,1-.89,7.68c-.24.25-.78.22-1.18.32a3.41,3.41,0,0,1,0-1.23C77.45,54.2,78,53.05,78.45,52.06Z"/><path d="M69.78,12.86a16.25,16.25,0,0,1,2.42,0c.34,0,.63.48,1,.74-.31.26-.61.73-.94.75-1.68.07-3.38.07-5.06,0-.31,0-.61-.44-.91-.68.3-.28.57-.76.9-.81A21.09,21.09,0,0,1,69.78,12.86Z"/><path d="M80.2,33.21c1,0,1.91-.05,2.85,0,.26,0,.48.43.71.66-.25.22-.49.61-.76.62-1.71.09-3.43.13-5.14.09a1.18,1.18,0,0,1-.9-.7c-.15-.65.36-.82.93-.81H80.2Z"/><path d="M78.21,24.6a7.58,7.58,0,0,1-1.72,0c-.31-.07-.54-.5-.81-.76.26-.25.5-.69.76-.71a30,30,0,0,1,3.67,0,1,1,0,0,1,.62.76,1,1,0,0,1-.69.69A10.14,10.14,0,0,1,78.21,24.6Z"/><path d="M79.14,14.41a6.16,6.16,0,0,1-1.49,0c-.3-.07-.52-.44-.78-.68.26-.27.5-.76.78-.78a16.9,16.9,0,0,1,3.1,0c.3,0,.56.49.83.75-.27.26-.52.66-.84.74a7.11,7.11,0,0,1-1.6,0Z"/><path d="M59.2,49.72c.67-1.63,1.25-3.17,1.94-4.65.11-.23.7-.23,1.06-.34.08.37.32.79.22,1.11-.42,1.38-.91,2.75-1.45,4.09a1.21,1.21,0,0,1-.88.66C59.82,50.58,59.57,50.11,59.2,49.72Z"/></svg>