<svg id="Livello_1" data-name="Livello 1" xmlns="http://www.w3.org/2000/svg" viewBox="0 0 100 66"><title>iconTavola disegno 38</title><path d="M73,31l-9.9,9.23L67.31,40,63.16,50.14a9.2,9.2,0,0,1-3.39,4.18,6.88,6.88,0,0,1-1.74.77,3.87,3.87,0,0,1-5-3.57L51.81,18.61H53.9v.67h1.34v-3.4H53.9v.58H51.73l-.14-3.89h5.66v.67h1.34V9.85H57.25v.58H54.58A5.94,5.94,0,0,0,56,6.32a6,6,0,1,0-10.55,4.11H42.75V9.85H41.41v3.39h1.34v-.67h5.66l-.14,3.89H46.1v-.58H44.76v3.4H46.1v-.67h2.09L47,51.52a3.87,3.87,0,0,1-5,3.57,6.88,6.88,0,0,1-1.74-.77,9.14,9.14,0,0,1-3.39-4.18L32.69,40l4.19.28L27,31l-.72,13.52,3-3.34,4.2,10.32c1,2.37,2.6,6.19,4.73,7.63a13,13,0,0,0,4.54,1.92,10.1,10.1,0,0,1,5.1,2.73L50,65.91l2.14-2.13a10.1,10.1,0,0,1,5.1-2.73,13,13,0,0,0,4.54-1.92c2.13-1.44,3.77-5.26,4.73-7.63l4.2-10.32,3,3.34ZM46.16,6.6a3.84,3.84,0,1,1,4.05,3.83h-.42A3.85,3.85,0,0,1,46.16,6.6Z"/></svg>