<svg id="Livello_1" data-name="Livello 1" xmlns="http://www.w3.org/2000/svg" viewBox="0 0 100 66"><defs><style>.cls-1{fill:#030402;}</style></defs><title>iconTavola disegno 15</title><path class="cls-1" d="M79.93,44.59h0l-6.09-3.52.17-.59A25.06,25.06,0,0,0,74,26l-.18-.59,6.1-3.52a1.16,1.16,0,0,0,.43-1.59l-4-6.87A1.16,1.16,0,0,0,74.8,13l-6.12,3.53-.42-.44A24.86,24.86,0,0,0,55.73,8.84l-.6-.14V1.64A1.16,1.16,0,0,0,54,.48H46a1.16,1.16,0,0,0-1.16,1.16V8.7l-.6.14a24.86,24.86,0,0,0-12.53,7.24l-.42.44L25.2,13a1.18,1.18,0,0,0-1.59.43l-4,6.87a1.16,1.16,0,0,0,.43,1.59l6.1,3.52L26,26a25.06,25.06,0,0,0,0,14.49l.18.59-6.1,3.52a1.12,1.12,0,0,0-.54.7,1.2,1.2,0,0,0,.11.89l4,6.87a1.15,1.15,0,0,0,1.59.43L31.32,50l.42.45a25,25,0,0,0,12.53,7.24l.6.14v7A1.17,1.17,0,0,0,46,66H54a1.17,1.17,0,0,0,1.16-1.17v-7l.6-.14A25,25,0,0,0,68.26,50.4l.42-.45,6.12,3.53a1.16,1.16,0,0,0,1.59-.43l4-6.87A1.16,1.16,0,0,0,79.93,44.59ZM50,55A21.75,21.75,0,1,1,71.75,33.24,21.78,21.78,0,0,1,50,55Z"/><path class="cls-1" d="M50,14.58A18.66,18.66,0,1,0,68.66,33.24,18.68,18.68,0,0,0,50,14.58Zm0,28.17a9.52,9.52,0,1,1,9.52-9.51A9.53,9.53,0,0,1,50,42.75Z"/></svg>