<svg id="Livello_1" data-name="Livello 1" xmlns="http://www.w3.org/2000/svg" viewBox="0 0 100 66"><defs><style>.cls-1{fill:#060606;}</style></defs><title>iconTavola disegno 41</title><path class="cls-1" d="M78.43,22.16a21.66,21.66,0,0,0-8.06,1.61L67,17.13V6.55a1.52,1.52,0,0,0-1-1.41l-8-3A1.46,1.46,0,0,0,56,3a1.45,1.45,0,0,0,.91,1.91L64,7.56v8.56H34.53V13.2h3.62a1.51,1.51,0,0,0,0-3H28.79a1.51,1.51,0,1,0,0,3h2.72v4.13l-2.92,6.34a19.31,19.31,0,0,0-7.25-1.41A20.34,20.34,0,1,0,41.58,44.11h6.54a1.44,1.44,0,0,0,1.21-.6L65.14,20.65l2.51,4.73A19.93,19.93,0,0,0,58.09,42.5,20.34,20.34,0,1,0,78.43,22.16ZM21.34,59.82a17.32,17.32,0,0,1,0-34.64,16.3,16.3,0,0,1,5.94,1.11l-7.35,15.6V42a1,1,0,0,0-.1.51v.1a.9.9,0,0,0,.1.5v.1c0,.1,0,.1.1.2s.1.11.2.21v.1c.1.1.3.2.4.3h.1a1,1,0,0,0,.51.1H38.45A17.12,17.12,0,0,1,21.34,59.82ZM23.65,41,30,27.6A17.22,17.22,0,0,1,38.56,41Zm23.66,0H41.48A20.51,20.51,0,0,0,31.21,24.78L33.92,19h28.5Zm31,18.83A17.3,17.3,0,0,1,69.06,27.9l8,15.3a1.55,1.55,0,0,0,1.31.81,1.85,1.85,0,0,0,.7-.2,1.5,1.5,0,0,0,.6-2l-7.95-15.3a18.49,18.49,0,0,1,6.65-1.31,17.32,17.32,0,0,1,0,34.64Z"/></svg>