<svg id="Livello_1" data-name="Livello 1" xmlns="http://www.w3.org/2000/svg" viewBox="0 0 100 66"><defs><style>.cls-1{fill:#060606;}</style></defs><title>iconTavola disegno 114</title><path class="cls-1" d="M67.06.88A17.21,17.21,0,0,0,56.3,4.6,24.48,24.48,0,0,0,50,12.17,24.48,24.48,0,0,0,43.7,4.6,17.21,17.21,0,0,0,32.94.88c-11,0-19.33,9-19.33,21C13.61,34.76,24,43.59,39.68,57c2.66,2.27,5.68,4.85,8.82,7.59a2.29,2.29,0,0,0,3,0c3.14-2.74,6.16-5.32,8.83-7.59C76,43.59,86.39,34.76,86.39,21.84,86.39,9.89,78.08.88,67.06.88Z"/></svg>