<svg id="Livello_1" data-name="Livello 1" xmlns="http://www.w3.org/2000/svg" viewBox="0 0 100 66"><defs><style>.cls-1{fill:#060606;}</style></defs><title>iconTavola disegno 85</title><path class="cls-1" d="M74.22,21.22,71.48,15.9c2.57-2.34,3.87-4.82,3.61-7a3.65,3.65,0,0,0-2.24-3c-1.63-.7-3.76-.46-6.12.65C64.68,2.72,62.61.41,56.51.41h-13c-6.11,0-8.17,2.31-10.22,6.18-2.36-1.11-4.49-1.35-6.12-.65a3.65,3.65,0,0,0-2.24,3c-.26,2.15,1,4.63,3.61,7l-2.74,5.32c-4.34,8.4-2.46,13.68.65,22.42l.19.54A35.86,35.86,0,0,0,38,60.3c4.14,3.31,8.73,5.36,12,5.36s7.84-2,12-5.36a35.86,35.86,0,0,0,11.4-16.12l.19-.54c3.11-8.74,5-14,.65-22.42ZM71.85,8.28a1.1,1.1,0,0,1,.71,1c.13,1-.67,3-3.22,5.15L66,9.92C68.8,8.09,70.87,7.86,71.85,8.28Zm-44.41,1a1.1,1.1,0,0,1,.71-1,2.72,2.72,0,0,1,1-.18A9.41,9.41,0,0,1,34,9.92l-3.35,4.47c-2.55-2.18-3.35-4.1-3.22-5.15ZM71.17,42.79l-.19.54A33.52,33.52,0,0,1,61.91,57a32.76,32.76,0,0,0,.23-5.95,1.27,1.27,0,1,0-2.54.16,24.85,24.85,0,0,1-.83,8.3C55.2,62,51.89,63.11,50,63.11S44.8,62,41.23,59.52a24.85,24.85,0,0,1-.83-8.3,1.27,1.27,0,1,0-2.54-.16A32.76,32.76,0,0,0,38.09,57,33.52,33.52,0,0,1,29,43.33l-.19-.54c-3.07-8.65-4.61-13-.79-20.4l2.55-4.94a1.54,1.54,0,0,0,.3,0l.18,0a1.23,1.23,0,0,0,.84-.5l4.93-6.57a1.29,1.29,0,0,0-.26-1.79c-.37-.27-.73-.53-1.09-.77C37.35,4.32,38.81,3,43.49,3h13c4.67,0,6.14,1.36,8,4.88-.36.24-.72.5-1.09.77a1.29,1.29,0,0,0-.26,1.79L68.09,17a1.23,1.23,0,0,0,.84.5l.18,0a1.54,1.54,0,0,0,.3,0L72,22.39C75.78,29.8,74.24,34.14,71.17,42.79Z"/><path class="cls-1" d="M65.17,27.94h0c.16-13.43-4.87-16.66-7.28-18.22-1.82-1.17-3.32-.7-4.77-.25a8.68,8.68,0,0,1-6.24,0c-1.45-.45-3-.92-4.77.25-2.41,1.56-7.44,4.79-7.28,18.22h0a5.21,5.21,0,0,0,1,2.81,24.64,24.64,0,0,0-1.29,8.61,1.27,1.27,0,0,0,1.27,1.2h.08A1.27,1.27,0,0,0,37,39.21a20.6,20.6,0,0,1,.75-6.16l.44.42c1.19,1.17,2.43,2.37,2.82,3.68a8.11,8.11,0,0,0,1.82,4.57A5.32,5.32,0,0,0,43.75,46c1.16,1.45,3.2,2.16,6.25,2.16s5.09-.71,6.25-2.16a5.32,5.32,0,0,0,.88-4.31A8.11,8.11,0,0,0,59,37.15c.39-1.31,1.63-2.51,2.83-3.68l.43-.42A20.28,20.28,0,0,1,63,39.21a1.28,1.28,0,0,0,1.2,1.35h.07a1.27,1.27,0,0,0,1.27-1.2,24.84,24.84,0,0,0-1.28-8.61,5.28,5.28,0,0,0,1-2.81ZM54.26,44.44c-.63.78-2.1,1.2-4.26,1.2s-3.63-.42-4.26-1.2a2.4,2.4,0,0,1-.42-1.68A7.5,7.5,0,0,0,50,40.93a7.5,7.5,0,0,0,4.68,1.83,2.4,2.4,0,0,1-.42,1.68ZM60,31.64l-1,1a14.69,14.69,0,0,0-2.25-6.74c-.49-.85-.74-1.31-.7-1.7.13-1.15.41-1.23,1.86-1.42l.46-.06A1.27,1.27,0,1,0,58,20.19l-.42.06c-1.39.18-3.71.48-4.06,3.66a5.23,5.23,0,0,0,1,3.26c1,1.73,2.38,4.09,1.87,9.61A5,5,0,0,1,55,40.22a5.19,5.19,0,0,1-3.74-1.57V36.1a11.17,11.17,0,0,0,1.55-.29,1.28,1.28,0,1,0-.65-2.47,8.4,8.4,0,0,1-4.34,0,1.28,1.28,0,0,0-.66,2.47,11.59,11.59,0,0,0,1.56.29v2.55A5.19,5.19,0,0,1,45,40.22a5,5,0,0,1-1.42-3.44c-.51-5.52.86-7.88,1.87-9.61a5.21,5.21,0,0,0,1-3.26c-.35-3.18-2.68-3.48-4.06-3.66L42,20.19a1.27,1.27,0,1,0-.37,2.52l.46.06c1.45.19,1.73.27,1.86,1.42,0,.39-.21.85-.7,1.7A14.69,14.69,0,0,0,41,32.63l-1-1c-1.33-1.28-2.59-2.5-2.62-3.75-.14-12,4.08-14.73,6.11-16,.78-.5,1.28-.38,2.63,0a11.1,11.1,0,0,0,7.76,0c1.35-.42,1.85-.54,2.63,0,2,1.31,6.25,4,6.11,16C62.59,29.14,61.33,30.36,60,31.64Z"/><path class="cls-1" d="M35.93,43.76h0A1.28,1.28,0,1,0,37.2,45,1.28,1.28,0,0,0,35.93,43.76Z"/></svg>