<svg id="Livello_1" data-name="Livello 1" xmlns="http://www.w3.org/2000/svg" viewBox="0 0 100 66"><defs><style>.cls-1{fill:#060606;}</style></defs><title>iconTavola disegno 44</title><path class="cls-1" d="M17.39,64a1.45,1.45,0,0,0,.51-2.86,17.74,17.74,0,1,1,9.73-33.94L26.75,29a15.78,15.78,0,1,0,10,16.15h2a17.71,17.71,0,0,1-14.56,16A1.45,1.45,0,0,0,24.4,64l.26,0A20.61,20.61,0,0,0,41,48.82a7,7,0,0,0,3.28,1.7v3H43a1.45,1.45,0,0,0,0,2.9h5.44a1.45,1.45,0,0,0,0-2.9H47.2v-3a7,7,0,0,0,4.14-11l17.14-19,1.64,4.37a20.64,20.64,0,1,0,8.56-1.86,20.94,20.94,0,0,0-5.85.84l-5-13.28h8.3A3.86,3.86,0,0,0,79.72,13a.56.56,0,1,1,0,1.12H78a3.83,3.83,0,1,0,0,7.66h1.77a8.22,8.22,0,0,0,0-16.44,3.84,3.84,0,0,0-3.55,2.38H65.78a1.46,1.46,0,0,0-1.36,2l1.47,3.93H36.34l-.93-2.47a4.12,4.12,0,0,0,1.44-1.49A1.33,1.33,0,0,1,38,9h6.17a2.4,2.4,0,0,0,2.22-3.3h0a6.39,6.39,0,0,0-6-4H25.58A3.59,3.59,0,0,0,22,5.26a6.52,6.52,0,0,0,6.51,6.51h4.06L33.75,15l-4.82,9.65A20.65,20.65,0,1,0,17.39,64ZM78.68,26a17.73,17.73,0,1,1-7.55,1.68l.69,1.85A15.78,15.78,0,1,0,94,47.41a1.45,1.45,0,0,0-2.82-.68A12.88,12.88,0,1,1,72.85,32.22l3.09,8.28a4.2,4.2,0,1,0,2.74-1h0L75.56,31.2a12.85,12.85,0,0,1,15.63,9.45A1.45,1.45,0,0,0,94,40a15.79,15.79,0,0,0-19.47-11.5l-.69-1.85A17.45,17.45,0,0,1,78.68,26Zm0,16.43a1.32,1.32,0,1,1-1.32,1.31A1.31,1.31,0,0,1,78.68,42.38ZM30.22,28.52a17.77,17.77,0,0,1,8.49,13.72h-2a15.79,15.79,0,0,0-7.39-12ZM25,42.24a4.35,4.35,0,0,0-.89-1.44L28,32.9a12.87,12.87,0,0,1,5.79,9.34Zm-4,.14a1.32,1.32,0,1,1-1.31,1.31A1.32,1.32,0,0,1,21,42.38Zm0,14.19a12.88,12.88,0,0,1,0-25.76,12.74,12.74,0,0,1,4.43.79l-4,7.91a3.59,3.59,0,0,0-.47,0,4.22,4.22,0,1,0,4,5.66h8.84A12.91,12.91,0,0,1,21,56.57ZM47.2,47.5V43.69a1.45,1.45,0,0,0-2.9,0V47.5a4.08,4.08,0,1,1,2.9,0ZM79.72,8.23a5.32,5.32,0,1,1,0,10.64H78A.93.93,0,1,1,78,17h1.77a3.46,3.46,0,1,0,0-6.92.93.93,0,1,1,0-1.86ZM67,16.5l.36,1L49.16,37.61a6.91,6.91,0,0,0-3.41-.9,6.49,6.49,0,0,0-.77,0L37.42,16.5ZM24.89,5.26a.7.7,0,0,1,.69-.7H40.43a3.52,3.52,0,0,1,2.9,1.52H38a4.21,4.21,0,0,0-3.66,2.13,1.29,1.29,0,0,1-1.14.66H28.5A3.61,3.61,0,0,1,24.89,5.26ZM35.14,18.68l7.09,19a6.62,6.62,0,0,0-1.21.89,20.7,20.7,0,0,0-9.5-12.64Z"/></svg>