<svg id="Livello_1" data-name="Livello 1" xmlns="http://www.w3.org/2000/svg" viewBox="0 0 100 66"><defs><style>.cls-1{fill:#060606;}</style></defs><title>iconTavola disegno 139</title><path class="cls-1" d="M81.78,38.27a13.06,13.06,0,0,0-6,1.49l-3.56-4.23a17.6,17.6,0,0,1,5.09-2.05A22,22,0,0,1,81.79,33a7.52,7.52,0,0,0,5.34-2.19,8.24,8.24,0,0,0,2.37-6A23.58,23.58,0,0,0,66.14,1.4h-3a2.64,2.64,0,1,0,0,5.27h3a17.08,17.08,0,0,1,2.29.23V12a13.15,13.15,0,0,0-4.33,1.24l0-.05a13.06,13.06,0,0,0-5.38,4.62l-6,9a2.64,2.64,0,0,1-1.8,1.14,16.58,16.58,0,0,0-12.37,9.18A21,21,0,0,1,42.1,48.8H36.66a16,16,0,1,0-1,5.27H60.53a2.64,2.64,0,0,0,2.64-2.64A19.82,19.82,0,0,1,63.68,47a17.92,17.92,0,0,1,4.47-8.16l3.55,4.22a13,13,0,0,0-3.09,8.37A13.17,13.17,0,1,0,81.78,38.27ZM20.86,59.33A10.53,10.53,0,1,1,31.39,48.8h-7.9a2.63,2.63,0,0,1-2.63-2.63,2.64,2.64,0,1,0-5.27,0,7.91,7.91,0,0,0,7.9,7.9h6.44A10.51,10.51,0,0,1,20.86,59.33Zm60.92,0a7.87,7.87,0,0,1-6.7-12l4.64,5.8a2.63,2.63,0,0,0,4.11-3.29L79.2,44a7.88,7.88,0,1,1,2.58,15.33Z"/><path class="cls-1" d="M49.78,21.64l4.51-6.76a18.18,18.18,0,0,1,5.48-5.29A18.21,18.21,0,0,0,50,6.67a18.49,18.49,0,0,0-15.35,8.25l4.21,2.53A35.07,35.07,0,0,0,49.78,21.64Z"/><path class="cls-1" d="M36.15,22l-16.9-10H7.69a2.64,2.64,0,0,0-2.63,2.64A13.17,13.17,0,0,0,18.22,27.73c5.27,0,10.74.12,16.59,5.21a.69.69,0,0,1,0-.13,21.8,21.8,0,0,1,8.23-7.62A40.81,40.81,0,0,1,36.15,22Z"/></svg>