<svg id="Livello_1" data-name="Livello 1" xmlns="http://www.w3.org/2000/svg" viewBox="0 0 100 66"><title>iconTavola disegno 86</title><path d="M28,21.83l-1.17,2.61a5.09,5.09,0,0,1-1.59-3.34A3,3,0,0,0,25,20c-1.06-1.77-1.07-2.39.05-4-.7-1.48-.35-2.26,1.24-2.76a4.7,4.7,0,0,1,.74-.18c.72-.11,1.37-.2,1.6-1.14.11-.4.68-.73,1.11-1,1-.59,2.1-1.09,3.12-1.68a1.26,1.26,0,0,0,.57-.74c.3-2.31,1.82-3.72,3.6-4.9a14.32,14.32,0,0,1,2.47-1L37.77,5.12l.15.23A13.33,13.33,0,0,1,44.47,2L42.13,4.45l.15.23c2.56-1.92,5.3-3.32,8.61-3.2-1.48.75-3.09,1.33-4,2.87,2.15-.36,4.21-.85,6.3-1A14.07,14.07,0,0,1,59.4,4L54.87,5.72,55,6c.87-.09,1.74-.21,2.61-.28A9.26,9.26,0,0,1,64,7.46c.8.58,1.64,1.11,2.44,1.69A6.46,6.46,0,0,0,71,10.6c-.89,1-2.57,1-7.1.47.59.23,1.16.5,1.76.68,1.4.41,2.84.71,4.23,1.16,3.8,1.22,6,4,7.23,7.68-1.54-1.24-2.69-3.2-5.3-2.65a6.63,6.63,0,0,1,.88.59A20,20,0,0,1,75,20.81a34.69,34.69,0,0,1,1.86,3.12c1.9,3.15,4.52,3.66,7.94,2.64a6.24,6.24,0,0,0,.72-.27c0,2.09-2.08,3.27-6.83,3.95a25.08,25.08,0,0,1,1.87,2.2A2,2,0,0,1,80.84,34,29.18,29.18,0,0,1,79,38.91c-.22-.92-.44-1.85-.68-2.77a3,3,0,0,0-2-2.06,17.72,17.72,0,0,1,.9,1.81c1,2.68.5,5.37-.16,8a36.26,36.26,0,0,1-2,5.64c-.48-2.36.34-4.94-1.64-7.06-1,5.35-2.35,10.39-8,13.09,1.26-2.87,2.35-5.61,0-8.6.18,3.2-1.61,5.3-3.12,7.55-1.62,2.42-4.11,3.38-6.72,4.33,2.12-2.5,3.21-5.25,2.34-8.61a5.3,5.3,0,0,0-.61.39,15.9,15.9,0,0,0-4.4,5.59,6,6,0,0,0-.07,5c.56,1.34,1.13,2.67,1.66,3.92-2.83-.87-5.72-1.64-8.52-2.65a13.15,13.15,0,0,1-6.54-5.23c-.28-.42-.53-.85-.79-1.28l-.32.12,1.93,5.63c-2-1.43-3.92-2.7-5.7-4.16-1.39-1.14-1.75-2.92-2.19-4.59-.27-1-.52-2.1-.77-3.14l-.33-.05-.89,4.1a8,8,0,0,1-.61-8.59L24.38,46c3.2-1.45,5.42-3.56,5.55-7.32-1.42.42-2.2,1.59-2.7,4.06a3.35,3.35,0,0,1-.86-2.45,9.13,9.13,0,0,1,.17-2.72,13.44,13.44,0,0,1,1.17-2.38c-1.19-.18-2,.56-3,2.63-1-1.14-.42-3.39,1.13-4.25s3-1.75,4.53-2.67A1.2,1.2,0,0,0,31,30c-.26-2.37-.43-4.78-1.77-6.88A13,13,0,0,0,28,21.83Zm8.46-5.48c1.9,2.36,1.94,2.74.89,5.46a1.55,1.55,0,0,0,0,1.08c2.37,5.14,3.28,10.62,3.74,16.2.1,1.22-.12,1.45-1.29,1.72a14.94,14.94,0,0,1-6.25.2l2.47,3.5.28-.12V42.77c.53.49.89.89,1.31,1.2a16.35,16.35,0,0,0,1.52.83l-.62-1.57,3.47,1.18.1-.25-1.35-1.45.13-.17,2.77.88a7.12,7.12,0,0,1-1-4.86c.07-1.24.28-2.47.31-3.71s.38-2.53-.26-3.85l-.53,2.62-.33,0L40.24,21.75l2.06,2.74a7.93,7.93,0,0,0-2.11-5.57h2.67l-1.6-1.83,2.21.71-.86-2,2.06.28c-.75-.93-1.38-1.77-2.07-2.56S41.19,12,40.4,11.21a13.23,13.23,0,0,0,1.55.11c.28,0,.76-.16.78-.28,0-.34,0-.9-.24-1a4.18,4.18,0,0,0-2-.67,12.21,12.21,0,0,0-2.93.73c-1.56.5-3.1,1.06-4.65,1.59l-.11-.29,1.56-1.44a25.76,25.76,0,0,0-3.84,1.67,5,5,0,0,0-1,.92l1.09.61s.11,0,.12,0l.71-1.26c.46,2,.82,2.26,2.68,2a6.43,6.43,0,0,0,1.55-.46,3.66,3.66,0,0,1,4.55,1l-3.71.92,1.39.88Zm7.31,11c.22.65.43,1.31.67,2a22.74,22.74,0,0,1,.87,15.17,36.91,36.91,0,0,0-1.22,4.31A6.91,6.91,0,0,0,47,55.53s0-.07,0-.09c-.12-.26-.25-.51-.37-.77a7.45,7.45,0,0,1-.49-6.21,24,24,0,0,0,1.55-9.74c0-.36,0-.71,0-1.28,2.27,2.42,2.46,5.26,2.85,8.1a13.7,13.7,0,0,0,1.25-3.77,32.67,32.67,0,0,0-1.59-14.22C49.41,24.91,47.4,23,45.54,21a28.88,28.88,0,0,1,4.51,17C48.1,34.34,46.49,30.54,43.81,27.33ZM30.61,15c-.68.43-1.25.78-1.8,1.16a6.64,6.64,0,0,0-1.56,1.19c-.66.84-.24,1.64.83,1.63A4.35,4.35,0,0,1,32,20.75a3.31,3.31,0,0,0,3.7,1.07,2.22,2.22,0,0,0,1-1.33c.1-.68-.44-1.14-1.16-1.3-.46-.1-.92-.23-1.38-.35l0-.22,2.49-.25C36.16,17,35,17,33.92,16.82a28.87,28.87,0,0,0-3.23-.18l0-.32,3.14-.53c-2.65-1.94-6.75-2.8-8-1ZM37.8,27.56c-1.51,1.62-.73,3.57-1.08,5.3-.56-2-.89-4,.35-5.93.14-.23,0-.63,0-.94l-.29-.11c-.35.3-.82.53-1,.9A5.49,5.49,0,0,0,35,29.09c0,2.73.09,5.47.18,8.2a3.6,3.6,0,0,0,.35.85l1.11-2.7,3.17,2.44C39.38,34.35,39.26,30.86,37.8,27.56Zm16.44-2.47C58.78,30.83,58.4,37,56.38,43.58,63,36.35,59.23,27,54.24,25.09ZM65,29.76l.23-.16c-.06-.3-.11-.61-.2-.91a9.77,9.77,0,0,0-6.17-6.58c-1-.41-2-.84-3-1.26l.07-.36,5.67.51c-1.85-1.29-10.92-2.55-13.09-1.73C54.91,21.43,61.32,23.41,65,29.76ZM48.32,16.62a30.09,30.09,0,0,0,3.28-.74,4,4,0,0,0,2.86-3.49A3.15,3.15,0,0,0,51.8,8.71a3.64,3.64,0,0,0-4.15,2.49c1.38-.23,2.74-.74,4.29-.2l-2.21,1.54.09.19,2.67-.58a4.91,4.91,0,0,1-.67,1.34C50.73,14.54,49.58,15.51,48.32,16.62Zm20.53,2.92c-.79-2.48-2-4-3.82-4.84-4.05-1.85-5.52-2.2-6.83-1.64,1.6.72,3.33,1.15,4.83,2.4-1.09.1-2,.17-2.85.27s-1.68.22-2.52.33C65.16,16.9,65.16,16.9,68.85,19.54Zm3,13.24h.25c.11-1.83.36-3.66.3-5.48-.09-2.59-.86-3.35-3.42-3.91-.5-.12-1-.19-1.53-.28C71.16,25.36,71.09,29.27,71.88,32.78ZM39.74,39.59,36.87,37l-.59,2.51L32.1,36.64l-.21.23c.54,1.18.94,2.65,2.33,3A8.25,8.25,0,0,0,39.74,39.59ZM26.37,22.93h.31c.2-.52.43-1,.6-1.56s.47-.66,1-.47a3.07,3.07,0,0,1,2.06,2c.29.83.7,1.62,1,2.42l.21-.12.6-2.81c-.78-.55-1.59-1.16-2.46-1.69a3.57,3.57,0,0,0-3-.5c-.21.06-.52.27-.52.41C26.22,21.35,26.31,22.14,26.37,22.93ZM54.2,32.15c-.18,3.38-.35,6.49-.52,9.51C55.91,38.78,55.39,35.62,54.2,32.15Zm14.92,9.64c.6-4.29-.8-7.4-3.36-7.53A18.69,18.69,0,0,1,69.12,41.79ZM31.86,27.7l.09.54c.49,2.71,1,5.42,1.49,8.13a2.93,2.93,0,0,0,.39.71l.3-.12A17.19,17.19,0,0,0,31.86,27.7ZM34,47.11c-.91,1.75.32,5,1.9,5.28ZM25.74,16.54c-.81.86-1,1.58-.45,2.34.35.53.78.4,1.24,0Zm11.87-2.33-.06-.54-1.89.38.07.38Z"/><path d="M33.23,12.76l2-.35.15.2a4.78,4.78,0,0,1-1.25.68c-.31.08-.69-.16-1-.26Z"/></svg>