<svg id="Livello_1" data-name="Livello 1" xmlns="http://www.w3.org/2000/svg" viewBox="0 0 100 66"><defs><style>.cls-1{fill:#060606;}</style></defs><title>iconTavola disegno 56</title><path class="cls-1" d="M36.83,25.82c.55,1.07,1.8,1.6,3.4,1.6A11.61,11.61,0,0,0,45.41,26a27.69,27.69,0,0,0,8.67-7.61,1.46,1.46,0,0,0,.31-1.6,1.47,1.47,0,0,0-1.49-.69,27.76,27.76,0,0,0-11.23,2.64c-3.82,2-5.9,5-4.84,7.09Zm5.85-5.12a23.47,23.47,0,0,1,8.48-2.26A23.67,23.67,0,0,1,44.4,24c-2.94,1.51-5.3,1.36-5.6.78S39.74,22.21,42.68,20.7Z"/><path class="cls-1" d="M40.16,10.06h0c-1.32-2.05-5.19-1.75-9,.69a29.39,29.39,0,0,0-8.4,8.91,1.48,1.48,0,0,0-.17,1.66,1.29,1.29,0,0,0,1.16.57,3.49,3.49,0,0,0,.41,0A29.47,29.47,0,0,0,35.76,18c3.82-2.44,5.71-5.83,4.4-7.89Zm-5.59,6a25.36,25.36,0,0,1-8.95,3.28,25.29,25.29,0,0,1,6.72-6.75,9.65,9.65,0,0,1,4.83-1.71c.59,0,1,.13,1.13.34.37.6-.6,2.84-3.73,4.84Z"/><path class="cls-1" d="M61.6,9.22A1.45,1.45,0,0,0,60.6,8a26.45,26.45,0,0,0-10.68-2.6c-4.19,0-7.22,1.7-7.21,4,0,1.21.88,2.28,2.45,3a11.57,11.57,0,0,0,4.71.91H50A26.45,26.45,0,0,0,60.61,10.5,1.44,1.44,0,0,0,61.6,9.22ZM50,11a9.53,9.53,0,0,1-3.87-.7c-.79-.36-1.16-.77-1.16-1,0-.59,1.95-1.74,5-1.76H50a22.88,22.88,0,0,1,7.93,1.68A22,22,0,0,1,50,11Z"/><path class="cls-1" d="M58.35,17.13A24.47,24.47,0,0,0,68,19.48h.13c3.89,0,6.69-1.61,6.67-3.75,0-.66-.31-1.91-2.3-2.81a10.62,10.62,0,0,0-4.43-.82,24,24,0,0,0-9.76,2.53,1.29,1.29,0,0,0,0,2.5Zm9.76-2.82a8.56,8.56,0,0,1,3.5.62c.76.34,1,.7,1,.82,0,.38-1.53,1.49-4.48,1.52a20.38,20.38,0,0,1-7-1.42,20.26,20.26,0,0,1,7-1.54Z"/><path class="cls-1" d="M86.83,16.47A63.89,63.89,0,0,0,70.55,5.89a1.11,1.11,0,0,0-.92,2,61,61,0,0,1,15.71,10.2C86.71,19.35,87,20,87,20.15a3.58,3.58,0,0,1-1.68.36,29.17,29.17,0,0,1-3.11,0c-.38,0-.71,0-1,0-16.72-.34-23.51,3.43-29,6.46C45.34,30.76,40.76,33.31,19.4,25c-1.94-.75-3.06-1.58-3.33-2.45A3.16,3.16,0,0,1,16.82,20c15.23-22.68,38.62-17.36,48-14a1.1,1.1,0,0,0,1.41-.67,1.11,1.11,0,0,0-.67-1.41C56.27.55,47.09-.24,39,1.57,29.25,3.74,21.17,9.51,15,18.73c-1.12,1.66-1.45,3.12-1,4.47a4.28,4.28,0,0,0,1.21,1.87C16.77,32.15,20,36.22,25,37.51c.9.24,1.9.46,3,.66l5,7.45a1.12,1.12,0,0,0,.93.49,1.07,1.07,0,0,0,.61-.19,1.1,1.1,0,0,0,.3-1.53l-3.81-5.72c1.57.24,3.22.43,4.86.58L47.45,56.59l-.86,1.28H43.84l-6.15-9.15A1.1,1.1,0,0,0,35.86,50l5.86,8.73a1.91,1.91,0,0,0-.31,1v4.22a1.84,1.84,0,0,0,1.84,1.83H54.31a1.84,1.84,0,0,0,1.84-1.83V59.7a1.89,1.89,0,0,0-.31-1l9.69-14.43h4.75a5.11,5.11,0,0,0,5.1-5.11V37.65c2.66-.47,4.6-2.36,6.12-6v0L85,22.74c2-.07,3.55-.46,4.08-1.74.67-1.61-1-3.36-2.26-4.53Zm-48.24,23c.57,0,1.13.06,1.68.08.72,0,1.47,0,2.24,0a45.21,45.21,0,0,0,5.31-.28,5.11,5.11,0,0,0,5.1,5h2.82l-7,10.36ZM53.94,63.54H43.62V60.08H53.94Zm-.22-5.67H49.26l.44-.66v0l8.7-12.94h4.46ZM73.17,39.14A2.89,2.89,0,0,1,70.28,42H52.92A2.89,2.89,0,0,1,50,39.14V39a12.7,12.7,0,0,0,4.36-1.59,12.55,12.55,0,0,1,11.19-1.44l1.21.36a34,34,0,0,0,6.38,1.45Zm6.29-8.31c-2.56,6.08-5.54,5.21-12,3.32l-1.23-.35a14.72,14.72,0,0,0-13,1.71c-4.63,3-19.71,1.92-27.65-.14-2.39-.61-5.64-2.2-7.63-8.61l.7.29c9.88,3.85,17,5.66,22.36,5.66h.54c5.12-.12,8.24-1.85,11.85-3.86,5.22-2.9,11.71-6.51,27.84-6.18l.94,0,.51,0Z"/></svg>