<svg id="Livello_1" data-name="Livello 1" xmlns="http://www.w3.org/2000/svg" viewBox="0 0 100 66"><defs><style>.cls-1{fill:#060606;}</style></defs><title>iconTavola disegno 101</title><path class="cls-1" d="M80.89,49.31a5.83,5.83,0,0,1-3.7-1.19,11.12,11.12,0,0,0-12.46,0,6.33,6.33,0,0,1-7.39,0,11.12,11.12,0,0,0-12.46,0,6.33,6.33,0,0,1-7.39,0,10.5,10.5,0,0,0-6.23-1.91A10.55,10.55,0,0,0,25,48.12a5.8,5.8,0,0,1-3.69,1.19,5.83,5.83,0,0,1-3.7-1.19,10.5,10.5,0,0,0-6.23-1.91H9.19V51h2.22a5.83,5.83,0,0,1,3.7,1.19,10.5,10.5,0,0,0,6.23,1.91,10.52,10.52,0,0,0,6.23-1.91A5.8,5.8,0,0,1,31.26,51,5.83,5.83,0,0,1,35,52.18a11.12,11.12,0,0,0,12.46,0,6.33,6.33,0,0,1,7.39,0,11.12,11.12,0,0,0,12.46,0,6.33,6.33,0,0,1,7.39,0,11.12,11.12,0,0,0,12.46,0A5.8,5.8,0,0,1,90.81,51V46.21a10.55,10.55,0,0,0-6.23,1.91,5.8,5.8,0,0,1-3.69,1.19Z"/><path class="cls-1" d="M61,60.32a5.89,5.89,0,0,1-3.7-1.19,11.07,11.07,0,0,0-12.46,0,6.33,6.33,0,0,1-7.39,0,10.49,10.49,0,0,0-6.23-1.92V62A5.88,5.88,0,0,1,35,63.18a11.07,11.07,0,0,0,12.46,0,6.38,6.38,0,0,1,7.39,0,11.07,11.07,0,0,0,12.46,0A5.85,5.85,0,0,1,71,62V57.21a10.54,10.54,0,0,0-6.23,1.92A5.86,5.86,0,0,1,61,60.32Z"/><path class="cls-1" d="M41.19,33.41a5.8,5.8,0,0,0,3.69-1.19,11.12,11.12,0,0,1,12.46,0,6.33,6.33,0,0,0,7.39,0,10.49,10.49,0,0,1,6-1.91c-2.78-7.53-8.29-14-16.46-19.43A83.45,83.45,0,0,0,32.86,1.29a2.69,2.69,0,0,0-2.78.76,2.43,2.43,0,0,0-.43,2.62l4.11,9.48a35.76,35.76,0,0,1,2.86,17.54l.87.53a5.83,5.83,0,0,0,3.7,1.19Z"/><path class="cls-1" d="M80.89,38.14A5.88,5.88,0,0,1,77.19,37a11.07,11.07,0,0,0-12.46,0,6.38,6.38,0,0,1-7.39,0,11.07,11.07,0,0,0-12.46,0,6.38,6.38,0,0,1-7.39,0A10.42,10.42,0,0,0,31.26,35,10.47,10.47,0,0,0,25,37a5.85,5.85,0,0,1-3.69,1.18A5.88,5.88,0,0,1,17.64,37,10.42,10.42,0,0,0,11.41,35H9.19V40h2.22a5.89,5.89,0,0,1,3.7,1.19,10.49,10.49,0,0,0,6.23,1.92,10.52,10.52,0,0,0,6.23-1.92,6.33,6.33,0,0,1,7.39,0,11.07,11.07,0,0,0,12.46,0,6.33,6.33,0,0,1,7.39,0,11.07,11.07,0,0,0,12.46,0,6.33,6.33,0,0,1,7.39,0,11.07,11.07,0,0,0,12.46,0A5.86,5.86,0,0,1,90.81,40V35A10.47,10.47,0,0,0,84.58,37a5.85,5.85,0,0,1-3.69,1.18Z"/></svg>