<svg id="Livello_1" data-name="Livello 1" xmlns="http://www.w3.org/2000/svg" viewBox="0 0 100 66"><title>iconTavola disegno 77</title><path d="M25,39.93c-.58.69-1.19,1.36-1.72,2.08A8.22,8.22,0,0,0,35.94,52.43a2.6,2.6,0,0,0,.27-.36C36.11,52,36,52,36,52c-1.49.82-1.4.78-2.13-.71s-.53-2.08-2.81-1.49a2.81,2.81,0,0,1-3.14-1.12,3,3,0,0,1,2.79-4.75c-.19.27-.38.49-.52.73s-.25.5-.49,1a4.72,4.72,0,0,0,.59-.38L39,37.71H37.42c.84-1.09,0-1.91-.44-2.73-.88-1.56-1.89-3-2.79-4.59a1.36,1.36,0,0,0-1.35-.78,10.2,10.2,0,0,1-2.26-.28c-.26-.06-.46-.41-.69-.62.22-.23.41-.59.68-.65,1.14-.26,2.32-.4,3.47-.67.91-.21,1.79-.56,3-1C35.86,25,34.78,23.9,33.8,22.67a18.86,18.86,0,0,1-2.4-3.4,3.94,3.94,0,0,1,.74-4.57,36.57,36.57,0,0,1,12.6-9.06l.43-.17c2.83-.91,4.29-.42,5.63,1.61.13-1.31.28-2.95.47-4.58.24-2,.5-2.17,2.5-1.75,3.48.74,6.09,3.82,5.83,6.88,0,.18-.07.36-.14.72L56,6.12l-.16.23L57.52,7.6c-.43.71-.8,1.34-1.2,1.94a1.86,1.86,0,0,1-.56.43c-.6.34-1.21.64-1.8,1-1,.58-1.3-.33-1.8-.79-.52,2.21-1.07,4.43-1.55,6.67a5.21,5.21,0,0,0,.2,1.54l-2.08-3.09,1-1.21-.11-.14-1.08.78-1.18-1.5c1.06-1.09,2.38-2.25,1.83-4.46-.32,2.43-1.65,4-3,3.9,1.18,1.75,2.37,3.55,3.61,5.32a5.61,5.61,0,0,0,1,.86c.69.58,1.36,1.19,2.07,1.75.43.34,1,.54,1.37.9a14.21,14.21,0,0,1,1.19,1.42l-2.69.76c1.57,1.46,2.3,3,3.92,3.95,1,.58,1.67,1.83,2.44,2.82.5.65.77.79,1.68.3a12.59,12.59,0,0,1,4.69-1.42,11.22,11.22,0,0,1,4.79.51,16,16,0,0,1,4.26,2.74,8.62,8.62,0,0,1,3,5.31,12.74,12.74,0,0,1,0,5,11.69,11.69,0,0,1-2,4.49,11.27,11.27,0,0,1-3.73,3.13A14.26,14.26,0,0,1,67,51.75a7.87,7.87,0,0,1-5-1,19.86,19.86,0,0,1-3.84-2.72,10.27,10.27,0,0,1-2.82-5.9A12.05,12.05,0,0,1,56.12,36,22.46,22.46,0,0,1,58,32.74l1.47,1.81c-4.17,5.68-1.36,11.5,2.24,13.67a9.11,9.11,0,0,0,9.73-15.4c-3.19-2.08-8.53-1.86-10.27.72,3.26-1.94,6.37-2.29,9.52-.6a8.35,8.35,0,0,1,3.87,4.48A8.62,8.62,0,0,1,59.9,46a8.24,8.24,0,0,1,0-10.75c-1.37,2.29-2.11,4.69-1.36,7.34a8,8,0,0,0,5.08,5.62,8.23,8.23,0,0,0,8.42-13.8A8.11,8.11,0,0,0,61.8,33.8a25.66,25.66,0,0,0,1.88,2.39,1.3,1.3,0,0,0,1.15.12,4.49,4.49,0,0,1,5.44,1.61,4.53,4.53,0,0,1-6.43,6.19,4.08,4.08,0,0,1-1.09-5.49,5.74,5.74,0,0,1,.06,1.09,3.79,3.79,0,1,0,5.61-2.49,3.35,3.35,0,0,0-3.84.18c.6.65.84,1.64,2.14,1.49.84-.1,1.5.9,1.37,1.76A1.45,1.45,0,0,1,66.46,42c-.36,0-1.18.19-.73-.74,0,0-.11-.16-.17-.24-3-3.71-5.91-7.44-8.91-11.13a20.12,20.12,0,0,0-2.24-2c-2.07,5.16-4,10-6.06,15.06,1.08,0,1.87,0,2.64,0a3.56,3.56,0,0,1,1.06.44c-.16.35-.23.82-.49,1a7.64,7.64,0,0,1-4.26,1.43c-.79.07-1.57.26-2.58.43a8.44,8.44,0,0,0,.58,1.49.85.85,0,0,0,.79,0,6.42,6.42,0,0,0,.5-1.4c.42,0,1.06-.12,1.7-.15.16,0,.44.1.46.2a1.07,1.07,0,0,1-.14.59c-.19.34-.47.64-.64,1a2.82,2.82,0,0,1-2.42,1.61,23,23,0,0,0-4.74,1.1c-.53.19-.76,1.18-1.13,1.8a8.92,8.92,0,0,1-3.56,3.69,23.58,23.58,0,0,1-4.32,1.72,9.8,9.8,0,0,1-5.22-.32,10.45,10.45,0,0,1-4.23-2.34,20.78,20.78,0,0,1-2.22-3A7.83,7.83,0,0,1,18.67,48a10.83,10.83,0,0,1,.66-5.09A9.43,9.43,0,0,1,21.86,39c1.37-1.1,2.59-2.47,4.46-2.76a23.82,23.82,0,0,1,4.78-.62,9.74,9.74,0,0,1,5.62,2.27,2.63,2.63,0,0,1,.4.66l-1.4,1.19C33,38,30.13,37.06,26.88,38.23a8.9,8.9,0,0,0-5.18,4.68A9.09,9.09,0,0,0,25.85,55c4.18,2.08,9.63.54,11.52-3.44-.27.25-.56.49-.8.76a8.35,8.35,0,0,1-8.74,2.87,8.28,8.28,0,0,1-6.34-6.51A8.05,8.05,0,0,1,25,40ZM50.15,22.65C49,19.59,46,18.31,43.52,16.42l1.31,1.7a4.21,4.21,0,0,1-3.51.54c-1.25-.43-2.53-.74-3.8-1.1l-.07.23,3.06,1.48-3.34,1.36a5.75,5.75,0,0,0,1.95-.08L41,20.29l0,.36-2.54.64,0,.09,4.41-.2,0,.39-1.38.37,2.2.52,0,.29-2,.24v.21l3,.55c-.27,1.59,1.36,1.06,2,2.08l-5.93-.6-.07.23,5.47,2.12-.68,1.09,3-1.79A25.12,25.12,0,0,0,41.9,19.5a2,2,0,0,1,1.52.41c1.6,1.65,3.16,3.36,4.7,5.08,1,1.06,1.93,2.15,1.16,3.85a7.15,7.15,0,0,0,1-.69c2.44-2,2.17-1.78.42-4.07A4.85,4.85,0,0,1,50.15,22.65Zm-12,3.22L38,26a44.75,44.75,0,0,0,3.69,3.22,2.51,2.51,0,0,1,1,3H40.51l-3.16-5L35.1,29c.76,1.19,1.46,2.31,2.19,3.42a.94.94,0,0,0,.6.43c1.84,0,3.69,0,5.55,0,.11-1,.23-1.85.29-2.72a.91.91,0,0,0-.25-.67C41.71,28.27,39.92,27.07,38.14,25.87Zm8.37,11.05,2.12-9.1c-1.87.87-3.71,1.56-4.09,3.41a28,28,0,0,0-.07,5.5Zm.15,5.23h.53L51.66,29.6l-.41-.31c-.88.82-2.17,1.49-2.56,2.51a53.51,53.51,0,0,0-2,7.45A12.78,12.78,0,0,0,46.66,42.15ZM38.11,48l-4.78-.81c0,.46-.19.87-.06,1.13.41.79,1,1.5,1.39,2.28s.78,1,1.62.74,2-.56,2.95-.84L44,49.23c-1.08-1.44-2.22-1.36-3,0a4.9,4.9,0,0,1-1,.9l.23-1.84c-.77.66-.27,2.29-1.8,1.94l.46-2-.31-.1-1,2.55-.26-.09ZM45.89,6.48l-.09-.19L38,10.87l.14.3,1.55.46c-3.14-.39-4.62,1.83-6.41,3.72l4.84.47,0-.16-3.56-1.08a2.25,2.25,0,0,1,3-.13l-.81-1.74,3,1.19,0-.15L38.23,12.6l.14-.21,2.43,1.16v-2.1l-1.41-.75c.71-.17,1.4,0,2-.11a5.21,5.21,0,0,0,1.5-.9c-.6-.65.15-.88.43-1.13C44.15,7.82,45,7.16,45.89,6.48Zm-7,33,2.25,4.91-.41.22c-1.19-.29-.7-1.86-1.63-2.41l.74,2.36c-1,.24-.92.22-1.25-.49-.44-1-.95-1.92-1.43-2.88l-.31.17,1.6,3.4c-2.49.63-3.65.15-3.91-1.56l-1.85,1.49a1.52,1.52,0,0,0,2,1.2c1.61-.28,3.23-.48,4.85-.72l3.08-.48-1.26-.82.57-.67C40.81,42.1,40.76,40.15,38.84,39.43Zm4.67-3.35c-.74.65-1.48,1.28-2.19,2a.71.71,0,0,0-.11.67c.66,1.06,1.37,2.08,2.07,3.12l.23-.11Zm31.73-.58c2.12,4.79,1.36,8.82-2.2,12.61C76.82,45.68,78,39.25,75.24,35.5ZM39.77,17.21a5.71,5.71,0,0,0-4.22-.75l0,.33Zm2.57,17.6a2.32,2.32,0,0,0-2.37,2ZM39.5,51.33l-.28-.22-2.68,3.43.22.18Zm7.33-8.92c-1.37-.2-1.72.76-2.43,1.19l.27.4Z"/><path d="M63.81,60.94,63,59.34a15,15,0,0,1,3-.79,15.18,15.18,0,0,0,5.75-1.73c2-.92,4-1.77,5.9-2.71a1,1,0,0,1,1.43.37c.72.94,1.51,1.81,2.25,2.73a4.68,4.68,0,0,0,2.56,2A2.67,2.67,0,0,1,85,60.1c1.56,1.78,3.09,3.57,4.72,5.46H10.92l6.82-3.3a.56.56,0,0,1,.33-.06c2.68.47,4.74-1.06,6.91-2.19a3.09,3.09,0,0,1,2.59-.37c2.82,1,5.55.26,8.27-.5l.6-.15v1.74a6.55,6.55,0,0,0,.83-1,2.2,2.2,0,0,1,2.95-1.2c5.4,2,10.59.21,15.79-.81a6.48,6.48,0,0,1,5,1.22,29.89,29.89,0,0,1,2.66,2.13ZM44.64,62.22c2,1,3.9,1.82,6,.21a2,2,0,0,1,1.46-.11,23,23,0,0,1,2.41.85l.06-.13-2.78-2.58A7.51,7.51,0,0,1,44.64,62.22Zm34.11-5.35-7.07,3.89.11.26c1.21-.5,2.42-1,3.62-1.5s2.19-1.18,3.34.13Zm-44.43,7c1.23,1.51,2.67.19,3.93.49A4.15,4.15,0,0,0,34.32,63.9Zm-14.75-.41,6-1.23C23.22,61.34,21.49,63,19.57,63.49Z"/><path d="M25,40a5.52,5.52,0,0,1,3.88-1.61,8.44,8.44,0,0,1,5.08.9,2.92,2.92,0,0,1,1,.9,1.87,1.87,0,0,1-.52-.17,8.08,8.08,0,0,0-8.54-.36,6,6,0,0,1-1,.31Z"/></svg>