<svg id="Livello_1" data-name="Livello 1" xmlns="http://www.w3.org/2000/svg" viewBox="0 0 100 66"><defs><style>.cls-1{fill:#030402;}</style></defs><title>iconTavola disegno 9</title><path class="cls-1" d="M51.93,56.42H48.07a9.2,9.2,0,0,1-9.19-9.19V43.29a1.24,1.24,0,0,0-.53-1,19.27,19.27,0,1,1,25-29.24A19.27,19.27,0,0,1,61.64,42.3a1.25,1.25,0,0,0-.52,1v3.94A9.2,9.2,0,0,1,51.93,56.42ZM50,9.52H49.3a17.44,17.44,0,0,0-9.84,31.31,3.06,3.06,0,0,1,1.25,2.45v3.94a7.37,7.37,0,0,0,7.36,7.36h3.86a7.36,7.36,0,0,0,7.35-7.36V43.29a3.08,3.08,0,0,1,1.25-2.45A17.43,17.43,0,0,0,50,9.52Z"/><rect class="cls-1" x="41.65" y="55.5" width="16.7" height="3.31" rx="0.66"/><path class="cls-1" d="M56.34,62.38H43.66a1.56,1.56,0,0,1-1.56-1.56h0a1.56,1.56,0,0,1,1.56-1.57H56.34a1.56,1.56,0,0,1,1.56,1.57h0A1.56,1.56,0,0,1,56.34,62.38Z"/><polygon class="cls-1" points="54.87 62.33 53.3 65.57 46.7 65.57 45.13 62.33 54.87 62.33"/><path class="cls-1" d="M52.6,51.49a.92.92,0,0,1-.92-.92V37.28H48.32V50.57a.92.92,0,1,1-1.83,0V37.28H45.13a3.19,3.19,0,1,1,3.19-3.19v1.36h3.36V34.09a3.19,3.19,0,1,1,3.19,3.19H53.51V50.57A.92.92,0,0,1,52.6,51.49Zm.91-16h1.36a1.36,1.36,0,1,0-1.36-1.36Zm-8.38-2.72a1.36,1.36,0,0,0,0,2.72h1.36V34.09A1.36,1.36,0,0,0,45.13,32.73Z"/><path class="cls-1" d="M50,5.36a.46.46,0,0,1-.46-.46v-4a.46.46,0,0,1,.92,0v4A.46.46,0,0,1,50,5.36Z"/><line class="cls-1" x1="43.53" y1="5.93" x2="42.16" y2="2.16"/><path class="cls-1" d="M43.53,6.39a.45.45,0,0,1-.43-.3L41.72,2.32A.47.47,0,0,1,42,1.73a.46.46,0,0,1,.59.27L44,5.78a.44.44,0,0,1-.27.58A.45.45,0,0,1,43.53,6.39Z"/><line class="cls-1" x1="56.47" y1="5.93" x2="57.84" y2="2.16"/><path class="cls-1" d="M56.47,6.39a.45.45,0,0,1-.16,0A.44.44,0,0,1,56,5.78L57.41,2A.46.46,0,0,1,58,1.73a.46.46,0,0,1,.27.59L56.9,6.09A.46.46,0,0,1,56.47,6.39Z"/></svg>