<svg id="Livello_1" data-name="Livello 1" xmlns="http://www.w3.org/2000/svg" viewBox="0 0 100 66"><defs><style>.cls-1{fill:#060606;}</style></defs><title>iconTavola disegno 48</title><path class="cls-1" d="M69.12,37.86A13.84,13.84,0,0,0,63.32,39l-2.54-4.92.9.37a4.24,4.24,0,0,0,5.47-2.22,3.36,3.36,0,0,0,.24-.74h1.37a1,1,0,0,0,1-.95,1,1,0,0,0-1-1H67.36q-.08-.27-.18-.54a4.37,4.37,0,0,0-2.36-2.38l-7.2-3,.15-6.46v0a8.26,8.26,0,0,0,12-6.76,3.16,3.16,0,0,0,1.11-1,3.22,3.22,0,0,0,.39-2.93A8.56,8.56,0,0,0,68.4,2.43a11,11,0,0,0-6.83-2,10.14,10.14,0,0,0-5.48,1.7,1,1,0,0,0-.26,1.4,1,1,0,0,0,1.31.24,8.21,8.21,0,0,1,4.43-1.4c4.1,0,6.76,1.59,7.91,4.72a1.32,1.32,0,0,1-.15,1.22,1.27,1.27,0,0,1-1,.53H53.15a.47.47,0,0,1-.43-.27.46.46,0,0,1,0-.49,19.07,19.07,0,0,1,1.41-1.74,1,1,0,0,0,0-1.34h0a1,1,0,0,0-1.41,0,22.91,22.91,0,0,0-1.54,1.91A2.4,2.4,0,0,0,51,9.45a2,2,0,0,0,.24.38,11.78,11.78,0,0,0-3.81,2.54l-6.11,6.12-.26.27h0a7.11,7.11,0,0,0,.27,9.79l.41.42H35.86a1,1,0,0,0-1,.94,1,1,0,0,0,1,1h2.39l2.41,4.22-2.87,4.44a13.66,13.66,0,0,0-7.2-1.71,13.85,13.85,0,1,0,14.34,14.8h6.28a1,1,0,0,0,.84-.49l8.35-14.69,1.23,2.38a13.85,13.85,0,1,0,7.53-2ZM60.71,10.78h3.11v.82a1,1,0,1,0,1.94,0v-.82h2.07a6.35,6.35,0,0,1-6.26,5.36,6.11,6.11,0,0,1-.86-.06v-5.3Zm-1.94,0v4.71a6.37,6.37,0,0,1-3.46-4.71Zm-10,3a9.7,9.7,0,0,1,4.61-2.59,8,8,0,0,0,.48,1.71h-.23A4.23,4.23,0,0,0,49.34,17l-.2,8.45-6-6ZM41.88,20.9,50,29a4.1,4.1,0,0,0,.69.69L52,31l-3.51,2-5.76-5.76A5.17,5.17,0,0,1,41.88,20.9Zm-1.43,10h2.77a1.11,1.11,0,0,0,.37-.07l3.61,3.6H42.46Zm6.3,5.48-.93,4-2.25-4ZM30.27,51.18a1,1,0,0,0,0,1,1,1,0,0,0,.85.5h8.71A8.76,8.76,0,1,1,35,43.86Zm2.59-.45,3.76-5.82a8.78,8.78,0,0,1,3.17,5.82ZM31.08,63.61a11.91,11.91,0,1,1,5.62-22.4l-.65,1a10.71,10.71,0,1,0,5.69,10.45H43A11.93,11.93,0,0,1,31.08,63.61ZM41.74,50.73h0a10.67,10.67,0,0,0-4.06-7.45l.65-1A11.89,11.89,0,0,1,43,50.73Zm3.15,0a13.83,13.83,0,0,0-5.51-10.1L41.7,37l3.47,6.09-.4,1.67a3.88,3.88,0,0,0,3,4.69,4,4,0,0,0,.76.08h.3l.67,1.17Zm3.27-3.14a1.89,1.89,0,0,1-1-.53,1.92,1.92,0,0,1-.52-1.81l2.27-9.63h0l.19-.82,4.14-2.34a1.92,1.92,0,0,1,.11,1.23L53,35.22h0L50.46,46.06A2,2,0,0,1,48.16,47.59Zm3,2.15-.48-.84a4,4,0,0,0,1.66-2.39L54.73,36.4h4Zm4-15.29h0l.07-.31A3.83,3.83,0,0,0,55,31.7l3,1.22.79,1.53Zm3.9-3.18h0l-6.62-2.72a2.42,2.42,0,0,1-.39-.21,2.25,2.25,0,0,1-1-1.95L51.28,17a2.28,2.28,0,0,1,2.28-2.22h0a2.28,2.28,0,0,1,2.22,2.33h0l-.16,7.12a1,1,0,0,0,.6.92l7.81,3.22a2.32,2.32,0,0,1,1.21,1.12H63.37a1,1,0,0,0,0,1.95h2a2.29,2.29,0,0,1-2.94,1.16Zm9.69,32.34a11.91,11.91,0,0,1-6.29-22L63,42.67a10.71,10.71,0,0,0,9.66,19,1,1,0,1,0-.71-1.8,8.77,8.77,0,0,1-8.06-15.46l4,7.74a1,1,0,0,0,.86.52.91.91,0,0,0,.45-.11,1,1,0,0,0,.42-1.3l-4-7.75a8.77,8.77,0,0,1,9,14.7A1,1,0,1,0,76,59.64a10.7,10.7,0,0,0-11.2-17.86l-.55-1.07a11.79,11.79,0,0,1,4.57-.91,11.91,11.91,0,1,1,0,23.81Z"/></svg>