<svg id="Livello_1" data-name="Livello 1" xmlns="http://www.w3.org/2000/svg" viewBox="0 0 100 66"><defs><style>.cls-1{fill:#030402;}</style></defs><title>iconTavola disegno 19</title><path class="cls-1" d="M57,24.76a11.41,11.41,0,0,1-2.61-7.25V12.74h.13a1.85,1.85,0,0,0,1.84-1.84V9.53a1.84,1.84,0,0,0-1.42-1.78v-5A2.22,2.22,0,0,0,52.7.53H48.21A2.21,2.21,0,0,0,46,2.75v5a1.83,1.83,0,0,0-1.42,1.78V10.9a1.84,1.84,0,0,0,1.83,1.84h.13v4.77a11.41,11.41,0,0,1-2.61,7.25,13.38,13.38,0,0,0-3,8.48,1,1,0,0,0,1.92,0A11.46,11.46,0,0,1,45.41,26a13.33,13.33,0,0,0,3.05-8.47V12.74h4v4.77a13.27,13.27,0,0,0,3,8.47,11.46,11.46,0,0,1,2.61,7.26v4.1h-9A2.13,2.13,0,0,0,47,39.48v10A2.13,2.13,0,0,0,49.1,51.6h9v3.82a1,1,0,1,0,1.91,0V33.24A13.32,13.32,0,0,0,57,24.76ZM48.21,2.44H52.7a.3.3,0,0,1,.3.31v5H47.91V2.75a.31.31,0,0,1,.3-.31Zm-1.72,8.38V9.61h7.93v1.21ZM58.12,49.68h-9a.22.22,0,0,1-.22-.22v-10a.22.22,0,0,1,.22-.23h9Zm0,0"/><path class="cls-1" d="M59.07,58.92a1,1,0,0,0-1,1v2.27a1.7,1.7,0,0,1-1.7,1.7H44.5a1.7,1.7,0,0,1-1.7-1.7V37.7a1,1,0,0,0-1.92,0V62.15a3.62,3.62,0,0,0,3.62,3.62H56.42A3.62,3.62,0,0,0,60,62.15V59.88a1,1,0,0,0-1-1Zm0,0"/></svg>