<svg id="Livello_1" data-name="Livello 1" xmlns="http://www.w3.org/2000/svg" viewBox="0 0 100 66"><title>iconTavola disegno 121</title><path d="M21.28,3.9A2.87,2.87,0,0,1,23,1c.71-.28,1.15.07,1.55.66a29.47,29.47,0,0,0,1.91,2.57A4.1,4.1,0,0,0,28.79,5.8a1.73,1.73,0,0,1,1.05,1A4.4,4.4,0,0,0,33.55,10C35.3,10.22,36,11.68,37,13L34.5,14.33c.55,3.15,2.74,5,5,6.71.58.43,1.54.32,2.29.57a9,9,0,0,1,2.31,1A56.31,56.31,0,0,0,48.8,26,32,32,0,0,0,59.51,29.5,15,15,0,0,1,69.1,35a11.35,11.35,0,0,1,1.71,4.36c.55,2.13.75,4.38,2.21,6.18.26.33.64.55.92.87s.28.71.53.82c2.33,1.11,4.7,2.19,7.31.92a7.85,7.85,0,0,0,1.53-1.42c.08,1.1.13,2.14.23,3.18C83.82,52.62,82,54.05,80,55.1c-1.24.65-2.8.67-4.19,1a3.52,3.52,0,0,1-3.66-.86l-.31.15A28.12,28.12,0,0,0,72,58.73a7.56,7.56,0,0,1-.51,3.42c-.85,3.05-3.09,2.81-5.32,2.9a8.83,8.83,0,0,1-1.15,0,1.34,1.34,0,0,1-1.11-1.59,2.83,2.83,0,0,1,2.68-2.34c1.19-.18,1.6-.56,1.42-1.7-.36-2.36-.77-4.71-1.29-7a2.49,2.49,0,0,0-1.16-1.27,11.73,11.73,0,0,0-2-.74,40.43,40.43,0,0,0-2.28,5.23C60.53,58.05,59,60,57.71,62a1.07,1.07,0,0,1-.78.33c-1.49.07-3,.11-4.47.14-1.32,0-1.74-.63-1.1-1.76A2.87,2.87,0,0,1,53.48,59a3.59,3.59,0,0,0,2.94-2.49c.45-1.2.91-2.4,1.27-3.63.52-1.74,0-2.83-2-3.46A5.24,5.24,0,0,1,52.9,47a10.78,10.78,0,0,0-1.61-2,3.22,3.22,0,0,0-3.41-.45,10.63,10.63,0,0,0-1.84.67,2.21,2.21,0,0,0-.9,1,17.46,17.46,0,0,0-.82,10.71c.6,2.54-.58,4.69-.45,7,0,.24-.43.66-.73.73a11.44,11.44,0,0,1-2.72.38,24.06,24.06,0,0,1-3-.4,1.88,1.88,0,0,1,1.16-2.39,3.48,3.48,0,0,0,1.93-3.69c-.15-1.58-.54-3.13-.77-4.7-.2-1.4-.29-2.81-.5-4.21a36.58,36.58,0,0,0-.75-3.75,2.71,2.71,0,0,0-.86-1.24c-.41-.34-1-.37-1.14.29C36.1,47.21,34.05,48.27,33,50a8.15,8.15,0,0,0-.81,2c-.58,2.06-1.12,4.14-1.65,6.22-.12.46-.08,1-.18,1.43a2.84,2.84,0,0,1-.36.91c-.25.43-.62.81-.83,1.26a1.49,1.49,0,0,1-1.55.95c-1.32-.06-2.63-.13-3.94-.21s-1.56-.6-.87-1.67,1.2-2,2.7-1.94c.42,0,1.09-.76,1.27-1.3.57-1.77,1-3.6,1.44-5.41a28.08,28.08,0,0,0,1.18-7.77,7.45,7.45,0,0,0-.63-2.67c-.44-1-1.16-1.87-1.68-2.84s-.9-2-1.42-3a7.6,7.6,0,0,0-1.55-2.38,5.1,5.1,0,0,1-1.84-4.41c0-1.39-.09-2.79.06-4.16.19-1.63.63-3.24.9-4.86a5,5,0,0,0-.06-1.58,15.48,15.48,0,0,0-.54-2.21c-.22-.67-.57-1.3-.82-2a1.15,1.15,0,0,1,.06-.6,6.83,6.83,0,0,0-.64-4.69c-.63-1.37-.54-3.08-.7-4.65C20.5,4.35,21,4.15,21.28,3.9Z"/></svg>