<svg id="Livello_1" data-name="Livello 1" xmlns="http://www.w3.org/2000/svg" viewBox="0 0 100 66"><title>iconTavola disegno 57</title><path d="M54.13,10.24V5.78c-1-.23-1.93-.47-2.9-.69-1.35-.31-1.49-.47-1.49-1.83,0-.52,0-1,0-1.58A1,1,0,0,1,50.85.56c3.42,0,6.83-.06,10.25,0A4.36,4.36,0,0,1,65,6.15c-.41,1.55-.88,3.08-1.39,4.59a4.35,4.35,0,0,1-4.22,3H57.09c.66,1.64,1.3,3.22,1.93,4.8A2.49,2.49,0,0,0,60.43,20c2.55,1.12,5.12,2.2,7.63,3.42a22,22,0,0,1,3.11,2.1c.84.63,1.63,1.34,2.47,2a2.39,2.39,0,0,1,1.19,2.44,3,3,0,0,1-2.21,2.39,1.28,1.28,0,0,1-.67.12c-.82-.25-1.19.36-1.73.74-.89.62-1.87,1.1-2.93,1.71l-.78-2.17,2.43-1.24c0-.18,0-.24-.06-.26a18.23,18.23,0,0,0-5.41-3,1.49,1.49,0,0,0-.78.05c-.5.14-1,.33-1.55.52l4.45,10.89A13.15,13.15,0,0,1,77,41.36a12.77,12.77,0,0,1,5.39,7.85,13.2,13.2,0,1,1-18.9-8.74l-1-2.54-1.16,1.22c-2.48,2.66-5,5.32-7.45,8a3.79,3.79,0,0,0-.76,1.34c-.33.94-.55,1.93-.86,2.89a.85.85,0,0,0,.27,1c.78.71,1.5,1.48,2.25,2.22a1.15,1.15,0,0,1-.86,2.07c-2,0-4.08,0-6.12,0a2.19,2.19,0,0,1-2.44-2.46v-.79h-2.2a13.19,13.19,0,0,1-7.8,10.9A12.65,12.65,0,0,1,25,64.53,13.22,13.22,0,1,1,36.53,40.81c.21-.25.43-.5.64-.76,1.09-1.36,2.17-2.73,3.27-4.08a.85.85,0,0,0,.19-.92c-.51-1.44-1-2.89-1.46-4.35-.12-.36-.3-.43-.64-.45a5.49,5.49,0,0,1-5.31-5.47,10,10,0,0,1,2.44-7.49,12.11,12.11,0,0,1,2.37-2c2.83-1.76,5.73-3.44,8.58-5.17a6.6,6.6,0,0,1,7.21-.06ZM64.39,42.63c-5,2.43-7.22,9-4.82,14.21A11,11,0,0,0,79.66,48a10.85,10.85,0,0,0-13.18-6.15l4.1,10-2.06.86Zm-29.3,0A11,11,0,1,0,33,62.81c4.3-1.26,8-5.68,7.77-9.44H29.17c-.56,0-1.07-.05-1.34-.62a1.28,1.28,0,0,1,.32-1.44q3.21-4,6.4-8ZM66.76,25.26c-.27-.13-.49-.25-.72-.35C64,24,62,23.05,59.9,22.2a5.32,5.32,0,0,1-3.16-3.31,21.11,21.11,0,0,0-2.83-5.68,4.31,4.31,0,0,0-5.59-1.44c-3.27,1.88-6.5,3.84-9.7,5.84a6.77,6.77,0,0,0-2.8,3.79,1.38,1.38,0,0,0,.26.05q4.31,0,8.59,0a1.65,1.65,0,0,0,.76-.26c1.4-.82,2.78-1.67,4.18-2.49a3.48,3.48,0,0,1,5.15,1.51c1.5,2.95.87,2.39,4,3.67l7,2.81ZM51.28,54.44l.11-.14c-.28-.25-.55-.52-.85-.75a1.8,1.8,0,0,1-.61-2.23c1.17-3.94,2.25-7.91,3.41-11.85A4.89,4.89,0,0,0,52.6,35q-3.8-5.42-7.55-10.89a.88.88,0,0,0-.82-.45c-2.71,0-5.41,0-8.11,0h-.65c-.18,3,1.1,4.39,4,4.39,1.15,0,2.29,0,3.44,0a1.39,1.39,0,0,1,1.34.75c1.73,2.78,3.48,5.54,5.19,8.33a2.07,2.07,0,0,1,.28,1.23c-.59,4-1.23,8-1.83,12-.2,1.35-.29,2.7-.44,4.09ZM47,22.9c.16.24.29.45.43.65,2,2.87,4,5.71,5.92,8.61a1.84,1.84,0,0,0,2.13,1c1.57-.3,3.17-.39,4.85-.59-.5-1.21-.94-2.36-1.44-3.49s-.58-1.83.93-2.3c0,0,0,0,0-.11a16.26,16.26,0,0,0-1.66-.65,7.35,7.35,0,0,1-5.43-4.85,1.19,1.19,0,0,0-1.86-.64C49.57,21.3,48.29,22.1,47,22.9Zm-10,21-5.81,7.28h9.66A10.93,10.93,0,0,0,37,43.86Zm4.62-5.78-3.22,4a13.43,13.43,0,0,1,4.73,9H45.6a8.81,8.81,0,0,0-.19-1.68C44.28,46,43.11,42.53,42,39.06ZM62.19,7.62l-5.8-1.34v5.27c1,0,2,0,3,0a2,2,0,0,0,1.91-1.22C61.65,9.46,61.89,8.56,62.19,7.62ZM55.65,35.38a26.49,26.49,0,0,1,.05,3.77,29.11,29.11,0,0,1-1,3.82l1.79-1.91c1.58-1.68,3.16-3.36,4.71-5.07a1.06,1.06,0,0,0,.12-.83.65.65,0,0,0-.54-.33C59,35,57.23,35.2,55.65,35.38ZM46.3,45l.12,0c.32-2,.6-4.06,1-6.08.18-1-.61-1.61-1-2.38,0-.07-.26-.08-.38-.07l-2.47.28ZM62.77,5.46a2.14,2.14,0,0,0-2.26-2.7c-2.7,0-5.4,0-8.11,0a2.87,2.87,0,0,0-.41,0V3ZM41.41,30.35c.44,1.3.86,2.6,1.31,3.89a.48.48,0,0,0,.38.27c.6,0,1.2-.12,1.92-.21-.72-1.16-1.42-2.2-2-3.29A1.18,1.18,0,0,0,41.41,30.35ZM68.7,26.41l-.9,1.35c1.19.78,2.33,1.57,3.51,2.3.51.31,1,.08,1.28-.55Z"/></svg>