<svg id="Livello_1" data-name="Livello 1" xmlns="http://www.w3.org/2000/svg" viewBox="0 0 100 66"><defs><style>.cls-1{fill:#060606;}</style></defs><title>iconTavola disegno 112</title><path class="cls-1" d="M78.48,27.23,76.89,25a13.7,13.7,0,0,0-10.84-5.9L49.34,2.34a3.52,3.52,0,0,0-5.87,3.51A25.45,25.45,0,0,0,50,16.6l-8.34-2.23a3.53,3.53,0,0,0-3.33,6,25.84,25.84,0,0,0,16.88,6.87,10.48,10.48,0,0,0-.32,2.58V30H42.63A17.6,17.6,0,0,0,35,31.71a1.25,1.25,0,0,0,.54,2.38,1.29,1.29,0,0,0,.54-.12,15,15,0,0,1,6.55-1.49H55.21a10.76,10.76,0,0,0,10.42,8.08h5.63a20.83,20.83,0,0,1-4.51,10.73V50a1.25,1.25,0,1,0-2.5,0v8.27a1.25,1.25,0,0,0,1.25,1.25,4.54,4.54,0,0,1,4.35,3.27H62.56l-3-11.7a1.25,1.25,0,1,0-2.42.61l1.44,5.73A20.82,20.82,0,0,1,55,58.65,7.09,7.09,0,0,0,52,57.21a9.8,9.8,0,0,0,.07-2.42,9.45,9.45,0,0,0-9.2-8.66,10.07,10.07,0,0,0-7,2.73A9.37,9.37,0,0,0,33,55.69a9.47,9.47,0,0,0,1.13,4.5,15.14,15.14,0,0,1-6.66-12.54,15,15,0,0,1,1.41-6.4,1.25,1.25,0,1,0-2.27-1,17.72,17.72,0,0,0-1.2,11.37,7,7,0,1,0,7.32,10.7,17.57,17.57,0,0,0,9.88,3H56.25a1.25,1.25,0,0,0,1.25-1.25,6.92,6.92,0,0,0-.81-3.27,25.77,25.77,0,0,0,2.56-.88l1.13,4.46a1.25,1.25,0,0,0,1.21.94h9.68a1.25,1.25,0,0,0,1.25-1.25,7,7,0,0,0-5.77-6.91V55a23.37,23.37,0,0,0,7-14.76,8.49,8.49,0,0,0,4.68-13ZM27,62.81A4.46,4.46,0,0,1,26.14,54a17.73,17.73,0,0,0,4.61,6.74A4.48,4.48,0,0,1,27,62.81Zm15.66,0h0a7.09,7.09,0,1,1,.29-14.18A6.94,6.94,0,0,1,49.61,55a6.85,6.85,0,0,1-.32,2.88A1.24,1.24,0,0,0,49.47,59a1.23,1.23,0,0,0,1,.52h0a4.54,4.54,0,0,1,4.35,3.27ZM45.86,5.12A1,1,0,0,1,46.31,4a1,1,0,0,1,1.26.16L62.87,19.4a10.87,10.87,0,0,0-1.1.36l-5.52-1.48A23,23,0,0,1,45.86,5.12ZM40,18.52a1,1,0,0,1-.19-1.24,1,1,0,0,1,1.17-.5l17.75,4.76a10.81,10.81,0,0,0-2.6,3.18A23.26,23.26,0,0,1,40,18.52ZM71.49,38.06H65.63a8.26,8.26,0,1,1,0-16.51,11.21,11.21,0,0,1,9.21,4.82l1.58,2.28a6,6,0,0,1-4.93,9.41Z"/><path class="cls-1" d="M68,27.42a1.3,1.3,0,0,0-.89.37,1.27,1.27,0,0,0,0,1.77,1.3,1.3,0,0,0,.89.37,1.26,1.26,0,0,0,.88-.37,1.24,1.24,0,0,0,0-1.77A1.26,1.26,0,0,0,68,27.42Z"/><path class="cls-1" d="M31,37.36a1.26,1.26,0,0,1-1.25-1.25,1.25,1.25,0,1,1,2.5,0A1.26,1.26,0,0,1,31,37.36Z"/></svg>