<svg id="Livello_1" data-name="Livello 1" xmlns="http://www.w3.org/2000/svg" viewBox="0 0 100 66"><defs><style>.cls-1{fill:#060606;}</style></defs><title>iconTavola disegno 119</title><path class="cls-1" d="M51.82,9a1.34,1.34,0,0,1-1.34-1.34V2.28a1.34,1.34,0,1,1,2.68,0V7.62A1.34,1.34,0,0,1,51.82,9Z"/><path class="cls-1" d="M69.77,16.39a1.34,1.34,0,0,1-1-2.28l3.78-3.78a1.34,1.34,0,0,1,1.89,1.89L70.71,16A1.33,1.33,0,0,1,69.77,16.39Z"/><path class="cls-1" d="M82.54,34.34H77.2a1.34,1.34,0,0,1,0-2.68h5.34a1.34,1.34,0,1,1,0,2.68Z"/><path class="cls-1" d="M73.54,56.06a1.33,1.33,0,0,1-.94-.39l-3.78-3.78A1.34,1.34,0,1,1,70.71,50l3.78,3.78a1.34,1.34,0,0,1-.95,2.28Z"/><path class="cls-1" d="M51.82,65.06a1.34,1.34,0,0,1-1.34-1.34V58.38a1.34,1.34,0,1,1,2.68,0v5.34A1.34,1.34,0,0,1,51.82,65.06Z"/><path class="cls-1" d="M30.1,56.06a1.34,1.34,0,0,1-1-2.28L32.93,50a1.34,1.34,0,0,1,1.89,1.89L31,55.67A1.33,1.33,0,0,1,30.1,56.06Z"/><path class="cls-1" d="M26.44,34.34H21.1a1.34,1.34,0,1,1,0-2.68h5.34a1.34,1.34,0,0,1,0,2.68Z"/><path class="cls-1" d="M33.87,16.39a1.33,1.33,0,0,1-.94-.39l-3.78-3.78A1.34,1.34,0,0,1,31,10.33l3.78,3.78a1.34,1.34,0,0,1-1,2.28Z"/><path class="cls-1" d="M48,54.37a1.55,1.55,0,0,1-.47-.08,1.35,1.35,0,0,1-.86-1.43L49,35.67H39.8a1.33,1.33,0,0,1-1.2-.74,1.36,1.36,0,0,1,.13-1.4l16-21.37a1.34,1.34,0,0,1,2.39,1L54.73,27.66h9.11a1.35,1.35,0,0,1,1.18.7A1.37,1.37,0,0,1,65,29.73l-15.84,24a1.33,1.33,0,0,1-1.11.6ZM42.47,33h8a1.35,1.35,0,0,1,1,.46,1.33,1.33,0,0,1,.32,1L50.1,47.44,61.36,30.33h-8.2a1.35,1.35,0,0,1-1-.47,1.34,1.34,0,0,1-.29-1.09l1.77-10.62Z"/></svg>