<svg id="Livello_1" data-name="Livello 1" xmlns="http://www.w3.org/2000/svg" viewBox="0 0 100 66"><defs><style>.cls-1{fill:#030402;}</style></defs><title>iconTavola disegno 8</title><path class="cls-1" d="M47.88,52.88A2.94,2.94,0,1,1,45,55.81,2.94,2.94,0,0,1,47.88,52.88Z"/><path class="cls-1" d="M53.08,46.83a2.26,2.26,0,1,1-2.26,2.26A2.26,2.26,0,0,1,53.08,46.83Z"/><path class="cls-1" d="M47.88,39a1.58,1.58,0,1,1-1.58,1.58A1.57,1.57,0,0,1,47.88,39Z"/><path class="cls-1" d="M47.88,26A2.94,2.94,0,1,1,45,28.93,2.94,2.94,0,0,1,47.88,26Z"/><path class="cls-1" d="M52.63,3.15a3.51,3.51,0,0,0-.57,2.39V9.66H37V65.38h27.6V9.66H57.14V6.78l6.72-1.51a2.54,2.54,0,0,0-1.12-5L54.48,2.17A3.09,3.09,0,0,0,52.63,3.15ZM59,21.25V59.54H42.69V21.25h9.37V34a2.55,2.55,0,0,0,2.55,2.54,2.6,2.6,0,0,0,.56-.06,2.55,2.55,0,0,0,2-2.48V21.25Z"/></svg>