<svg id="Livello_1" data-name="Livello 1" xmlns="http://www.w3.org/2000/svg" viewBox="0 0 100 66"><defs><style>.cls-1{fill:#060606;}</style></defs><title>iconTavola disegno 89</title><path class="cls-1" d="M62.43,19.05a1.94,1.94,0,0,1-2.3-.36,7.13,7.13,0,0,0-5-2.45A6.63,6.63,0,0,0,50.9,18l-1.25,1.08a2,2,0,0,1-2.53,0L45.87,18a6.63,6.63,0,0,0-4.27-1.73,7.13,7.13,0,0,0-5,2.45,2,2,0,0,1-2.3.36c-1.65-.87-3.17-.84-3.57-.28s.11,2.35,1.92,3.69a2,2,0,0,1,.71,2.07,12.63,12.63,0,0,0-.52,3.34,7,7,0,0,0,3.8,6.66l1.17.61a1.94,1.94,0,0,1,1,1.92,45.52,45.52,0,0,0-.2,6.45,5.88,5.88,0,0,0,5.74,5.69,8.26,8.26,0,0,0,2-.27l-3.3-3.31a1.9,1.9,0,0,1-.57-1.37c0-.22.27-7.15.48-9.44a1.94,1.94,0,0,0-1-1.89l-3.55-1.83a1.94,1.94,0,1,1,1.78-3.44l3.55,1.83a5.8,5.8,0,0,1,3.12,5.68c-.16,1.78-.36,6.43-.43,8.32l1.91,1.91,1.9-1.91c-.07-1.86-.27-6.54-.43-8.32A5.8,5.8,0,0,1,53,29.48l3.55-1.84a1.94,1.94,0,1,1,1.79,3.44l-3.56,1.84a1.94,1.94,0,0,0-1,1.89c.21,2.29.48,9.22.48,9.44a1.9,1.9,0,0,1-.57,1.37l-3.3,3.31a7.39,7.39,0,0,0,2,.27,5.88,5.88,0,0,0,5.74-5.69,47.64,47.64,0,0,0-.17-6.23,2.18,2.18,0,0,1,1-2.14l1.17-.61a7,7,0,0,0,3.8-6.66,12.63,12.63,0,0,0-.52-3.34,1.93,1.93,0,0,1,.72-2.07c1.8-1.34,2.34-3.08,1.91-3.69s-1.92-.59-3.57.28Z"/><path class="cls-1" d="M70.8,10.59l1.14-.69a1.93,1.93,0,0,0,.12-3.24,37.53,37.53,0,0,0-13.92-6,11.94,11.94,0,0,0-9.75,2.23A12,12,0,0,0,38.63.69a37.81,37.81,0,0,0-13.91,6,1.93,1.93,0,0,0-.81,1.65,1.91,1.91,0,0,0,.93,1.59l1.15.69a27.59,27.59,0,0,0-10.69,22,35.89,35.89,0,0,0,1.19,9.23,1.9,1.9,0,0,0,1.45,1.4,1.94,1.94,0,0,0,1.91-.65l.67-.8c2.19,7.35,7.19,14.05,14.65,19.72a1.93,1.93,0,0,0,2.22.09,2,2,0,0,0,.85-2l-.11-.47a50.62,50.62,0,0,0,9.42,6.29,1.93,1.93,0,0,0,1.67,0,50,50,0,0,0,9.43-6.3l-.1.48a1.93,1.93,0,0,0,3.06,2c7.46-5.67,12.46-12.38,14.66-19.72l.66.8a1.94,1.94,0,0,0,3.37-.75,36.32,36.32,0,0,0,1.18-9.23,27.61,27.61,0,0,0-10.68-22Zm-3,17.28A10.91,10.91,0,0,1,61.87,38h0c.07,1,.13,2.67.09,5.57a9.82,9.82,0,0,1-9.58,9.52h-.11a11,11,0,0,1-3.87-.66h0a12.1,12.1,0,0,1-4,.66,9.82,9.82,0,0,1-9.58-9.52c0-2.94,0-4.59.08-5.57h0A10.92,10.92,0,0,1,29,27.87a15.07,15.07,0,0,1,.36-3.15c-2.62-2.5-3.4-5.84-1.77-8.17,1.43-2,4.29-2.6,7.26-1.5a10.06,10.06,0,0,1,13.54,0,10,10,0,0,1,13.53,0c3-1.1,5.83-.55,7.26,1.5,1.63,2.33.85,5.68-1.77,8.17a15.07,15.07,0,0,1,.36,3.15Z"/></svg>