<svg id="Livello_1" data-name="Livello 1" xmlns="http://www.w3.org/2000/svg" viewBox="0 0 100 66"><defs><style>.cls-1{fill:#060606;}</style></defs><title>iconTavola disegno 72</title><path class="cls-1" d="M65.46,41.21,58.17,39a14.68,14.68,0,0,0,4.8-8,5.24,5.24,0,0,0,4.52-5.18V19.45a18.88,18.88,0,1,0-37.76,0v6.29a5.24,5.24,0,0,0,4.52,5.18,14.74,14.74,0,0,0,4.8,8l-7.29,2.24a7.3,7.3,0,0,0-5.18,7V64.56a1,1,0,0,0,1.05,1h42a1,1,0,0,0,1-1V48.23a7.3,7.3,0,0,0-5.18-7Zm3.08,7v6.89H63.3v-4.2H61.2V63.51H57v-4.2a12.82,12.82,0,0,1,2.15-7.1l1.64-2.46a14.84,14.84,0,0,0,2.45-7l1.6.49a5.21,5.21,0,0,1,3.7,5ZM44.41,63.51H42.32v-4.2A14.87,14.87,0,0,0,39.81,51l-.53-.79a6.77,6.77,0,0,1,3.44,2.65l.55.82a6.76,6.76,0,0,1,1.14,3.77ZM45,52.56l-.55-.83a8.9,8.9,0,0,0-6.77-3.92A12.76,12.76,0,0,1,36,42.09l4.2-1.29A8.38,8.38,0,0,0,57,40.8l4.2,1.29a12.76,12.76,0,0,1-1.66,5.72,8.9,8.9,0,0,0-6.77,3.92l-.55.83a8.82,8.82,0,0,0-1.49,4.93v6h-4.2v-6A8.82,8.82,0,0,0,45,52.56ZM42.35,41.11a14.51,14.51,0,0,0,12.52,0,6.3,6.3,0,0,1-12.52,0ZM52.81,57.49A6.76,6.76,0,0,1,54,53.72l.55-.82a6.77,6.77,0,0,1,3.44-2.65l-.53.79a14.87,14.87,0,0,0-2.51,8.27v4.2H52.81ZM61.2,24.26l-1.55,1.55-5.88,1H52.19l-1-1.05a3.67,3.67,0,0,0-5.06,0l-1,1.05H43.45l-5.88-1L36,24.26V22.11l2.42-1.61H58.78l2.42,1.61Zm2,4.45c0-.29,0-.57,0-.87V22.79a3.12,3.12,0,0,1,0,5.92Zm-.69-18.58a13.58,13.58,0,0,0-6.29,2.51A9.78,9.78,0,0,1,60,7.17,16.75,16.75,0,0,1,62.56,10.13ZM51.87,3a13.47,13.47,0,0,0-3.26,5,13.55,13.55,0,0,0-3.26-5,16.27,16.27,0,0,1,6.52,0ZM37.21,7.17A9.78,9.78,0,0,1,41,12.64a13.58,13.58,0,0,0-6.29-2.51A16.75,16.75,0,0,1,37.21,7.17Zm-3.69,5a11.5,11.5,0,0,1,7.57,3.37l.48.48a1,1,0,0,0,.75.31,1,1,0,0,0,.4-.08,1,1,0,0,0,.64-1v-.17A11.89,11.89,0,0,0,38.88,5.8a16.72,16.72,0,0,1,4.06-2.13,11.52,11.52,0,0,1,4.32,7.48l.31,2.15a1.05,1.05,0,0,0,2.08,0L50,11.15a11.52,11.52,0,0,1,4.32-7.48A16.72,16.72,0,0,1,58.34,5.8a11.89,11.89,0,0,0-4.48,9.28v.17a1,1,0,0,0,.64,1,1,1,0,0,0,.4.08,1.05,1.05,0,0,0,.75-.3l.48-.49a11.54,11.54,0,0,1,7.57-3.37,16.75,16.75,0,0,1,1.7,7.31v2.12a5.21,5.21,0,0,0-2.78-1l-2.94-2a1,1,0,0,0-.58-.18h-21a1,1,0,0,0-.58.18l-2.94,2a5.14,5.14,0,0,0-2.77,1V19.45a16.74,16.74,0,0,1,1.69-7.31Zm-1.69,13.6a3.14,3.14,0,0,1,2.09-2.95v5.05c0,.3,0,.58,0,.87A3.13,3.13,0,0,1,31.83,25.74ZM36,27.84v-.61l.31.3a1,1,0,0,0,.57.3l6.29,1.05h2.27a1,1,0,0,0,.74-.31l1.36-1.35a1.52,1.52,0,0,1,2.1,0L51,28.58a1,1,0,0,0,.74.31H54l6.29-1.05a1,1,0,0,0,.57-.3l.31-.3v.61a12.59,12.59,0,0,1-25.18,0ZM32.38,43.21l1.6-.49a14.84,14.84,0,0,0,2.45,7l1.64,2.46a12.82,12.82,0,0,1,2.15,7.1v4.2H36V50.92h-2.1v4.2H28.68V48.23A5.23,5.23,0,0,1,32.38,43.21Zm-3.7,14h5.24v6.29H28.68ZM63.3,63.51V57.22h5.24v6.29Z"/><path class="cls-1" d="M48.61,38.33A7.34,7.34,0,0,0,56,31H53.86a5.25,5.25,0,0,1-10.5,0H41.27A7.34,7.34,0,0,0,48.61,38.33Z"/></svg>