<svg id="Livello_1" data-name="Livello 1" xmlns="http://www.w3.org/2000/svg" viewBox="0 0 100 66"><defs><style>.cls-1{fill:#060606;}</style></defs><title>iconTavola disegno 134</title><path class="cls-1" d="M69.7,24.77,69.06,24a27,27,0,0,1-3.84-7.85,18.41,18.41,0,0,0-2-4.4c-2.15-3-10.27-4.2-12-4.15s-2.71,1.7-2.95,3a4.35,4.35,0,0,0-2,1.2c-1.7,1.78,1,6,3.35,8.3A4.83,4.83,0,0,0,54,21.74a5.17,5.17,0,0,1,1.6.07,8.63,8.63,0,0,1,3.4,2c-.55,9.55,1,14.26,1.73,16.3a19.2,19.2,0,0,1-2-.36C54.55,32.11,46,33.09,43.43,33.59a17,17,0,0,0-14.77-7.43A62.49,62.49,0,0,1,21.38,26a1,1,0,0,0-1.07.68c-.14.42-3.46,10.37.59,20.1a144.85,144.85,0,0,0,8.65,17.27,1,1,0,0,0,1.4.34,17.29,17.29,0,0,0,7.31-8.2c9.18,3.59,19,2.29,25.75.52a61.29,61.29,0,0,0,13-5,1.06,1.06,0,0,0,.52-.76C79.35,37,73.31,29.35,69.7,24.77Zm5.86,25.41c-3.12,1.6-21.78,10.56-37.5,3.74a1,1,0,0,0-.86,0,1,1,0,0,0-.53.66,14.68,14.68,0,0,1-5.91,7.5,145.36,145.36,0,0,1-8-16.09c-3.13-7.54-1.42-15.47-.76-17.91,1.18.08,3.52.19,6.7.09a14.83,14.83,0,0,1,13.35,7.05,1,1,0,0,0,1.15.47c.1,0,9.85-2.68,13.85,5.34a1,1,0,0,0,.66.54c4.07,1,4.66.36,4.94,0,.52-.58.3-1.22,0-2.2-.66-1.94-2.22-6.5-1.61-16a1,1,0,0,0-.29-.78A11.22,11.22,0,0,0,56,19.82a7.11,7.11,0,0,0-2.19-.11,2.88,2.88,0,0,1-2.78-1.1c-2.2-2.15-3.43-4.83-3.26-5.47a2.32,2.32,0,0,1,1.43-.68,1,1,0,0,0,1-1s.05-1.83,1.06-1.86h.14c2.28,0,8.83,1.42,10.19,3.31a17.36,17.36,0,0,1,1.69,3.88,28.87,28.87,0,0,0,4.15,8.42l.65.82C71.68,30.58,77.07,37.42,75.56,50.18Z"/><path class="cls-1" d="M72.65,1.74a1,1,0,0,0-1.44,0L65.09,7.86A1,1,0,1,0,66.53,9.3l6.12-6.12A1,1,0,0,0,72.65,1.74Z"/><path class="cls-1" d="M80,10.24a1,1,0,0,0-1.32-.57l-10.2,4.08a1,1,0,0,0,.76,1.89l10.19-4.08A1,1,0,0,0,80,10.24Z"/><path class="cls-1" d="M81.1,19.67A1,1,0,0,0,80,18.78l-8.16,1a1,1,0,0,0,.13,2h.12l8.16-1A1,1,0,0,0,81.1,19.67Z"/><path class="cls-1" d="M59.54,47.8a1,1,0,0,0-1.41-.32c-7.4,4.62-18-4.89-18.14-5A1,1,0,0,0,38.61,44a34,34,0,0,0,6.86,4.62,18.26,18.26,0,0,0,8.06,2.16,10.53,10.53,0,0,0,5.68-1.57A1,1,0,0,0,59.54,47.8Z"/><path class="cls-1" d="M45.31,37.68l-2.62-5.1a1,1,0,0,0-1.81.93l2.61,5.1a1,1,0,0,0,.91.56,1,1,0,0,0,.46-.12A1,1,0,0,0,45.31,37.68Z"/></svg>