<svg id="Livello_1" data-name="Livello 1" xmlns="http://www.w3.org/2000/svg" viewBox="0 0 100 66"><title>iconTavola disegno 64</title><path d="M90.84,35.94c-3,1.14-6,2.38-9.08,3.41a30.2,30.2,0,0,1-11.7,1.76,40.36,40.36,0,0,1-9.86-2.34A53.16,53.16,0,0,0,53.9,37a16.71,16.71,0,0,0-8.4.75c-2.83.91-5.63,1.92-8.5,2.71-5.21,1.43-10.33.63-15.34-1.06-2.72-.91-5.36-2.06-8-3.07a1.57,1.57,0,0,1-1-1.27C9.7,23.43,15.08,11.09,25.79,4.71a26.6,26.6,0,0,1,13-3.61C46.46.85,54.08,1,61.44,3.48c15.52,5.3,25.21,16,29.29,31.83A5.35,5.35,0,0,1,90.84,35.94ZM34.19,7.1c20.05.69,36,9.72,49.28,24.17C76.37,14.46,53.71,2.38,34.19,7.1ZM69.17,34l.25-.33C63,23.83,53.71,18.16,42.57,15.2c-6.82-1.81-18.72-1.94-21-.3l4.42.27a65.1,65.1,0,0,1,15.89,3c9.69,3.1,18.06,8.55,26,14.78ZM46,31.8C42.24,26,23.24,21.51,17.51,25.11,27.35,26.07,36.6,28.86,46,31.8Z"/><path d="M30.74,43.45c1.91-.24,3.66-.49,5.42-.66a1.71,1.71,0,0,1,1,.43,32.41,32.41,0,0,1,8.3,8.46,2.53,2.53,0,0,0,1.27.83c2.17,1,4,0,5.85-.83a21.41,21.41,0,0,0,10.17-8.93l.5-.79,3.51.87A22.14,22.14,0,0,1,63,48.5a25.61,25.61,0,0,1-12.44,7.62,2,2,0,0,0-1.43,2.68c.47,1.5.9,3,1.27,4.54A1.7,1.7,0,0,1,49,65.52,1.85,1.85,0,0,1,46.83,64c-.29-1.12-.55-2.26-.9-3.36a4.23,4.23,0,0,0-1.76-2.76,2.65,2.65,0,0,1-1.08-2.43,3,3,0,0,0-.43-1.5,29.56,29.56,0,0,0-10.79-9.9Z"/></svg>