<svg id="Livello_1" data-name="Livello 1" xmlns="http://www.w3.org/2000/svg" viewBox="0 0 100 66"><defs><style>.cls-1{fill:#060606;}</style></defs><title>iconTavola disegno 70</title><path class="cls-1" d="M91.78,10.74A55.45,55.45,0,0,0,74.27,7.9H49.7a19.9,19.9,0,0,1-4.8-.59L19.29.91A6.21,6.21,0,0,0,17.74.72h-2a6.38,6.38,0,0,0-3.29,11.85l9.34,5.6a28.72,28.72,0,0,0,9.65,3.58L35,25.33a1.77,1.77,0,0,0,1.27.53h5.38V60c0,3,3.16,5.38,7.19,5.38S56,63,56,60V25.86h2.13a12.53,12.53,0,0,0,7-2.11l7.46-5a51.79,51.79,0,0,1,8,.9L89,21.35a5.5,5.5,0,0,0,2.82-10.61ZM52.43,60c0,.73-1.4,1.79-3.59,1.79S45.25,60.72,45.25,60V25.86h7.18Zm10.7-39.23a8.92,8.92,0,0,1-5,1.51H37l0,0a28.7,28.7,0,0,0,6.53-.83l8.58-2.14a19.34,19.34,0,0,1,4.79-.59h9.38Zm28.12-3.33a1.94,1.94,0,0,1-1.59.4l-8.33-1.67a55.76,55.76,0,0,0-10.85-1.08H56.88a23.46,23.46,0,0,0-5.66.7l-8.58,2.15a25.36,25.36,0,0,1-19-2.84l-9.34-5.6a2.79,2.79,0,0,1,1.44-5.18h2a3.08,3.08,0,0,1,.68.08L44,10.79a23.05,23.05,0,0,0,5.67.7H74.27a51.73,51.73,0,0,1,16.37,2.66,1.91,1.91,0,0,1,.61,3.28Z"/></svg>