<svg id="Livello_1" data-name="Livello 1" xmlns="http://www.w3.org/2000/svg" viewBox="0 0 100 66"><defs><style>.cls-1{fill:#060606;}</style></defs><title>iconTavola disegno 67</title><g id="outline"><path class="cls-1" d="M84.05,47l-.86-2.65a1.15,1.15,0,0,0-.93-.79l-1.19-.18a13.11,13.11,0,0,0-1.53-2.1l.2-1.19a1.16,1.16,0,0,0-.47-1.13L77,37.28a1.19,1.19,0,0,0-1.22-.09l-1.07.56a13.57,13.57,0,0,0-2.48-.81l-.54-1.08a1.16,1.16,0,0,0-1-.64H67.9a1.14,1.14,0,0,0-.68.23l-2.46-6h7.76a1.16,1.16,0,0,0,1.16-1.16.86.86,0,0,0,0-.28l-1.15-4.64a1.18,1.18,0,0,0-1.13-.88h-3L65.29,19.4l-3.43-4.67,0,0,0,0v0l3.13-1.56a1.15,1.15,0,0,0,.61-.81L65.8,11h0a1.16,1.16,0,0,0,1.44-.78,1.27,1.27,0,0,0,0-.34V8A7.14,7.14,0,0,0,60.14.86,7.3,7.3,0,0,0,59,1L58.56,1A7.25,7.25,0,0,0,53.19,5.1a34.51,34.51,0,0,0-6.33.74L41.77,6.93a19.8,19.8,0,0,0-12,7.89,6,6,0,0,0-.46,6.11,12,12,0,0,0,5.35,5.35l1.15.58L43,37.05c0,.18,0,.35,0,.53l-3.13,2.83.06-.36a1.17,1.17,0,0,0-.46-1.13l-2.25-1.64a1.19,1.19,0,0,0-1.22-.09l-1.06.56a13.42,13.42,0,0,0-2.49-.81l-.54-1.08a1.15,1.15,0,0,0-1-.64H28a1.17,1.17,0,0,0-1,.64l-.54,1.08a13.57,13.57,0,0,0-2.48.81l-1.07-.56a1.15,1.15,0,0,0-1.21.09l-2.25,1.64A1.16,1.16,0,0,0,19,40.05l.2,1.19a13.11,13.11,0,0,0-1.53,2.1l-1.19.18a1.15,1.15,0,0,0-.93.79L14.67,47A1.13,1.13,0,0,0,15,48.14l.86.85a12.11,12.11,0,0,0,0,2.6l-.86.85a1.13,1.13,0,0,0-.29,1.18l.86,2.65a1.15,1.15,0,0,0,.93.79l1.19.18a13.11,13.11,0,0,0,1.53,2.1L19,60.53a1.16,1.16,0,0,0,.47,1.13L21.7,63.3a1.15,1.15,0,0,0,1.21.09L24,62.84a14.35,14.35,0,0,0,2.48.8L27,64.72a1.17,1.17,0,0,0,1,.64h2.78a1.15,1.15,0,0,0,1-.64l.54-1.08a14.18,14.18,0,0,0,2.49-.8l1.06.55a1.17,1.17,0,0,0,1.22-.09l2.25-1.64a1.16,1.16,0,0,0,.46-1.12l-.2-1.19a14.42,14.42,0,0,0,1.54-2.11l1.19-.18a1.18,1.18,0,0,0,.93-.79l.86-2.65a1.18,1.18,0,0,0-.29-1.18L43,51.59s0-.09,0-.14h2.12l9.69,1,0,0a1.18,1.18,0,0,0-.29,1.18l.86,2.65a1.18,1.18,0,0,0,.93.79l1.19.18a13.82,13.82,0,0,0,1.54,2.1l-.2,1.19a1.17,1.17,0,0,0,.46,1.13l2.25,1.64a1.17,1.17,0,0,0,1.22.09l1.06-.55a14.45,14.45,0,0,0,2.49.8l.54,1.08a1.15,1.15,0,0,0,1,.64h2.78a1.17,1.17,0,0,0,1-.64l.54-1.08a14.35,14.35,0,0,0,2.48-.8l1.07.55A1.15,1.15,0,0,0,77,63.3l2.26-1.64a1.16,1.16,0,0,0,.46-1.12l-.2-1.19a14.42,14.42,0,0,0,1.54-2.11l1.18-.18a1.15,1.15,0,0,0,.93-.79l.86-2.65a1.13,1.13,0,0,0-.29-1.18l-.85-.85c0-.44.06-.87.06-1.3s0-.86-.06-1.3l.85-.85A1.13,1.13,0,0,0,84.05,47Zm-25.2-6.91.2,1.19a13.82,13.82,0,0,0-1.54,2.1l-1.19.18a1.18,1.18,0,0,0-.93.79L54.85,46,50.6,43.83l.84-6.29h9l.17.42-1.33,1a1.17,1.17,0,0,0-.46,1.13ZM57.41,9.52A4.19,4.19,0,0,0,56.78,9l-.48-.89,2.19.65ZM56,11.38l3,3.61-3.17,1.44-2.47-2.82A1.71,1.71,0,1,1,56,11.36l0,0Zm-1.36,7.16,3,4.57a1.43,1.43,0,0,0,.15.18l2,2h0a3.53,3.53,0,0,0-2.56,4.28,4.42,4.42,0,0,0,.15.48l.21.51H52.36l.26-1.91a4.08,4.08,0,0,0-1.15-3.4L45.18,19h3.41a11.4,11.4,0,0,0,5.3-1.32ZM68.91,45.69a4.68,4.68,0,0,0-2.23.92L59.56,29.2a1.2,1.2,0,0,1,.66-1.57,1,1,0,0,1,.16-.06,1.21,1.21,0,0,1,1.41.72ZM69.5,48a2.32,2.32,0,1,1-2.32,2.32A2.32,2.32,0,0,1,69.5,48Zm-10-12.75H52l.58-2.32h6ZM65.1,48.85a4.63,4.63,0,1,0,6.51-2.69L70.5,43.44a7,7,0,1,1-8,5.64,6.86,6.86,0,0,1,1.44-3.17ZM63.59,21l3.47,3.47a1.17,1.17,0,0,0,.82.34h2.58L71,27.11H64.89l-5.37-5.37-2.24-3.4,3.27-1.48,2.92,4Zm-.21-9.72-3.13,1.56L59,11.28l2.43-1.62,2.19.65ZM58.94,3.31l.44-.07a4.82,4.82,0,0,1,5.55,4A5,5,0,0,1,65,8v.34L55.6,5.52a4.9,4.9,0,0,1,3.34-2.21ZM42.25,9.2l5.1-1.09a31.18,31.18,0,0,1,5.94-.69l.59,1.12a4,4,0,0,0-2.22,6.59l.65.74a9,9,0,0,1-3.72.81H42.77l-6.55-4.94A17.65,17.65,0,0,1,42.25,9.2ZM31.38,19.89a3.67,3.67,0,0,1,.27-3.73,17.75,17.75,0,0,1,2.66-2.95l7.31,5.51,8.21,8.2a1.75,1.75,0,0,1,.49,1.46l-2,15H46.7l-1-3a9,9,0,0,1,0-5.68L47,31a1.16,1.16,0,0,0-.58-1.4l-9.27-4.63h0l-1.41-.7A9.73,9.73,0,0,1,31.38,19.89ZM44.45,31.17l-.9,2.7L40.16,29Zm-.94,9.94,1.17,3.52-.45,4.5H43.05c0-.05,0-.1,0-.14l.86-.85A1.18,1.18,0,0,0,44.19,47l-.86-2.65a1.18,1.18,0,0,0-.93-.79l-1.19-.18c-.14-.23-.28-.45-.43-.67l2.52-2.29c.06.25.13.49.21.73Zm-4.89,8a9.09,9.09,0,0,0-1.16-3.46L39,44.24c.15.23.28.47.41.71a1.15,1.15,0,0,0,.85.6l1,.16L41.76,47l-.75.74a1.17,1.17,0,0,0-.34,1c0,.14,0,.27,0,.41ZM32,50.29A2.32,2.32,0,1,1,29.64,48,2.31,2.31,0,0,1,32,50.29Zm.78-3.45a4.64,4.64,0,1,0,.36,6.54,4.6,4.6,0,0,0,1-1.93h2.15a7,7,0,1,1-1.94-6.08Zm1.4,2.29c0-.11-.07-.23-.11-.34l1.67-1.51a6.35,6.35,0,0,1,.59,1.85ZM41,52.85l.75.74-.42,1.28-1,.16a1.17,1.17,0,0,0-.85.6,11.25,11.25,0,0,1-1.85,2.54,1.17,1.17,0,0,0-.31,1l.18,1L36.38,61l-.94-.48a1.15,1.15,0,0,0-1,0,11.25,11.25,0,0,1-3,1,1.2,1.2,0,0,0-.84.63L30.1,63H28.75l-.47-.94a1.16,1.16,0,0,0-.84-.63,11.37,11.37,0,0,1-3-1,1.15,1.15,0,0,0-1,0l-.93.48-1.09-.79.17-1.05a1.13,1.13,0,0,0-.31-1,11.56,11.56,0,0,1-1.85-2.54,1.13,1.13,0,0,0-.85-.6l-1-.16-.42-1.28.76-.74a1.17,1.17,0,0,0,.33-1,11,11,0,0,1,0-3.14,1.17,1.17,0,0,0-.33-1L17.09,47l.42-1.28,1-.16a1.15,1.15,0,0,0,.85-.6,11.56,11.56,0,0,1,1.85-2.54,1.14,1.14,0,0,0,.31-1l-.17-1,1.09-.79.93.48a1.15,1.15,0,0,0,1,0,11.32,11.32,0,0,1,3-1,1.16,1.16,0,0,0,.83-.63l.47-.94H30.1l.47.94a1.2,1.2,0,0,0,.84.63,11.25,11.25,0,0,1,3,1,1.15,1.15,0,0,0,1,0l.94-.48,1.09.79-.18,1.05a1.16,1.16,0,0,0,.31,1h0l-1.55,1.41a9.28,9.28,0,1,0,2.56,7.63h2.1c0,.14,0,.27,0,.41A1.17,1.17,0,0,0,41,52.85Zm5.9-7.2h2.15l6.23,3.13v1.34l-8.74-.87Zm33.63,3.07a11,11,0,0,1,0,3.14,1.14,1.14,0,0,0,.34,1l.75.74-.42,1.28-1,.16a1.13,1.13,0,0,0-.85.6,11.56,11.56,0,0,1-1.85,2.54,1.15,1.15,0,0,0-.31,1l.17,1L76.24,61l-.93-.48a1.15,1.15,0,0,0-1,0,11,11,0,0,1-3,1,1.16,1.16,0,0,0-.84.63L70,63H68.62l-.47-.94a1.2,1.2,0,0,0-.84-.63,11.25,11.25,0,0,1-3-1,1.15,1.15,0,0,0-1,0l-.93.48-1.1-.79.18-1.05a1.16,1.16,0,0,0-.31-1,11.25,11.25,0,0,1-1.85-2.54,1.17,1.17,0,0,0-.85-.6l-1-.16L57,53.59l.75-.74a1.17,1.17,0,0,0,.34-1,11,11,0,0,1,0-3.14,1.17,1.17,0,0,0-.34-1l-.29-.29a1.2,1.2,0,0,0-.36-.35L57,47l.42-1.28,1-.16a1.15,1.15,0,0,0,.85-.6,11.25,11.25,0,0,1,1.85-2.54,1.16,1.16,0,0,0,.31-1l-.18-1.05.29-.21,1.39,3.39A9.25,9.25,0,1,0,69.51,41l-1.19-2.89.3-.59H70l.47.94a1.16,1.16,0,0,0,.84.63,11.37,11.37,0,0,1,3,1,1.15,1.15,0,0,0,1,0l.93-.48,1.09.79-.17,1.05a1.13,1.13,0,0,0,.31,1A11.56,11.56,0,0,1,79.32,45a1.13,1.13,0,0,0,.85.6l1,.16L81.63,47l-.76.74A1.17,1.17,0,0,0,80.54,48.72Z"/></g></svg>