<svg id="Livello_1" data-name="Livello 1" xmlns="http://www.w3.org/2000/svg" viewBox="0 0 100 66"><defs><style>.cls-1{fill:#030402;}</style></defs><title>iconTavola disegno 21</title><path class="cls-1" d="M71.2,60.26H69.84V48.59a2.94,2.94,0,0,0-2.93-2.94H64.82A3.74,3.74,0,0,0,61.09,42H47.88V40.48a.95.95,0,0,0-1.89,0V42H40.47a1,1,0,0,0,0,1.9H61.09a1.84,1.84,0,0,1,1.84,1.74H31.51a1.84,1.84,0,0,1,1.84-1.74h2.8a1,1,0,0,0,0-1.9h-2.8a3.75,3.75,0,0,0-3.74,3.64H27.53a2.94,2.94,0,0,0-2.93,2.94v4.32a2,2,0,0,1-1.75-1.3c-.34-.87-1.37-7.91-.91-10.16.5-2.4,2.43-4.65,5.31-6.17A31.38,31.38,0,0,1,37,32.05,33.86,33.86,0,0,1,63,39.6l.19.76a3.24,3.24,0,0,0,3.13,2.45,3,3,0,0,0,.72-.09h0a3.18,3.18,0,0,0,2-1.45,3.22,3.22,0,0,0,.38-2.46L60.59,2.93A3.23,3.23,0,0,0,56.75.56l0,0a3.16,3.16,0,0,0-2,1.45,3.17,3.17,0,0,0-.38,2.46l.22.9A33.62,33.62,0,0,1,47.61,16a33.71,33.71,0,0,1-10.55,7.41,36.05,36.05,0,0,1-3.68,1.34c-1.06.34-2.16.69-3.21,1.12A36.42,36.42,0,0,0,23,29.56a16.29,16.29,0,0,0-6.86,9.24,17.76,17.76,0,0,0,.08,7.57c0,.06,1.37,6.6,2.29,8a7.08,7.08,0,0,0,3.93,2.93,7.17,7.17,0,0,0,1.21.23c.2,0,.41,0,.62,0h.31v2.68H23.24a2.19,2.19,0,0,0-2.18,2.18v.9a2.19,2.19,0,0,0,2.18,2.18h48a2.18,2.18,0,0,0,2.17-2.18v-.9a2.18,2.18,0,0,0-2.17-2.18ZM56.29,3a1.36,1.36,0,0,1,.84-.6h0a1.53,1.53,0,0,1,.3,0,1.33,1.33,0,0,1,1.29,1l8.9,35.88a1.33,1.33,0,0,1-1,1.61h0a1.33,1.33,0,0,1-1.58-1l-.26-1.07h0L56.44,5.24h0L56.14,4a1.32,1.32,0,0,1,.15-1ZM24.6,55.68h-.3l-.44,0a4.41,4.41,0,0,1-.88-.17,5.09,5.09,0,0,1-2.86-2.13c-.5-.76-1.6-5.26-2-7.36a16,16,0,0,1-.1-6.76,14.4,14.4,0,0,1,6.1-8.12,35.15,35.15,0,0,1,6.79-3.49c1-.4,2-.74,3.07-1.07a40.08,40.08,0,0,0,3.88-1.41A35.54,35.54,0,0,0,49,17.32a35.47,35.47,0,0,0,6.29-9l7,28.26A35.77,35.77,0,0,0,36.7,30.17a32.78,32.78,0,0,0-10.34,3.44c-3.37,1.78-5.66,4.5-6.27,7.46-.55,2.66.56,10.13,1,11.23a4,4,0,0,0,3.51,2.53Zm46.6,7.94h-48a.28.28,0,0,1-.28-.28v-.9a.28.28,0,0,1,.28-.28H56a1,1,0,0,0,0-1.9H26.49V48.59a1,1,0,0,1,1-1H66.91a1,1,0,0,1,1,1V60.26H60.39a.95.95,0,1,0,0,1.9H71.2a.28.28,0,0,1,.28.28v.9a.28.28,0,0,1-.28.28Zm0,0"/><path class="cls-1" d="M71.2,65.68h-48a2.34,2.34,0,0,1-2.34-2.34v-.9a2.34,2.34,0,0,1,2.34-2.34h1.19V57.75h-.14l-.64,0a6.52,6.52,0,0,1-1.23-.24,7.2,7.2,0,0,1-4-3c-.95-1.46-2.29-8-2.31-8.08A17.92,17.92,0,0,1,16,38.76a16.43,16.43,0,0,1,6.92-9.33,37.76,37.76,0,0,1,7.19-3.71c1.05-.42,2.14-.77,3.2-1.11l.08.14,0-.15A35.66,35.66,0,0,0,37,23.27a33.48,33.48,0,0,0,10.49-7.38A33.34,33.34,0,0,0,54.35,5.38l-.21-.85A3.37,3.37,0,0,1,56.66.42h.05a3.39,3.39,0,0,1,4,2.48l8.91,35.87a3.38,3.38,0,0,1-.4,2.58,3.34,3.34,0,0,1-2.12,1.53h-.06a3.14,3.14,0,0,1-.75.09A3.39,3.39,0,0,1,63,40.4l-.17-.71A33.77,33.77,0,0,0,37,32.21a31.16,31.16,0,0,0-9.65,3.22c-2.83,1.49-4.73,3.7-5.22,6s.56,9.21.9,10.07a1.79,1.79,0,0,0,1.43,1.16V48.59a3.1,3.1,0,0,1,3.1-3.1h1.93a3.92,3.92,0,0,1,3.89-3.64h2.8a1.11,1.11,0,0,1,0,2.22h-2.8a1.68,1.68,0,0,0-1.66,1.42H62.75a1.68,1.68,0,0,0-1.66-1.42H40.47a1.11,1.11,0,0,1,0-2.22h5.35V40.48a1.11,1.11,0,0,1,2.22,0v1.37H61.09A3.92,3.92,0,0,1,65,45.49H66.9A3.11,3.11,0,0,1,70,48.59V60.1H71.2a2.34,2.34,0,0,1,2.34,2.34v.9A2.34,2.34,0,0,1,71.2,65.68Zm-48-5.26a2,2,0,0,0-2,2v.9a2,2,0,0,0,2,2h48a2,2,0,0,0,2-2v-.9a2,2,0,0,0-2-2H69.68V48.59a2.78,2.78,0,0,0-2.78-2.77H64.66v-.16a3.59,3.59,0,0,0-3.57-3.48H47.72v-1.7a.79.79,0,0,0-1.57,0v1.7H40.47a.79.79,0,0,0,0,1.57H61.09a2,2,0,0,1,2,1.9v.17H31.34v-.17a2,2,0,0,1,2-1.9h2.8a.79.79,0,0,0,0-1.57h-2.8a3.59,3.59,0,0,0-3.57,3.48v.16H27.53a2.77,2.77,0,0,0-2.77,2.77V53.1l-.19,0a2.16,2.16,0,0,1-1.87-1.4c-.34-.87-1.39-8-.92-10.25.51-2.45,2.47-4.74,5.39-6.28a31.24,31.24,0,0,1,9.76-3.25,34.08,34.08,0,0,1,26.19,7.59l0,0,.2.81a3.08,3.08,0,0,0,3,2.32,2.58,2.58,0,0,0,.68-.08h0A3,3,0,0,0,69,41.17a3,3,0,0,0,.36-2.33L60.44,3A3.08,3.08,0,0,0,56.79.72l-.06,0a3,3,0,0,0-1.91,1.37,3.06,3.06,0,0,0-.36,2.34l.23,1,0,0a33.91,33.91,0,0,1-7,10.66,33.88,33.88,0,0,1-10.59,7.45,36.25,36.25,0,0,1-3.69,1.34h0c-1,.34-2.14.69-3.17,1.11a36.49,36.49,0,0,0-7.13,3.67,16.13,16.13,0,0,0-6.79,9.13,17.48,17.48,0,0,0,.08,7.51c0,.06,1.36,6.58,2.27,8a6.82,6.82,0,0,0,3.83,2.86,7,7,0,0,0,1.18.23c.2,0,.41,0,.61,0h.47v3Zm48,3.36h-48a.44.44,0,0,1-.44-.44v-.9a.45.45,0,0,1,.44-.45H56a.79.79,0,0,0,0-1.57H26.33V48.59a1.2,1.2,0,0,1,1.2-1.2H66.9a1.21,1.21,0,0,1,1.21,1.2V60.42H60.39a.79.79,0,0,0,0,1.57H71.2a.45.45,0,0,1,.44.45v.9A.44.44,0,0,1,71.2,63.78Zm-48-1.46a.12.12,0,0,0-.12.12v.9a.12.12,0,0,0,.12.12h48a.12.12,0,0,0,.12-.12v-.9a.12.12,0,0,0-.12-.12H60.39a1.11,1.11,0,0,1,0-2.22h7.39V48.59a.88.88,0,0,0-.88-.88H27.53a.88.88,0,0,0-.87.88V60.1H56a1.11,1.11,0,1,1,0,2.22Zm1.18-6.47H24.3l-.46,0a4.85,4.85,0,0,1-.91-.17A5.32,5.32,0,0,1,20,53.45c-.55-.85-1.68-5.58-2-7.42a15.94,15.94,0,0,1-.09-6.83A14.52,14.52,0,0,1,24,31a35.51,35.51,0,0,1,6.82-3.51c1-.4,2.06-.74,3.09-1.08A37.19,37.19,0,0,0,37.77,25a35.41,35.41,0,0,0,11.09-7.79A35.84,35.84,0,0,0,55.12,8.3l.19-.4L62.54,37l-.36-.26a35.45,35.45,0,0,0-25.46-6.43,32.65,32.65,0,0,0-10.28,3.42c-3.34,1.76-5.59,4.44-6.19,7.35-.55,2.64.56,10,1,11.14a3.85,3.85,0,0,0,3.38,2.43l.14,0v1.15Zm30.79-47a36,36,0,0,1-6.12,8.59A35.8,35.8,0,0,1,37.9,25.3,37.83,37.83,0,0,1,34,26.72c-1,.33-2.08.67-3.06,1.06a35.37,35.37,0,0,0-6.76,3.47,14.25,14.25,0,0,0-6,8,15.79,15.79,0,0,0,.1,6.69,45.12,45.12,0,0,0,2,7.31A5,5,0,0,0,23,55.34a5.2,5.2,0,0,0,.86.16l.42,0h.13V55a4.09,4.09,0,0,1-3.49-2.61c-.44-1.11-1.57-8.64-1-11.33.62-3,2.94-5.76,6.36-7.57A32.74,32.74,0,0,1,36.68,30,35.75,35.75,0,0,1,62,36.24ZM66.33,41.07a1.49,1.49,0,0,1-1.45-1.13L56,4.07a1.45,1.45,0,0,1,.18-1.13h0a1.45,1.45,0,0,1,.93-.67h0a1.49,1.49,0,0,1,1.78,1.09l8.91,35.88a1.49,1.49,0,0,1-.18,1.13,1.52,1.52,0,0,1-.94.68h0A1.84,1.84,0,0,1,66.33,41.07Zm-9.9-38A1.13,1.13,0,0,0,56.3,4l8.9,35.88a1.17,1.17,0,0,0,1.39.85h0a1.13,1.13,0,0,0,.73-.53,1.1,1.1,0,0,0,.14-.88L58.6,3.42a1.19,1.19,0,0,0-1.39-.85h-.05a1.18,1.18,0,0,0-.73.53Z"/><path class="cls-1" d="M49,49.39a3.61,3.61,0,0,0-2.1.66A3.61,3.61,0,0,0,41.24,53c0,3.94,5.13,6,5.35,6.08a1,1,0,0,0,.34.06,1,1,0,0,0,.35-.06c.22-.09,5.35-2.14,5.35-6.08a3.6,3.6,0,0,0-3.6-3.6Zm-2.09,7.76c-1-.47-3.81-2-3.81-4.16a1.71,1.71,0,0,1,3.06-1.05.93.93,0,0,0,.74.36,1,1,0,0,0,.75-.36,1.7,1.7,0,0,1,3,1.05c0,2-2.48,3.55-3.79,4.16Zm0,0"/></svg>