<svg id="Livello_1" data-name="Livello 1" xmlns="http://www.w3.org/2000/svg" viewBox="0 0 100 66"><defs><style>.cls-1{fill:#060606;}</style></defs><title>iconTavola disegno 68</title><path class="cls-1" d="M71.28,16.07a1.24,1.24,0,0,0-.08,1.75h0A1.24,1.24,0,1,0,73,16.15a1.24,1.24,0,0,0-1.75-.08Z"/><path class="cls-1" d="M82.43,2.76A6.2,6.2,0,0,0,72.15,5.24,3.88,3.88,0,0,0,70.86,5H66A4,4,0,0,0,63.1,6.31L59.92,9.49a2.85,2.85,0,0,0-.33,3.66,3.72,3.72,0,0,0-1.32,7.29l.62.17-3.57,3.57L50.55,22.9a3.72,3.72,0,0,0-1.93,7.19l.62.16-3.57,3.57-4.76-1.28A3.72,3.72,0,0,0,36.72,38,3.69,3.69,0,0,0,39,39.73l.62.16L36,43.46l-4.77-1.27a3.72,3.72,0,1,0-1.92,7.18l.61.17-2.5,2.51A3.85,3.85,0,0,0,27,52a6.2,6.2,0,1,0,6.2,6.19c0-.16,0-.32,0-.48L38.94,52l4.77,1.27a3.52,3.52,0,0,0,1,.13,3.72,3.72,0,0,0,3.59-2.76h0A3.72,3.72,0,0,0,45.63,46L45,45.87l3.57-3.57,4.76,1.28a3.54,3.54,0,0,0,1,.13,3.73,3.73,0,0,0,1-7.32l-.62-.16,3.57-3.57L63,33.94a4,4,0,0,0,1,.12,3.71,3.71,0,0,0,3.59-2.75h0a3.73,3.73,0,0,0-2.63-4.56l-.62-.16L67.87,23l2,.54,1.67,1.67a3,3,0,0,0,2,.88h.11a2.8,2.8,0,0,0,2-.84l3.18-3.18a4,4,0,0,0,1.29-2.91V14.33A3.88,3.88,0,0,0,80,13,6.19,6.19,0,0,0,82.43,2.76ZM58,16.53a1.24,1.24,0,0,1,1.52-.88l3.36.9,3.51,3.51-7.51-2A1.25,1.25,0,0,1,58,16.53ZM27,61.94a3.72,3.72,0,1,1,3.72-3.72A3.72,3.72,0,0,1,27,61.94Zm5.33-6.86a6.13,6.13,0,0,0-2.19-2.19l2.61-2.61,3.46.93ZM45.87,50a1.24,1.24,0,0,1-1.52.88L30,47a1.24,1.24,0,0,1,.32-2.44,1.17,1.17,0,0,1,.32,0L45,48.43A1.24,1.24,0,0,1,45.87,50Zm-3.62-4.82-3.46-.92,3.57-3.57,3.46.92Zm13.14-5.76a1.24,1.24,0,0,1,.12.94h0a1.21,1.21,0,0,1-.58.75,1.19,1.19,0,0,1-.94.12L39.62,37.33a1.24,1.24,0,0,1-.75-.58,1.24,1.24,0,0,1,.45-1.68A1.19,1.19,0,0,1,40,34.9a1.1,1.1,0,0,1,.31,0l14.38,3.85a1.24,1.24,0,0,1,.75.58Zm-3.5-3.88-3.45-.93L52,31l3.45.93Zm13.27-4.83,1.19.33-1.19-.33a1.22,1.22,0,0,1-.58.75,1.2,1.2,0,0,1-.94.13L49.27,27.69a1.25,1.25,0,0,1-.88-1.52,1.21,1.21,0,0,1,.58-.75,1.23,1.23,0,0,1,.62-.17,1.75,1.75,0,0,1,.32,0l14.37,3.86a1.24,1.24,0,0,1,.88,1.51Zm-3.62-4.82-3.46-.92,3.57-3.57,3.46.92Zm16.15-6.66a1.54,1.54,0,0,1-.56,1.15L74,23.51a.32.32,0,0,1-.28.12.49.49,0,0,1-.33-.16L61.72,11.85a.41.41,0,0,1,0-.61l1.47-1.47,4.14,4.15a1.26,1.26,0,0,0,1.76,0,1.24,1.24,0,0,0,0-1.75L64.9,8A1.54,1.54,0,0,1,66,7.5h4.85a1.27,1.27,0,0,1,1,.41l5.47,5.47a1.27,1.27,0,0,1,.41.95Zm3-9.41a3.72,3.72,0,0,1-2.42,1.08L74.34,6.93a3.72,3.72,0,1,1,6.34,2.84Z"/><path class="cls-1" d="M27.88,57.39a1.24,1.24,0,1,0-1.83,1.67,1.24,1.24,0,0,0,1.83-1.67Z"/><path class="cls-1" d="M79,6.31a1.24,1.24,0,1,0-.92,2.07,1.19,1.19,0,0,0,.83-.32A1.24,1.24,0,0,0,79,6.31Z"/></svg>