<svg id="Livello_1" data-name="Livello 1" xmlns="http://www.w3.org/2000/svg" viewBox="0 0 100 66"><defs><style>.cls-1{fill:#060606;}</style></defs><title>iconTavola disegno 82</title><path class="cls-1" d="M73.82,64.67a7.9,7.9,0,0,0-3.18-6.31v-4.8h5a9.25,9.25,0,0,0,7.39,1.31l11.79-2.95A1.56,1.56,0,0,0,96,50.64L99,33a19.65,19.65,0,0,0,.26-3.2A19,19,0,0,0,96.5,20h0l-2-3.41V12.28A1.59,1.59,0,0,0,93.75,11l-1.09-.73A53.83,53.83,0,0,0,62.72,1.16h-.27A54.11,54.11,0,0,0,28.13,13.47l-1.18,1A59.75,59.75,0,0,1,2,26.6a1.59,1.59,0,0,0-.78,2.68L6,34a1.75,1.75,0,0,0,1.2.46,95.39,95.39,0,0,1,27.37,4l1.88.57,2.24,2.23a14.66,14.66,0,0,0,15.82,3.25l3.42-1.37V52a1.59,1.59,0,0,0,1.59,1.59h1.58v4.8a7.92,7.92,0,0,0-3.17,6.31m.33-58L45.58,9,43.87,7.87a51,51,0,0,1,11.34-3ZM5.48,29a63,63,0,0,0,19-8.77l21.05,6.58a6.35,6.35,0,0,0-1.87,4.5,6.42,6.42,0,0,0,.22,1.59H24.78a97.64,97.64,0,0,0-17-1.59ZM50,28.15a3.18,3.18,0,1,1-3.18,3.18A3.19,3.19,0,0,1,50,28.15ZM61.11,50.38V42.5c.21,0,.42-.06.63-.06a9.94,9.94,0,0,1,7.9,4l3,4Zm0,14.29a4.77,4.77,0,0,1,9.53,0m-3.17-7.78a8.41,8.41,0,0,0-1.59-.16,8.24,8.24,0,0,0-1.59.16V53.56h3.18Zm28.36-24.4-2.77,16.6-10.78,2.7A6.15,6.15,0,0,1,76,49.55l-3.8-5.06A13.05,13.05,0,0,0,56.89,40.2l-3.55,1.42a11.52,11.52,0,0,1-12.4-2.54l-2.52-2.52a1.58,1.58,0,0,0-.67-.4l-.22-.07h8.31A6.29,6.29,0,0,0,50,37.68,6.34,6.34,0,0,0,50.36,25l-22.7-7.09c.43-.34.88-.67,1.31-1l1.18-1A50.37,50.37,0,0,1,40.42,9.38L44.36,12a1.63,1.63,0,0,0,.88.27,1.33,1.33,0,0,0,.28,0L63,9.08a1.6,1.6,0,0,0,.53-2.93l-3-1.77c.62,0,1.25,0,1.88,0h.27A50.65,50.65,0,0,1,90.9,12.87l.38.26V17a1.59,1.59,0,0,0,.23.82l2.27,3.79A15.91,15.91,0,0,1,96,29.88a16.13,16.13,0,0,1-.21,2.61Z"/></svg>