<svg id="Livello_1" data-name="Livello 1" xmlns="http://www.w3.org/2000/svg" viewBox="0 0 100 66"><defs><style>.cls-1{fill:#060606;}</style></defs><title>iconTavola disegno 87</title><path class="cls-1" d="M54.75,41.46h.17a1.27,1.27,0,0,0,1.26-1.1,4.11,4.11,0,0,0-6.27-4.15,4.11,4.11,0,0,0-6.28,4.15A1.27,1.27,0,1,0,46.15,40,1.6,1.6,0,0,1,47,38.28a1.72,1.72,0,0,1,2,.45,1.25,1.25,0,0,0,.9.37,1.28,1.28,0,0,0,.9-.37,1.71,1.71,0,0,1,2-.45A1.59,1.59,0,0,1,53.66,40a1.29,1.29,0,0,0,1.09,1.43Z"/><path class="cls-1" d="M55.27,22.88a1.28,1.28,0,1,0,.52,2.5c2.48-.52,3.82-.37,4.63.53,2,2.21,1.75,4.46-.85,7.75s-.92,7.05.24,9.47c.26.55.51,1.07.67,1.51A8.45,8.45,0,0,1,61,47.17a22.42,22.42,0,0,0-22.09,0,8.79,8.79,0,0,1,.47-2.53c.16-.44.41-1,.67-1.51,1.16-2.42,2.92-6.08.24-9.47s-2.84-5.54-.85-7.75c.81-.9,2.15-1.05,4.63-.54a1.27,1.27,0,0,0,1.51-1,1.28,1.28,0,0,0-1-1.51c-2.43-.51-5.17-.75-7,1.33a6.78,6.78,0,0,0-1.92,5.5,11.39,11.39,0,0,0,2.67,5.53c1.57,2,.76,4.07-.54,6.79-.29.6-.56,1.16-.76,1.7a11.11,11.11,0,0,0,1,9.62c2.17,3.15,6.17,4.74,11.91,4.74s9.74-1.59,11.91-4.74a11.13,11.13,0,0,0,1-9.62c-.2-.54-.47-1.1-.76-1.7-1.3-2.72-2.11-4.8-.53-6.79a11.45,11.45,0,0,0,2.66-5.53,6.75,6.75,0,0,0-1.92-5.5c-1.87-2.08-4.61-1.84-7-1.33ZM49.91,55.55c-4.85,0-8.15-1.23-9.82-3.64A6.92,6.92,0,0,1,39.17,50a19.87,19.87,0,0,1,21.47,0,6.66,6.66,0,0,1-.92,1.95c-1.67,2.41-5,3.64-9.81,3.64Z"/><path class="cls-1" d="M72.64,34.59a6.7,6.7,0,0,0,2.71-5.68A7.42,7.42,0,0,0,74,24.56a4.59,4.59,0,0,0-3.66-2,4.15,4.15,0,0,0-1.73.38,41.13,41.13,0,0,1-1.76-7.29C66,9.22,64.24,5.34,61.29,3.07S54.67.43,49.91.43,41.38.88,38.52,3.07s-4.67,6.15-5.58,12.57a41.13,41.13,0,0,1-1.76,7.29,4.15,4.15,0,0,0-1.73-.38,4.59,4.59,0,0,0-3.66,2,7.42,7.42,0,0,0-1.33,4.35,6.72,6.72,0,0,0,2.71,5.68c-.17.61-.33,1.22-.48,1.85a28.84,28.84,0,0,0-.6,11.78,19.41,19.41,0,0,0,3.85,8.71c4.27,5.41,11.73,8.64,20,8.64s15.7-3.23,20-8.64a19.41,19.41,0,0,0,3.85-8.71,29,29,0,0,0-.59-11.78C73,35.81,72.81,35.2,72.64,34.59Zm-2.28-9.5c1.33,0,2.45,1.75,2.45,3.82a4.8,4.8,0,0,1-1,3c-.52-1.58-1.08-3.09-1.63-4.58-.24-.67-.49-1.33-.73-2a1.65,1.65,0,0,1,.89-.28ZM27,28.91c0-2.07,1.12-3.82,2.45-3.82a1.65,1.65,0,0,1,.89.28c-.24.66-.48,1.32-.73,2-.55,1.49-1.11,3-1.63,4.58a4.86,4.86,0,0,1-1-3ZM67.87,55.36c-3.78,4.8-10.5,7.67-18,7.67s-14.18-2.87-18-7.67c-3.65-4.64-4.59-10.8-2.78-18.32A77,77,0,0,1,32,28.24,58,58,0,0,0,35.46,16C37.12,4.26,41.34,3,49.91,3S62.69,4.26,64.35,16a58,58,0,0,0,3.46,12.24A77,77,0,0,1,70.65,37c1.81,7.52.88,13.68-2.78,18.32Z"/><path class="cls-1" d="M45.64,33.38a1.27,1.27,0,0,0-1.27-1.27h0a1.27,1.27,0,1,0,1.27,1.27Z"/><path class="cls-1" d="M56.71,33.38a1.27,1.27,0,0,0-1.27-1.27h0a1.27,1.27,0,1,0,1.27,1.27Z"/><path class="cls-1" d="M55.05,28.35a20,20,0,0,1-10.29,0,1.27,1.27,0,0,0-.66,2.46,22.55,22.55,0,0,0,11.61,0,1.27,1.27,0,1,0-.66-2.46Z"/><path class="cls-1" d="M49.91,26.48a1.27,1.27,0,1,0,0-2.54h0a1.27,1.27,0,1,0,0,2.54Z"/></svg>