<svg id="Livello_1" data-name="Livello 1" xmlns="http://www.w3.org/2000/svg" viewBox="0 0 100 66"><defs><style>.cls-1{fill:#060606;}</style></defs><title>iconTavola disegno 140</title><path class="cls-1" d="M84.69,46.69l-3.34-3.32a1.37,1.37,0,0,0-1.93,2l3.34,3.32a1.41,1.41,0,0,0,1,.4,1.38,1.38,0,0,0,1-2.35Z"/><path class="cls-1" d="M77.94,40A1.36,1.36,0,0,0,76,40h0a1.37,1.37,0,0,0,1,2.34,1.41,1.41,0,0,0,1-.4A1.38,1.38,0,0,0,77.94,40Z"/><path class="cls-1" d="M66.25,46.3,79.55,33a5.17,5.17,0,0,0-2.49-8.69,5.18,5.18,0,0,0,.48-2.18A5.19,5.19,0,0,0,73.25,17a5.16,5.16,0,0,0-4-6.71,5.16,5.16,0,0,0-4.9-6.79,5.12,5.12,0,0,0-2.47.63L61.72,4A9.19,9.19,0,0,0,55,1.12H44.27A1.37,1.37,0,0,0,42.9,2.49v1.8a6.31,6.31,0,0,0,.35,2.08,5.14,5.14,0,0,0-5.64,1.12,5.17,5.17,0,0,0-1.25,5.27,5.17,5.17,0,0,0-4,6.71,5.17,5.17,0,0,0-3.8,7.27A5,5,0,0,0,26,28.12a5.17,5.17,0,0,0,0,7.31l2.73,2.73L15.3,51.63a1.38,1.38,0,0,0,0,1.94,1.38,1.38,0,0,0,1.94,0L30.84,40a5.16,5.16,0,0,0,7.71-4.7h.21a5.17,5.17,0,0,0,5.17-5.17V29.9h.2a5.16,5.16,0,0,0,5.17-5.17,1.48,1.48,0,0,0,0-.21h.21a5.17,5.17,0,0,0,4-8.44L62.6,7A2.43,2.43,0,0,1,66,7a2.41,2.41,0,0,1,.71,1.72A2.37,2.37,0,0,1,66,10.42l-1.34,1.35-4.87,4.87a1.36,1.36,0,0,0,0,1.94,1.38,1.38,0,0,0,1.94,0l4.87-4.87a2.42,2.42,0,0,1,3.43,3.42l-1.35,1.35L65.19,22a1.36,1.36,0,0,0,0,1.94,1.34,1.34,0,0,0,1,.41,1.37,1.37,0,0,0,1-.41l3.52-3.52a2.43,2.43,0,0,1,3.43,0,2.37,2.37,0,0,1,.71,1.71,2.41,2.41,0,0,1-.71,1.72l-1.84,1.84-1.69,1.68a1.38,1.38,0,0,0,0,1.94,1.36,1.36,0,0,0,1,.4,1.33,1.33,0,0,0,1-.4l1.69-1.68a2.43,2.43,0,1,1,3.43,3.43l-13.3,13.3A18.65,18.65,0,0,1,51.8,49.81a1.36,1.36,0,0,0-.92.4L38.59,62.54a1.37,1.37,0,0,0,0,1.94,1.32,1.32,0,0,0,1,.4,1.37,1.37,0,0,0,1-.4l9-9.07a12.75,12.75,0,0,0,7.74,2l7.07,7.07a1.37,1.37,0,0,0,1.94-1.94L58.81,55a1.41,1.41,0,0,0-1.08-.4l-.44,0a10.06,10.06,0,0,1-5.72-1.25l.88-.88A21.35,21.35,0,0,0,66.25,46.3ZM35.11,37.19a2.43,2.43,0,0,1-3.43,0L28,33.49a2.44,2.44,0,0,1,0-3.43,2.41,2.41,0,0,1,1.72-.71,2.37,2.37,0,0,1,1.71.71l3.71,3.7A2.44,2.44,0,0,1,35.11,37.19Zm5.37-5.37a2.42,2.42,0,0,1-3.43,0l-3.71-3.7L31.5,26.28a2.43,2.43,0,0,1,3.43-3.43l5.55,5.55h0a2.41,2.41,0,0,1,0,3.42Zm5.37-5.36a2.44,2.44,0,0,1-3.43,0l-6.89-6.89a2.41,2.41,0,0,1-.71-1.72,2.42,2.42,0,0,1,2.42-2.42,2.41,2.41,0,0,1,1.72.71l3.14,3.14L45.85,23h0a2.41,2.41,0,0,1,.71,1.71A2.45,2.45,0,0,1,45.85,26.46Zm5.37-5.37a2.44,2.44,0,0,1-3.43,0L40.9,14.2h0l-1.34-1.34a2.44,2.44,0,0,1,0-3.43,2.41,2.41,0,0,1,1.72-.71A2.37,2.37,0,0,1,43,9.43l8.24,8.23a2.43,2.43,0,0,1,0,3.43Zm.36-6.95-3.77-3.77a6.41,6.41,0,0,0,1.31.14h0l3.77,0a1.37,1.37,0,0,0,0-2.74h0l-3.76,0h0a3.48,3.48,0,0,1-3.48-3.48V3.86H55a6.43,6.43,0,0,1,4.67,2l0,.06Z"/></svg>