<svg id="Livello_1" data-name="Livello 1" xmlns="http://www.w3.org/2000/svg" viewBox="0 0 100 66"><defs><style>.cls-1{fill:#060606;}</style></defs><title>iconTavola disegno 129</title><path class="cls-1" d="M83.14.8a1.3,1.3,0,0,0-2.09.78c-.86,4.59-5.8,4.25-12.17,3.33a22.17,22.17,0,0,0-5.61-.39A13.31,13.31,0,0,0,55.85,8a13,13,0,0,0-3.57,7.6l-2.76-2.77a1.32,1.32,0,0,0-1.15-.36,1.3,1.3,0,0,0-.95.75,19.5,19.5,0,0,0-1.8,7.54,3.44,3.44,0,0,0-.46,0A3.91,3.91,0,0,0,42.4,21.9a3.94,3.94,0,0,0,0,5.52l1.05,1L20.73,59.29l0,.06A4.27,4.27,0,0,0,21,64.71a3.7,3.7,0,0,0,2.67,1.08,5,5,0,0,0,2.7-.82l.06,0L57.19,42.2l1,1a3.9,3.9,0,0,0,6.66-2.75,3.44,3.44,0,0,0,0-.46,19.26,19.26,0,0,0,7.56-1.78,1.31,1.31,0,0,0,.74-1,1.29,1.29,0,0,0-.36-1.15l-3.32-3.33c5.81-.9,9.12-3.63,10.93-5.93A13.6,13.6,0,0,0,83.15,21a1.3,1.3,0,0,0-1.87-1.35c-3.35,1.67-6.86,1.22-8.1.24-.11-.08-.36-.3-.33-.47.14-.58,1.71-2,6.74-3.11a9.19,9.19,0,0,0,6.62-6.93A8.32,8.32,0,0,0,83.14.8Zm-58.27,62c-.52.33-1.52.63-2.08.07a1.79,1.79,0,0,1,.06-2.08L45.31,30.32l10,10ZM63.42,37.4,60,34a1.3,1.3,0,0,0-1.84,1.84l3.78,3.78a1.3,1.3,0,0,1-1.84,1.84L44.24,25.58a1.31,1.31,0,0,1-.37-.92,1.29,1.29,0,0,1,.37-.92,1.32,1.32,0,0,1,.92-.38,1.26,1.26,0,0,1,.92.38l3.78,3.78a1.3,1.3,0,1,0,1.84-1.84l-3.45-3.45a15.53,15.53,0,0,1,.83-6.13L69.56,36.58A15.5,15.5,0,0,1,63.42,37.4Zm-.12-16c.29,1.72,1.51,3.07,3.64,4h0a1.75,1.75,0,0,1-.41.85,3.46,3.46,0,0,1-2.37,1.23l-5.67-5.68a6.73,6.73,0,0,1,2.74-4.49,6.27,6.27,0,0,1,3.64-1A7,7,0,0,0,63.3,21.44ZM83.67,8.84a6.62,6.62,0,0,1-4.65,5c-5.28,1.19-8.21,2.9-8.7,5.08A3,3,0,0,0,71.57,22c1.64,1.28,4.82,1.9,8.2,1a11.28,11.28,0,0,1-1.49,2.37c-2.45,3.05-6.2,4.76-11.16,5.09l-.82-.83A5.26,5.26,0,0,0,69.51,26,2.52,2.52,0,0,0,68,23c-1.25-.55-2-1.23-2.08-2-.28-1.67,1.71-3.92,2.43-4.57a1.31,1.31,0,0,0-.52-2.22,9.58,9.58,0,0,0-8,1,8.75,8.75,0,0,0-3.44,4.55L54.69,18c.21-7.94,5-10.34,9-10.95a21.4,21.4,0,0,1,4.86.4,30.58,30.58,0,0,0,8.83.42,7.07,7.07,0,0,0,5.53-3.64,5.72,5.72,0,0,1,.8,4.57Z"/><path class="cls-1" d="M54.92,32a1.25,1.25,0,0,0,.91-.38,1.3,1.3,0,0,0,0-1.84h0A1.3,1.3,0,1,0,54,31.65a1.25,1.25,0,0,0,.92.38Z"/></svg>