<svg id="Livello_1" data-name="Livello 1" xmlns="http://www.w3.org/2000/svg" viewBox="0 0 100 66"><defs><style>.cls-1{fill:#030402;}</style></defs><title>iconTavola disegno 1</title><path class="cls-1" d="M49.47.92a35.88,35.88,0,0,0-31.38,53V44.43a7.67,7.67,0,0,1,1.71-4.77c-.09-.94-.14-1.89-.14-2.85a29.83,29.83,0,1,1,59.65,0A30.26,30.26,0,0,1,79.14,40a7.55,7.55,0,0,1,1.48,4.46v10A35.89,35.89,0,0,0,49.47.92Z"/><path class="cls-1" d="M20.29,42.89a5.32,5.32,0,0,0-.23,1.54v13.4c0,4.13,4.92,7.49,11,7.49h4.63V36.94H31.06C25.76,36.94,21.33,39.49,20.29,42.89Z"/><path class="cls-1" d="M78.65,57.83V44.43a5.12,5.12,0,0,0-.09-1c-.69-3.68-5.31-6.53-10.91-6.53H63V65.32h4.63C73.73,65.32,78.65,62,78.65,57.83Z"/></svg>