<svg id="Livello_1" data-name="Livello 1" xmlns="http://www.w3.org/2000/svg" viewBox="0 0 100 66"><defs><style>.cls-1{fill:#060606;}</style></defs><title>iconTavola disegno 145</title><path class="cls-1" d="M34.88,11.38a1.62,1.62,0,1,0-1.62-1.62A1.62,1.62,0,0,0,34.88,11.38Zm0-2.16a.54.54,0,1,1,0,1.08.54.54,0,1,1,0-1.08Z"/><path class="cls-1" d="M57.92,33h0a6.77,6.77,0,0,0,4.79-2L65,28.78l8.33,35.81,2.1-.49L66.75,27l1.32-1.32a3.77,3.77,0,0,0,.35-4.92,4.59,4.59,0,0,0-.36-.41,3.71,3.71,0,0,0-2.64-1.09h0l-.45,0-.38-1.65-2.11.49L63,20.17c-.06.06-.13.11-.19.18l-4.57,4.56L53.8,19.64V19A5.39,5.39,0,0,0,51,14.23a5.41,5.41,0,0,0,1.7-3.93V6a5.44,5.44,0,0,0,0-.57,4.35,4.35,0,0,0,2.19-3.76A1.08,1.08,0,0,0,53.8.58H46.23A4.33,4.33,0,0,0,41.91,4.9V6h0V10.3A5.4,5.4,0,0,0,43,13.55H39.47a5.95,5.95,0,1,0-8.52.67,4.3,4.3,0,0,0-2,3.65v5.4h-1.3a3,3,0,0,0-3,3v4.75a3,3,0,0,0,3,3h1.3a4.32,4.32,0,0,0,4.32,4.32h3.25a4.31,4.31,0,0,0,2.16-.58V48.51l-9.09,4h0l0,0-4.33,2.16a1.1,1.1,0,0,0-.54.62,1.09,1.09,0,0,0,.06.83l3.73,7.45a3.22,3.22,0,0,0,2.9,1.79h.56a3.24,3.24,0,0,0,2.9-4.68l-1.16-2.33,9.25-3.88a5.37,5.37,0,0,0,3.32-5v-4.8a1,1,0,0,1,1-1,1,1,0,0,1,.86.53l9.12,16.17,2.16,4.32a1.09,1.09,0,0,0,1.45.48l6.48-3.24h0a3.5,3.5,0,0,0-3.13-6.26l-1.19.6L53.8,38.15V31.59A6.71,6.71,0,0,0,57.92,33Zm8.62-11.14c0,.06.11.12.15.18a1.6,1.6,0,0,1-.15,2.09l-.36.37-.72-3.1A1.58,1.58,0,0,1,66.54,21.86Zm-9.25,5.35a1.1,1.1,0,0,0,1.6.07l4.64-4.64.85,3.66L61.2,29.47a4.6,4.6,0,0,1-3.26,1.37h0a4.58,4.58,0,0,1-3.83-2.07l-.29-.42V23ZM36.51,15.71a2.15,2.15,0,0,1,2,1.36l0,.18-3,1.88a5.12,5.12,0,0,0,0,8.5l3.16,2.24v2.05H31.1v-14a2.16,2.16,0,0,1,2.16-2.16h3.25Zm.23,10.14a3,3,0,0,1,0-4.9l8-5a1.65,1.65,0,0,1,.89-.27,1.63,1.63,0,0,1,1.31.66,1.6,1.6,0,0,1,.32,1.18,1.65,1.65,0,0,1-.61,1.06l-6.31,3.86a1.07,1.07,0,0,0-.52.88,1.06,1.06,0,0,0,.45.92l7.38,5.31a1.58,1.58,0,0,1,.69,1A1.61,1.61,0,0,1,48,31.89a1.6,1.6,0,0,1-2.16.39Zm6-2.39,1.73-1.05-.91,1.64Zm-2.34-7.39c-.06-.12-.12-.24-.19-.36H41Zm.39,19.34,1.48-3,2.28,1.61a3.8,3.8,0,0,0,2.1.64,3.75,3.75,0,0,0,3-1.52l.13-.18a3.77,3.77,0,0,0-1-5.2l-3.44-2.48,3-5.39h0a3.72,3.72,0,0,0,1-2.09A3.79,3.79,0,0,0,49,15.77,3.24,3.24,0,0,1,51.64,19V37.32H40.83ZM50.56,6V10.3a3.25,3.25,0,1,1-6.49,0V9.67L47.76,6ZM46.23,2.74h6.2a2.19,2.19,0,0,1-1.87,1.08H47.31a1.05,1.05,0,0,0-.76.32L44.07,6.61V6a3,3,0,0,1,.1-.79l-.1,0V4.9A2.16,2.16,0,0,1,46.23,2.74ZM34.88,6A3.79,3.79,0,1,1,31.1,9.76,3.79,3.79,0,0,1,34.88,6ZM27.64,31.92a.87.87,0,0,1-.86-.87V26.3a.87.87,0,0,1,.86-.87h1.3v6.49Zm8.87,4.32H33.26a2.16,2.16,0,0,1-2.16-2.16h7.57v0A2.17,2.17,0,0,1,36.51,36.24ZM32.89,62.66a1.07,1.07,0,0,1-1,.6h-.56a1.09,1.09,0,0,1-1-.6h0l-3.24-6.48L29.54,55l.07.14,3.28,6.58A1.08,1.08,0,0,1,32.89,62.66Zm32.2-4.92a1.35,1.35,0,0,1,1.79.6,1.33,1.33,0,0,1-.6,1.79l-5.51,2.76-1.2-2.39Zm-4.37-.23-2.16,1.08L49.93,43.3a3.11,3.11,0,0,0-5.86,1.47v4.79a3.25,3.25,0,0,1-2,3L32.7,56.47l-1.21-2.41,8.7-3.86a1.08,1.08,0,0,0,.64-1V39.48H52.05L61,57.37Z"/></svg>