<svg id="Livello_1" data-name="Livello 1" xmlns="http://www.w3.org/2000/svg" viewBox="0 0 100 66"><defs><style>.cls-1{fill:#060606;}</style></defs><title>iconTavola disegno 66</title><path class="cls-1" d="M78.86,23.65H76.27c-.11-.46-.23-.92-.37-1.37L78.14,21a1.91,1.91,0,0,0,.7-2.6L75,11.81a1.9,1.9,0,0,0-2.6-.69L70.22,12.4c-.33-.35-.66-.68-1-1l1.28-2.22a1.9,1.9,0,0,0-.69-2.6l-6.58-3.8a1.91,1.91,0,0,0-2.6.7L59.33,5.71c-.45-.14-.91-.26-1.37-.37V2.75A1.9,1.9,0,0,0,56.06.86h-7.6a1.9,1.9,0,0,0-1.9,1.89V5.34c-.46.11-.91.23-1.37.37L43.9,3.47a1.91,1.91,0,0,0-2.6-.7l-6.58,3.8A1.91,1.91,0,0,0,34,9.17l1.28,2.22c-.34.33-.68.66-1,1l-2.22-1.28a1.9,1.9,0,0,0-2.6.69l-3.8,6.58a1.91,1.91,0,0,0,.7,2.6l2.24,1.29c-.13.45-.26.91-.37,1.37H25.67a1.9,1.9,0,0,0-1.9,1.9v7.6a1.9,1.9,0,0,0,1.9,1.9h2.59c.1.46.23.91.36,1.37l-2.24,1.29a1.9,1.9,0,0,0-.69,2.6l2.76,4.79L17.58,56A5.7,5.7,0,0,0,25.64,64L36.51,53.16l4.79,2.77a1.91,1.91,0,0,0,2.6-.7L45.19,53c.46.13.91.26,1.37.36v2.59a1.9,1.9,0,0,0,1.9,1.9h7.6a1.9,1.9,0,0,0,1.9-1.9V53.35c.46-.1.92-.23,1.37-.36l1.29,2.24a1.91,1.91,0,0,0,2.6.7l6.58-3.8a1.9,1.9,0,0,0,.69-2.6l-1.28-2.22c.35-.33.68-.67,1-1l2.22,1.28a1.91,1.91,0,0,0,2.6-.69l3.8-6.58a1.91,1.91,0,0,0-.7-2.6L75.9,36.42c.14-.46.26-.91.37-1.37h2.59a1.9,1.9,0,0,0,1.89-1.9v-7.6A1.9,1.9,0,0,0,78.86,23.65ZM23,61.34a1.9,1.9,0,1,1,0-2.69A1.91,1.91,0,0,1,23,61.34Zm3.8-3.8a5.75,5.75,0,0,0-2.69-2.69L50.92,28a1.9,1.9,0,1,1,2.68,2.68Zm17-38.44V29.77l-4.05,4.05A13.32,13.32,0,0,1,43.78,19.1Zm11.39,5.35V16.39a13.29,13.29,0,0,1,10,9.92H57.08A5.75,5.75,0,0,0,55.17,24.45ZM62.6,37.68a13.31,13.31,0,0,1-14.81,4.2L52,37.68ZM77,31.25H74.71a1.9,1.9,0,0,0-1.87,1.58,21.39,21.39,0,0,1-1,3.79,1.88,1.88,0,0,0,.83,2.31l1.94,1.12-1.9,3.29-1.92-1.11a1.91,1.91,0,0,0-2.42.44,20.86,20.86,0,0,1-2.78,2.78,1.89,1.89,0,0,0-.44,2.41l1.11,1.93L63,51.68l-1.12-1.93a1.89,1.89,0,0,0-2.3-.84,20.91,20.91,0,0,1-3.8,1,1.89,1.89,0,0,0-1.58,1.87V54h-3.8V51.8a1.89,1.89,0,0,0-1.58-1.87,20.59,20.59,0,0,1-3.79-1,1.9,1.9,0,0,0-2.31.84l-1.12,1.94-2.27-1.31,5.6-5.6a17.09,17.09,0,0,0,22.84-8.16A1.9,1.9,0,0,0,66,33.91H55.76a6.18,6.18,0,0,0,2.15-3.8h9.51a1.9,1.9,0,0,0,1.89-2A17.08,17.08,0,0,0,53.41,12.3a1.9,1.9,0,0,0-2,1.89v9.53A6.39,6.39,0,0,0,47.57,26V15.6a1.9,1.9,0,0,0-2.7-1.72,17.2,17.2,0,0,0-8,22.84l-5.6,5.6-1.31-2.27,1.94-1.12a1.88,1.88,0,0,0,.83-2.31,21.39,21.39,0,0,1-1-3.79,1.89,1.89,0,0,0-1.87-1.58H27.57v-3.8h2.24a1.89,1.89,0,0,0,1.87-1.59,21,21,0,0,1,1-3.79,1.89,1.89,0,0,0-.84-2.3l-1.94-1.12,1.9-3.29,1.93,1.11A1.89,1.89,0,0,0,36.16,16a20.86,20.86,0,0,1,2.78-2.78,1.91,1.91,0,0,0,.44-2.42L38.27,8.91,41.56,7,42.68,9A1.88,1.88,0,0,0,45,9.78a21.39,21.39,0,0,1,3.79-1A1.9,1.9,0,0,0,50.36,6.9V4.65h3.8V6.9a1.9,1.9,0,0,0,1.59,1.87,21.85,21.85,0,0,1,3.79,1A1.88,1.88,0,0,0,61.84,9L63,7l3.29,1.9-1.11,1.92a1.91,1.91,0,0,0,.44,2.42A20.29,20.29,0,0,1,68.36,16a1.91,1.91,0,0,0,2.42.44l1.92-1.11,1.9,3.29-1.94,1.12a1.88,1.88,0,0,0-.83,2.3,21.85,21.85,0,0,1,1,3.79,1.9,1.9,0,0,0,1.87,1.59H77v3.8Z"/></svg>