<svg id="Livello_1" data-name="Livello 1" xmlns="http://www.w3.org/2000/svg" viewBox="0 0 100 66"><title>iconTavola disegno 98</title><path d="M50.58.46a6.4,6.4,0,0,0-.3,4.13A12,12,0,0,0,51.6,7.25a6.74,6.74,0,0,0,1.18,1.33,8.37,8.37,0,0,1,2.42,7.57,18.38,18.38,0,0,0-.09,3.32,2.66,2.66,0,0,0,2.28,2.72,2.43,2.43,0,0,0,3-1.58,8.52,8.52,0,0,0,.44-1.32c.12-.43.2-.88.37-1.32,1.46,3.93,2.23,7.86.1,11.8a4,4,0,0,0,.61,4.3,3,3,0,0,0,4.5-.31,7.22,7.22,0,0,0,1-4.88,3.85,3.85,0,0,0,.24.4,9.81,9.81,0,0,1,2,6.56,6.54,6.54,0,0,1-1.87,4,7.69,7.69,0,0,0-2.09,4.39,3,3,0,0,0,1.53,3.07A2.28,2.28,0,0,0,70.11,47c1.18-1,2.23-2.16,3.34-3.25-1,7.27-3.15,14-9.69,18.48a21.06,21.06,0,0,1-10.39,3.41,29.6,29.6,0,0,1-11-.87,16.26,16.26,0,0,1-5.53-2.85,20.82,20.82,0,0,1-7.67-13.28,20.07,20.07,0,0,1-.32-6.23c0-.28.09-.56.18-1,.35.89.61,1.61.92,2.3a4.89,4.89,0,0,0,3.35,3A2,2,0,0,0,36,44.73a7.91,7.91,0,0,0-.74-4.07c-.42-.93-.95-1.83-1.4-2.75a12.77,12.77,0,0,1-1-8.8,9.67,9.67,0,0,1,3.2-4.83c-.16,1.5-.32,3-.47,4.5a3.63,3.63,0,0,0,.83,2.67c.9,1.14,2.18.93,3.36.74,1.68-.26,2.43-1.17,2.2-2.86a35.82,35.82,0,0,0-1-4.42,17.34,17.34,0,0,1-.84-5.71,7,7,0,0,1,2-4.51,16.17,16.17,0,0,0,.35,2.39,3.09,3.09,0,0,0,3.34,2.19c1.34-.06,2.21-.86,2.58-2.45a14.47,14.47,0,0,0-.23-5.52,41.67,41.67,0,0,1-.54-5.68A5.86,5.86,0,0,1,50.58.46ZM54,55.1l.08,1c1.08.2.56-.84,1-1.16l.09.9.26.08.51-1.11.16.63a1.89,1.89,0,0,0,.29-1c.07-2.2.82-3.12,2.94-3.55,1.72-.35,2.56-1.89,1.68-3.28a4,4,0,0,1-.11-4.32c2.1-3.92-.19-10.48-5.57-11.83a19.29,19.29,0,0,0-7.06-.28,8.16,8.16,0,0,0-5.11,2.62c-1.94,2.11-3.78,5.74-1.81,9.61a3.74,3.74,0,0,1,0,3.91A2.17,2.17,0,0,0,43,50.83a2.76,2.76,0,0,1,2.49,2.09,18,18,0,0,1,.33,2,5.6,5.6,0,0,0,.21.66l.19,0,.13-1c.2.57-.09,1.25.73,1.39l.11-1.12c.31,1.3.31,1.3,1,1.34l.08-1c.27,1.26.27,1.26,1.13,1.26l.11-1.18c.31.61-.07,1.56,1,1.38s.21-1.09.62-1.51c.45.41-.3,1.47.83,1.52s.43-1,.88-1.35l.05,1.17C53.93,56.56,53.84,55.77,54,55.1Zm-11.1-3.51c.09.6.18,1.12.26,1.65.77,4.88.77,4.88,3.86,8l0,.06c1.7,1.69,5.53,2,7.38.51,2.1-1.76,4.11-3.64,4.2-6.72,0-1.16.28-2.32.43-3.55-.93.17-1.46.52-1.52,1.41a12.61,12.61,0,0,1-.32,1.82c-.21.88-.45,1.74-.68,2.61-.16-.22-.11-.42-.17-.57a1.83,1.83,0,0,0-.38-.46,1.71,1.71,0,0,0-.29.5,4.72,4.72,0,0,0,0,.84c-.14-.2-.11-.42-.19-.6a2.32,2.32,0,0,0-.35-.49,1.86,1.86,0,0,0-.37.54,3.82,3.82,0,0,0,0,.83c-.15-.15-.13-.31-.18-.45a7.06,7.06,0,0,0-.33-.68,3.66,3.66,0,0,0-.4.68,3.42,3.42,0,0,0-.1.79h-.14l-.07-1.13c-1.34-.32-.65,1-1.21,1.32a2.06,2.06,0,0,0,0-.56c-.08-.27-.19-.7-.36-.73-.48-.1-.75.2-.76.71,0,.31,0,.61-.06.91C51,58.44,51,58,50.9,57.7s-.46-.35-.7-.52a2.39,2.39,0,0,0-.36.61,2.65,2.65,0,0,0,0,.7c-.52-.37.15-1.61-1.16-1.39l-.09,1.09c-.55-.27.34-1.43-.89-1.33l-.14,1.34c-.37-1.51-.37-1.51-.77-1.54l-.17,1a1,1,0,0,1-.14-.47,9.32,9.32,0,0,0-.33-.88l-.33.83s-.06,0-.24.2c-.33-1.5-.68-2.89-.93-4.29A1.57,1.57,0,0,0,42.91,51.59Z"/><path d="M45.75,44.1c.85.12,1.44.16,2,.3,1.17.26,1.81.88,1.9,1.75a2.75,2.75,0,0,1-1.5,3,7.12,7.12,0,0,1-2.7.4,2.24,2.24,0,0,1-2.13-1.83,2.83,2.83,0,0,1,.86-3A4.4,4.4,0,0,1,45.75,44.1Z"/><path d="M56.2,44.11a2.5,2.5,0,0,1,2.74,2.77,2.58,2.58,0,0,1-2.67,2.69q-3.08.1-3.7-2.32a2,2,0,0,1,1.52-2.75A18.66,18.66,0,0,1,56.2,44.11Z"/><path d="M51.07,49c.29.17.61.25.72.45a17.88,17.88,0,0,1,1.13,2.43A1.2,1.2,0,0,1,52.7,53c-.23.17-.74,0-1.13-.06s-.64,0-1,0-.89.23-1.12.06a1.21,1.21,0,0,1-.24-1.08,17.31,17.31,0,0,1,1.12-2.44C50.47,49.26,50.79,49.18,51.07,49Z"/></svg>