<svg id="Livello_1" data-name="Livello 1" xmlns="http://www.w3.org/2000/svg" viewBox="0 0 100 66"><defs><style>.cls-1{fill:#060606;}</style></defs><title>iconTavola disegno 131</title><circle class="cls-1" cx="37.52" cy="11.39" r="0.92"/><circle class="cls-1" cx="28.7" cy="26.12" r="0.92"/><circle class="cls-1" cx="42.21" cy="17.26" r="0.92"/><circle class="cls-1" cx="36.23" cy="27.97" r="0.92"/><circle class="cls-1" cx="54.91" cy="22.43" r="0.92"/><circle class="cls-1" cx="48.2" cy="22.43" r="0.92"/><circle class="cls-1" cx="60.54" cy="6.76" r="0.92"/><circle class="cls-1" cx="26.14" cy="44.64" r="0.92"/><circle class="cls-1" cx="31.05" cy="45.59" r="0.92"/><circle class="cls-1" cx="37.04" cy="55.54" r="0.92"/><circle class="cls-1" cx="62.22" cy="11.81" r="0.92"/><circle class="cls-1" cx="73.83" cy="20.06" r="0.92"/><circle class="cls-1" cx="65" cy="40.17" r="0.92"/><path class="cls-1" d="M72.93,10.06A32.43,32.43,0,0,0,27.07,55.93a32.1,32.1,0,0,0,7.55,5.63.95.95,0,0,0,.9-1.67,30.84,30.84,0,0,1-6.43-4.64L39,45.33a18.35,18.35,0,0,1,4,17.4,32.55,32.55,0,0,1-3.42-1A1,1,0,0,0,39,63.51a32.48,32.48,0,0,0,11,1.92,32.41,32.41,0,0,0,22.94-9.5,32.43,32.43,0,0,0,0-45.87Zm6.81,16a18.36,18.36,0,0,1-17.41-4l9.92-9.92A30.32,30.32,0,0,1,79.74,26ZM50,2.47a30.79,30.79,0,0,1,5.1.42,20.45,20.45,0,0,0-.74,4.74,1,1,0,0,0,.92,1h0a.94.94,0,0,0,.94-.91A18.45,18.45,0,0,1,57,3.26a30.32,30.32,0,0,1,13.94,7.49L61,20.67a18.24,18.24,0,0,1-4.52-9.5,1,1,0,0,0-1.88.29,20.19,20.19,0,0,0,5,10.55L50,31.65l-5.36-5.36L29.09,10.75A30.32,30.32,0,0,1,50,2.47ZM27.75,53.9A30.28,30.28,0,0,1,20.26,40a18.35,18.35,0,0,1,17.41,4Zm2.08-16a20.39,20.39,0,0,0-9.94.25,30.88,30.88,0,0,1-.42-5.1,30.3,30.3,0,0,1,8.28-20.91L42.56,26.9h0l6.1,6.1L39,42.64A20.17,20.17,0,0,0,29.83,37.85Zm26.58,25a30.75,30.75,0,0,1-11.51.25A20.29,20.29,0,0,0,40.36,44L50,34.34,70.91,55.25A30.52,30.52,0,0,1,56.41,62.86Zm15.84-9L51.34,33,61,23.35a20.11,20.11,0,0,0,9.2,4.8,20.42,20.42,0,0,0,4.47.5,20.18,20.18,0,0,0,5.45-.75,30.79,30.79,0,0,1,.42,5.1A30.28,30.28,0,0,1,72.25,53.9Z"/><circle class="cls-1" cx="51.85" cy="43.03" r="0.92"/><circle class="cls-1" cx="51.33" cy="49.28" r="0.92"/><circle class="cls-1" cx="71.72" cy="45.58" r="0.92"/><circle class="cls-1" cx="51.1" cy="57.95" r="0.92"/><circle class="cls-1" cx="60.9" cy="53.39" r="0.92"/><circle class="cls-1" cx="65.17" cy="31.01" r="0.92"/><circle class="cls-1" cx="70.45" cy="39.9" r="0.92"/><circle class="cls-1" cx="27.18" cy="18.36" r="0.92"/><circle class="cls-1" cx="38.59" cy="37.52" r="0.92"/><circle class="cls-1" cx="42.21" cy="32.87" r="0.92"/></svg>