<svg id="Livello_1" data-name="Livello 1" xmlns="http://www.w3.org/2000/svg" viewBox="0 0 100 66"><defs><style>.cls-1{fill:#060606;}</style></defs><title>iconTavola disegno 144</title><circle class="cls-1" cx="61.3" cy="34.43" r="5.77"/><path class="cls-1" d="M53.15,40.2a10,10,0,0,1-1.27-9.1H15.24a40.2,40.2,0,0,0-1.26,10A36.35,36.35,0,0,0,15.4,51.18l31.75-11Z"/><path class="cls-1" d="M76.65,10.44A31.75,31.75,0,0,0,54,1.07,40.15,40.15,0,0,0,16.57,26.88H54.76A10,10,0,1,1,61.3,44.43H47.86L16.8,55.17A37.31,37.31,0,0,0,18.7,59L22,64.93,66,57A24.3,24.3,0,0,0,86,33.06a31.78,31.78,0,0,0-9.37-22.62Z"/></svg>