<svg id="Livello_1" data-name="Livello 1" xmlns="http://www.w3.org/2000/svg" viewBox="0 0 100 66"><defs><style>.cls-1{fill:#030402;}</style></defs><title>iconTavola disegno 6</title><path class="cls-1" d="M50.07,40.37a26.57,26.57,0,0,1-2.68.14,26,26,0,0,1-2.66-.14V64.72h5.34V40.37Z"/><path class="cls-1" d="M44.73,38.58a23.84,23.84,0,0,0,5.34,0A25.28,25.28,0,0,0,69.27,1l-11,6.06L47.4,1,36.48,7.06,25.52,1A25.28,25.28,0,0,0,44.73,38.58Z"/><path class="cls-1" d="M56.07,43.58A13,13,0,0,0,52.48,55.1,13,13,0,0,0,67.59,40,13,13,0,0,0,56.07,43.58Z"/></svg>