<svg id="Livello_1" data-name="Livello 1" xmlns="http://www.w3.org/2000/svg" viewBox="0 0 100 66"><defs><style>.cls-1{fill:#060606;}</style></defs><title>iconTavola disegno 99</title><path class="cls-1" d="M82,48.25A33.12,33.12,0,0,0,66.32,44c-.88,0-1.75,0-2.62.09a42.58,42.58,0,0,0,5.9-3.81c9-7.06,12.82-18.51,13-19a1.36,1.36,0,0,0-.25-1.3,1.39,1.39,0,0,0-1.24-.47A37.72,37.72,0,0,0,63,28.71a58.16,58.16,0,0,0-6.18,6.66,42,42,0,0,0,1.38-10.45c0-13-6.74-23.45-7-23.88a1.41,1.41,0,0,0-2.28,0c-.28.43-7,10.84-7,23.88a42,42,0,0,0,1.38,10.45A59.07,59.07,0,0,0,37,28.71a37.76,37.76,0,0,0-18.12-9.22,1.4,1.4,0,0,0-1.24.47,1.36,1.36,0,0,0-.25,1.3c.15.48,3.95,11.93,13,19a42.58,42.58,0,0,0,5.9,3.81C35.43,44,34.56,44,33.68,44A33.12,33.12,0,0,0,18,48.25a1.38,1.38,0,0,0-.65,1.17A1.35,1.35,0,0,0,18,50.58a33.6,33.6,0,0,0,15.66,4.28,24.36,24.36,0,0,0,5.5-.68,11.94,11.94,0,0,0-2.78,7.54A1.36,1.36,0,0,0,37,62.77a1.33,1.33,0,0,0,.79.25,1.74,1.74,0,0,0,.39-.05A20.75,20.75,0,0,0,47,57.11a19.15,19.15,0,0,0,1.69-2.29v9.56a1.36,1.36,0,0,0,2.72,0V54.82a19.15,19.15,0,0,0,1.69,2.29A20.75,20.75,0,0,0,61.85,63a1.74,1.74,0,0,0,.39.05,1.33,1.33,0,0,0,.79-.25,1.36,1.36,0,0,0,.57-1.05,11.9,11.9,0,0,0-2.79-7.56,24,24,0,0,0,5.51.7A33.12,33.12,0,0,0,82,50.58a1.37,1.37,0,0,0,0-2.33Z"/></svg>