<svg id="Livello_1" data-name="Livello 1" xmlns="http://www.w3.org/2000/svg" viewBox="0 0 100 66"><defs><style>.cls-1{fill:#060606;}</style></defs><title>iconTavola disegno 138</title><path class="cls-1" d="M50,.82A32.18,32.18,0,1,0,82.18,33,32.18,32.18,0,0,0,50,.82Zm1.15,9.27L62.34,5.62A30.82,30.82,0,0,1,66,7.6l0,0a30.6,30.6,0,0,1,3.31,2.43l.09.08c.47.4.93.81,1.38,1.24a1.29,1.29,0,0,0,.17.16q.69.69,1.35,1.41l.11.12c.38.43.75.88,1.1,1.33.09.11.18.21.26.32.39.5.76,1,1.12,1.54L72.7,25.73l-11,3.66L51.15,20.93Zm-25,4.63.25-.32c.36-.45.72-.89,1.1-1.31l.12-.14q.64-.72,1.35-1.41l.16-.15c.44-.43.89-.84,1.36-1.24l.1-.09a31.19,31.19,0,0,1,3.29-2.41l0,0a31.35,31.35,0,0,1,3.65-2l11.24,4.45V20.93L38.28,29.39l-11-3.66-2.23-9.48Q25.61,15.47,26.19,14.72ZM24.9,49.46c-.32-.48-.62-1-.91-1.47l-.07-.12c-.28-.49-.56-1-.81-1.51v0A29.25,29.25,0,0,1,21.69,43h0c-.19-.54-.37-1.09-.53-1.64l-.06-.21c-.14-.52-.28-1-.4-1.57l0-.15a32,32,0,0,1-.57-3.64l6.55-7.86,10.9,3.64,3.16,12.65-5.19,6.91ZM57.14,62.17c-.53.14-1.08.25-1.63.35l-.24,0c-.46.08-.94.15-1.41.21l-.38,0c-.44.05-.89.09-1.34.12l-.42,0c-.57,0-1.14.06-1.72.06s-1.06,0-1.58,0l-.19,0c-.47,0-.93-.06-1.4-.11h0c-1-.11-2-.28-3-.49l-6.35-9.93,5.12-6.82H57.47l5.2,6.86Zm22.2-22.73c0,.05,0,.1,0,.15-.12.53-.25,1-.4,1.57l-.05.21c-.17.55-.34,1.1-.53,1.64h0a31.18,31.18,0,0,1-1.41,3.32v0c-.26.51-.53,1-.81,1.51L76,48c-.29.5-.59,1-.91,1.47L64.53,51.13l-5.24-6.91,3.17-12.65,10.89-3.63L79.9,35.8A29.91,29.91,0,0,1,79.34,39.44Z"/></svg>