<svg id="Livello_1" data-name="Livello 1" xmlns="http://www.w3.org/2000/svg" viewBox="0 0 100 66"><defs><style>.cls-1{fill:#060606;}</style></defs><title>iconTavola disegno 46</title><path class="cls-1" d="M81.06,27.07a18.22,18.22,0,0,0-4.27.51L69.56,10.22l6.27-2.09A2.86,2.86,0,1,0,74,2.7L64.63,5.84a2.86,2.86,0,0,0-1.54,3.74l1.8,4.32L39.81,20.42l-2.58-6h4a2.87,2.87,0,0,0,0-5.73H29a2.87,2.87,0,0,0,0,5.73H31l3.81,8.89-5.54,6.47a18.18,18.18,0,1,0,8.45,18.35h9.62A2.86,2.86,0,0,0,49.65,47L68.11,21.63l3.4,8.16a18.17,18.17,0,1,0,9.55-2.72ZM19.75,57.72a12.46,12.46,0,1,1,0-24.92,12.33,12.33,0,0,1,5.72,1.39L17.58,43.4a2.86,2.86,0,0,0,2.17,4.72H31.88A12.47,12.47,0,0,1,19.75,57.72ZM26,42.4,37.33,29.16,43,42.4Zm22-2.89-5.9-13.77,19.68-5.12ZM81.06,57.72a12.45,12.45,0,0,1-7.31-22.55l4.66,11.19a2.86,2.86,0,0,0,5.29-2.2L79,33a13.56,13.56,0,0,1,2-.16,12.46,12.46,0,0,1,0,24.92Z"/></svg>