<svg id="Livello_1" data-name="Livello 1" xmlns="http://www.w3.org/2000/svg" viewBox="0 0 100 66"><defs><style>.cls-1{fill:#060606;}</style></defs><title>iconTavola disegno 55</title><path class="cls-1" d="M84,36.25V25.36a14.09,14.09,0,0,0-12-13.94l-8-1.22V4.42a3.8,3.8,0,0,0-3.8-3.8H42.79A3.8,3.8,0,0,0,39,4.42V10.2l-8,1.22a14.09,14.09,0,0,0-12,13.94V36.25H30.29c.2,2.33.31,4.67.31,7a83.1,83.1,0,0,1-.72,10.92l-1.52,11.4h46.4l-1.52-11.4a83,83,0,0,1-.72-10.92c0-2.35.11-4.69.31-7Zm-11-2.1c.08-.7.16-1.4.26-2.09H82v2.09Zm-40.39,6L50.51,33.9V38L32.68,44.21c0-.32,0-.63,0-.94,0-1,0-2.08-.06-3.11Zm38.74-9.49L52.61,37.23V33.17l19.52-6.84C71.84,27.77,71.59,29.22,71.38,30.67ZM40,43.86l10.48-3.67V53H40Zm12.58-4.4L71.06,33A82.4,82.4,0,0,0,71,53H52.61ZM79.06,17.55A12,12,0,0,1,82,25.36V30H73.6a81.33,81.33,0,0,1,1.83-8.44l.19-.71-2-.55-.19.71c-.27,1-.52,2-.75,3l-20,7V21.58a2.1,2.1,0,0,0,2.09-2.1V18l8.63-5.75,8.44,1.3a12,12,0,0,1,7.29,4.05Zm-38-9.68L48.43,13c0,.06,0,.12,0,.18v2.23l-7.34-4.89Zm8.55,3.43L43.36,6.91h16.4L53.49,11.3a2.18,2.18,0,0,0-.88-.2h-2.1A2.18,2.18,0,0,0,49.63,11.3ZM54.69,13,62,7.87v2.67L54.7,15.43V13.2C54.7,13.14,54.69,13.08,54.69,13Zm-4.18,6.46V13.2h2.1v6.28ZM42.79,2.72H60.33A1.71,1.71,0,0,1,62,4.42a1.6,1.6,0,0,1,0,.39H41.13a1.6,1.6,0,0,1-.05-.39,1.71,1.71,0,0,1,1.71-1.7ZM24.06,17.55a12,12,0,0,1,7.29-4.05l8.44-1.3L48.42,18v1.53a2.1,2.1,0,0,0,2.09,2.1v10.1L32.53,38a84.55,84.55,0,0,0-2.82-17l-.19-.71-2,.55.19.71A84,84,0,0,1,29.52,30H21.17v-4.6a12,12,0,0,1,2.89-7.81Zm-2.89,16.6V32.06h8.66c.1.69.18,1.39.26,2.09ZM32,54.47c.36-2.65.58-5.34.68-8l5.31-1.86V55.11H50.51v8.38H30.75Zm20.66,9V55.11H71.25l1.12,8.38Z"/><path class="cls-1" d="M39,28.91a5.24,5.24,0,1,0-5.24-5.24A5.24,5.24,0,0,0,39,28.91Zm0-8.38a3.15,3.15,0,1,1-3.15,3.14A3.15,3.15,0,0,1,39,20.53Z"/><circle class="cls-1" cx="38.99" cy="23.67" r="1.05"/></svg>