<svg id="Livello_1" data-name="Livello 1" xmlns="http://www.w3.org/2000/svg" viewBox="0 0 100 66"><title>iconTavola disegno 58</title><path d="M10.59,37.37c.14-.91.26-1.81.43-2.71s.4-2.06.64-3.08a45.14,45.14,0,0,0,1.22-5.35c.43-3.54,2.39-6.43,4.73-9,.7-.79,1.46-1.52,2.22-2.24s1.32-.64,1.82-.09.4,1.12-.2,1.77c-1.09,1.16-2.18,2.32-3.22,3.51a1.23,1.23,0,0,0-.24.94c1.68,6.93,3.34,13.86,5.13,20.77A20.26,20.26,0,0,0,25,46c1,1.81,2,3.57,3.05,5.34a2,2,0,0,0,.65.72,42.92,42.92,0,0,0,13.49,5.54,2.37,2.37,0,0,0,.34,0c-.43-1.36-.83-2.67-1.28-4,0-.14-.31-.25-.49-.29-5-1.09-7.93-4.34-9.53-9-1.9-5.51-3.7-11.06-5.58-16.58a8.3,8.3,0,0,0-1.12-2.07c-.73-1-1.57-2-2.35-2.95a3.21,3.21,0,0,1,.95-5.09A16.31,16.31,0,0,1,27.18,16c2.43-.55,4.07.43,5,2.77,1.18,3.13,2.33,6.28,3.37,9.46,3.17,9.72,6.28,19.46,9.41,29.2a.91.91,0,0,0,.91.77,38.64,38.64,0,0,0,8.6,0c.56-.06.56-.42.67-.76C57.71,49.27,60.28,41.1,63,33c1.56-4.74,3.23-9.44,4.92-14.13.92-2.55,2.85-3.55,5.42-2.73a16.85,16.85,0,0,1,4.11,2,3.12,3.12,0,0,1,.52,4.62c-.59.78-1.19,1.54-1.84,2.27a8.49,8.49,0,0,0-2,3.6,11.9,11.9,0,0,1-.53,1.52,1.09,1.09,0,0,1-1.43.71,1.06,1.06,0,0,1-.75-1.4c.55-1.75.91-3.58,2.16-5,.08-.09.15-.2.27-.36A6.49,6.49,0,0,0,69,23.55a1.07,1.07,0,0,0-.62.58Q64,37.36,59.73,50.59a1.21,1.21,0,0,0,0,.3,10,10,0,0,0,5-3.62,18.07,18.07,0,0,0,2.51-5.57c.78-2.3,1.54-4.61,2.32-6.91.27-.79.78-1.18,1.38-1.08a1.21,1.21,0,0,1,.89,1.66c-.37,1.22-.79,2.43-1.21,3.64-.77,2.25-1.43,4.55-2.36,6.73a12.24,12.24,0,0,1-9,7.67,1,1,0,0,0-.62.46c-.42,1.22-.79,2.47-1.26,4a51.23,51.23,0,0,0,5.71-1.75c2.79-1.2,5.47-2.64,8.2-4a1,1,0,0,0,.44-.4,83.4,83.4,0,0,0,4.45-8.06,48.74,48.74,0,0,0,2.09-7.44c1.25-4.93,2.44-9.88,3.67-14.81A1.4,1.4,0,0,0,81.7,20a34.27,34.27,0,0,0-9.47-8,8,8,0,0,1-3.39-3.4c-1.38-2.87-4-3.87-6.94-4.47A57.18,57.18,0,0,0,45.92,3,43.64,43.64,0,0,0,35.28,4.89a7,7,0,0,0-4,3.59,7.29,7.29,0,0,1-3.43,3.44c-.71.34-1.33.87-2,1.28a1.18,1.18,0,0,1-1.74-.3,1.15,1.15,0,0,1,.46-1.65c1-.64,2-1.2,2.91-1.87A4.6,4.6,0,0,0,28.73,8C29.8,6.17,31,4.34,33,3.41a25.07,25.07,0,0,1,5.3-1.72A57.11,57.11,0,0,1,53,.61,46.81,46.81,0,0,1,65.57,2.69a9.13,9.13,0,0,1,5.15,4.49,8,8,0,0,0,3,2.94,34.28,34.28,0,0,1,10.55,9.4,14.28,14.28,0,0,1,3,8.54,2.33,2.33,0,0,0,.19.81A32.57,32.57,0,0,1,89.3,42.92a49.17,49.17,0,0,1-2.24,11.27,9,9,0,0,1-5.5,5.91A74.82,74.82,0,0,1,63,64.88a105.84,105.84,0,0,1-17.89.56,87.43,87.43,0,0,1-14.34-1.6,58.77,58.77,0,0,1-13.27-4.22,8.27,8.27,0,0,1-4.38-5.11A45.43,45.43,0,0,1,10.72,43a3,3,0,0,0-.13-.59Zm3.34-4.53h-.19c-.18,1-.39,2-.53,3.06a35.69,35.69,0,0,0,.26,10.57,2,2,0,0,0,.74,1.35c1.52,1.22,3,2.46,4.54,3.68.5.4,1.05.75,1.52,1.17a1.06,1.06,0,0,1,.16,1.47,1.08,1.08,0,0,1-1.42.39,3,3,0,0,1-.71-.46c-1.22-.89-2.43-1.78-3.76-2.77.7,2.44,1.55,4.68,3.73,5.93a24.13,24.13,0,0,0,4.85,2.06c3,.94,6.08,1.71,9.13,2.55l.07-.23c-.13-.06-.25-.14-.39-.2C30,60.53,28,59.66,26.06,58.76c-.83-.39-1.64-.85-2.43-1.31a1.14,1.14,0,0,1-.53-1.63,1.17,1.17,0,0,1,1.6-.44c.19.09.37.19.55.29a60.26,60.26,0,0,0,17.11,6.41c3.46.7,6.93,1.34,10.5.84A64.22,64.22,0,0,0,70,58,56.29,56.29,0,0,0,85.91,47.71a1.92,1.92,0,0,0,.57-1,34.31,34.31,0,0,0,.46-9.49c-.16-1.48-.41-3-.62-4.44l-.22,0c-.07.2-.15.4-.21.61-.73,2.53-1.49,5-2.17,7.6-.8,3-1.88,6-4.27,8.11a44.16,44.16,0,0,1-5.62,4.13c-6.32,4-13.09,6.82-20.68,7.36A40.56,40.56,0,0,1,38.05,59a56.62,56.62,0,0,1-15.53-8.09,12.27,12.27,0,0,1-4.4-5,66,66,0,0,1-2.28-6.41C15.14,37.25,14.56,35,13.93,32.84ZM40.34,50.91c-.06-.25-.09-.42-.14-.58-.53-1.65-1.05-3.31-1.59-5q-3.47-10.51-6.94-21a1.25,1.25,0,0,0-.62-.76,6.23,6.23,0,0,0-4.72.37,30.13,30.13,0,0,1,1.52,3.15c1.87,5.46,3.64,10.95,5.54,16.41a16.59,16.59,0,0,0,2,3.79A9,9,0,0,0,40.34,50.91ZM23.83,48.75l-.72-1.25A19.58,19.58,0,0,1,20.73,42c-1.25-5.14-2.54-10.27-3.82-15.4-.24-1-.49-1.94-.77-3a8,8,0,0,0-.93,5.19q1.92,6.66,3.85,13.33A11.65,11.65,0,0,0,23.83,48.75Zm52.37,0A10.7,10.7,0,0,0,80.64,43c1.47-4.81,2.9-9.64,4.22-14.49.44-1.64-.28-3.22-1-4.9a4.24,4.24,0,0,0-.18.45c-1.19,4.84-2.34,9.69-3.59,14.51-.61,2.37-1.35,4.71-2.18,7A22.24,22.24,0,0,1,76.2,48.75Zm9.24,2.51a66,66,0,0,1-18,10.37,1.44,1.44,0,0,0,.39,0A74.79,74.79,0,0,0,79.6,58.36C82.85,57.14,84.66,54.77,85.44,51.26Zm-10-29.13c.28-.35.51-.62.72-.91a.82.82,0,0,0-.23-1.32,22.51,22.51,0,0,0-3.37-1.59,1.63,1.63,0,0,0-2.18.76c-.31.58-.54,1.2-.85,1.91A10.56,10.56,0,0,1,75.39,22.13Zm-50.73,0A10.31,10.31,0,0,1,30.49,21c-.23-.58-.42-1.07-.63-1.55-.43-1-.92-1.37-2-1.14A11.34,11.34,0,0,0,25,19.36C23.29,20.26,23.27,20.68,24.66,22.12Z"/><path d="M61.06,19.37c-.45,1.75-.9,3.51-1.37,5.26q-3.52,13.29-7.07,26.59a2.64,2.64,0,0,1-5.22.06q-4.12-15.53-8.24-31a2.69,2.69,0,0,1,1-3.14,2.64,2.64,0,0,1,3.28.22c1.2.87,2.38,1.77,3.57,2.66a4.6,4.6,0,0,0,6,0c1.23-.92,2.44-1.88,3.7-2.75A2.61,2.61,0,0,1,61,18.89c0,.15,0,.3,0,.45ZM49.88,51.16l.22,0a3.71,3.71,0,0,0,.22-.55q2.93-10.89,5.81-21.77A4.06,4.06,0,0,0,56,26.93c-.21-.87-.69-1.16-1.56-.86a15.3,15.3,0,0,0-2.9,1.35c-1.58,1-1.53,1-3,0a14.72,14.72,0,0,0-2-1.06c-2-.84-2.82-.25-2.77,1.87a2.5,2.5,0,0,0,.09.61q2.76,10.41,5.53,20.81C49.54,50.17,49.72,50.66,49.88,51.16ZM57.3,24.48l1.4-5.38L58.48,19a6.6,6.6,0,0,0-.7.37c-1.17.86-2.33,1.75-3.51,2.61a6.87,6.87,0,0,1-8.61-.06Q44,20.59,42.21,19.31a5,5,0,0,0-.74-.34l-.17.16,1.41,5.3a7.89,7.89,0,0,1,1.17-.58,5.11,5.11,0,0,1,4.46.8,2.76,2.76,0,0,0,3.33,0C53.39,23.63,55.3,23.05,57.3,24.48Z"/><path d="M54.33,5.26a40.16,40.16,0,0,1,8.9,1.46c.87.26,1.23.77,1.07,1.48s-.78,1-1.65.81q-3.57-.67-7.14-1.31c-.43-.07-.87,0-1.3-.07-.88-.08-1.35-.55-1.3-1.3S53.5,5.24,54.33,5.26Z"/><path d="M45,5.32a8.27,8.27,0,0,1,1.22,0,1,1,0,0,1,.91,1.06,1,1,0,0,1-.83,1.13c-.76.13-1.53.13-2.29.26-2.16.37-4.31.79-6.48,1.16a2,2,0,0,1-1.24-.07,1.57,1.57,0,0,1-.54-1.07c0-.59.42-.91,1-1,1.29-.32,2.57-.66,3.88-.9C42,5.6,43.49,5.45,45,5.26Z"/></svg>