<svg id="Livello_1" data-name="Livello 1" xmlns="http://www.w3.org/2000/svg" viewBox="0 0 100 66"><defs><style>.cls-1{fill:#030402;}</style></defs><title>iconTavola disegno 30</title><path class="cls-1" d="M31.3,5.07l-3.94,8-5.48,1.37-4.46,7.06s32.9-9.8,33.58-9.8Z"/><path class="cls-1" d="M21.88,40.53C2.29,41.16,1.66,61.42,1.66,61.42H17.94c-1.38-6.51,6.68-17,6.68-17Z"/><path class="cls-1" d="M36,45.55h0a7.93,7.93,0,0,0-7.79,6.59,7.53,7.53,0,0,0-.12,1.35,7.94,7.94,0,0,0,15.87,0,7.53,7.53,0,0,0-.12-1.35A7.94,7.94,0,0,0,36,45.55Zm1.58,9.68a2.37,2.37,0,0,1-4-1.74,2,2,0,0,1,0-.43,2.28,2.28,0,0,1,.38-.92,2.36,2.36,0,0,1,3.89,0,2.28,2.28,0,0,1,.38.92,2,2,0,0,1,0,.43A2.32,2.32,0,0,1,37.61,55.23Z"/><path class="cls-1" d="M80.36,45.55a7.94,7.94,0,1,0,7.93,7.94A7.94,7.94,0,0,0,80.36,45.55ZM82,55.23a2.36,2.36,0,0,1-3.21,0A2.35,2.35,0,0,1,78,53.49a2,2,0,0,1,0-.43,2.36,2.36,0,0,1,4.65,0,2,2,0,0,1,0,.43A2.35,2.35,0,0,1,82,55.23Z"/><path class="cls-1" d="M33.16,45.55H26.47v6.59H27.7a.28.28,0,0,1,0-.09A8.42,8.42,0,0,1,33.16,45.55Z"/><path class="cls-1" d="M96.79,48c0-3.62.07-7.21-.07-10.84-1.15-.52-2.32-1-3.48-1.6-.82-.37-1.63-.76-2.43-1.15a2.1,2.1,0,0,1-.3-.15c-1.65-.88-1.6-3.1-2.23-4.67-.65-2.66-1.72-5.25-2.37-7.91a16.35,16.35,0,0,1-.52-5.18c-4.73-.07-9.44,0-14.14,0h0l0,0v5.82l0,0c0,7.72-.08,15.46,0,23.19H59.93l-.4-1.5.61-.17-1.77-6.62-.62.16-.45-1.68,3.3-.86,1.71-23.13,3.08-3.94V5.07L55.29,7.64v4.79L11.08,25.28v1.55l15.59,17,29.4-7.72.46,1.68-.62.17,1.78,6.62.61-.16.32,1.17H38.86a8.42,8.42,0,0,1,5.46,6.5s0,.06,0,.09h27c1.16-3.69,4-7.25,8.2-7.48,4.59-.66,8.84,2.86,9.84,7.24,3,0,6,0,9.07,0,0-1.27,0-2.56,0-3.82ZM77.45,33.8c0-3.53-.1-7,0-10.57,2.35,0,4.75,0,7.11.07.93,3.49,2.06,6.94,3,10.46C84.2,33.83,80.84,33.8,77.45,33.8Zm19,14.48c-2.06.07-4.14.07-6.2,0,0-1.24,0-2.45,0-3.68q3.09-.06,6.16,0C96.44,45.87,96.44,47.08,96.41,48.28Z"/></svg>