<svg id="Livello_1" data-name="Livello 1" xmlns="http://www.w3.org/2000/svg" viewBox="0 0 100 66"><defs><style>.cls-1{fill:#030402;fill-rule:evenodd;}</style></defs><title>iconTavola disegno 33</title><path class="cls-1" d="M22.61,49.94a5,5,0,0,0-1.15-2.57c-2.55-3.23-7.07-4.06-6.64-9.1.3-3.57,3-5.13,6.33-5.16,4.4,0,6.7,2.51,9.84,5.14s8.41.58,11.82,0c6.3-1.11,12.67-.65,18.9-1.51,3.94-.54,4.72-8,7-10.36C71.25,23.87,75.4,24,78.11,26c3.7,2.68,2.88,6.93,1,10.57-1.44,2.69-4.3,3.33-3.73,6.74.44,2.67,3.08,4.39,3.83,7,1.19,4.05-1.45,7.92-6.51,7.62-5.6-.33-5.77-5.66-7.83-9.89-4.71,1.11-9.64,2.58-14.67,3.36S40,52.22,34.55,52.64c0,.35-.19,1.24-.29,2.12-.43,3.86-2.94,9.16-7.12,10s-6.55-2.58-6.42-6.51C20.83,55.17,23,52.64,22.61,49.94Z"/><path class="cls-1" d="M56.9,11.9c.92.23,5.61,1.39,6.54,3.44,1.48,3.27-.9,7.44-4.17,6.84-1.71-.31-5.44-2.4-6.54-2.08-.64.19-8.63,3.57-7.65,7.53.8,3.27-.38,7.35-5.83,6.86a4.44,4.44,0,0,1-3.85-4c-.32-3.61-1.56-6-5-7.66a5.54,5.54,0,0,1,1.35-10.52c2.57-.64,8.14,4.5,8.68,5.47,2.54-2,5-3.81,7.38-5.78.39-.32.69-6,1.42-7.92C50.46.87,53.91.43,56.36,2.94,58.4,5,58.58,7.52,56.9,11.9Z"/></svg>