<svg id="Livello_1" data-name="Livello 1" xmlns="http://www.w3.org/2000/svg" viewBox="0 0 100 66"><title>iconTavola disegno 110</title><path d="M65.46,62c-1.73-1.73-3.32-3.37-5-5a2.3,2.3,0,0,0-1.09-.34A77.65,77.65,0,0,1,51.3,55a16.85,16.85,0,0,1-4.52-2.83,2.73,2.73,0,0,0-2-.74,48.09,48.09,0,0,1-12.62-.47,4.42,4.42,0,0,0-2.2.06c-3.87,1.32-7.78,2.58-11.55,4.15-2.42,1-4.61,2.56-6.94,3.8a18,18,0,0,1-3.69,1.63,2.12,2.12,0,0,1-1.9-.77,2.85,2.85,0,0,1,.27-2.18,3.87,3.87,0,0,1,1.54-1.29A81.76,81.76,0,0,1,25.13,48,23,23,0,0,0,35,41.87,325,325,0,0,1,62.37,17.16a20,20,0,0,0,6.11-8.1c1.84-4.6,5.22-7.21,10.2-7.29S88,3.62,90.77,8.11A1.56,1.56,0,0,0,92.29,9c1.59,0,3.2.12,4.56,1.35a6.79,6.79,0,0,1-4.1,2.19c-.66.17-1,.37-1.14,1.12-.61,2.93-1.42,5.83-2,8.77a36.77,36.77,0,0,0-.3,4.93A21.57,21.57,0,0,1,86,38.12c-1.49,2.38-2.77,4.9-4.32,7.24A26.36,26.36,0,0,1,66.64,56.3c-.79.23-1.62.33-2.63.53,1.86,1.72,3.58,3.4,5.4,5a4,4,0,0,0,1.83.44c1.47.23,3,.39,4.41.67.32.06.58.48.87.73-.36.14-.73.45-1.07.41a56.45,56.45,0,0,1-6-.86c-2.29-.52-4.37.28-6.53.62-.6.1-1.37.66-1.72-.29a3.77,3.77,0,0,1,1.42-.84C63.53,62.37,64.44,62.23,65.46,62Z"/></svg>