<svg id="Livello_1" data-name="Livello 1" xmlns="http://www.w3.org/2000/svg" viewBox="0 0 100 66"><title>iconTavola disegno 124</title><path d="M43.56,65.24,38.82,62.8c-2-1-4-2-5.91-3a1.1,1.1,0,0,0-1.16,0c-3.31,1.73-6.63,3.43-9.95,5.13l-.74.37c.21-1.26.38-2.42.59-3.57.48-2.75,1-5.5,1.45-8.26a1.14,1.14,0,0,0-.38-.87q-4-3.88-8.06-7.72A4.6,4.6,0,0,0,14,44.4l.14-.23,3.36-.5c2.88-.41,5.77-.81,8.65-1.25a1.19,1.19,0,0,0,.76-.55c1.68-3.28,3.33-6.58,5-9.87l.4-.74c1.79,3.55,3.54,7,5.27,10.47a1.11,1.11,0,0,0,.95.74C42.29,43,46,43.56,49.77,44a8.29,8.29,0,0,0,2.08-.23c3.21-.46,6.42-.93,9.63-1.36a.88.88,0,0,0,.76-.58c1.76-3.5,3.52-7,5.34-10.6.18.33.32.58.45.83L73,41.86a.85.85,0,0,0,.76.58c3.86.53,7.71,1.1,11.56,1.65a5.32,5.32,0,0,1,.56.12c-.2.21-.33.36-.48.5-2.72,2.6-5.43,5.21-8.17,7.8a1.06,1.06,0,0,0-.36,1.09c.7,3.83,1.35,7.66,2,11.62l-.73-.35c-3.28-1.68-6.57-3.36-9.83-5.07a1.37,1.37,0,0,0-1.42,0c-3.16,1.66-6.34,3.28-9.51,4.92l-1,.51c.13-.85.23-1.57.36-2.28q.81-4.62,1.65-9.23a1.25,1.25,0,0,0-.4-1.29c-2.66-2.49-5.29-5-8-7.56-.17.13-.31.23-.44.35-2.56,2.44-5.11,4.88-7.69,7.3a1,1,0,0,0-.33,1q.95,5.34,1.88,10.68C43.47,64.52,43.5,64.8,43.56,65.24ZM32.32,43.75c-.49,1-1,1.79-1.33,2.67a1.87,1.87,0,0,1-1.93,1.33c-.88,0-1.75.24-2.76.39.88.83,1.59,1.58,2.37,2.24a1.31,1.31,0,0,1,.45,1.46c-.21,1-.35,2-.55,3.19,1.06-.53,2-1,2.87-1.47a1.52,1.52,0,0,1,1.73,0c.91.55,1.88,1,2.91,1.51-.22-1.26-.38-2.41-.62-3.54a.86.86,0,0,1,.29-.91c.78-.84,1.52-1.7,2.25-2.52-1-.14-2.15-.29-3.31-.5a1,1,0,0,1-.66-.47C33.45,46.05,32.92,45,32.32,43.75ZM71.37,55.07c-.22-1.24-.4-2.29-.61-3.34a1.13,1.13,0,0,1,.35-1.24c.83-.71,1.59-1.5,2.48-2.35-1.23-.19-2.32-.4-3.42-.51a1.08,1.08,0,0,1-1-.7c-.49-1-1-2.06-1.59-3.18a27.68,27.68,0,0,0-1.35,2.75,1.83,1.83,0,0,1-1.85,1.24c-.89.07-1.78.24-2.5.35.73.81,1.46,1.65,2.23,2.46a.94.94,0,0,1,.33,1c-.25,1.14-.4,2.3-.61,3.55,1.17-.61,2.21-1.18,3.29-1.68a1.3,1.3,0,0,1,1,0C69.13,53.87,70.15,54.43,71.37,55.07Z"/><path d="M38.61,34.74c.69-3.94,1.34-7.73,2-11.51a1.22,1.22,0,0,0-.38-1.29c-2.73-2.56-5.43-5.15-8.14-7.73a3.2,3.2,0,0,0-.53-.34l.13-.21,5-.72c2.38-.33,4.76-.65,7.14-1a1.18,1.18,0,0,0,.67-.6c1.67-3.26,3.31-6.53,5-9.8.11-.23.24-.44.4-.76,1,1.88,1.86,3.67,2.77,5.46s1.73,3.41,2.57,5.13a1,1,0,0,0,.91.62c3.46.47,6.93,1,10.39,1.46l1.52.23.23.26a2.93,2.93,0,0,0-.68.36c-2.7,2.55-5.39,5.13-8.1,7.68a1.18,1.18,0,0,0-.37,1.22c.68,3.81,1.34,7.62,2,11.53-.31-.14-.53-.23-.75-.34q-5-2.57-9.95-5.15a1.11,1.11,0,0,0-1.15,0c-3.29,1.71-6.59,3.4-9.89,5.1Zm17-17.17c-1-.14-2.19-.26-3.31-.46a1.29,1.29,0,0,1-.77-.57c-.58-1-1.1-2.13-1.69-3.29-.58,1.15-1.12,2.18-1.61,3.23a1.07,1.07,0,0,1-1,.66c-1.1.13-2.2.3-3.26.45a23.65,23.65,0,0,0,2,2.1,1.63,1.63,0,0,1,.58,1.87c-.23.93-.33,1.89-.5,3,1.08-.55,2.05-1,3-1.52a1.32,1.32,0,0,1,1.52,0c.93.55,1.91,1,3,1.55-.22-1.24-.39-2.31-.61-3.38A1.16,1.16,0,0,1,53.45,20C54.23,19.19,54.93,18.36,55.65,17.57Z"/></svg>