<svg id="Livello_1" data-name="Livello 1" xmlns="http://www.w3.org/2000/svg" viewBox="0 0 100 66"><defs><style>.cls-1{fill:#060606;}</style></defs><title>iconTavola disegno 113</title><path class="cls-1" d="M74.39,27.14a26.62,26.62,0,0,0-1.75-6.39,18.24,18.24,0,0,0,3.27-10.48,18.45,18.45,0,0,0-2.2-8.73,1.26,1.26,0,0,0-1.1-.66h-.17A18.35,18.35,0,0,0,59,6.76a25.84,25.84,0,0,0-4.67-1.55,1.27,1.27,0,1,0-.57,2.47c.65.15,1.29.33,1.92.53A4.46,4.46,0,1,0,63,12.14a23.94,23.94,0,0,1,8.9,15.36l.68,4.75h0a5.07,5.07,0,0,0-1.29-.17,4.84,4.84,0,0,0-.5,9.66,14.75,14.75,0,0,1-6.12,5.84A9.38,9.38,0,0,0,62,42.14a1.27,1.27,0,1,0-1.79,1.79,7,7,0,0,1,2.05,4.94,7.34,7.34,0,0,1-.13,1.34l-2.71-1.64a1.27,1.27,0,0,0-1.31,2.17l3.07,1.86a7.14,7.14,0,0,1-3.27,2.75l-2.07-2.07A1.27,1.27,0,1,0,54,55.08l.78.77A7,7,0,0,1,49.6,53V50.73a4.19,4.19,0,0,0,1.76-1.1l3.34-3.52a3.37,3.37,0,0,0,.67-3.73,3.45,3.45,0,0,0-.75-1.11,5.94,5.94,0,0,1-1.69-4.16V33.33a1.27,1.27,0,0,0-2.54,0v3.78A8.53,8.53,0,0,0,51,40.29H45.66a8.53,8.53,0,0,0,.61-3.18V33.33a1.27,1.27,0,1,0-2.53,0v3.78A5.9,5.9,0,0,1,42,41.27a3.45,3.45,0,0,0-.75,1.11A3.39,3.39,0,0,0,42,46.11l3.34,3.52a4.19,4.19,0,0,0,1.76,1.1V53a7,7,0,0,1-5.18,2.81l.78-.77a1.27,1.27,0,1,0-1.79-1.8L38.8,55.35a7.14,7.14,0,0,1-3.27-2.75l3.07-1.86a1.27,1.27,0,1,0-1.31-2.17l-2.71,1.64a7.34,7.34,0,0,1-.13-1.34,6.93,6.93,0,0,1,2.06-4.95,1.27,1.27,0,0,0-1.79-1.79A9.46,9.46,0,0,0,32,47.6a14.78,14.78,0,0,1-6.82-7.17l.58,0a6,6,0,0,0,0-12,5.83,5.83,0,0,0-1.18.12l.16-1.11a23.77,23.77,0,0,1,5.2-11.73,4.84,4.84,0,0,0,8.69-2.94,4.87,4.87,0,0,0-1.16-3.15,23.79,23.79,0,0,1,5.46-2,1.27,1.27,0,1,0-.58-2.47A26.71,26.71,0,0,0,37.7,6.75,18.37,18.37,0,0,0,24.23.88h-.17A1.27,1.27,0,0,0,23,1.54a18.45,18.45,0,0,0-2.2,8.73A18.2,18.2,0,0,0,24,20.71a26.07,26.07,0,0,0-1.77,6.43l-.68,4.75a17.13,17.13,0,0,0,2.31,11.43A17.52,17.52,0,0,0,32,50.41a11.86,11.86,0,0,0,.27,1.18L29.82,53.1a1.27,1.27,0,0,0-.43,1.74,1.28,1.28,0,0,0,1.09.61,1.2,1.2,0,0,0,.65-.19l2.23-1.35a9.69,9.69,0,0,0,3.54,3.34l-2,2a1.27,1.27,0,1,0,1.8,1.79l1.88-1.89a10.63,10.63,0,0,0,19.6,0L60,61.09a1.24,1.24,0,0,0,.89.38,1.28,1.28,0,0,0,.9-2.17l-2.05-2a9.54,9.54,0,0,0,3.54-3.34l2.23,1.35a1.2,1.2,0,0,0,.65.19,1.28,1.28,0,0,0,1.09-.61,1.27,1.27,0,0,0-.43-1.74l-2.49-1.51a9.49,9.49,0,0,0,.27-1.2,17.6,17.6,0,0,0,8.15-7.08,17.22,17.22,0,0,0,2.3-11.42ZM58.55,13.5a1.93,1.93,0,1,1,1.93-1.92A1.92,1.92,0,0,1,58.55,13.5ZM25.76,31a3.45,3.45,0,1,1-1.51,6.54,15,15,0,0,1-.19-5.32l.12-.84A3.44,3.44,0,0,1,25.76,31ZM36.1,12.83a2.32,2.32,0,0,1-2.31,2.31,2.28,2.28,0,0,1-2.07-1.31A23.79,23.79,0,0,1,35.21,11,2.32,2.32,0,0,1,36.1,12.83ZM23.28,10.27a15.9,15.9,0,0,1,1.56-6.85A15.83,15.83,0,0,1,35.32,7.94,26.61,26.61,0,0,0,25.3,18,15.77,15.77,0,0,1,23.28,10.27ZM43.8,44.37a.88.88,0,0,1-.18-1,.87.87,0,0,1,.84-.55h7.75a.86.86,0,0,1,.83.55.89.89,0,0,1-.17,1l-3.35,3.51a1.61,1.61,0,0,1-1.19.51,1.63,1.63,0,0,1-1.19-.51Zm4.53,18.82a8.1,8.1,0,0,1-7.39-4.8h.51a9.47,9.47,0,0,0,6.88-2.94,9.49,9.49,0,0,0,6.89,2.94h.5A8.1,8.1,0,0,1,48.33,63.19ZM61.33,8a15.76,15.76,0,0,1,10.5-4.54,16,16,0,0,1,1.55,6.85,15.7,15.7,0,0,1-2,7.79A26.89,26.89,0,0,0,67.64,13,26.39,26.39,0,0,0,61.33,8Zm9.94,31.26a2.31,2.31,0,1,1,0-4.61,2.28,2.28,0,0,1,1.42.5,14.89,14.89,0,0,1-.74,4,2.24,2.24,0,0,1-.68.1Z"/><path class="cls-1" d="M55.67,30.54H60.4a5.39,5.39,0,0,0,5-3.44l1.24-3.26a1.25,1.25,0,0,0-.14-1.17,1.23,1.23,0,0,0-1-.55H62.79A8.52,8.52,0,0,0,54.43,29a1.23,1.23,0,0,0,.27,1,1.25,1.25,0,0,0,1,.46Zm7.12-5.89h.83L63,26.2A2.84,2.84,0,0,1,60.4,28h-3a6,6,0,0,1,5.37-3.36Z"/><path class="cls-1" d="M33.87,22.12H31.2A1.27,1.27,0,0,0,30,23.84l1.25,3.26a5.37,5.37,0,0,0,5,3.44H41A1.27,1.27,0,0,0,42.24,29a8.54,8.54,0,0,0-8.37-6.92ZM36.27,28a2.83,2.83,0,0,1-2.63-1.81L33,24.65h.83A6,6,0,0,1,39.24,28Z"/><path class="cls-1" d="M41.62,16a4.15,4.15,0,1,0,4.15-4.15A4.15,4.15,0,0,0,41.62,16Zm4.15-1.61A1.61,1.61,0,1,1,44.15,16,1.61,1.61,0,0,1,45.77,14.38Z"/><path class="cls-1" d="M48.31,7.06a1.28,1.28,0,0,0,.9-.37,1.31,1.31,0,0,0,.37-.9,1.27,1.27,0,0,0-2.54,0,1.31,1.31,0,0,0,.37.9,1.28,1.28,0,0,0,.9.37Z"/></svg>