<svg id="Livello_1" data-name="Livello 1" xmlns="http://www.w3.org/2000/svg" viewBox="0 0 100 66"><defs><style>.cls-1{fill:#060606;}</style></defs><title>iconTavola disegno 143</title><path class="cls-1" d="M81.51,61.79,67,40a2,2,0,0,0-3.27,0l-1.9,2.86L53,29.63V17.45h6.38v5.39a3,3,0,0,0,3.05,2.85H75a1.94,1.94,0,0,0,1.7-1,2,2,0,0,0,0-2l-3-5.16a.07.07,0,0,1,0-.09l3-5.16A2,2,0,0,0,75,9.4H65.36V6.21a3,3,0,0,0-3-3H53v-.1a2,2,0,0,0-2-2H49a2,2,0,0,0-2,2V6.6a.93.93,0,1,0,1.86,0V3.12A.1.1,0,0,1,49,3H51a.1.1,0,0,1,.1.09v24a2,2,0,0,0-2.26,0V10.33a.93.93,0,0,0-1.86,0v19.3L38.22,42.81,36.32,40a2,2,0,0,0-3.27,0L18.49,61.79a2,2,0,0,0,1.63,3.05H31.65a.94.94,0,0,0,0-1.87H27L40.34,43l5.44-2.73L49.44,43a.93.93,0,0,0,1.12,0l3.66-2.75L59.66,43,73,63H35.42a.94.94,0,1,0,0,1.87H79.88a2,2,0,0,0,1.63-3.05ZM62.36,17.45a1.13,1.13,0,1,1,0,2.25,2.84,2.84,0,0,0-1.12.23V17.45ZM75,11.27a.09.09,0,0,1,.09.05.13.13,0,0,1,0,.09l-2.95,5.16a1.94,1.94,0,0,0,0,1.95l2.95,5.16a.16.16,0,0,1,0,.1.09.09,0,0,1-.09,0H62.42a1.17,1.17,0,0,1-1.18-1.08,1.07,1.07,0,0,1,.31-.83,1.08,1.08,0,0,1,.81-.35,3,3,0,0,0,3-3V11.27ZM62.36,5.09a1.13,1.13,0,0,1,1.13,1.12V15.8a3,3,0,0,0-1.13-.22H53V5.09ZM20.12,63a.09.09,0,0,1-.08,0,.09.09,0,0,1,0-.1L34.6,41a.1.1,0,0,1,.08,0c.06,0,.08,0,.08,0l2.34,3.51L24.78,63ZM54.54,38.35a.92.92,0,0,0-1,.09L50,41.11l-3.56-2.67a.92.92,0,0,0-1-.09l-3,1.52,7.5-11.25a.1.1,0,0,1,.16,0l7.5,11.25ZM80,62.92a.09.09,0,0,1-.08,0H75.22L62.9,44.49,65.24,41s0,0,.08,0a.1.1,0,0,1,.08,0L80,62.82a.09.09,0,0,1,0,.1Z"/></svg>