<svg id="Livello_1" data-name="Livello 1" xmlns="http://www.w3.org/2000/svg" viewBox="0 0 100 66"><defs><style>.cls-1{fill:#060606;}</style></defs><title>iconTavola disegno 132</title><path class="cls-1" d="M77.19,5.81A17.76,17.76,0,0,0,62.54,1a26,26,0,0,0-15.65,7.7c-.38.38-.76.78-1.12,1.19A8.64,8.64,0,1,0,37.31,22a8.42,8.42,0,0,0,2.25-.14,21,21,0,0,0-.14,8.19h0c0,2.58-.58,9.77-2.81,12l-4.51,4.51a2.51,2.51,0,0,0-.62-.08,2.25,2.25,0,0,0-1.6.66l-7,7a1,1,0,0,0,1.36,1.36l7-7a.33.33,0,0,1,.24-.1.34.34,0,0,1,.25.1l2.76,2.76a.34.34,0,0,1,0,.49L23.15,63.11a.35.35,0,0,1-.5,0l-2.76-2.76a.35.35,0,0,1,0-.5l1.16-1.15a1,1,0,0,0,0-1.36,1,1,0,0,0-1.36,0L18.53,58.5a2.28,2.28,0,0,0,0,3.21l2.76,2.76a2.28,2.28,0,0,0,1.61.66,2.26,2.26,0,0,0,1.6-.66L35.83,53.14a2.28,2.28,0,0,0,.58-2.22l4.51-4.51c2.22-2.22,9.41-2.78,12-2.81h0a18.47,18.47,0,0,0,2,.26c.56,0,1.12.07,1.69.07a23.54,23.54,0,0,0,9.92-2.29A1,1,0,0,0,67,40.32h0a1,1,0,0,0-1.25-.44,21,21,0,0,1-10.65,2.06,15.25,15.25,0,0,1-9.67-4.32c-4-4-5.35-10.11-3.67-16.44A8.76,8.76,0,0,0,44,19.53a8.62,8.62,0,0,0,2.41-7.47,24.89,24.89,0,0,1,1.83-2A24.09,24.09,0,0,1,62.73,2.89a15.87,15.87,0,0,1,13.1,4.28C82.64,14,81.36,26.36,73,34.75a27.39,27.39,0,0,1-3.3,2.81,1,1,0,1,0,1.12,1.55,28,28,0,0,0,3.54-3A26,26,0,0,0,82,20.46,17.77,17.77,0,0,0,77.19,5.81Zm-44,12.36a6.64,6.64,0,0,1-1.91-3.93,6.73,6.73,0,0,1,5.85,5.85A6.69,6.69,0,0,1,33.14,18.17ZM46.39,40.93A15,15,0,0,0,48.24,42l-.69.09a27.92,27.92,0,0,0-2.88.55ZM44,39c.27.27.55.52.83.77l-9.6,9.6-1.6-1.6,9.6-9.61C43.5,38.43,43.75,38.71,44,39Zm-2-2.37-1.73,1.72a27.92,27.92,0,0,0,.55-2.88l.09-.7A16.45,16.45,0,0,0,42.07,36.61Zm.58-18.44A6.65,6.65,0,0,1,39,20.05a8.65,8.65,0,0,0-7.74-7.74,6.73,6.73,0,0,1,1.87-3.64A6.66,6.66,0,0,1,36.79,6.8a8.63,8.63,0,0,0,7.73,7.74A6.67,6.67,0,0,1,42.65,18.17Zm-2-7.48a6.66,6.66,0,0,1-1.92-3.93,6.68,6.68,0,0,1,5.85,5.85A6.66,6.66,0,0,1,40.63,10.69Z"/><path class="cls-1" d="M73.89,9.11A13.17,13.17,0,0,0,63,5.61,21.36,21.36,0,0,0,50.19,12a21.37,21.37,0,0,0-6.37,12.82,13.17,13.17,0,0,0,3.5,10.89,12.76,12.76,0,0,0,9.23,3.58c.54,0,1.1,0,1.66-.08A21.41,21.41,0,0,0,71,32.82,21.41,21.41,0,0,0,77.39,20,13.17,13.17,0,0,0,73.89,9.11Zm-.71,2.07a10.43,10.43,0,0,1,1.9,3.67l-2.79-2.79ZM51.63,22.4l3.81-3.81,3.81,3.8L55.44,26.2Zm2.45,5.16-3.81,3.81-3.8-3.81,3.81-3.81ZM56.8,17.23l3.8-3.81,3.81,3.81L60.61,21Zm3.81,6.52,3.8,3.81L60.6,31.37l-3.8-3.81ZM62,22.39l3.81-3.8,3.81,3.81-3.81,3.8Zm5.17-5.16,3.81-3.81,3.8,3.81L70.93,21Zm4.69-7.41-.88.89L68.16,7.93A10.21,10.21,0,0,1,71.82,9.82Zm-6-1.56,3.81,3.8-3.81,3.81L62,12.07Zm-2.58-.74.65,0L60.6,10.71l-2-2.05A17.24,17.24,0,0,1,63.19,7.52Zm-6.49,2,2.55,2.56-3.81,3.8-3.2-3.2A21.07,21.07,0,0,1,56.7,9.51ZM50.88,14l3.2,3.2L50.27,21l-2.55-2.55A21.07,21.07,0,0,1,50.88,14ZM45.73,25a17.24,17.24,0,0,1,1.14-4.63l2.05,2-3.24,3.23C45.7,25.41,45.71,25.2,45.73,25ZM48,33.61a10.17,10.17,0,0,1-1.89-3.67l2.78,2.79ZM49.39,35l.88-.89,2.79,2.78A10.17,10.17,0,0,1,49.39,35Zm6,1.56-3.81-3.8,3.81-3.81,3.81,3.81Zm2.58.74-.65,0,3.23-3.24,2,2.05A17.24,17.24,0,0,1,58,37.27Zm6.49-2L62,32.73l3.81-3.81,3.2,3.2A21.07,21.07,0,0,1,64.51,35.28Zm5.82-4.52-3.2-3.2,3.8-3.81,2.56,2.55A21.07,21.07,0,0,1,70.33,30.76Zm5.15-11a17.24,17.24,0,0,1-1.14,4.63l-2-2,3.24-3.24C75.51,19.38,75.5,19.59,75.48,19.81Z"/></svg>