<svg id="Livello_1" data-name="Livello 1" xmlns="http://www.w3.org/2000/svg" viewBox="0 0 100 66"><defs><style>.cls-1{fill:#030402;}</style></defs><title>iconTavola disegno 18</title><path class="cls-1" d="M86.18,10.57H73.59a1.44,1.44,0,0,1-1.37-1L70.53,3.79A3.92,3.92,0,0,0,66.79,1H41.51a3.93,3.93,0,0,0-3.74,2.81L36.09,9.54a1.45,1.45,0,0,1-1.38,1H32V7.64A2.69,2.69,0,0,0,29.32,5H19.07a2.68,2.68,0,0,0-2.68,2.69v2.94A6.47,6.47,0,0,0,10.18,17V59c0,.08,0,.17,0,.27a6.48,6.48,0,0,0,6.46,6.2H86a6.71,6.71,0,0,0,6.7-6.7V17a6.48,6.48,0,0,0-6.47-6.47ZM18.8,7.64a.27.27,0,0,1,.27-.28H29.32a.27.27,0,0,1,.27.28v2.93H18.8Zm4.26,55.44H19.39c-4.17,0-6.62-1.38-6.78-3.8v0a1.69,1.69,0,0,1,0-.23V17a4.06,4.06,0,0,1,4-4.06h6.41A4.06,4.06,0,0,1,27.11,17V59a4.06,4.06,0,0,1-4.05,4.06Zm62.89,0H28.09A6.44,6.44,0,0,0,29.53,59V17a6.41,6.41,0,0,0-1.44-4h6.62a3.88,3.88,0,0,0,3.7-2.77l1.68-5.76A1.49,1.49,0,0,1,41.51,3.4H66.79a1.48,1.48,0,0,1,1.42,1.06l1.69,5.76A3.86,3.86,0,0,0,73.59,13H86.18a4.05,4.05,0,0,1,4,4V58.79h0A4.29,4.29,0,0,1,86,63.08Zm0,0"/><path class="cls-1" d="M54.15,14.84a22.5,22.5,0,1,0,22.5,22.5,22.53,22.53,0,0,0-22.5-22.5Zm0,42.58A20.09,20.09,0,1,1,74.24,37.34,20.11,20.11,0,0,1,54.15,57.42Zm0,0"/><path class="cls-1" d="M54.15,19.39a18,18,0,1,0,17.95,18,18,18,0,0,0-17.95-18Zm0,33.48A15.54,15.54,0,1,1,69.69,37.34,15.55,15.55,0,0,1,54.15,52.87Zm0,0"/><path class="cls-1" d="M58.58,28.37A6.83,6.83,0,0,0,54.15,30,6.84,6.84,0,0,0,42.89,35.2c0,7.8,10.38,11.95,10.82,12.12a1.25,1.25,0,0,0,.88,0,25.35,25.35,0,0,0,5.31-3c3.61-2.68,5.51-5.83,5.51-9.11a6.83,6.83,0,0,0-6.83-6.83ZM54.15,44.88a22.76,22.76,0,0,1-4.3-2.51c-3-2.23-4.54-4.65-4.54-7.17a4.41,4.41,0,0,1,7.89-2.72,1.21,1.21,0,0,0,1.9,0A4.42,4.42,0,0,1,63,35.2c0,5.36-7,8.86-8.85,9.68Zm0,0"/></svg>