<svg id="Livello_1" data-name="Livello 1" xmlns="http://www.w3.org/2000/svg" viewBox="0 0 100 66"><title>iconTavola disegno 88</title><path d="M33.48,24.41c-2-.76-3.85-1.31-5.57-2.17a18,18,0,0,1-4.27-2.83c-2-1.84-1.75-4.32.4-6s5-2.26,7.72-2.5c1.36-.12,2.74,0,4.12,0a3.89,3.89,0,0,0,.25-.54c1.34-5.32,5.56-8.53,11.54-9,.87-.06,1.76,0,2.63,0,.66,0,1.31.25,1.77-.63.34-.63,2.44-.1,2.8.55a1.87,1.87,0,0,0,.89.78c1.84.7,3.73,1.27,5.54,2,5.07,2.09,7.7,6.05,8,11.39a63.66,63.66,0,0,1-.5,7.65,4.34,4.34,0,0,0,.25,2A2.15,2.15,0,0,1,68.66,28a2.72,2.72,0,0,0-.53,1.11c-.33,1.15-.6,2.31-.9,3.47a5,5,0,0,1-4.89,4,20.37,20.37,0,0,1-5.23-.31,4.79,4.79,0,0,1-3.58-3.51A39.63,39.63,0,0,0,52.17,29c-.18-.4-.76-.91-1.13-.88a1.79,1.79,0,0,0-1.22.91,15.49,15.49,0,0,0-1.19,3.14,5.43,5.43,0,0,1-5.2,4.4c-2.16.2-4.39.41-6.34-.84a5.19,5.19,0,0,1-1.78-2,24.17,24.17,0,0,1-1.18-3.7,4.82,4.82,0,0,0-1.23-2.58,1.64,1.64,0,0,1,0-2.31Zm33.89,0a13.51,13.51,0,0,0-2.32-1.43,57.5,57.5,0,0,0-12.43-2.72,33.25,33.25,0,0,0-10.72.16,13,13,0,0,0-6.74,4.16c4.87-.45,9.51-.38,14,1.28a7.16,7.16,0,0,0,4.34-.17,48,48,0,0,1,6.71-1.23C62.5,24.21,64.82,24.37,67.37,24.37Zm-37.5-2.22a10.66,10.66,0,0,1-1.25-.67,28.18,28.18,0,0,1-3.7-2.75C23.6,17.42,23.79,16,25.37,15a13,13,0,0,1,3.54-1.56,28.08,28.08,0,0,1,12.24-.12A80.62,80.62,0,0,1,58.83,18.8c.31.14.64.25,1,.37l.13-.33c-2.4-1.07-4.76-2.24-7.2-3.19-7-2.71-14.21-4.51-21.82-3.72a12.81,12.81,0,0,0-6.27,2c-1.67,1.18-2.09,3-1,4.48C25.14,20.53,27.49,21.38,29.87,22.15Zm33-2.4.36-.13c0-1.37.07-2.73,0-4.09C62.86,9.11,59.86,3.58,52.05,2.75c-3.39-.37-6.67-.13-9.64,1.78-.61.39-1.16.88-1.73,1.32l.13.24a13,13,0,0,1,8.92-2.85,14.37,14.37,0,0,1,9,3.17c3.3,2.78,4.66,8.33,3.65,12-5.7-4-12.22-5.85-19-7C50.29,13.21,57.21,15,62.89,19.75ZM40.16,27.14V27h-2c-1.77,0-2.42,1-1.81,2.63a16.21,16.21,0,0,1,1.71-1.48A16.17,16.17,0,0,1,40.16,27.14Zm15,2.39L59.08,27c-.76,0-1.59,0-2.42,0a1.4,1.4,0,0,0-1.48,1.45C55.15,28.83,55.17,29.25,55.17,29.53Z"/><path d="M43.12,62,44,63.46l-.21.2-4.89-4.22L40,61.56c-2.31-1.15-3.66-3-5-4.89l.47,1.76c-1.18-.64-1.66-1.35-3.33-4.93v1.22c-1.24-1.09-1.76-2.63-2.38-7.2L29,49.27c-.56-1.64-.39-3.05.82-6.88-2.5-1.69-3-4.25-2.84-7s.25-5.33.37-8a2,2,0,0,1,1.28-1.9,26.53,26.53,0,0,1,3-.77l-.13,2.13c0,.05-.09.12-.15.12-2.16.17-2.11.17-2.16,2.32,0,1.79-.2,3.57-.34,5.35s-.24,3.31.78,4.77c.21.31.47.58.83,1L32,32.45c-1.33.74-1.15,2.11-1.83,3-.34-1.29-.17-1.92.7-3.67A7.47,7.47,0,0,0,31.19,30l1,.49.51-1.95c.2.62.33,1,.44,1.35.32,1.15.62,2.3,1,3.45a5.69,5.69,0,0,0,5.15,4.17c.68.1,1.37.17,2.17.26-.62.85-1.2,1.58-1.72,2.36-1.92,2.85-3.4,5.85-3,9.43a11,11,0,0,0,.18,1.15c.46,2.11,1.37,2.64,3.4,2a21,21,0,0,1,8-1c-3.13,1.18-6.1,2.07-8.43,4.35a7.64,7.64,0,0,0,4.31,1.72,6.24,6.24,0,0,0,1,.11c4.56-.09,9.12-.12,13.67-.35,1.11,0,2.19-.75,3.53-1.25-2.52-2.53-5.5-3.38-8.63-4.58a20.86,20.86,0,0,1,8,1c2.08.67,3,.11,3.48-2a10.64,10.64,0,0,0-1-7.27c-1-1.92-2.21-3.73-3.3-5.53,1.24-.29,2.66-.59,4.05-1a3.15,3.15,0,0,0,2.29-2c.63-1.73,1.18-3.5,1.76-5.26a2,2,0,0,1,.55-1l.37,1.69,1.43-.84c-1,1.17,0,2.11.29,3.14a24.42,24.42,0,0,1,.57,2.7l-.31.07-1.35-2.73-.3.12c.39,2.45.78,4.9,1.18,7.38A4.66,4.66,0,0,0,73.22,36c-.18-2.1-.42-4.19-.63-6.28,0-.14,0-.28,0-.42,0-2.2,0-2.2-2.1-2.47L70.32,25a4.4,4.4,0,0,1,3.23.59,2.38,2.38,0,0,1,1.09,2.15c.07,2.13.11,4.28.36,6.39.4,3.27-.07,6.18-2.89,8.37a12.31,12.31,0,0,1,1,7l-.87-1.92c-.16,2.84-.61,5.24-2.37,7.49L70,53.59a13.43,13.43,0,0,1-3.42,5l.48-2.07c-1.3,1.9-2.58,3.78-5,5l1-2.08-4.92,4.26L58,63.51l.77-1.39a33.93,33.93,0,0,1-3.64,2.2,26,26,0,0,1-4.08,1.24c-.29.08-.66-.19-1-.29a24.26,24.26,0,0,1-3.39-1.06A34.45,34.45,0,0,1,43.12,62Z"/><path d="M62.37,50.3a46.64,46.64,0,0,0-22.94,0,1.93,1.93,0,0,1,1.67-1.75,42.06,42.06,0,0,1,19.61,0C61.62,48.73,62,49.14,62.37,50.3Z"/><path d="M58.87,41.46a3.92,3.92,0,0,1-.07-.41c-.27-2.79-1.8-4-4.5-3.32a12.92,12.92,0,0,1-5.93.16c-3.6-.81-4.74,0-5.25,3.69a2.72,2.72,0,0,1-.78-2.81,2.37,2.37,0,0,1,2.1-1.93,7.74,7.74,0,0,1,2.4,0,20.66,20.66,0,0,0,8.47,0,5.7,5.7,0,0,1,2.69.14A2.68,2.68,0,0,1,58.87,41.46Z"/><path d="M51.8,42.55a20.51,20.51,0,0,1-.26-2c0-.77.86-1.44,2.14-1.71s3,0,3.18.68a1.35,1.35,0,0,1-.44,1.22,9.11,9.11,0,0,1-2.87.8C52.71,41.55,52.08,41.58,51.8,42.55Z"/><path d="M50.19,42.71c-.24-1.09-.91-1.2-1.89-1.23a6.26,6.26,0,0,1-2.75-.81c-.88-.49-.73-1.39.22-1.73a4.28,4.28,0,0,1,4.19.62,1.57,1.57,0,0,1,.45,1.09A13.23,13.23,0,0,1,50.19,42.71Z"/></svg>