<svg id="Livello_1" data-name="Livello 1" xmlns="http://www.w3.org/2000/svg" viewBox="0 0 100 66"><defs><style>.cls-1{fill:#060606;}</style></defs><title>iconTavola disegno 150</title><path class="cls-1" d="M35.47,53.72a1.27,1.27,0,0,0-1.79,0,1.29,1.29,0,0,0-.38.9,1.27,1.27,0,0,0,.38.9,1.27,1.27,0,0,0,1.79,0,1.27,1.27,0,0,0,.38-.9A1.29,1.29,0,0,0,35.47,53.72Z"/><path class="cls-1" d="M65.88,1.14a1.27,1.27,0,1,0-.64,2.46c.43.11.86.24,1.27.37L60.26,6.68,53.34,4.24a18.74,18.74,0,0,1,2.24-.69A1.27,1.27,0,0,0,55,1.08a21.33,21.33,0,0,0-3.73,1.28H31.5a1.27,1.27,0,0,0-.68,2.35l6.41,4.06L22.93,21.89a1.26,1.26,0,0,0-.36,1.27,1.27,1.27,0,0,0,1,.91l7.61,1.56L17.8,39a1.28,1.28,0,0,0-.2,1.53,1.27,1.27,0,0,0,1.43.59l14.74-3.94L17.62,63.63a1.27,1.27,0,0,0,.18,1.56,1.28,1.28,0,0,0,.9.38,1.26,1.26,0,0,0,.67-.19l12.21-7.44a1.27,1.27,0,1,0-1.33-2.17l-7.72,4.7L37.6,35.83a1.28,1.28,0,0,0-1.41-1.9L22.94,37.48,34.62,25.76A1.28,1.28,0,0,0,34,23.61l-7.48-1.53L40.17,9.51a1.23,1.23,0,0,0,.41-1,1.26,1.26,0,0,0-.58-1L35.88,4.89H46.94a22.54,22.54,0,0,0-4.08,4A22,22,0,0,0,38,22.69c0,.71,0,1.41.1,2.1v0a22.1,22.1,0,0,0,2.35,8,.94.94,0,0,0,.12.22,22.25,22.25,0,0,0,37.5,3v11l-2.6-4.17a1.31,1.31,0,0,0-1-.6,1.28,1.28,0,0,0-1.05.41L60.92,56.5,59.39,49a1.28,1.28,0,0,0-2.15-.65L45.49,60.09l3.45-13.15a1.27,1.27,0,0,0-1.89-1.41l-9.23,5.62a1.27,1.27,0,1,0,1.33,2.17l6.53-4L41.84,64a1.28,1.28,0,0,0,.59,1.43,1.33,1.33,0,0,0,.64.17,1.3,1.3,0,0,0,.9-.37l13.4-13.35,1.56,7.61a1.27,1.27,0,0,0,2.19.6L74.24,45.65l4.06,6.52a1.27,1.27,0,0,0,1.43.55,1.25,1.25,0,0,0,.92-1.22V31.73a22.43,22.43,0,0,0,1.69-5.82v0A22.24,22.24,0,0,0,65.88,1.14ZM61.6,8.88l8.12-3.52A19.61,19.61,0,0,1,74.9,9.43l-1.45,7.88-6.28,1.41-5.57-4V8.88Zm-1.32,8,5.07,3.68-1.94,6H57.15l-1.93-6,2.53-1.84ZM50.12,5.8,59,8.94v5.74l-5.57,4-.29-.06-6.1-1.37-2.22-6.84A19.5,19.5,0,0,1,50.12,5.8Zm-9.51,16A19.66,19.66,0,0,1,43,13.15L44.61,18Zm.13,3.38,5.71-5.43,6.29,1.41,2.09,6.45-3.89,6-8.38-2.33A19.55,19.55,0,0,1,40.74,25.19Zm3.75,9.27,6.16,1.71,2.92,5.06A19.8,19.8,0,0,1,44.49,34.46ZM60.3,42.41A19.47,19.47,0,0,1,57,42.14l-4-7,3.93-6.05h6.77l3.93,6.05-4.05,7A19.5,19.5,0,0,1,60.3,42.41ZM67,41.23l2.89-5L75.74,35A19.86,19.86,0,0,1,67,41.23Zm10.69-9.31-8,1.74-3.92-6,2.09-6.45L73.19,20l.9-.2,5.64,6.32A19.57,19.57,0,0,1,77.73,31.92ZM75.91,18,77,12.17A19.66,19.66,0,0,1,80,22.6Z"/><path class="cls-1" d="M60.39.43H60.3A1.28,1.28,0,0,0,60.3,3h.08a1.28,1.28,0,0,0,0-2.55Z"/></svg>