<svg id="Livello_1" data-name="Livello 1" xmlns="http://www.w3.org/2000/svg" viewBox="0 0 100 66"><defs><style>.cls-1{fill:#060606;}</style></defs><title>iconTavola disegno 59</title><path class="cls-1" d="M76.64,48.8a1.27,1.27,0,0,0-2.37.89A11.6,11.6,0,0,1,75,53.81V58h-8V50.32a1.27,1.27,0,1,0-2.54,0v2.74l-.71.76A15.25,15.25,0,0,0,59.71,63H49.8V51.3a1.27,1.27,0,0,0-2.54,0V63H37.31a15.25,15.25,0,0,0-4.09-9.21l-.71-.76V50.32a1.27,1.27,0,1,0-2.54,0V58H22V53.8a11.63,11.63,0,0,1,9-11.34l10.09-2.39a11.12,11.12,0,0,0,14.9,0l10.09,2.39a12.46,12.46,0,0,1,1.79.58,1.19,1.19,0,0,0,.49.1,1.27,1.27,0,0,0,.48-2.45,13.51,13.51,0,0,0-2.18-.7L56.14,37.51v-2.6a10.09,10.09,0,0,0,5-8.45,4.33,4.33,0,0,0,4.07-4.31,4.28,4.28,0,0,0-1.31-3.09,3.78,3.78,0,0,0,.94-2.51,16,16,0,0,0-16-16h-.54a16,16,0,0,0-16,16A3.79,3.79,0,0,0,33.17,19a4.31,4.31,0,0,0,2.74,7.42,10.08,10.08,0,0,0,4.91,8.41v2.64L30.38,40A14.2,14.2,0,0,0,19.46,53.8V64.3a1.27,1.27,0,0,0,1.27,1.27H76.29a1.27,1.27,0,0,0,1.27-1.27V53.81A14,14,0,0,0,76.64,48.8ZM48.51,40.4a8.5,8.5,0,0,1-5.16-1.73c0-.05,0-.1,0-.15V36a10,10,0,0,0,2.64.35h5A10.34,10.34,0,0,0,53.59,36v2.54a1.23,1.23,0,0,0,0,.2A8.52,8.52,0,0,1,48.51,40.4ZM58.57,21.86a2.9,2.9,0,0,1-2.88,2.89H53.61L58,20.39l0,0h.56v1.51ZM50.76,24a2.59,2.59,0,0,0-4.53.05,1.31,1.31,0,0,1-1.15.7H42.43l4.35-4.36,0,0h7.6Zm10.35-.09V20.39a1.78,1.78,0,0,1,0,3.52ZM56.72,5.66a14,14,0,0,1,1.79,1.56L55.86,9.31Zm-16.4,0,.86,3.64L38.54,7.23A13.26,13.26,0,0,1,40.32,5.67Zm-4.41,16.2v2a1.78,1.78,0,0,1,0-3.52ZM36,17.81a1.27,1.27,0,0,1-1.26-1.26A13.35,13.35,0,0,1,37,9.22l4.14,3.26a1.88,1.88,0,0,0,3-1.9L42.61,4.32a13.59,13.59,0,0,1,4.63-1.21v9a1.27,1.27,0,0,0,2.54,0v-9a13.41,13.41,0,0,1,4.65,1.2L53,10.58a1.84,1.84,0,0,0,.82,2,1.85,1.85,0,0,0,2.17-.11l4.15-3.27a13.36,13.36,0,0,1,2.18,7.34A1.26,1.26,0,0,1,61,17.81H36Zm2.41,2.54h4.78L39.5,24.09,39.34,24a2.87,2.87,0,0,1-.89-2.08V20.35Zm0,6.11a5.34,5.34,0,0,0,2.87.83h3.75a3.83,3.83,0,0,0,3.39-2,0,0,0,0,1,.08,0,3.84,3.84,0,0,0,3.4,2h3.74a5.4,5.4,0,0,0,2.88-.83,7.53,7.53,0,0,1-3.46,6.1,8.61,8.61,0,0,1-1.39.71,7.57,7.57,0,0,1-2.7.5H46a7.38,7.38,0,0,1-2.79-.54,9.18,9.18,0,0,1-1.28-.66A7.52,7.52,0,0,1,38.46,26.46ZM30,63H22V60.49h8V63Zm2.54,0V57A12.75,12.75,0,0,1,34.76,63Zm32,0H62.26A12.75,12.75,0,0,1,64.51,57ZM75,63h-8V60.49h8Z"/><path class="cls-1" d="M73.73,44.11l-.1-.1a1.26,1.26,0,0,0-1.79,0,1.28,1.28,0,0,0,0,1.8l.08.08a1.26,1.26,0,0,0,.93.4,1.27,1.27,0,0,0,.93-2.14Z"/><path class="cls-1" d="M49.43,45.49a1.28,1.28,0,0,0-.9-.37,1.26,1.26,0,0,0-1.27,1.27,1.28,1.28,0,0,0,.37.9,1.31,1.31,0,0,0,.9.37,1.26,1.26,0,0,0,1.27-1.27A1.31,1.31,0,0,0,49.43,45.49Z"/></svg>