<svg id="Livello_1" data-name="Livello 1" xmlns="http://www.w3.org/2000/svg" viewBox="0 0 100 66"><defs><style>.cls-1{fill:#060606;}</style></defs><title>iconTavola disegno 63</title><path class="cls-1" d="M65.26,32c.28-.13.57-.27.85-.43l15.32-8.26-.59-1.54a32.85,32.85,0,0,0-30.5-21h-.13A32.9,32.9,0,0,0,17.38,33.56a32.93,32.93,0,0,0,3.68,15.18l.52,1H26a18.54,18.54,0,0,0,5.49-.83L51,55.1v1.79h2.42v8H65.26v-8h2.42V44.69H65.26V32ZM61.5,44.69H57.21V33.83h.11a18.36,18.36,0,0,0,4.18-.48Zm2.42,8.45H54.79V48.45h9.13ZM53.45,43.48,42.41,40a14.77,14.77,0,0,1,11-6.13ZM23.89,46A29.13,29.13,0,0,1,50.21,4.56h.11A29.11,29.11,0,0,1,76.7,21.64L64.33,28.31a14.9,14.9,0,0,1-7,1.76H54.4a18.53,18.53,0,0,0-15.8,8.86,14.66,14.66,0,0,1-5.37,5.18A14.85,14.85,0,0,1,26,46Zm12.54.54a18.33,18.33,0,0,0,3.7-3.33L51,46.66v4.5ZM61.5,61.16H57.21V56.89H61.5Z"/></svg>