<svg id="Livello_1" data-name="Livello 1" xmlns="http://www.w3.org/2000/svg" viewBox="0 0 100 66"><defs><style>.cls-1{fill:#060606;}</style></defs><title>iconTavola disegno 104</title><path class="cls-1" d="M64.36,48.24a5.26,5.26,0,0,0-1.54-1.12,5.61,5.61,0,1,0,2.65,7.48h0L70,45.17l2,5.72,3.52-1.25-5-14.22Z"/><path class="cls-1" d="M54,21a7.27,7.27,0,0,0-3.48-1.5A7.47,7.47,0,1,0,56.85,28v0h0L59.58,7.35,78.89,5.42,77.13,18.73a7.37,7.37,0,0,0-3.48-1.52A7.48,7.48,0,1,0,80,25.68v0h0L83.22,1.23,56.27,3.93Z"/><path class="cls-1" d="M25,65a5.61,5.61,0,0,0,5.52-6.62L28.05,45,38.7,40.23,40,47.53a5.51,5.51,0,0,0-1.9,0A5.61,5.61,0,1,0,44.64,52L41.51,34.84l-17.66,8,2,11.09a5.51,5.51,0,0,0-1.9,0A5.61,5.61,0,0,0,25,65Z"/><path class="cls-1" d="M25.05,30.4a5.61,5.61,0,0,0,7.77-1.58,5.54,5.54,0,0,0,.82-4.21L31.57,14.38l5,3.34,2.06-3.11L26.11,6.27,28.93,20.2a5.5,5.5,0,0,0-5.46,2.43,5.62,5.62,0,0,0,1.58,7.77Z"/></svg>