<svg id="Livello_1" data-name="Livello 1" xmlns="http://www.w3.org/2000/svg" viewBox="0 0 100 66"><defs><style>.cls-1{fill:#060606;}</style></defs><title>iconTavola disegno 65</title><path class="cls-1" d="M30.38,46.31A5.92,5.92,0,1,0,34.57,48a5.88,5.88,0,0,0-4.19-1.73Zm1.49,7.41a2.13,2.13,0,0,1-1.49.61,2.1,2.1,0,0,1-1.48-3.58,2.06,2.06,0,0,1,1.48-.61,2.08,2.08,0,0,1,2.1,2.09,2.13,2.13,0,0,1-.61,1.49Z"/><path class="cls-1" d="M49.59,27.1a5.93,5.93,0,1,0,4.19,1.74,5.88,5.88,0,0,0-4.19-1.74Zm1.48,7.41a2.07,2.07,0,0,1-1.48.62,2.1,2.1,0,1,1,0-4.2,2.1,2.1,0,0,1,1.48,3.58Z"/><path class="cls-1" d="M68.78,7.91a5.88,5.88,0,0,0-4.19,1.73,6,6,0,0,0,0,8.39A5.94,5.94,0,0,0,73,18a6,6,0,0,0,0-8.39A5.88,5.88,0,0,0,68.78,7.91Zm1.48,7.41a2.1,2.1,0,1,1,0-3A2.09,2.09,0,0,1,70.26,15.32Z"/><path class="cls-1" d="M78.42,4.44A13.34,13.34,0,0,0,68.87.38h-.09A13.44,13.44,0,0,0,55.36,12.85h0A7.36,7.36,0,0,1,48.7,19.6h-.09A13.48,13.48,0,0,0,36.16,32v0A7.35,7.35,0,0,1,29.5,38.8h-.12a13.46,13.46,0,0,0,1,26.88h0A13.45,13.45,0,0,0,43.8,53.24l0-.12a7.33,7.33,0,0,1,6.74-6.66h0A13.51,13.51,0,0,0,63,34.06v-.14a7.33,7.33,0,0,1,6.73-6.66h0A13.45,13.45,0,0,0,78.42,4.44Zm-22,35.41a9.66,9.66,0,0,1-6.1,2.79h0A11.18,11.18,0,0,0,40,52.76v.18A9.63,9.63,0,1,1,29.67,42.63l.18,0A11.17,11.17,0,0,0,40,32.36h0v0a9.64,9.64,0,1,1,16.41,7.53Zm19.2-19.2a9.65,9.65,0,0,1-6,2.78h-.09a11.14,11.14,0,0,0-7.65,3.93,13.73,13.73,0,0,0-2.59-3.73,13.39,13.39,0,0,0-4-2.82,11.19,11.19,0,0,0,3.93-7.66V13.1a9.64,9.64,0,1,1,16.41,7.55Z"/></svg>