<svg id="Livello_1" data-name="Livello 1" xmlns="http://www.w3.org/2000/svg" viewBox="0 0 100 66"><defs><style>.cls-1{fill:#060606;}</style></defs><title>iconTavola disegno 95</title><path class="cls-1" d="M69.54,20.31c1.7-3.2,5.13-12-3.65-19.85,5.75,13.05-8.79,16.88-8.79,16.88l12.66,14s11.47.79,14.77-5.54C82.45,24,75.78,22,69.54,20.31Z"/><path class="cls-1" d="M32.67.46C23.9,8.29,27.32,17.1,29,20.31,22.78,22,16.11,24,14,25.78c3.3,6.33,14.77,5.54,14.77,5.54l12.66-14S26.92,13.52,32.67.46Z"/><path class="cls-1" d="M33,30c-4.22,8,6.83,17.8,8.44,19.52s-5.39,2.57-5.34,5.86c0,2,1.45,4,4.57,5.29a4.3,4.3,0,0,1-.1-.72,4.94,4.94,0,0,1,.3-1.41,1.82,1.82,0,0,1-1-1.72c.18-1,1.62-1.6,3.2-1.31s2.74,1.32,2.56,2.33a1.4,1.4,0,0,1-.49.76,1.93,1.93,0,0,0-.19.59c0,1.56,2,2.88,4.33,2.88s4.34-1.32,4.34-2.88a1.85,1.85,0,0,0-.19-.59,1.33,1.33,0,0,1-.48-.76c-.18-1,1-2.06,2.54-2.33s3,.31,3.21,1.31a1.86,1.86,0,0,1-1,1.73,5.13,5.13,0,0,1,.29,1.4,4.79,4.79,0,0,1-.1.76c3.13-1.27,4.57-3.27,4.57-5.33,0-3.43-7.18-4-5.33-5.87S69.76,38,65.54,30L57.1,17.33H41.46Zm4.24,4.66c-1.12-.79-1.14-3.46-1.14-3.46a7.17,7.17,0,0,1,3,1.23c1.4,1,1.89,3.8,2.31,5.16C40.31,35.72,38.38,35.43,37.26,34.65Zm22.18-2.23a7.15,7.15,0,0,1,3-1.23s0,2.67-1.13,3.45-3.05,1.08-4.19,2.93C57.54,36.21,58,33.45,59.44,32.42Z"/><path class="cls-1" d="M54.16,57.53a3.1,3.1,0,0,1,.52,1.66c0,2.18-2.42,3.94-5.39,3.94s-5.39-1.76-5.39-3.94a3,3,0,0,1,.52-1.66,4.83,4.83,0,0,1-1.33-.84A4.66,4.66,0,0,0,41.65,60c0,3.09,3.42,5.59,7.64,5.59S56.93,63,56.93,60a4.63,4.63,0,0,0-1.45-3.26A4.62,4.62,0,0,1,54.16,57.53Z"/></svg>