<svg id="Livello_1" data-name="Livello 1" xmlns="http://www.w3.org/2000/svg" viewBox="0 0 100 66"><defs><style>.cls-1{fill:#030402;fill-rule:evenodd;}</style></defs><title>iconTavola disegno 32</title><path class="cls-1" d="M73.68,28.73c2.94,4.43,6.9,4.18,8.19,4a16.74,16.74,0,0,0-.08-3.16c-.47-3.84-2.14-5.4-6-5.2-5.73.29-11.46.79-17.19,1.18-4.1.28-4.14.27-5.07-3.77-1-4.41-5.86-3.33-9.35-3.08-2.18.15-3.14-.5-3.61-2.75-.85-4.09-1.2-10-3.63-13.45-.41-.58-.74-.87-1-.94-1.61-.43-1.13,6.88-1.22,7.94-.71,8.47-3,16.7-5.59,24.75-.68,2.1-8.12,24.14-8.76,24L53.4,65.05c.61.12,2-14.44,3.32-15.46,4.3-3.22,11.75.38,16.94-3a18.2,18.2,0,0,0,7.8-11.09C73.68,34.57,73.68,28.73,73.68,28.73ZM49.76,31.45c-2.1-.74-6.9-2.2-6.87-2.29.61-1.78.37-7.35,6-6.23C52.71,23.68,50.91,29.07,49.76,31.45Z"/></svg>