<svg id="Livello_1" data-name="Livello 1" xmlns="http://www.w3.org/2000/svg" viewBox="0 0 100 66"><defs><style>.cls-1{fill:#030402;}</style></defs><title>iconTavola disegno 16</title><path class="cls-1" d="M55.23,51.17s1.81,2.6,1,5.12l-1-1.3s-.06,5.47-5.16,7C45,60.46,44.9,55,44.9,55l-1,1.3c-.82-2.52,1-5.12,1-5.12Z"/><path class="cls-1" d="M50.07,62.75a.83.83,0,0,1-.22,0,7.9,7.9,0,0,1-5.41-5.9.76.76,0,0,1-.64.2.77.77,0,0,1-.59-.5c-.92-2.84,1-5.66,1.08-5.78a.75.75,0,0,1,.61-.32H55.24a.75.75,0,0,1,.61.32c.08.12,2,2.94,1.07,5.78a.74.74,0,0,1-1.22.3,7.91,7.91,0,0,1-5.42,5.9A.76.76,0,0,1,50.07,62.75ZM44.9,54.24a.93.93,0,0,1,.23,0,.74.74,0,0,1,.51.7c0,.2.13,4.8,4.43,6.24,4.29-1.44,4.42-6,4.42-6.24a.76.76,0,0,1,.51-.7.76.76,0,0,1,.66.09,7.08,7.08,0,0,0-.84-2.46h-9.5a6.69,6.69,0,0,0-.84,2.46A.77.77,0,0,1,44.9,54.24Z"/><path class="cls-1" d="M50.07,1.3C36.9,10.87,35.83,27.45,35.81,53.4H64.32C64.31,27.45,63.23,10.87,50.07,1.3ZM56,26.08a5.91,5.91,0,1,1-5.91-5.91A5.92,5.92,0,0,1,56,26.08Z"/><path class="cls-1" d="M35.18,46.57l-.11,7.58S31.79,60.81,30.68,63c-1,2-2.92,1.29-2.79-.36.31-3.89,1.4-10.9,1.4-10.9a5.94,5.94,0,0,1,5.89-5.19Z"/><path class="cls-1" d="M29.11,65a2,2,0,0,1-.5-.07,2.14,2.14,0,0,1-1.46-2.33c.3-3.87,1.39-10.89,1.4-11a6.71,6.71,0,0,1,6.63-5.81.75.75,0,0,1,.53.22.77.77,0,0,1,.22.53l-.12,7.58a.65.65,0,0,1-.08.31s-3.27,6.67-4.38,8.88A2.56,2.56,0,0,1,29.11,65Zm5.32-17.63A5.22,5.22,0,0,0,30,51.85c0,.09-1.1,7-1.4,10.87,0,.45.17.72.38.78s.72-.23,1-.81c1-2,3.81-7.72,4.31-8.72Z"/><path class="cls-1" d="M65,46.57l.12,7.58s3.28,6.66,4.38,8.87c1,2,2.93,1.29,2.8-.36-.31-3.89-1.4-10.9-1.4-10.9A6,6,0,0,0,65,46.57Z"/><path class="cls-1" d="M71,65a2.57,2.57,0,0,1-2.25-1.65c-1.1-2.21-4.38-8.88-4.38-8.88a.79.79,0,0,1-.08-.31l-.11-7.58a.72.72,0,0,1,.21-.53.75.75,0,0,1,.53-.22,6.7,6.7,0,0,1,6.63,5.83c0,.05,1.1,7.07,1.41,10.94a2.15,2.15,0,0,1-1.47,2.33A1.93,1.93,0,0,1,71,65ZM65.81,54c.49,1,3.3,6.7,4.31,8.72.28.58.68.9,1,.81s.42-.33.38-.78c-.3-3.82-1.38-10.78-1.39-10.85a5.22,5.22,0,0,0-4.4-4.5Z"/></svg>