<svg id="Livello_1" data-name="Livello 1" xmlns="http://www.w3.org/2000/svg" viewBox="0 0 100 66"><defs><style>.cls-1{fill:#060606;}</style></defs><title>iconTavola disegno 90</title><g id="Solid"><path class="cls-1" d="M41.71,62.46H38.6a1.57,1.57,0,0,1-1.48-1.06L34,52.06a1.55,1.55,0,0,1,.28-1.48l6-7.17-5.62-1a32.06,32.06,0,0,1-6.93,7.07V52.8l5.68,12.77h9.88V64A1.56,1.56,0,0,0,41.71,62.46Z"/><path class="cls-1" d="M71.85,19.61,59.77,35.32l6.34,4.85L76.22,25a6.72,6.72,0,0,1,5.6-3h3.89L83,17.34H76.46A5.86,5.86,0,0,0,71.85,19.61Z"/><path class="cls-1" d="M49.29.43a7.78,7.78,0,0,0-5.82,5.82A7.8,7.8,0,0,0,49.29.43Z"/><path class="cls-1" d="M79.82,13.53A4.77,4.77,0,0,1,76.68,8H74a8.64,8.64,0,0,0-6.16,2.55L51.73,26.64a20.44,20.44,0,0,0,5.57,6.79L69.39,17.71a9,9,0,0,1,7.07-3.48h4.8L81.11,14Z"/><path class="cls-1" d="M92.12,12.36a1.45,1.45,0,0,1-.36-.38L89.11,8H83.72a1.62,1.62,0,0,1-.49-.08l-1.39-.47a1.65,1.65,0,0,0-2.08,1l0,.12a1.65,1.65,0,0,0,1.07,2l1.86.62a1.57,1.57,0,0,1,.86.7L89.29,22h5.83l2.27-5.7Z"/><path class="cls-1" d="M65.61,8.36A11.71,11.71,0,0,1,74,4.89h5l.07,0a4.78,4.78,0,0,1,3.79-.34L84,4.89h3.45l-.27-.53A4.65,4.65,0,0,0,83,1.78H71.45a10.89,10.89,0,0,0-7.36,2.86L49.5,18a20.15,20.15,0,0,0,1,5.5Z"/><path class="cls-1" d="M81.82,25.12a3.61,3.61,0,0,0-3,1.61L68.59,42.07,74,46.19l9.24-14.51a4.68,4.68,0,0,1,3.17-2.1l6-1a1.55,1.55,0,0,0,1.25-1.16l.58-2.31Z"/><path class="cls-1" d="M63.71,42.25l-8.07-6.17a23.67,23.67,0,0,1-6.82-8.28c-.13-.26-.24-.51-.35-.74l0-.08v0a23.47,23.47,0,0,1-2-8.06h-8l-7.2-.72A14.58,14.58,0,0,0,20.3,21.63l-.37.33V22h-.06a13.55,13.55,0,0,0-1.11,1.16,14.52,14.52,0,0,0-3.5,9.46V43.79a1.6,1.6,0,0,1-.22.8l-4.36,7.27,2.75,13.71H23V64a1.56,1.56,0,0,0-1.55-1.56H18.37a1.54,1.54,0,0,1-1.52-1.25l-1.56-7.78a1.56,1.56,0,0,1,1.1-1.8l.11,0a28.63,28.63,0,0,0,8.75-4.2,28.92,28.92,0,0,0,7.35-7.53l.36-.66a19.33,19.33,0,0,0,2.54-7.86l3.09.38a22.4,22.4,0,0,1-2.28,7.8l14.88,2.71H63.71Z"/><path class="cls-1" d="M77.5,62.46H74.39a1.55,1.55,0,0,1-1.56-1.55V49.23l-7.9-6a1.58,1.58,0,0,1,.09.31l4.42,22.08h9.61V64A1.55,1.55,0,0,0,77.5,62.46Z"/><polygon class="cls-1" points="57.61 45.35 61.66 65.58 66.27 65.58 62.22 45.35 57.61 45.35"/><path class="cls-1" d="M16.82,22V18.9H14.48a3.89,3.89,0,0,1,0-7.78H35.76A12.15,12.15,0,0,0,42.15,9.3L40.52,6.66A9.12,9.12,0,0,1,35.76,8H14.48a7,7,0,0,0,0,14Z"/></g></svg>