<svg id="Livello_1" data-name="Livello 1" xmlns="http://www.w3.org/2000/svg" viewBox="0 0 100 66"><defs><style>.cls-1{fill:#060606;}</style></defs><title>iconTavola disegno 49</title><path class="cls-1" d="M43.66,44l4.26-20.88,1.63-.88,2.83,2.54A13.89,13.89,0,0,0,71,44.48,13.88,13.88,0,1,0,56.76,20.66,13.3,13.3,0,0,0,54.94,22l-3.59-3.23L46.12,9l6.66-3.6.64,1.18a2,2,0,0,1-.82,2.74l-1.55.84,1.81,3.36,1.56-.84a5.86,5.86,0,0,0,2.82-3.48,5.78,5.78,0,0,0-.47-4.44L54.32.27,40.94,7.5l6.3,11.66L29.1,29l-.55-1a5.12,5.12,0,0,0-6.93-2.07l-3.54,1.91,1.82,3.36,3.54-1.91a1.29,1.29,0,0,1,1-.1,1.27,1.27,0,0,1,.77.63l1.33,2.46,1,4.59a13.88,13.88,0,0,0,3.71,27.26A13.87,13.87,0,0,0,43.66,44ZM58.72,23.93a10.07,10.07,0,1,1-4.59,6.18,9.78,9.78,0,0,1,1.13-2.73L62.61,34l2.55-2.84-7.35-6.61c.29-.21.59-.42.91-.61ZM43.54,25.5,40.6,39.94a13.86,13.86,0,0,0-6-3.2,14.18,14.18,0,0,0-3.28-.42l-.85-3.78ZM39,43.82l-5.36,2.9-1.46-6.54a11.07,11.07,0,0,1,1.49.26A10,10,0,0,1,39,43.82Zm-2.62,15A10.06,10.06,0,1,1,26.08,41.56a10.19,10.19,0,0,1,2.3-1l2.67,11.92,9.79-5.29A10.08,10.08,0,0,1,36.41,58.83Z"/><path class="cls-1" d="M72.49,49.42H66.05a10,10,0,0,0-6.52,2.44l-2.11,1.85H55.75A9.94,9.94,0,0,0,47.2,58.6l-4.06,6.94H82.63V37.2Zm6.33,12.31h-29l.7-1.2a6.11,6.11,0,0,1,5.25-3h3.11L62,54.74a6.1,6.1,0,0,1,4-1.5h8.23l4.54-5.47Z"/></svg>