<svg id="Livello_1" data-name="Livello 1" xmlns="http://www.w3.org/2000/svg" viewBox="0 0 100 66"><defs><style>.cls-1{fill:#060606;}</style></defs><title>iconTavola disegno 147</title><path class="cls-1" d="M43.75,49.27V44.46H37.5v4.81l3.12,1.57ZM39.58,48V46.55h2.08V48l-1,.52Z"/><path class="cls-1" d="M37.1,49.67H32.29v6.25H37.1l1.56-3.12Zm-1.29,4.17H34.37V51.76h1.44l.52,1Z"/><path class="cls-1" d="M37.5,56.32v4.82h6.25V56.32l-3.13-1.56Zm4.16,2.73H39.58V57.61l1-.52,1,.52Z"/><path class="cls-1" d="M42.58,52.8l1.57,3.13H49V49.67H44.15Zm2.85-1h1.44v2.08H45.43l-.52-1Z"/><path class="cls-1" d="M69.8,50.71a3.13,3.13,0,1,0-3.13-3.12A3.13,3.13,0,0,0,69.8,50.71Zm0-4.16a1,1,0,1,1-1,1A1,1,0,0,1,69.8,46.55Z"/><path class="cls-1" d="M69.8,54.88A3.13,3.13,0,1,0,72.93,58,3.14,3.14,0,0,0,69.8,54.88Zm0,4.17a1,1,0,1,1,1-1A1,1,0,0,1,69.8,59.05Z"/><path class="cls-1" d="M75,49.67a3.13,3.13,0,1,0,3.13,3.13A3.14,3.14,0,0,0,75,49.67Zm0,4.17a1,1,0,1,1,1-1A1,1,0,0,1,75,53.84Z"/><path class="cls-1" d="M67.72,52.8a3.13,3.13,0,1,0-3.13,3.12A3.14,3.14,0,0,0,67.72,52.8Zm-3.13,1a1,1,0,1,1,1-1A1,1,0,0,1,64.59,53.84Z"/><path class="cls-1" d="M76,42A30.22,30.22,0,1,0,28.17,53.77a12.48,12.48,0,0,0,23.26,5.28H59A12.49,12.49,0,1,0,76,42Zm0-11.06a27.78,27.78,0,0,1-1.91,10.17,12.14,12.14,0,0,0-2.26-.61V34.27L75.62,26A28,28,0,0,1,76.05,30.92ZM69.71,13.2v0a28.11,28.11,0,0,1,5.13,9.59l-4.6,10.1L62.15,31,56.34,20.4l2.72-8.17ZM35.25,35.75l1.08,2-9.67,6.45L26,43.84v-2h0ZM26,39.39V34.88l7.8-1.74.42.77ZM35.56,32l5.68-10.42H54.59L60.28,32l-4.55,8.33H40.62c-.17,0-.33,0-.5,0ZM48.12,19.45H44.06L56.45,11.2l.63.38L56.27,14Zm7.08-2.21-.74,2.21H51.88Zm-14,1.63-.74-2.21L52.33,8.73,54.47,10ZM62,33.14l5.45,1.22-8.91,5.93H58.1Zm7.8,2.15V38l-3.44,2.29H62.3ZM49,2.81a28,28,0,0,1,18.73,8.11l-9-.82L49,4.27V2.81Zm1.4,4.73-10.6,7.07-1-3,9.17-5.5ZM46.87,2.81V4.27L37.16,10.1l-9,.82A28,28,0,0,1,46.87,2.81ZM26.12,13.14v.06l10.64-1,2.72,8.16L33.68,31l-8.09,1.8L21,22.74A28.13,28.13,0,0,1,26.12,13.14ZM24,44l-.59.59a28,28,0,0,1-3.15-18.57L24,34.27Zm4.31,7a27.9,27.9,0,0,1-3.79-4.56l.71-.71,3.94,2.15A12.11,12.11,0,0,0,28.26,51Zm.46-5.71,8.62-5.74.56,1a12.6,12.6,0,0,0-7.8,5.46Zm11.9,17.91A10.42,10.42,0,1,1,51,52.8,10.44,10.44,0,0,1,40.62,63.22ZM58,57H52.4a12.43,12.43,0,0,0-4.88-14.59H62.9A12.43,12.43,0,0,0,58,57ZM69.8,63.22A10.42,10.42,0,1,1,80.22,52.8,10.43,10.43,0,0,1,69.8,63.22Z"/></svg>