<svg id="Livello_1" data-name="Livello 1" xmlns="http://www.w3.org/2000/svg" viewBox="0 0 100 66"><defs><style>.cls-1{fill:#030402;}</style></defs><title>iconTavola disegno 26</title><path class="cls-1" d="M98.23,32.16,97.1,30.73a72.83,72.83,0,0,0-13-12.12C73.28,10.67,61.49,6.46,50,6.46S26.72,10.67,15.9,18.61a72.83,72.83,0,0,0-13,12.12L1.77,32.16a2.1,2.1,0,0,0,0,2.6L2.9,36.19a72.83,72.83,0,0,0,13,12.12C26.72,56.26,38.51,60.46,50,60.46s23.28-4.2,34.1-12.15a72.12,72.12,0,0,0,13-12.12l1.14-1.43A2.1,2.1,0,0,0,98.23,32.16ZM50,54.22A20.76,20.76,0,1,1,70.76,33.46,20.77,20.77,0,0,1,50,54.22Z"/><path class="cls-1" d="M50,19.26a14.2,14.2,0,1,0,14.2,14.2A14.2,14.2,0,0,0,50,19.26Zm10.85,14.2A10.87,10.87,0,0,1,50,44.31a2.18,2.18,0,0,1-2.18-2.18A2.17,2.17,0,0,1,50,39.94a6.49,6.49,0,0,0,6.48-6.48,2.19,2.19,0,0,1,4.37,0Z"/></svg>