<svg id="Livello_1" data-name="Livello 1" xmlns="http://www.w3.org/2000/svg" viewBox="0 0 100 66"><defs><style>.cls-1{fill:#060606;}</style></defs><title>iconTavola disegno 107</title><path class="cls-1" d="M44.6,52.46a1.08,1.08,0,0,0-1.08,1.08v1.08a4.3,4.3,0,0,0,7.56,2.83,4.3,4.3,0,0,0,7.56-2.83V53.54a1.08,1.08,0,0,0-2.16,0v1.08a2.16,2.16,0,1,1-4.32,0V51.18a2.69,2.69,0,0,0,1-.66l1.62-1.73a2.15,2.15,0,0,0,.44-2.36A2.68,2.68,0,0,0,52.7,44.9H49.46a2.68,2.68,0,0,0-2.52,1.53,2.13,2.13,0,0,0,.44,2.36L49,50.52a2.81,2.81,0,0,0,1,.66v3.44a2.16,2.16,0,1,1-4.32,0V53.54A1.09,1.09,0,0,0,44.6,52.46Zm4.32-5.17s.17-.23.54-.23H52.7c.37,0,.53.18.5.26L51.59,49a.87.87,0,0,1-1,0Z"/><path class="cls-1" d="M37.43,41.21c1.92-.75,3.45-.84,4.55-.26a3.37,3.37,0,0,1,1.56,2,1.09,1.09,0,0,0,1.28.81,1.08,1.08,0,0,0,.83-1.27A5.52,5.52,0,0,0,43,39.06c-1.68-.9-3.82-.86-6.38.14a1.08,1.08,0,1,0,.79,2Z"/><path class="cls-1" d="M56.26,43.8a1.1,1.1,0,0,0,.81-.16,1.07,1.07,0,0,0,.47-.68,3.32,3.32,0,0,1,1.54-2c1.1-.59,2.64-.5,4.57.25a1.08,1.08,0,0,0,.79-2c-2.56-1-4.7-1.05-6.39-.14a5.47,5.47,0,0,0-2.62,3.45,1.13,1.13,0,0,0,.14.82A1.11,1.11,0,0,0,56.26,43.8Z"/><path class="cls-1" d="M23,42.74a24.21,24.21,0,0,1,2.95.18,18.49,18.49,0,0,0-.78,5.22h0a10.93,10.93,0,0,0-2.76,1.25,1.08,1.08,0,1,0,1.19,1.8,8.21,8.21,0,0,1,1.74-.84,13.87,13.87,0,0,0,1.12,3.8A7.71,7.71,0,0,0,23,60c0,3.33,3.32,5.4,8.65,5.4a11.18,11.18,0,0,0,6.81-1.8,42.28,42.28,0,0,0,12.64,1.8,42.28,42.28,0,0,0,12.64-1.8,11.14,11.14,0,0,0,6.81,1.8c5.33,0,8.64-2.07,8.64-5.4a7.67,7.67,0,0,0-3.45-5.87,13.87,13.87,0,0,0,1.12-3.8,7.91,7.91,0,0,1,1.73.84,1.09,1.09,0,0,0,1.09.08,1.07,1.07,0,0,0,.6-.91,1.1,1.1,0,0,0-.49-1A10.93,10.93,0,0,0,77,48.15h0a18.49,18.49,0,0,0-.78-5.22,24.17,24.17,0,0,1,2.94-.18,1.08,1.08,0,1,0,0-2.16,25.2,25.2,0,0,0-3.68.26,24.3,24.3,0,0,0-1.61-3.23c.71-2.3,3.5-12,1.09-15.32a2.66,2.66,0,0,0-2.25-1.16,11.25,11.25,0,0,0-4.59,1.36c-2.76-3.91-7.64-6.65-13.19-7.54a20,20,0,0,0-.55-4.36,3.28,3.28,0,0,1,1.15-3.21c1.35-.91,3.55.5,4.43,1.14A3.24,3.24,0,1,0,63.8,3.29C57.87-1,53.52.93,51.92,2A9.72,9.72,0,0,0,48.1,12.11a14.18,14.18,0,0,1,.37,2.68C42.39,15.43,37,18.29,34,22.48a11.26,11.26,0,0,0-4.56-1.35,2.68,2.68,0,0,0-2.26,1.16c-2.39,3.29.38,13,1.09,15.28a23.73,23.73,0,0,0-1.63,3.27A25.24,25.24,0,0,0,23,40.58a1.08,1.08,0,1,0,0,2.16ZM25.15,60c0-2.43,3-5.41,6.48-5.41s6.48,3,6.48,5.41c0,1.57-1.45,2.47-3.34,2.91a2.76,2.76,0,0,0,.1-.75V60a1.08,1.08,0,0,0-2.16,0v2.16a1.08,1.08,0,0,1-2.16,0V60a1.08,1.08,0,0,0-2.16,0v2.16a3.2,3.2,0,0,0,.09.75C26.6,62.5,25.15,61.6,25.15,60ZM77,60c0,1.57-1.45,2.47-3.34,2.91a2.76,2.76,0,0,0,.1-.75V60a1.08,1.08,0,0,0-2.16,0v2.16a1.08,1.08,0,0,1-2.16,0V60a1.08,1.08,0,0,0-2.16,0v2.16a3.2,3.2,0,0,0,.09.75C65.5,62.5,64.05,61.6,64.05,60c0-2.43,3-5.41,6.48-5.41S77,57.6,77,60ZM50.19,11.6a7.52,7.52,0,0,1,2.93-7.81c1.51-1,4.74-2.17,9.4,1.24a1.09,1.09,0,0,1-.2,1.87,1.08,1.08,0,0,1-1.07-.12c-2.69-2-5.14-2.38-6.91-1.19a5.41,5.41,0,0,0-2.05,5.51,17.53,17.53,0,0,1,.49,3.61c-.56,0-1.13-.07-1.7-.07l-.46,0A15,15,0,0,0,50.19,11.6Zm.89,5.2c6.3,0,12.09,2.61,15.13,6.71-1.45.82-3,1.83-4.82,3.07a25.2,25.2,0,0,0-20.6,0A57.24,57.24,0,0,0,36,23.5C39,19.4,44.77,16.8,51.08,16.8ZM30.51,37.38c-2-6.07-2.68-12.27-1.55-13.82a.56.56,0,0,1,.51-.27,10.37,10.37,0,0,1,4.34,1.5l0,0,.1,0a56,56,0,0,1,6.11,3.85,1.07,1.07,0,0,0,1.08.09A23.11,23.11,0,0,1,61,28.8a1.07,1.07,0,0,0,1.09-.09c4.84-3.45,8.7-5.42,10.59-5.42a.54.54,0,0,1,.5.26c1.14,1.57.44,7.79-1.55,13.87a1.08,1.08,0,0,0,.11.91,20.18,20.18,0,0,1,1.53,2.91A19.15,19.15,0,0,0,66.64,44a1.08,1.08,0,0,0,1.29,1.73,17.7,17.7,0,0,1,6.15-2.48,16.66,16.66,0,0,1,.75,4.31,32.49,32.49,0,0,0-5.38-.54,1.08,1.08,0,0,0,0,2.16,29.53,29.53,0,0,1,5.3.57,11.54,11.54,0,0,1-.92,3.32,9.11,9.11,0,0,0-3.3-.65c-4.87,0-8.65,4.07-8.65,7.57a4.47,4.47,0,0,0,.38,1.8,41.38,41.38,0,0,1-11.18,1.44A41.33,41.33,0,0,1,39.9,61.83a4.3,4.3,0,0,0,.37-1.8c0-3.5-3.77-7.57-8.64-7.57a9.11,9.11,0,0,0-3.3.65,11.54,11.54,0,0,1-.92-3.32,29.53,29.53,0,0,1,5.3-.57,1.08,1.08,0,0,0,0-2.16,32.27,32.27,0,0,0-5.38.54,17.08,17.08,0,0,1,.74-4.31,17.54,17.54,0,0,1,6.15,2.48A1.08,1.08,0,0,0,35.52,44a19.12,19.12,0,0,0-6.68-2.8,23,23,0,0,1,1.55-3A1.08,1.08,0,0,0,30.51,37.38Z"/></svg>