<svg id="Livello_1" data-name="Livello 1" xmlns="http://www.w3.org/2000/svg" viewBox="0 0 100 66"><title>iconTavola disegno 37</title><path d="M76.74,42,70.63,31.13,64.52,42h3.83a16.21,16.21,0,0,1-5.14,9.66,18.38,18.38,0,0,1-6.88,4,2.27,2.27,0,0,1-2.95-2.12l-.51-27.27H54a.58.58,0,0,0,.58-.58V22.18A.58.58,0,0,0,54,21.6H52.78l0-2.27H54a.59.59,0,0,0,.58-.59V15.27a.59.59,0,0,0-.58-.59H52.65l0-2.49a6,6,0,1,0-4.34,0l0,2.49H46.88a.59.59,0,0,0-.59.59v3.47a.59.59,0,0,0,.59.59h1.25l0,2.27H46.88a.58.58,0,0,0-.59.58v3.48a.58.58,0,0,0,.59.58H48l-.52,27.27a2.27,2.27,0,0,1-2.95,2.12,18.42,18.42,0,0,1-6.87-4A16.21,16.21,0,0,1,32.52,42h3.83L30.24,31.13,24.13,42h3.46a20,20,0,0,0,1.69,6.11,21.17,21.17,0,0,0,4.92,6.75,22.89,22.89,0,0,0,7.3,4.56c.43.17.87.33,1.31.47a12.7,12.7,0,0,1,5,3.07l2.57,2.58L53,62.94a12.7,12.7,0,0,1,5.05-3.07c.44-.14.88-.3,1.31-.47a23,23,0,0,0,7.3-4.56,21.32,21.32,0,0,0,4.92-6.75A20,20,0,0,0,73.27,42ZM47.38,7A3.07,3.07,0,1,1,50.1,9.69,3.07,3.07,0,0,1,47.38,7Z"/></svg>