<svg id="Livello_1" data-name="Livello 1" xmlns="http://www.w3.org/2000/svg" viewBox="0 0 100 66"><defs><style>.cls-1{fill:#060606;}</style></defs><title>iconTavola disegno 135</title><path class="cls-1" d="M70.66,15.55A29,29,0,0,0,51.91,7V4.29H54.7a1.91,1.91,0,1,0,0-3.81H45.3a1.91,1.91,0,1,0,0,3.81h2.79V7a29.08,29.08,0,0,0-13.55,4.36L32.73,9.58a4.66,4.66,0,0,0-6.6,0l-2.75,2.76a4.66,4.66,0,0,0,0,6.59l1.82,1.82A29.34,29.34,0,0,0,29.34,57a29.22,29.22,0,0,0,49.88-20.7A29.11,29.11,0,0,0,70.66,15.55Zm-4.91,22.6h4A19.88,19.88,0,0,1,51.91,56V52a1.91,1.91,0,0,0-3.82,0v4A19.88,19.88,0,0,1,30.28,38.15h4a1.91,1.91,0,0,0,0-3.81h-4A19.86,19.86,0,0,1,48.09,16.49v4a1.91,1.91,0,0,0,3.82,0v-4A19.86,19.86,0,0,1,69.72,34.34h-4a1.91,1.91,0,0,0,0,3.81Z"/><path class="cls-1" d="M54.7,35.15H52V27.44a1.91,1.91,0,1,0-3.81,0v9.61A1.91,1.91,0,0,0,50.11,39H54.7a1.91,1.91,0,1,0,0-3.81Z"/></svg>