<svg id="Livello_1" data-name="Livello 1" xmlns="http://www.w3.org/2000/svg" viewBox="0 0 100 66"><defs><style>.cls-1{fill:#060606;}</style></defs><title>iconTavola disegno 111</title><path class="cls-1" d="M40.61,36.69a33.32,33.32,0,0,0,7.91,1.62,33.32,33.32,0,0,0,7.91-1.62,1.43,1.43,0,0,0,1-1.4A1.45,1.45,0,0,0,56,33.84H41a1.45,1.45,0,0,0-1.45,1.45,1.43,1.43,0,0,0,1,1.4Z"/><path class="cls-1" d="M41.81,31.6H55.23a2.24,2.24,0,0,0,0-4.47H41.81a2.24,2.24,0,0,0,0,4.47Z"/><path class="cls-1" d="M39.58,19.3c0,4.62,4.86,5.59,8.94,5.59s8.94-1,8.94-5.59c0-4.17-2.77-10.06-8.94-10.06S39.58,15.13,39.58,19.3Z"/><path class="cls-1" d="M48.52,45a16,16,0,0,0,9-3.13c-.38-.9-.81-1.84-1.28-2.81a32.7,32.7,0,0,1-7.68,1.46,32.7,32.7,0,0,1-7.68-1.46c-.47,1-.9,1.91-1.28,2.81A16,16,0,0,0,48.52,45Z"/><path class="cls-1" d="M37.8,47.19a17.58,17.58,0,0,0,10.72,3.42,17.58,17.58,0,0,0,10.72-3.42A29.42,29.42,0,0,0,58.3,44a17.82,17.82,0,0,1-9.78,3.22A17.82,17.82,0,0,1,38.74,44,29.42,29.42,0,0,0,37.8,47.19Z"/><path class="cls-1" d="M48.52,52.84a20.17,20.17,0,0,1-11.13-3.19c0,.33,0,.65,0,1a15.14,15.14,0,0,0,.31,3,20.77,20.77,0,0,0,10.87,3.68A20.58,20.58,0,0,0,59.44,53.6a18.49,18.49,0,0,0,.26-3c0-.31,0-.63-.05-1A20.17,20.17,0,0,1,48.52,52.84Z"/><path class="cls-1" d="M38.74,56.9c2.72,5.61,8.57,7.79,9.83,8.2,1.35-.31,7.44-2.06,10-8.34a22.51,22.51,0,0,1-10,2.79,22.14,22.14,0,0,1-9.78-2.65Z"/><path class="cls-1" d="M57.21,11.55a6.24,6.24,0,0,0,1.37-3.43c0-4.47-6.71-6.7-6.71-6.7A17,17,0,0,1,54,8.52,10.87,10.87,0,0,1,57.21,11.55Z"/><path class="cls-1" d="M58.86,14.76a14.51,14.51,0,0,1,.6,2.16c1.94-.43,6.95-1.87,6.95-5.44A25.71,25.71,0,0,0,64.05.92l-2,1a24,24,0,0,1,2.12,9.56C64.17,13.15,60.86,14.33,58.86,14.76Z"/><path class="cls-1" d="M56.66,25.15a3.77,3.77,0,0,1,.71.32l10.79-2.94,5.81-7-1.71-1.43-5.37,6.43-8,2.2A6.93,6.93,0,0,1,56.66,25.15Z"/><path class="cls-1" d="M77.2,38.54l-7-9.28-11,2a4.49,4.49,0,0,1-.86,1.25,3.73,3.73,0,0,1,.82,1l10.06-1.83,6.45,8.6,2.47,1.23,1-2Z"/><path class="cls-1" d="M70.68,44.21,58.47,38.66c.34.71,1.39,3.08,1.39,3.08l9,4.09,4.49,14.6,3.9,1.3.71-2.12-2.81-.94Z"/><path class="cls-1" d="M26.36,44.21,21.91,58.67l-2.81.94.71,2.12,3.9-1.3,4.49-14.6,9-4.09s1-2.37,1.39-3.08Z"/><path class="cls-1" d="M27.76,31.71l10.06,1.83a3.55,3.55,0,0,1,.82-1,4.29,4.29,0,0,1-.86-1.25l-11-2-7,9.28-2,1,1,2,2.47-1.24Z"/><path class="cls-1" d="M39.67,25.47a3.77,3.77,0,0,1,.71-.32,6.93,6.93,0,0,1-2.18-2.4l-8.05-2.2-5.37-6.43-1.71,1.43,5.81,7Z"/><path class="cls-1" d="M37.58,16.92a15.39,15.39,0,0,1,.59-2.16c-2-.43-5.3-1.61-5.3-3.28A24,24,0,0,1,35,1.92l-2-1a25.71,25.71,0,0,0-2.36,10.56C30.63,15.05,35.64,16.49,37.58,16.92Z"/><path class="cls-1" d="M43,8.52a17,17,0,0,1,2.15-7.1s-6.71,2.23-6.71,6.7a6.24,6.24,0,0,0,1.37,3.43,10.87,10.87,0,0,1,3.19-3Z"/></svg>