<svg id="Livello_1" data-name="Livello 1" xmlns="http://www.w3.org/2000/svg" viewBox="0 0 100 66"><defs><style>.cls-1{fill:#060606;}</style></defs><title>iconTavola disegno 102</title><path class="cls-1" d="M75.07,17.06c8.33-.18,18.18-3.73,18.18-3.73C97.68,10,98.84,2.07,98.84,2.07c-13,8.78-33.68,11.82-33.68,11.82-1.16,6.66-5.36,9.36-9,10.42l0,0c-1.84-3.19-1.78-8.4-1.78-8.4a2.7,2.7,0,0,1,2.16.15,4,4,0,0,0-.77-2.31c-.74-.74-2.9-.38-2.9-.38A5.08,5.08,0,0,0,49,12.77a2,2,0,0,0-1.74,1.39L44.11,24.37c-3.73-1-8.07-3.7-9.25-10.48,0,0-20.64-3-33.67-11.82,0,0,1.15,7.92,5.58,11.26,0,0,9.85,3.55,18.18,3.73,0,0-11.17.56-19.42-1.13,0,0,2.22,6.36,6.65,8.22,0,0,12.18.36,15.47-.71,0,0-5.06,2.4-16.18,3.2,0,0,4.23,5.58,9.91,6a27,27,0,0,0,10.94-4.53A32.41,32.41,0,0,1,23,35.39s5.47,3,9.64,2.16a17.79,17.79,0,0,0,4.79-4.17A21,21,0,0,1,32.52,40s5.3,1,6.71-.33a14.65,14.65,0,0,0,2-4.87,13.28,13.28,0,0,1-1.69,5.83s2.31.73,3.64-.87c0,0-1.56,3.64-3.55,4.39a1.83,1.83,0,0,0,1.95,0,1.92,1.92,0,0,0-.71,1.51,1.66,1.66,0,0,0,.25,0l-1.11,2a5.09,5.09,0,0,0-2.42-1.25,2.16,2.16,0,0,0-1.5,1.89S37,47,37.55,47a2.52,2.52,0,0,1,1.47.69,2.62,2.62,0,0,0-1.44,1.17,6.56,6.56,0,0,0,0,2.07,5.73,5.73,0,0,1,.53-2A2.27,2.27,0,0,1,40,48.26a13.23,13.23,0,0,1,.8,1.17,6.69,6.69,0,0,1-.09,1.45,6.37,6.37,0,0,0,.56-1.53,3.17,3.17,0,0,0-.78-1.49l1.43-2.43a1.82,1.82,0,0,0,.71-.74,2.14,2.14,0,0,0,.67,1.86s.31-2.49,1.68-3.15c0,0-1.19,8.38-6.2,12.33,0,0,3.72.84,5.58-2,0,0-1,4.44-.08,6.39,0,0,2.48-1.38,3.63-5.5,0,0,.14,7.13,2.13,9.31h0c2-2.18,2.13-9.31,2.13-9.31,1.15,4.12,3.64,5.5,3.64,5.5.93-1.95-.09-6.39-.09-6.39,1.86,2.84,5.59,2,5.59,2-5-3.95-6.21-12.33-6.21-12.33,1.37.66,1.68,3.15,1.68,3.15a2.14,2.14,0,0,0,.67-1.86,1.82,1.82,0,0,0,.71.74l1.43,2.43a3.17,3.17,0,0,0-.78,1.49,6.37,6.37,0,0,0,.56,1.53,6.69,6.69,0,0,1-.09-1.45,13.23,13.23,0,0,1,.8-1.17,2.27,2.27,0,0,1,1.86.64,5.73,5.73,0,0,1,.53,2,6.56,6.56,0,0,0,0-2.07A2.62,2.62,0,0,0,61,47.64,2.52,2.52,0,0,1,62.47,47C63,47,64,48.26,64,48.26a2.16,2.16,0,0,0-1.5-1.89,5.09,5.09,0,0,0-2.42,1.25l-1.11-2a1.66,1.66,0,0,0,.25,0,1.92,1.92,0,0,0-.71-1.51,1.83,1.83,0,0,0,2,0c-2-.75-3.54-4.39-3.54-4.39,1.33,1.6,3.63.87,3.63.87a13.19,13.19,0,0,1-1.68-5.83,14.51,14.51,0,0,0,1.95,4.87C62.21,41,67.5,40,67.5,40a21,21,0,0,1-4.94-6.62,17.79,17.79,0,0,0,4.79,4.17c4.17.88,9.64-2.16,9.64-2.16a32.29,32.29,0,0,1-9.28-7.25,26.9,26.9,0,0,0,10.93,4.53c5.68-.45,9.91-6,9.91-6-11.12-.8-16.17-3.2-16.17-3.2,3.28,1.07,15.46.71,15.46.71,4.43-1.86,6.65-8.22,6.65-8.22C86.24,17.62,75.07,17.06,75.07,17.06ZM50.68,13.88a3,3,0,0,1-1-.49,5.36,5.36,0,0,1,1-.06,1.72,1.72,0,0,1,1,.55S51.06,13.91,50.68,13.88Z"/></svg>