<svg id="Livello_1" data-name="Livello 1" xmlns="http://www.w3.org/2000/svg" viewBox="0 0 100 66"><title>iconTavola disegno 51</title><path d="M54,58A31.42,31.42,0,0,1,44,59.33c-4.77-.13-9.33-1.08-13.29-3.94a14.67,14.67,0,0,1-6.13-10.27,26,26,0,0,1,3-15.78,2.92,2.92,0,0,0,.27-2.46c-.49-1.34-1-2.67-1.58-4a1,1,0,0,1,.29-1.37c.55-.41,1.06-.86,1.6-1.29a.66.66,0,0,1,1,.06.68.68,0,0,1-.17,1l-1.31,1.09,1.53,4A39.37,39.37,0,0,1,39.63,15.92l-2.05-.13a24.62,24.62,0,0,0-7.71.09,23.7,23.7,0,0,0-3.28,1,1.54,1.54,0,0,0-.77,2.47c.08.13.24.27.23.39a1.52,1.52,0,0,1-.21.87c-.28.3-.65.18-.93-.12a2.94,2.94,0,0,1,.88-4.77,29.19,29.19,0,0,1,5.15-1.38c2.67-.49,5.37,0,8.05.14l1.33.05a5.84,5.84,0,0,0,3.08-.75A117.1,117.1,0,0,1,71.57,2.57c2.22-.54,4.48-.93,6.73-1.35A2.23,2.23,0,0,1,80.75,4.1a4.5,4.5,0,0,1-.83,1.7A18.46,18.46,0,0,0,77,11a7.61,7.61,0,0,1-3.79,4.32l-8.56,4.48,1.43.28c.34-.33.52-1.08,1.2-.67.25.16.34.6.5.9l-.2.15.79.3c.45-.35.63-1.28,1.45-.75.6.39.21.88-.05,1.35l.91.53c.57-.16.91-1.22,1.67-.47.54.55,0,.95-.42,1.36l.81.73c.64-.14,1.22-1.07,1.83-.2s-.39,1-.79,1.35l.6.88c.27-.11.54-.2.79-.31a.65.65,0,0,1,.94.32.62.62,0,0,1-.34.93c-.37.18-.77.28-.69.86,0,.15-.27.41-.47.49a65.15,65.15,0,0,0-12,6.87c-2,1.34-4.27,2.27-6.4,3.42a1.24,1.24,0,0,0-.59.67,14.29,14.29,0,0,1-4.33,7.06,1.61,1.61,0,0,1-1.94.32,1.67,1.67,0,0,1-.8-1.87c.12-.74.2-1.48.29-2.23a.65.65,0,0,1,.75-.65.63.63,0,0,1,.61.78c-.06.68-.15,1.36-.23,2,0,.21,0,.42-.06.65,1.25-.24,3.88-4.07,4.08-5.86-1.65.48-3.28,1-4.92,1.45a13.52,13.52,0,0,0-4,2,3.69,3.69,0,0,0-1.71,4,4.2,4.2,0,0,0,3.23,3.41,22.31,22.31,0,0,0,6.56.7A3.57,3.57,0,0,0,55.9,49a25.88,25.88,0,0,1,6.66-6.58,35.31,35.31,0,0,1,3.85-2c1.72-.83,3.48-1.58,5.21-2.41a2.47,2.47,0,0,1,3.53,3.13,9,9,0,0,1-2.77,3.73c-1.74,1.45-3.5,2.9-5.14,4.46a7.7,7.7,0,0,0-2.45,4.09,8.3,8.3,0,0,0,2.63,8,2.92,2.92,0,0,1,.9,1.39A1.85,1.85,0,0,1,66.26,65a13.86,13.86,0,0,1-10.88-5.15C54.89,59.28,54.44,58.65,54,58ZM41.91,47.29c0,.65-.08,1.31-.09,2s-.11,1-.72,1-.7-.42-.71-.92a9.35,9.35,0,0,1,3.27-7.5A12.87,12.87,0,0,1,49,39.07,44,44,0,0,0,63.4,32.55c1.91-1.34,3.91-2.56,5.93-3.74,1.3-.77,2.7-1.36,4.1-2a10.09,10.09,0,0,0-2.78-3.17,13.55,13.55,0,0,0-7.84-2.42c-.58,0-1.2,0-1.35-.74s.46-.95,1-1.2L72.63,14a5.94,5.94,0,0,0,3-3.4A19.43,19.43,0,0,1,78.81,5a2.9,2.9,0,0,0,.55-1.24c.15-.82-.28-1.21-1.11-1.08A84.68,84.68,0,0,0,66.82,5.32a131.58,131.58,0,0,0-22,9.18A36.91,36.91,0,0,0,30,27.92,25.67,25.67,0,0,0,25.93,44.3,13.43,13.43,0,0,0,32.75,55c.55.32,1.12.59,1.68.89a12.47,12.47,0,0,1-2.61-8.48,17.47,17.47,0,0,1,2.41-8.59c-1,.71-2,1.48-3,2.26a1.55,1.55,0,0,1-2,.12,1.61,1.61,0,0,1-.44-2c.19-.37.39-.74.6-1.1C33.6,31,39.57,26.66,48,26.19a5.71,5.71,0,0,0,2.63-.84c1.91-1.11,3.85-2.15,5.79-3.21.55-.31,1.07-.13,1.17.36s-.22.71-.59.92c-2.33,1.3-4.65,2.62-7,3.91a1.66,1.66,0,0,1-.81.21,19.84,19.84,0,0,0-8.29,1.68A22,22,0,0,0,30.16,39.67a2.64,2.64,0,0,0-.12.4,1.3,1.3,0,0,0,.64-.33,18.43,18.43,0,0,1,10.6-4.81,5.08,5.08,0,0,0,2.53-.86,15.83,15.83,0,0,0,3.94-3.89c.27-.38.59-.73,1.09-.39s.35.79,0,1.21a15.18,15.18,0,0,1-4.67,4.43,8.65,8.65,0,0,1-2.35.83c-.7.17-1.45.13-2.15.31-1.11.28-2.26.4-3.07,1.46a15.46,15.46,0,0,0-3.41,10.52,10.16,10.16,0,0,0,1.7,5.55c1.7,2.38,4.19,3.3,6.93,3.65a29.15,29.15,0,0,0,10.19-.68c1.66-.37,3.26-.86,4-2.69.06-.18.56-.33.77-.26a.88.88,0,0,1,.42.71A2.64,2.64,0,0,1,56.73,56a19.53,19.53,0,0,1-1.38,1.52,13.48,13.48,0,0,0,5.55,5,11.89,11.89,0,0,0,5.44,1.15.69.69,0,0,0,.56-.31c.07-.16-.09-.42-.19-.61s-.23-.21-.34-.31a9.6,9.6,0,0,1-3.05-8.81,8.74,8.74,0,0,1,2.7-5c1.71-1.68,3.58-3.2,5.42-4.75a7.92,7.92,0,0,0,2.35-3.06,1.14,1.14,0,0,0-.19-1.45,1.16,1.16,0,0,0-1.41,0c-1.14.58-2.29,1.15-3.44,1.69-1.52.71-3.11,1.27-4.56,2.1a23.45,23.45,0,0,0-7.12,6.73A5.09,5.09,0,0,1,52.47,52c-1.54-.08-3.08-.22-4.61-.41A6.72,6.72,0,0,1,41.91,47.29Z"/><path d="M56.64,13.9a15,15,0,0,0,0,2.42,7.12,7.12,0,0,0,.74,2c.22.44.29.8-.14,1.09s-.75.08-1-.28a6.33,6.33,0,0,1-.79-5.49.57.57,0,0,1,.81-.46,2.76,2.76,0,0,1,.65.59Z"/><path d="M53.63,15.23c0,.5-.11,1-.14,1.51a4.77,4.77,0,0,0,.67,2.78c.24.4.29.81-.16,1.1s-.8,0-1-.36A6.65,6.65,0,0,1,52.31,15c.1-.42.38-.71.8-.56s.46.41.68.63Z"/><path d="M48.87,17.67c0-.24.07-.72.17-1.19a.65.65,0,0,1,.81-.58.67.67,0,0,1,.56.88A5.2,5.2,0,0,0,51,20.65c.26.42.28.81-.17,1.08s-.79,0-1-.37A6.9,6.9,0,0,1,48.87,17.67Z"/><path d="M75.9,6.39c0,.65-.87,1.49-1.26,1.36A1.11,1.11,0,0,1,74,7.07c-.1-.42.81-1.25,1.23-1.14A2,2,0,0,1,75.9,6.39Z"/><path d="M67.35,10.16c-.17-.26-.5-.54-.47-.78a1,1,0,0,1,.64-.64.56.56,0,0,1,.67.68c0,.27-.35.5-.54.74Z"/></svg>