<svg id="Livello_1" data-name="Livello 1" xmlns="http://www.w3.org/2000/svg" viewBox="0 0 100 66"><defs><style>.cls-1{fill:#060606;}</style></defs><title>iconTavola disegno 45</title><path class="cls-1" d="M41.14,63a1.24,1.24,0,0,0-.89-.37A1.26,1.26,0,0,0,39,63.86a1.24,1.24,0,0,0,.37.89,1.26,1.26,0,0,0,.88.37,1.26,1.26,0,0,0,1.26-1.26A1.26,1.26,0,0,0,41.14,63Z"/><path class="cls-1" d="M62.41,53a1.25,1.25,0,0,0-1.25,1.25,4.24,4.24,0,0,1-4.24,4.24,1.26,1.26,0,0,0,0,2.51,6.76,6.76,0,0,0,6.75-6.75A1.26,1.26,0,0,0,62.41,53Z"/><path class="cls-1" d="M71.58.88A10.55,10.55,0,0,0,61,11.42V26.48a10.56,10.56,0,0,0,9.28,10.46v11H65.81a10.88,10.88,0,0,0-11.66-4.24L50,33h5.1a.68.68,0,0,1,.55,1.08.67.67,0,0,1-.55.28H53.78a1.26,1.26,0,0,0,0,2.51h1.28a3.19,3.19,0,0,0,3-4.18,3.17,3.17,0,0,0-3-2.2H48.12a1.25,1.25,0,0,0-1,.55A1.23,1.23,0,0,0,47,32.2l2.36,6H38.88l-.94-2.16-.36-.91a1.25,1.25,0,0,0-1.17-.79H31a3.19,3.19,0,1,0,0,6.37h4.16l-2,3.5a10.78,10.78,0,0,0-4.32-.9,10.89,10.89,0,0,0-7,19.28H19.14a1.26,1.26,0,1,0,0,2.51h9.64A10.91,10.91,0,0,0,39.6,55.48h4.91a1.25,1.25,0,0,0,1.05-.57,1.26,1.26,0,0,0,.1-1.19L40,40.73H50.29l1.52,3.88a10.89,10.89,0,0,0-1.84,18H45.52a1.26,1.26,0,0,0,0,2.51h11.4a10.91,10.91,0,0,0,10.9-10.9,10.78,10.78,0,0,0-.68-3.78h9a1.26,1.26,0,0,0,0-2.51H72.83v-11a10.55,10.55,0,0,0,9.29-10.46V11.42A10.55,10.55,0,0,0,71.58.88ZM31,38.22a.67.67,0,0,1-.63-.43.64.64,0,0,1,.07-.63.66.66,0,0,1,.56-.29h4.6l.53,1.35ZM28.78,62.61a8.39,8.39,0,1,1,3-16.19L27.69,53.6a1.27,1.27,0,0,0,0,1.25,1.25,1.25,0,0,0,1.09.63h4a4.25,4.25,0,0,1-4,3,1.26,1.26,0,1,0,0,2.51,6.75,6.75,0,0,0,6.62-5.49h1.67A8.4,8.4,0,0,1,28.78,62.61ZM31,53,34,47.68A8.4,8.4,0,0,1,37.07,53Zm11.64,0h-3a11,11,0,0,0-4.33-7.49l2.3-4Zm14.33,9.64A8.38,8.38,0,0,1,52.73,47l3,7.71a1.26,1.26,0,0,0,2.34-.91l-3-7.72a8.14,8.14,0,0,1,1.85-.21,8.39,8.39,0,1,1,0,16.77ZM79.61,26.48a8,8,0,0,1-6.78,7.93V29.19l3.35-3.57a1.26,1.26,0,0,0-.06-1.77,1.24,1.24,0,0,0-1.77.06l-1.52,1.61v-4l3.35-3.57a1.25,1.25,0,0,0-1.83-1.71l-1.52,1.61V15.62a1.26,1.26,0,0,0-2.51,0v5.65L69,19.89a1.26,1.26,0,0,0-1.83,1.72l3.12,3.33v9.47a8,8,0,0,1-6.77-7.93V11.42a8,8,0,0,1,16.06,0Z"/><path class="cls-1" d="M80.86,47.93h0a1.26,1.26,0,1,0,0,2.51h0a1.26,1.26,0,1,0,0-2.51Z"/><path class="cls-1" d="M47.85,18.28H45.76A7.29,7.29,0,0,0,46.52,15a7.37,7.37,0,0,0-14.16-2.85A5.37,5.37,0,0,0,24.66,17a5.27,5.27,0,0,0,1.12,3.28,1.23,1.23,0,0,0,1,.49H47.85a1.26,1.26,0,0,0,0-2.51Zm-5.09,0H27.46a2.87,2.87,0,0,1,4.7-3.18,1.26,1.26,0,0,0,2.18-.68,4.85,4.85,0,1,1,8.42,3.86Z"/></svg>