<svg id="Livello_1" data-name="Livello 1" xmlns="http://www.w3.org/2000/svg" viewBox="0 0 100 66"><defs><style>.cls-1{fill:#060606;}</style></defs><title>iconTavola disegno 108</title><path class="cls-1" d="M36.7,42a2.41,2.41,0,0,0-2.41,2.42v2.41a9.62,9.62,0,0,0,16.92,6.33,9.62,9.62,0,0,0,16.92-6.33V44.38a2.42,2.42,0,1,0-4.83,0v2.41a4.84,4.84,0,1,1-9.67,0v-7.7a6.15,6.15,0,0,0,2.25-1.47l3.61-3.87a4.86,4.86,0,0,0,1-5.3A6,6,0,0,0,54.83,25H47.58a6,6,0,0,0-5.64,3.41,4.86,4.86,0,0,0,1,5.3l3.63,3.87a6,6,0,0,0,2.24,1.47v7.7a4.84,4.84,0,1,1-9.67,0V44.38A2.42,2.42,0,0,0,36.7,42Zm9.67-11.57c0-.12.39-.52,1.21-.52h7.25c.83,0,1.19.4,1.13.57l-3.62,3.87a1.92,1.92,0,0,1-2.26,0Z"/><path class="cls-1" d="M20.66,16.79c4.3-1.69,7.73-1.89,10.19-.59a7.51,7.51,0,0,1,3.49,4.52,2.42,2.42,0,0,0,4.73-1A12.39,12.39,0,0,0,33.18,12c-3.76-2-8.56-1.92-14.28.31a2.42,2.42,0,0,0,1.76,4.51Z"/><path class="cls-1" d="M62.79,22.56a2.41,2.41,0,0,0,2.87-1.86,7.48,7.48,0,0,1,3.45-4.47c2.46-1.33,5.9-1.14,10.23.55a2.42,2.42,0,1,0,1.76-4.5C75.38,10.05,70.58,9.94,66.82,12a12.34,12.34,0,0,0-5.89,7.72,2.42,2.42,0,0,0,.34,1.82A2.38,2.38,0,0,0,62.79,22.56Z"/></svg>