<svg id="Livello_1" data-name="Livello 1" xmlns="http://www.w3.org/2000/svg" viewBox="0 0 100 66"><title>iconTavola disegno 92</title><path d="M29.68,36.87c-.24-1-.39-1.81-.61-2.59a12,12,0,0,1,1-9.07c.42-.83.88-1.63,1.26-2.48.56-1.28.24-1.87-1.1-2.19l-3.47-.85a2.1,2.1,0,0,1-1.49-2.38,1.64,1.64,0,0,1,1-.9c1.1-.36,2.27-.52,3.37-.9C31,15,32.38,14.42,33.8,13.85c-.85-.82-1.71-1.5-2.4-2.32A12.24,12.24,0,0,1,29.69,8.9a2.27,2.27,0,0,1,.5-2.52c-.48,3.11,2,4.36,3.65,6.12-.49-1.25-1.11-2.44-.53-3.84A5.25,5.25,0,0,0,34.87,12c.39-.64,0-1.08-.29-1.52a4.28,4.28,0,0,1,.73-5.57,9.8,9.8,0,0,1-.22,1,4.46,4.46,0,0,0,.17,3.76c.47.8.92,1,1.58.32a8.42,8.42,0,0,0,2.77-4.77A7.7,7.7,0,0,1,41.33.69a.9.9,0,0,1,.49-.28,7.93,7.93,0,0,0-.58,1.26,21.92,21.92,0,0,0-.68,3c-.09.75.33,1,.89.48C42.7,4,43.85,2.84,45,1.67A6.51,6.51,0,0,0,45.58,1l.27.16c-.47.82-.89,1.68-1.43,2.46S43.22,5,42.53,5.86A4.63,4.63,0,0,0,46,5a27.08,27.08,0,0,0,2.55-2.31,5.3,5.3,0,0,1-4.37,3.82c-.71.08-1.43,0-2.14.13a1.89,1.89,0,0,0-1.14.41c-1.53,1.78-3,3.62-4.49,5.44a3.22,3.22,0,0,0-.21.42,5.22,5.22,0,0,0,4.09.24,2.27,2.27,0,0,0,1-1.23c.39-.95.6-2,1-2.93a5.35,5.35,0,0,1,1.05-1.63c-.25,1.22-.53,2.44-.76,3.66-.18.89.13,1.3,1,1.4a1.9,1.9,0,0,0,.79,0c2.51-.94,4.69-2.23,5.39-5.1.34-1.38.71-2.75,1.16-4.1v4.2C52,7,52.24,6.1,52.63,5.34S53.3,3.77,53.69,3a10.53,10.53,0,0,1-1.28,5c1.94,0,3.36-1.65,4.15-4.84A4.27,4.27,0,0,1,55.39,7.7,5.94,5.94,0,0,1,53,8.86,6.54,6.54,0,0,0,49.15,11a7,7,0,0,1-4.57,2.54c-2.24.18-3.93,1.66-6.06,2a1.13,1.13,0,0,0,.4.19c.88,0,1.77,0,2.66.05s.94.45.49,1.1a4.49,4.49,0,0,1-3.24,1.62c-.06,1.18-.1,2.36-.2,3.55-.05.63-.2,1.25-.3,1.87a5.25,5.25,0,0,0,1,4.29c2.5,3.09,5.55,5.29,9.64,5.65,2,.18,4,.21,6,.31a11.68,11.68,0,0,1,6.18,2c1.66,1.14,2.66,1,4-.55.07-.08.12-.18.21-.23.34-.18.74-.52,1-.45s.47.59.55.94c.43,2-.13,3-2,3.79-1,.45-1.14.68-.83,1.74a8.26,8.26,0,0,1-.49,5.28c-.78,2.16-.47,3.24,1.28,4.74a2.26,2.26,0,0,1,.56,1c.44,1.33.81,2.68,1.27,4a5.56,5.56,0,0,0,3.65,3.7,1.37,1.37,0,0,1,.77.94,21.24,21.24,0,0,1-.14,3.38c0,.39-.42.74-.64,1.11a11.32,11.32,0,0,1-1.47-1c-.2-.18-.21-.58-.28-.89A4.24,4.24,0,0,0,67,61a3.39,3.39,0,0,1-.86-.91c-.95-1.4-1.85-2.84-2.81-4.23a4.38,4.38,0,0,0-1.09-1.1,19.58,19.58,0,0,1-6.65-7.43c-.7-1.4-.83-1.41-2.37-1.44-4.37-.09-8.75-.1-13.09-.48a21.31,21.31,0,0,1-5.8-1.81c-2.29-.93-4.5-2.08-6.87-3.19a21.72,21.72,0,0,1,.69,2.18c.47,2.43,2.4,3.2,4.38,3.82,1.33.43,1.58.52,1.81,1.93.11.71.21,1.41.31,2.12.06.42-.13.58-.54.56a2.17,2.17,0,0,1-1.88-.82,4.54,4.54,0,0,0-.76-.92,11.31,11.31,0,0,0-1.37-1c-1.84-1.17-3.86-2.19-4.34-4.63a10.25,10.25,0,0,0-2.38-4.61,8.53,8.53,0,0,1-.68-1,1.65,1.65,0,0,1,.24-2,1.77,1.77,0,0,1,1.94-.76c1.29.41,2.56.86,3.83,1.29Z"/></svg>