<svg id="Livello_1" data-name="Livello 1" xmlns="http://www.w3.org/2000/svg" viewBox="0 0 100 66"><defs><style>.cls-1{fill:#030402;}</style></defs><title>iconTavola disegno 7</title><path class="cls-1" d="M44.81,23.4l5.26,5.48L71.35,8.44A32.06,32.06,0,0,0,57.1,1.17,49.36,49.36,0,0,1,44.81,23.4Z"/><path class="cls-1" d="M17.69,33.13a44.93,44.93,0,0,0,19.49-9.89L25.75,11.34A32.26,32.26,0,0,0,17.69,33.13Z"/><path class="cls-1" d="M46.19,32.61l-5.26-5.48A49.36,49.36,0,0,1,18.22,38.52a32.06,32.06,0,0,0,6.69,14.53Z"/><path class="cls-1" d="M58.67,45.61A44.6,44.6,0,0,0,48,64.94a32.27,32.27,0,0,0,22.4-7.17Z"/><path class="cls-1" d="M75.08,12.33,53.81,32.77l5,5.21a49.5,49.5,0,0,1,22.9-11.42A32,32,0,0,0,75.08,12.33Z"/><path class="cls-1" d="M29.64,7.61l11.43,11.9A44.78,44.78,0,0,0,51.74.43,32.15,32.15,0,0,0,29.64,7.61Z"/><path class="cls-1" d="M54.94,41.72l-5-5.22L28.65,56.94a32.07,32.07,0,0,0,14,7.2A49.16,49.16,0,0,1,54.94,41.72Z"/><path class="cls-1" d="M82.3,31.93a44.06,44.06,0,0,0-19.74,10L74.24,54A32.24,32.24,0,0,0,82.3,31.93Z"/></svg>