<svg id="Livello_1" data-name="Livello 1" xmlns="http://www.w3.org/2000/svg" viewBox="0 0 100 66"><defs><style>.cls-1{fill:#060606;}</style></defs><title>iconTavola disegno 50</title><path class="cls-1" d="M83.59,34.88V31.11H82.36a31,31,0,0,0-.56-4.31L83,26.49l-1-3.64-1.18.31a29.94,29.94,0,0,0-1.66-4l1-.61-1.88-3.27-1.06.61a32,32,0,0,0-2.65-3.43l.87-.88L72.83,8.91,72,9.78a31.18,31.18,0,0,0-3.44-2.65l.62-1.06L65.87,4.19l-.61,1a29.19,29.19,0,0,0-4-1.66l.31-1.18-3.64-1L57.6,2.61a30.65,30.65,0,0,0-4.3-.56V.82H49.53V2.05a30.79,30.79,0,0,0-4.31.56l-.31-1.18-3.65,1,.32,1.18a28.68,28.68,0,0,0-4,1.66l-.61-1L33.69,6.07l.61,1.06a32.15,32.15,0,0,0-3.44,2.65L30,8.91l-2.66,2.66.87.88a30.8,30.8,0,0,0-2.65,3.43l-1.06-.61L22.6,18.54l1.06.61a30,30,0,0,0-1.67,4l-1.17-.31-1,3.64L21,26.8a31,31,0,0,0-.55,4.31H19.24v3.77h1.23A30.78,30.78,0,0,0,21,39.19l-1.18.31,1,3.64L22,42.83a30,30,0,0,0,1.67,4l-1.06.61,1.89,3.27,1.06-.61a30.8,30.8,0,0,0,2.65,3.43l-.87.88L30,57.08l.87-.87a30.91,30.91,0,0,0,3.44,2.65l-.61,1.06L37,61.81l.61-1.06a28.68,28.68,0,0,0,4,1.66l-.32,1.18,3.65,1,.31-1.19a29.37,29.37,0,0,0,4.31.56v1.23H53.3V63.94a30.64,30.64,0,0,0,4.3-.55l.32,1.18,3.64-1-.31-1.18a29.19,29.19,0,0,0,4-1.66l.61,1.06,3.27-1.89-.62-1.06A30,30,0,0,0,72,56.21l.87.87,2.67-2.66-.87-.88a31.07,31.07,0,0,0,2.65-3.43l1.06.61,1.88-3.27-1-.61a29.94,29.94,0,0,0,1.66-4l1.18.32,1-3.65-1.18-.31a30.79,30.79,0,0,0,.56-4.31ZM58.1,33a6.89,6.89,0,0,1-.27,1.88A6.73,6.73,0,0,1,53,39.49a6.67,6.67,0,0,1-3.46-.08,6.72,6.72,0,0,1-3-1.81,6.59,6.59,0,0,1-1.66-3A6.82,6.82,0,0,1,44.73,33,6.9,6.9,0,0,1,45,31.11a6.72,6.72,0,0,1,1.81-2.95,6.59,6.59,0,0,1,3-1.66,6.62,6.62,0,0,1,3.15,0,6.68,6.68,0,0,1,3.26,1.89,6.59,6.59,0,0,1,1.66,3A6.83,6.83,0,0,1,58.1,33Zm15.46-1.89H58.45l13.08-7.55a22,22,0,0,1,2,7.55ZM69.64,20.29,56.56,27.84l7.56-13.07a22.27,22.27,0,0,1,5.52,5.52Zm-8.79-7.41L53.3,26V10.85A22,22,0,0,1,60.85,12.88Zm-11.32-2V26L42,12.88A22.11,22.11,0,0,1,49.53,10.85ZM38.71,14.77l7.55,13.07L33.18,20.29a22.48,22.48,0,0,1,5.53-5.52Zm-7.42,8.79,13.09,7.55H29.27A22,22,0,0,1,31.29,23.56ZM44.38,34.88,31.29,42.43a22,22,0,0,1-2-7.55ZM33.18,45.7l13.08-7.55L38.71,51.22a22.48,22.48,0,0,1-5.53-5.52ZM42,53.12,49.53,40V55.14A22.33,22.33,0,0,1,42,53.12Zm11.33,2V40l7.55,13.09a22.21,22.21,0,0,1-7.55,2Zm10.82-3.92L56.56,38.15,69.64,45.7a22.27,22.27,0,0,1-5.52,5.52Zm7.41-8.79L58.45,34.88H73.56A22,22,0,0,1,71.53,42.43Z"/><circle class="cls-1" cx="51.41" cy="33" r="2.91"/></svg>