<svg id="Livello_1" data-name="Livello 1" xmlns="http://www.w3.org/2000/svg" viewBox="0 0 100 66"><title>iconTavola disegno 83</title><path d="M3.46,65.8c0-.2,0-.38,0-.56,0-3.24,0-6.47,0-9.71,0-.5.16-.63.64-.65,1.29-.08,2.58-.21,3.87-.35.19,0,.37-.2.55-.31l0-.23a5.38,5.38,0,0,0-1-.13c-1.1.09-2.2.22-3.31.33-.2,0-.4,0-.63,0v-10l2.72.23c1.48.14,3,.27,4.43.43a1.1,1.1,0,0,1,.66.33c.45.57.83,1.19,1.26,1.78a3.44,3.44,0,0,0,.5.51c.56.51,1.32.81,1.64,1.57.05.11.25.16.38.21.68.24,1.34.51,2,.69a8.39,8.39,0,0,1,3.16,1.87c.52.43.92,1,1.76,1.13.46,0,.88.6,1.27,1,.07.06,0,.41-.16.53s-.24.36,0,.54c.81.62.81.72-.06,1.37.51.23.77.8,1.46.7a13.9,13.9,0,0,1,1.58,0,2,2,0,0,1,1.56.75,2.1,2.1,0,0,0,.42.37c.29.19.52.11.58-.23.09-.53.27-.91,1-.65-.07-.4-.11-.71-.17-1a24,24,0,0,1,.25-9.13,18.85,18.85,0,0,1,2.75-6.85,11.31,11.31,0,0,1,5.38-4.7c.37-.13.76-.2,1.07-.28.74-1.23.49-2.52.42-3.8-.06-1-.17-2.08.78-2.74A7.52,7.52,0,0,1,42.06,28c.36-.13.77-.13,1.29-.31a.91.91,0,0,1-.29-.1c-1.71-1.22-3.44-2.41-5.11-3.7-.76-.59-1.38-1.38-2.09-2a1,1,0,0,0-.73-.24c-.16,0-.27.38-.37.6a1.18,1.18,0,0,0-.09.38c-.17.79-.55.95-1.29.53A3.63,3.63,0,0,1,32,21.38c-.07-.12-.15-.24-.18-.28-.34,0-.73.21-.84.1a2.53,2.53,0,0,1-.38-.81c.42-.4.7-.69,1-1s.14-.35-.07-.53a11.73,11.73,0,0,1-1.26-1.18,1.57,1.57,0,0,1,.46-1.86c1.12-.67,2.31-1.26,3.36-2A13.17,13.17,0,0,0,35.82,12c1.29-1.42,2.54-2.87,3.87-4.25a4.33,4.33,0,0,1,2.49-1.5c.17,0,.32-.18.48-.28.66-.42,1.34-.81,2-1.26.33-.23.59-.57.9-.83.63-.52,1.26-1,1.91-1.53A5.77,5.77,0,0,1,50.72,1,2.37,2.37,0,0,0,51.6.79,4.51,4.51,0,0,1,55.51,1a2.85,2.85,0,0,0,.86.21c1.07.1,2.14.18,3.21.23a4.64,4.64,0,0,0,1-.14,7.44,7.44,0,0,1,4.81,1c.12.06.16.27.26.4s.3.5.51.56c.42.11.52.38.62.74a6.09,6.09,0,0,0,2.55,3.65,2.89,2.89,0,0,1,1.31,2.42,29,29,0,0,1,0,3.49,4.68,4.68,0,0,1-2,3.35c-.46.39-.52,1-.07,1.27a.75.75,0,0,0,.62,0c.31-.17.55-.48.87-.63a4.51,4.51,0,0,1,2-.81,5.23,5.23,0,0,0,1.68-.33c.51-.12,1.06.34,1.55-.18.15-.16.61,0,.93,0a15.06,15.06,0,0,1,6.77,1.87A17.65,17.65,0,0,1,86,20.22a24.34,24.34,0,0,1,1.67,1.83,20,20,0,0,1,3.77,6.62c.29.73.52,1.48.76,2.23a4.07,4.07,0,0,1,0,.61c0,.25.12.49.16.73s0,.4,0,.59a7,7,0,0,0,.24.87s.08,0,.08.07a5.68,5.68,0,0,1,0,1.65c-.07.28-.15.44,0,.66,0,.05.08.16.05.2a1.28,1.28,0,0,0,0,1.43.11.11,0,0,1,0,.11,1.47,1.47,0,0,0-.09,1.61s-.11.18-.14.28c-.12.36-.45.69,0,1.09.07.07-.1.43-.17.65s-.24.32-.2.41c.35.8-.2,1.41-.36,2.1a.77.77,0,0,0,0,.52.58.58,0,0,1-.21.85.56.56,0,0,0-.22.86c.34.42.07.63-.17.83A.82.82,0,0,0,91,48c.06.2-.18.5-.32.73s-.35.27-.33.3c.25.5-.12.83-.27,1.22,0,0,0,.1,0,.11-.64.31-.49.91-.56,1.44a.39.39,0,0,1-.12.24,1.46,1.46,0,0,0-.73,1.32.32.32,0,0,1-.19.26c-.46.11-.41.51-.53.83a3.18,3.18,0,0,1-.47.72,2,2,0,0,0-.3.42,1.89,1.89,0,0,1-1,1.26.46.46,0,0,0-.25.31c0,.44-.28.59-.67.69-.75.19-.92,1-1.39,1.45a2.59,2.59,0,0,1-.56.54c-.64.33-1.31.62-1.94,1,1.59.09,3.13.94,4.74.16a1.06,1.06,0,0,1,.59,0c2.33.41,4.65.84,7,1.23,1.18.2,2.38.31,3.57.49.16,0,.4.2.41.31,0,.92,0,1.84,0,2.79ZM36.7,47.42l1-.79L37.17,46,37,46l-.3,1.4,0,.81a5.09,5.09,0,0,0,1.87-.13l-1-1.12Zm34.78-5.35-.16-.57c-.19.08-.45.11-.53.24-.35.57-.66,1.16-1,1.76a2,2,0,0,0-.12.5l.12,0,1.09-1.11a3,3,0,0,0,1.19,2.91l-.72-3.22-.38.26.49-.82.61,2.59.12,0,.23-2.9-.68-.26Zm-29.4,8.46-1.87-.69,1.32,1.63c-.5-.53-1-1-1.49-1.59A.87.87,0,0,0,39,49.56c0,.8,0,1.62,0,2.44a.73.73,0,0,0,.23.43c.62.65,1.25,1.29,1.88,1.93l-1.28-.93,1,2.76a3.21,3.21,0,0,1-.31-.5c-.31-.75-.57-1.51-.89-2.25A10.55,10.55,0,0,0,39,52.33a4,4,0,0,0-.23,1.21,7.14,7.14,0,0,0,0,1.73,20.38,20.38,0,0,0,.84,2.38c-.14-.23-.3-.44-.43-.68s-.29-.65-.43-1a5.05,5.05,0,0,0,0,1.81c.07.33.49.57.76.85l.17-.75c.2-.13.39-.37.61-.39.58-.07.74-.19.75-.82.1,0,.25,0,.29-.07.25-.39.47-.8.69-1.17l-.89-1.11,1,.86c.12-.26.2-.46.3-.66.36-.74.77-1.48-.13-2.15-.07,0-.09-.16-.12-.23l.81,1c.2-.62.32-1.05.49-1.46a.5.5,0,0,0-.2-.66c.44,0,.62-.33.56-1.12l-3.85-1a.6.6,0,0,0,.4.8C40.91,50,41.49,50.24,42.08,50.53Zm-6.3-7.16.54.58c1-1.52.32-3,.06-4.56-.34.32-.86.67-.87,1a6.13,6.13,0,0,0,.29,3c-.08,0-.23.07-.23.09,0,.68.1,1.36.16,2,.43-.69.76-1.37.06-2C35.77,43.46,35.78,43.41,35.78,43.37Zm6.26.5c-.76.84-.85,2-1.3,2.87l3.15-1.88c.15-.09.37-.25.37-.36,0-.57-.12-1.13-.2-1.77l-1.8,1.09a4.12,4.12,0,0,1,.43-.41c.35-.25.73-.46,1.08-.71.08-.06.11-.2.16-.3a.86.86,0,0,0-.33-.11c-.22,0-.45.08-.66.06-.62-.07-.9.23-.94.8A5.79,5.79,0,0,0,42,43.87Zm-4.36,8.27c-.17.61-.38,1.21-.5,1.83-.23,1.13-.41,2.26-.6,3.36l1.86.41c0,.07,0,0,0,0,.06-1.59.25-3.18-.5-4.68a5.64,5.64,0,0,1-.28-.91l.8,1.78c.43-1.28.2-2-.89-2.6ZM34,47.77c.1-.08.28-.14.3-.24s0-.45,0-.67a3.74,3.74,0,0,1,.16-.66l.17,0a1,1,0,0,1,.09.41,3.66,3.66,0,0,0-.15.7c0,.22.14.57.28.61.31.07.43-.17.41-.49a5.29,5.29,0,0,1,.13-.78c0-.13.07-.32,0-.41-.64-.89-1.31-1.76-2.08-2.79-.33,1.11-.63,2.05-.88,3,0,.12.12.36.25.46.38.27.79.5,1.18.75L32.25,47l-.31,1.45h2.47Zm-1.19,8.84c0,.28-.19.69.23.74s.93.25,1.23-.21a5,5,0,0,0,1-2.28c.07-.72.27-1.43.4-2.15.06-.33.09-.66.14-1l-.1,0-2.16,2.85.59-2.76a28.32,28.32,0,0,0-2,2.32c-.49.64-.5.78-.06,1.55l1.45-1.13-.44,1,.19-.5a2.8,2.8,0,0,0-.74.49c-.46.39-.5.73-.1,1.15C32.49,56.71,32.66,56.63,32.77,56.61ZM67.54,28.8l-1.47-2.41L65,27.73l.38.68-.12.08-.45-.41c-.32.23-.38.43-.14.76.7.95,1.36,1.93,2.07,2.88.15.21.46.3.81.52V25l-.14-.1a9.46,9.46,0,0,1-.77.89.64.64,0,0,0-.13.92C66.88,27.38,67.2,28.1,67.54,28.8ZM75.05,34a1.86,1.86,0,0,1,.19-.34q1.53-1.91,3.09-3.8l4-4.88-1.87-2L73.61,35.19l.12.11a3.61,3.61,0,0,0,.44-.33c.31-.32.6-.65.91-1l-.83,1.2,4.91-1.67a.9.9,0,0,0,.35-.27q2.19-2.34,4.36-4.71c.1-.11.2-.33.15-.42-.48-1-1-1.9-1.55-2.91l-.36.4-5.93,7.17C75.82,33.2,75.43,33.6,75.05,34Zm-28.72-8.8-.56.76.79.05c.1-.86.19-1.67.29-2.48,0-.16,0-.37.13-.46a1.37,1.37,0,0,0,.29-1.49,4,4,0,0,1,.43-2.54c.1-.24.37-.41.53-.63a1.32,1.32,0,0,0,.29-.53,4.86,4.86,0,0,1,.07-1.22c.38-.86.9-1.67,1.32-2.52a2.34,2.34,0,0,0,.32-1c0-.6,0-1.11.61-1.46.3-.18.27-.45,0-.67a3.68,3.68,0,0,1-.39-.4,5.89,5.89,0,0,1,.54-.32c.08,0,.19,0,.27-.07l.54-.34-.39-.4s-.1-.08-.1-.13c-.07-.56-.48-.59-.91-.61A1.21,1.21,0,0,1,50,8.61a6.06,6.06,0,0,0-1.08-.32c-.55-.06-.63-.16-.56-.69a3,3,0,0,0-.17-.85,5.26,5.26,0,0,0-.9.29A20.62,20.62,0,0,1,45.1,8.28a11.11,11.11,0,0,0-3,2,16.09,16.09,0,0,0-1.38,1.36c-.59.61-1.6.71-2,1.6,0,.07-.21.08-.3.14-.91.51-1.93.94-2.33,2-.28.74-.41,1.53-.62,2.3-.13.48-.29,1-.48,1.61A12.25,12.25,0,0,0,36.61,21a11,11,0,0,0,4,2.54,2.6,2.6,0,0,0,1.28.33,1.31,1.31,0,0,1,1.14.33c.53.38,1.06.94,1.8.63S45.88,24.84,46.33,25.22ZM58.14,57.85c-.14-.36-.18-.9-.46-1.08-.48-.3-.46-.66-.47-1.08a1.2,1.2,0,0,0-.11-.46,5.17,5.17,0,0,1-.62-1.12A3.88,3.88,0,0,0,55.73,52a.36.36,0,0,1-.07-.26,2,2,0,0,0-.3-1.92c0-.06,0-.17,0-.27l-.06-.72c0-.39.07-.82-.33-1.11,0,0,.06-.26.08-.4a3.33,3.33,0,0,0,.12-.88,11.16,11.16,0,0,0-.27-1.25c0-.07.07-.16.12-.23.31-.34.28-.63,0-.83l.38-.87c-1.14-.1-2.15-.19-3.15-.3a1.1,1.1,0,0,1-1-.9c-.09-.61-.4-.59-.82-.49-.67.16-1.34.34-2,.49-.4.1-.81.15-1.2.28a.59.59,0,0,0-.32.43c0,.59.08,1.19.1,1.79,0,1.06.13,2.13.1,3.19s-.2,2.09-.31,3.14a2.44,2.44,0,0,1-.11.6c-.16.48-.38.93-.52,1.42a9.82,9.82,0,0,1-.47,1.83c-.48.88-.65,1.94-1.49,2.63-.1.09-.09.33-.14.55,1.42-.06,2.76-.09,4.08-.19a1.33,1.33,0,0,1,1.31.66c.42.6.85,1.19,1.3,1.78a1.23,1.23,0,0,0,1.69.18c-.15-.16-.28-.33-.44-.47a2.11,2.11,0,0,1-.39-1.73c.22-.56.68-.22,1-.27a8.54,8.54,0,0,1,1.13,0Zm20.67-2.68c.86-1,1.69-2,2.47-2.93.08-.09,0-.39-.09-.53-2-3-3.94-6-5.91-8.93-.1-.14-.21-.32-.34-.36-.72-.21-1.44-.38-2.22-.58-.13,1.36-.27,2.62-.37,3.89a1.21,1.21,0,0,0,.26.65q2.65,3.79,5.32,7.57ZM67.3,57.64c.79,0,1.59,0,2.4,0,.34,0,.48-.09.54-.46.31-2,.67-4.07,1-6.11a11.24,11.24,0,0,0,.18-2.45c-.08-1.16-.35-2.3-.49-3.45A1.38,1.38,0,0,0,70.17,44a5.35,5.35,0,0,0-1.09,1.37c-.89,2.62-2,5.2-1.77,8.06,0,0,0,0,0,.06Zm7.44-17.23.11,0c3.51-.19,7-.38,10.52-.55.32,0,.41-.15.42-.45,0-1,.06-2.07.08-3.1a4.88,4.88,0,0,0-.08-.61c-3.06.64-6,1.3-9,1.88a2.55,2.55,0,0,0-1.84,1.17C74.56,39.3,74.2,39.74,74.74,40.41Zm11-.25-8.38.34L75,40.59c-.23,0-.59.12-.38.36.52.59,1,1.34,1.8,1.53,1.85.43,3.7.82,5.55,1.22l3,.61Zm-9.85-2.68.06.11,9.91-2-.62-3.93c-1.27.44-2.41.92-3.61,1.21a6.52,6.52,0,0,0-3.76,2.45C77.3,36.06,76.58,36.75,75.91,37.48Zm-2-3.55L74,34l6.21-11.11-2.4-1.29-3,5.11a1.31,1.31,0,0,0-.12.48c-.19,1.49-.37,3-.55,4.47C74.07,32.39,74,33.16,73.9,33.93Zm-17.57-2.4-.5-.48.07-.13,2.24.3c-.07-.9-.07-.89-.83-1.11-.48-.14-1-.29-1.44-.48A1.27,1.27,0,0,1,55,27.9c.28-1.11.55-2.22.83-3.39-.38.21-.75.39-1.09.61a2.49,2.49,0,0,0-1.16,2,1.06,1.06,0,0,1-1,1.15,1.92,1.92,0,0,0-1.09,2.45.46.46,0,0,0,.18.13l4.17,1.41Zm16,15-.16.06A10.71,10.71,0,0,0,71.93,51c.29,1.85.45,3.73.64,5.59,0,.49.15.79.72.74a4.14,4.14,0,0,1,.64.07l-.41-1.85.61-.1.37,2.19.43-.15c.79-.31.79-.31.55-1.12-.82-2.75-1.62-5.5-2.46-8.24A13.74,13.74,0,0,0,72.35,46.56Zm2.78-25.35c-.73.14-1.37.27-2,.38a.52.52,0,0,0-.47.52c-.27,2.08-.58,4.16-.87,6.24-.18,1.23-.35,2.46-.54,3.79.13-.12.18-.15.2-.19q1.57-2.64,3.14-5.28a1,1,0,0,0,.13-.37C74.85,24.66,75,23,75.13,21.21Zm-4.8,1.71-.17-.1A12.13,12.13,0,0,0,68,24.63c-.31.39-.07,1.19-.13,1.81A8.24,8.24,0,0,0,69.18,32a1.4,1.4,0,0,0,1.15.73Zm5.25,19.52-.1.12,6.21,9.23,1.77-3.2a2.27,2.27,0,0,1-.25-.16c-2.3-1.87-4.59-3.76-6.9-5.63A3.82,3.82,0,0,0,75.58,42.44Zm-8.61,4-.19-.16c-.37.27-.76.51-1.11.81a2.49,2.49,0,0,1-2.05.71,6.87,6.87,0,0,1-.87-.21.51.51,0,0,0-.66.23c-.64.85-1.31,1.69-2,2.54-.09.11-.2.28-.17.38.32.93.67,1.84,1,2.87,1.72-1.89,3.34-3.62,4.89-5.4A11.25,11.25,0,0,0,67,46.42ZM43.85,28a5.55,5.55,0,0,0-3.59.95,1.47,1.47,0,0,0-.66,1.3c0,.62,0,1.24,0,1.85a2.05,2.05,0,0,0,1.12,2.19c.35-.28.68-.58,1.05-.84a2.51,2.51,0,0,0,1-1.44c.27-1,.6-2,.89-2.95C43.72,28.78,43.77,28.44,43.85,28Zm7.92,7.52a5.74,5.74,0,0,0-.2.73.6.6,0,0,0,0,.4,3.12,3.12,0,0,0,3,1.35.46.46,0,0,0,.33-.27c.22-1.09.42-2.17.6-3.26a.41.41,0,0,0-.14-.35c-1.4-.54-2.8-1.06-4.24-1.6-.09.59-.18,1.12-.25,1.65C50.8,35.11,50.87,35.21,51.77,35.56ZM67.14,47.51a7.43,7.43,0,0,0-1.07,1.33C65,51.05,64,53.29,63,55.53A.49.49,0,0,0,63,56c.58.45,1.18.87,1.84,1.34.12-.33.2-.52.26-.71C65.74,54.8,66.3,53,67,51.22A9.07,9.07,0,0,0,67.14,47.51Zm17.75-2.93-8.07-1.8,0,.13,6.82,5.41ZM78.51,55.35l-5.22-7.43-.1,0L76,57Zm-5.9-33.64c-.69.31-1.23.57-1.77.8a.61.61,0,0,0-.39.67c0,3.11.07,6.23.12,9.34a2.61,2.61,0,0,0,.15.58l.16,0C71.45,29.34,72,25.6,72.61,21.71Zm.8,13.57c.64-2.55.7-5.15,1.11-7.84a1.56,1.56,0,0,0-.25.23c-1,1.6-2,3.19-2.94,4.8a4.07,4.07,0,0,0-.26.77A3.56,3.56,0,0,1,73.41,35.28ZM78.77,34l0-.11L73.8,35.6c-.09,0-.16.18-.22.28-.21.38-.44.76-.62,1.16a2,2,0,0,0,0,.61,4.59,4.59,0,0,1,.51-.1c.31,0,.68-.16.9,0,.38.23,1,.37,1.28.06Q77.2,35.8,78.77,34ZM62.66,55.75l3.26-7c-1.58,1.54-3.05,3.15-4.51,4.76a.43.43,0,0,0-.06.43C61.73,54.53,62.16,55.07,62.66,55.75ZM35.89,21.22a29.58,29.58,0,0,0,7.71,6.45c.26-.25.48-.45.68-.66s.38-.65,0-.88a4.53,4.53,0,0,0-1.13-.36,14.24,14.24,0,0,1-1.59-.56c-.31-.15-.51-.53-.82-.68a14.21,14.21,0,0,1-4-2.61A7.84,7.84,0,0,0,35.89,21.22Zm48.34,7.24L80.05,33l.08.1,5.05-1.81ZM31.53,52.13l1-.29c1.86-.61,1.84-.63,3-2.21.31-.43.09-.68-.15-.89a.75.75,0,0,0-.67,0c-.92.49-1.83,1-2.73,1.56a.64.64,0,0,0-.3.37C31.56,51.12,31.56,51.58,31.53,52.13Zm40.12-1.45-.12,0-1,7h1.9C72.19,55.25,71.92,53,71.65,50.68Zm-12-9.08c1,0,2.06,0,3.08,0a.34.34,0,0,0,.26-.22c.18-.64.34-1.29.53-2L60.8,40c-1,.25-1,.25-1.16,1.28A1.14,1.14,0,0,0,59.67,41.6Zm-.31,6.19,2.07-1.31a.4.4,0,0,0,.18-.21c.12-.63.23-1.26.35-1.89-1-.28-1.7.42-2.49.79a.23.23,0,0,0-.11.18C59.35,46.11,59.36,46.87,59.36,47.79Zm7.56,9.92.27-5.83-.14,0-1.94,5.61ZM39.18,40.06l-.12,0c-.38,1.15-.72,2.31-1.14,3.44a4.84,4.84,0,0,0-.25,2.38,1.1,1.1,0,0,0,.32.52c.32-.13.86.08.88-.55.05-1.22.13-2.44.19-3.66Zm20.69-.31c1.19-.28,2.28-.52,3.36-.8a.5.5,0,0,0,.28-.35c0-.38,0-.77,0-1.21-1,.19-2,.38-3,.59a.45.45,0,0,0-.28.29C60.07,38.72,60,39.17,59.87,39.75ZM75.38,21.2,75,25.67l.16,0,2.45-4.23ZM46.29,34.3a19.67,19.67,0,0,0-2.1-2.07,7.49,7.49,0,0,0,0,4.09ZM31.7,20.72c.62.52,1.13,1,1.68,1.39.08.06.35,0,.45-.11.34-.33.63-.71,1-1.06s.3-.44-.07-.65-.71-.54-1.09-.76a.77.77,0,0,0-.64,0C32.57,19.84,32.19,20.25,31.7,20.72ZM40.82,47l.09.23L44.28,47v-2.3ZM59.55,42.1l-.1,1.24c.95.11,1.83.22,2.72.31a.41.41,0,0,0,.32-.21c.13-.41.23-.84.36-1.34ZM34.23,42c-.23.4-.46.78-.66,1.17a.41.41,0,0,0,0,.36c.61.86,1.25,1.7,1.87,2.55l.14,0a9.59,9.59,0,0,1-.09-1.77A2.42,2.42,0,0,0,34.23,42Zm9.83,7.18.23-2-3.52.29c-.09,0-.16.12-.24.19.09.09.16.24.27.28Zm15.77,1.17,2.22-2.74-.49-.87c-.61.42-1.23.82-1.82,1.26a.61.61,0,0,0-.22.49C59.58,49,59.71,49.6,59.83,50.31Zm-23.56,4a4,4,0,0,0-1.12,3.16h1.31Zm-.41-4.71A6.54,6.54,0,0,0,34,53.67,16.16,16.16,0,0,1,35.28,52,2.94,2.94,0,0,0,35.86,49.56ZM39,47.23h.22L41,42.38c-.45-.21-.61,0-.72.28-.38,1-.81,2.06-1.14,3.11A6.4,6.4,0,0,0,39,47.23Zm5.77-17.36c0,.46-.14.9,0,1.07a22.12,22.12,0,0,0,1.9,1.67c0-.69-.06-1.22-.11-1.75a.37.37,0,0,0-.17-.25C46,30.37,45.44,30.15,44.81,29.87ZM36.23,53.26c1.4-1.91,1.49-2.19-.16-3.63Zm-2.39-1.57-.05-.09c-.69.23-1.37.45-2.05.7a.34.34,0,0,0-.21.27c0,.54.06,1.07.09,1.6l.14,0Zm6.14-3,3.88,1,.14-.14c-.09-.13-.15-.33-.27-.38-1.09-.42-2.2-.81-3.33-1.23Zm6.53-19.48c0-.83,0-1.54,0-2.24a.45.45,0,0,0-.28-.32c-.16,0-.48,0-.5.09a5,5,0,0,0-.14.95c0,.2.06.49,0,.57-.47.37-.21.58.13.74A4.27,4.27,0,0,0,46.51,29.24ZM69.16,43.79a2.26,2.26,0,0,0-1.47,2.49A2.45,2.45,0,0,0,69.16,43.79Zm-8.71-6.56,2.84-.44v-.13l-2.42-.83Zm-28.78,13,2.75-1.53a13.55,13.55,0,0,0-2.3,0,.41.41,0,0,0-.27.27C31.77,49.33,31.74,49.7,31.67,50.2ZM37,42c.72-1.12.39-2.24.42-3.4-.56.24-.92.48-.78,1.13S36.9,41.19,37,42ZM43,36.42c.29-1.13.29-1.13-.86-1.47-.46-.14-.82.1-1,.65Zm26.2-4.08L67.93,30l-.13,0c0,.3,0,.59,0,.89-.06,1.25-.07,1.26,1.18,1.49ZM52.57,24l1.85-1.32-.06-.13H52.45ZM67.48,49.17l.16,0,1-3.13L68.41,46a4.8,4.8,0,0,0-.89,1.32A7.5,7.5,0,0,0,67.48,49.17ZM39.11,45.09l.12,0,.92-2.82L39.3,42Zm14.27-2.52h1.93L55.26,42H53.38Zm19.23-1.31a8.47,8.47,0,0,0,2.32.9C74.52,40.9,73.55,41.14,72.61,41.26ZM38.83,46.42l-.52.1c-.54.11-.62.33-.29.75a7.22,7.22,0,0,0,.5.6.42.42,0,0,0,.33.1.37.37,0,0,0,.17-.29C39,47.27,38.9,46.87,38.83,46.42Zm-3.38-3.63-.14-2.25c-1.08,1.14-1.08,1.26,0,2.18Zm36.14,5.5h.1c.06-.54.1-1.09.21-1.63s-.27-1-.78-1.3ZM37.87,50.43c-.13.74.05,1,.87,1.35C39,50.55,39,50.53,37.87,50.43Zm-.56,1.94a2.37,2.37,0,0,0-.62,2.83ZM73.57,38.83l.69.51.9-1.3C74.31,37.72,74.26,38.66,73.57,38.83ZM39.33,35.47a1,1,0,0,0,1-.74c.06-.13-.29-.43-.52-.75ZM35.44,54.9a2.54,2.54,0,0,0,.5-2.72Zm4.37-17.09-.45,1.67A1.57,1.57,0,0,0,40.14,38C40.13,37.94,39.93,37.88,39.81,37.81Zm19.59,7,1.06-.53-.05-.11-1-.19Zm7.81,1.09-.6,1.64C67.32,47.06,67.48,46.61,67.21,45.93Zm-30.2,4,.5,1,.15-.08C37.59,50.44,37.94,49.87,37,49.93ZM38,39.25h.13l.35-1.2-.8.4ZM35,56.18l-.61,1.19C35.06,57.47,35.07,57.45,35,56.18ZM54.24,38.6l-.14.15c.15.16.26.36.44.44s.28-.16.56-.34Zm16,2.67-.47,1C70.25,42.11,70.62,41.92,70.25,41.27ZM36.71,50.08,37,50l-.26-.86c-.11.06-.31.15-.3.17C36.49,49.57,36.61,49.82,36.71,50.08Zm14.6-11.31-.56.6.64.41Z"/></svg>