<svg id="Livello_1" data-name="Livello 1" xmlns="http://www.w3.org/2000/svg" viewBox="0 0 100 66"><defs><style>.cls-1{fill:#030402;}</style></defs><title>iconTavola disegno 36</title><path class="cls-1" d="M73.79,1.36H25L11.86,21.06,49.35,65.28,86.86,21.51ZM46.56,7.69,37.42,18.22l-7-10.53Zm-19,1.21,6.86,10.3H20.71ZM21.15,22.22H26.7L39.2,45.13Zm9.06,0h6l8.68,28.67ZM47.89,54l-8.5-31.73h8.78Zm.32-34.75H40.58l7.73-8.91Zm29.6,0H65.16L71.22,9ZM68.5,7.69,62.26,18.14,53.19,7.69ZM51.34,10.18l7.83,9H51.24Zm-.14,12h9.1L50.91,54.6Zm12.34,0h5L54.6,49.49Zm8.5,0h5.87L59.27,45.63Z"/></svg>