<svg id="Livello_1" data-name="Livello 1" xmlns="http://www.w3.org/2000/svg" viewBox="0 0 100 66"><defs><style>.cls-1{fill:#060606;}</style></defs><title>iconTavola disegno 78</title><path class="cls-1" d="M69.57,25.63a15.21,15.21,0,0,0-2.35.2L64.42,13.7h9.49a2.17,2.17,0,1,1,0,4.34H71.74v2.17h2.17a4.34,4.34,0,0,0,0-8.68H63.06a1.09,1.09,0,0,0-.85.41,1.12,1.12,0,0,0-.21.92l1.7,7.35h-20L42.92,18h5a3.26,3.26,0,0,0,0-6.51H37a4.34,4.34,0,0,0,0,8.68,1.12,1.12,0,0,0,.77-.32L39.65,18h1l1,2.73-.07-.05-4,6.62a15,15,0,0,0-7-1.71A15.19,15.19,0,1,0,45.65,41.9H50a1.09,1.09,0,0,0,.86-.42L55.19,36A15.18,15.18,0,1,0,69.57,25.63Zm-5-1.71.55,2.38a15.3,15.3,0,0,0-3.79,1.78ZM39.2,15.87a1.06,1.06,0,0,0-.77.32L36.62,18A2.17,2.17,0,0,1,37,13.7H47.88a1.09,1.09,0,0,1,0,2.17Zm-1,14.46a13,13,0,0,1,5.28,9.4h-11Zm-7.68,23.5a13,13,0,1,1,5.83-24.64L29.59,40.25a1.09,1.09,0,0,0,.93,1.65h13A13,13,0,0,1,30.52,53.83Zm15.13-14.1a15.15,15.15,0,0,0-6.32-11.26l3.18-5.2,6,16.46Zm4.74-1.13-5.9-16.22H63ZM69.57,53.83a13,13,0,0,1-4-25.41l2.92,12.64,2.11-.49L67.71,28a12.73,12.73,0,0,1,1.86-.15,13,13,0,0,1,0,26Z"/><path class="cls-1" d="M78.24,40.81a8.68,8.68,0,0,1-8.67,8.68v2.17A10.86,10.86,0,0,0,80.41,40.81Z"/><path class="cls-1" d="M19.67,40.81h2.17a8.69,8.69,0,0,1,8.68-8.67V30A10.86,10.86,0,0,0,19.67,40.81Z"/><path class="cls-1" d="M27.27,11.52c-.52.55-1,1.13-1.51,1.71l1.67,1.38c.45-.54.93-1.08,1.41-1.59Z"/><path class="cls-1" d="M30.65,8.45c-.6.47-1.18,1-1.74,1.48l1.46,1.6c.52-.47,1.07-.93,1.62-1.37Z"/><path class="cls-1" d="M34.44,5.9c-.66.38-1.31.79-1.94,1.21l1.21,1.8c.59-.39,1.2-.77,1.81-1.12Z"/><path class="cls-1" d="M38.56,3.93c-.7.28-1.41.58-2.1.91l.94,2c.64-.31,1.3-.59,2-.85Z"/><path class="cls-1" d="M24.37,15.05c-.44.61-.86,1.26-1.25,1.91L25,18.08c.37-.61.76-1.2,1.17-1.78Z"/><path class="cls-1" d="M20.23,23.17c-.24.72-.46,1.45-.65,2.19l2.1.54c.18-.68.38-1.37.61-2Z"/><path class="cls-1" d="M22,19c-.35.67-.67,1.37-1,2.07l2,.84c.27-.65.58-1.3.9-1.93Z"/><path class="cls-1" d="M67,6.75,65.87,8.58c.59.38,1.18.79,1.75,1.21l1.3-1.73C68.31,7.6,67.68,7.16,67,6.75Z"/><path class="cls-1" d="M63,4.57l-.89,2c.64.29,1.28.61,1.9,1l1-1.9C64.41,5.22,63.72,4.88,63,4.57Z"/><path class="cls-1" d="M42.92,2.58c-.74.17-1.48.37-2.2.59l.64,2.08c.67-.21,1.36-.4,2-.56Z"/><path class="cls-1" d="M58.75,3l-.6,2.08c.67.2,1.35.42,2,.67l.75-2C60.2,3.44,59.47,3.2,58.75,3Z"/><path class="cls-1" d="M47.43,1.88c-.76.06-1.52.15-2.27.26l.34,2.15c.69-.11,1.4-.19,2.11-.25Z"/><path class="cls-1" d="M54.27,2.05,54,4.2c.7.09,1.4.21,2.09.36l.45-2.12C55.78,2.28,55,2.15,54.27,2.05Z"/><path class="cls-1" d="M50,1.77h-.33l0,2.17H50c.62,0,1.22,0,1.83.05L52,1.83C51.35,1.79,50.7,1.77,50,1.77Z"/><path class="cls-1" d="M33.93,57.68l-1.2,1.81c.64.42,1.3.82,2,1.19l1.06-1.89C35.14,58.44,34.52,58.07,33.93,57.68Z"/><path class="cls-1" d="M37.64,59.76l-.92,2c.68.32,1.39.62,2.1.9l.78-2C38.93,60.34,38.27,60.06,37.64,59.76Z"/><path class="cls-1" d="M67.82,56.49c-.56.43-1.14.84-1.73,1.23l1.19,1.82c.64-.42,1.26-.87,1.86-1.32Z"/><path class="cls-1" d="M56.34,61.83c-.69.15-1.4.28-2.09.38l.3,2.15c.76-.11,1.51-.25,2.25-.41Z"/><path class="cls-1" d="M64.27,58.83c-.62.34-1.26.67-1.9,1l.92,2c.69-.32,1.37-.67,2-1Z"/><path class="cls-1" d="M60.41,60.62c-.66.25-1.34.48-2,.68L59,63.38c.72-.22,1.45-.46,2.16-.73Z"/><path class="cls-1" d="M45.76,62.2l-.31,2.14c.75.11,1.51.2,2.27.25l.16-2.16C47.17,62.38,46.46,62.3,45.76,62.2Z"/><path class="cls-1" d="M52.13,62.43c-.69,0-1.39.08-2.13.08l0,2.17c.75,0,1.51,0,2.24-.08Z"/><path class="cls-1" d="M41.61,61.27,41,63.35c.72.22,1.47.41,2.21.58l.47-2.12C43,61.66,42.29,61.48,41.61,61.27Z"/></svg>