<svg id="Livello_1" data-name="Livello 1" xmlns="http://www.w3.org/2000/svg" viewBox="0 0 100 66"><title>iconTavola disegno 76</title><path d="M63.41,35.62c-1.19.8-2.3,1.5-3.36,2.26a1.82,1.82,0,0,0-.5.8L54.87,50.13a2.18,2.18,0,0,1-.09.23A16.21,16.21,0,0,0,53,54.77a3.38,3.38,0,0,1-3.24,2.6,3.83,3.83,0,0,1-4-2,1.12,1.12,0,0,0-1.18-.69c-1.15.05-2.3,0-3.44,0A12.47,12.47,0,0,1,29.34,65.55,12.32,12.32,0,0,1,17.52,57.8,12.11,12.11,0,0,1,21.11,44a12.33,12.33,0,0,1,15.42-.18c1-1,2.12-2.1,3.15-3.18a.77.77,0,0,0,0-.64c-.36-1.09-.71-2.19-1.14-3.26a1.61,1.61,0,0,0-.75-.68,8.57,8.57,0,0,0-1.16-.3,1.36,1.36,0,1,1,.67-2.64c.79.17,1.57.39,2.34.59,1,.26,2,.51,3,.81a1.25,1.25,0,0,1,1,1.61c-.12.67-.74,1-1.61,1L41.62,37l.84,2.43L48.84,38q4.35-1,8.7-2a4.12,4.12,0,0,0,1.25-.51c1.22-.77,2.43-1.57,3.62-2.39a1.73,1.73,0,0,0,.55-.75c.26-.68.38-1.41.68-2.06s.11-1.07-.37-1.59-1-.74-1.7-.27a4.53,4.53,0,0,1-1,.5,1.34,1.34,0,0,1-1.7-.64,1.28,1.28,0,0,1,.43-1.71,19.29,19.29,0,0,1,3-1.48,1.74,1.74,0,0,1,1.44.34A20.84,20.84,0,0,1,66.38,28a2.46,2.46,0,0,1,.36,1.47,2.24,2.24,0,0,1-.34,1.06A6.5,6.5,0,0,0,66.31,36c.51,1.52.88,3.09,1.26,4.65.12.51.34.61.83.58a12.17,12.17,0,1,1-4,1.09c.57-.26.73-.49.54-1.13C64.37,39.4,63.92,37.55,63.41,35.62Zm2.41,9.08A9.44,9.44,0,1,0,78.41,50c-1.55-4-6.68-7.1-9.89-5.89,0,.23.1.46.16.69.71,2.66,1.43,5.33,2.13,8a1.39,1.39,0,0,1-.87,1.88,1.35,1.35,0,0,1-1.74-1.11c-.27-.92-.5-1.86-.75-2.79Q66.64,47.72,65.82,44.7ZM38.2,54.7c-1.61,0-3.16,0-4.72,0a1,1,0,0,0-1,.62,4,4,0,0,1-5.05,1.82A4.06,4.06,0,0,1,25,52.34a3.87,3.87,0,0,1,4.51-3,2.07,2.07,0,0,0,2.3-.81c.74-.81,1.55-1.56,2.33-2.34.14-.14.25-.31.38-.46A9.45,9.45,0,1,0,38.2,54.7Zm13.69-4.53L56.45,39l-13.09,3,2.91,8.38C48.41,49,49.54,48.92,51.89,50.17ZM41,51.93h2.86L41,43.45l-2.45,2.4A12.47,12.47,0,0,1,41,51.93Zm-4.41-4.35c-1.39,1.38-2.55,2.52-3.69,3.68a1.92,1.92,0,0,0-.28.53,2.16,2.16,0,0,0,.64.2c1.26,0,2.51,0,3.77,0h1.43Zm-6.41,5.76a1.33,1.33,0,1,0-1.29,1.33A1.3,1.3,0,0,0,30.21,53.34Zm20.33,0A1.28,1.28,0,0,0,49.27,52a1.32,1.32,0,1,0-.06,2.64A1.29,1.29,0,0,0,50.54,53.37Z"/><path d="M38.16,21l4.2-5.43Q47.83,8.54,53.29,1.46C54.18.32,55,.27,55.92,1.33q6.77,7.47,13.5,15c.72.8.77,1.55.16,2.13a1.47,1.47,0,0,1-2.18-.3c-1.77-1.94-3.53-3.9-5.29-5.86l-.6-.63c-.5,1-1,1.92-1.45,2.84s-1.08,1.23-2.17.79c-.62-.24-1.26-.46-1.86-.76a22.58,22.58,0,0,0-7.34-2,.81.81,0,0,0-.62.19c-2.63,3.35-5.23,6.73-7.86,10.13l2.95,2.81c1.07,1,1.25,1.77.61,2.45s-1.41.56-2.48-.46c-1.65-1.57-3.31-3.13-5-4.77-.94.84-1.81,1.61-2.68,2.4-1.8,1.62-1.8,1.63-3.84.36l-1.25-.77c-1,1.47-2,2.9-2.91,4.36-2.09,3.25-4.15,6.52-6.24,9.77a1.38,1.38,0,0,1-2,.61c-.69-.47-.79-1.25-.23-2.12L30.31,16.92a1.4,1.4,0,0,1,2.36-.35C34.49,18,36.29,19.51,38.16,21Zm19.9-8.65c.47-.94.93-1.82,1.35-2.71a.55.55,0,0,0-.07-.48c-1.51-1.69-3-3.37-4.62-5.12l-4.65,6C53.05,10.14,55.5,11.33,58.06,12.38ZM29.93,22.54c.45.28.8.53,1.18.72.15.07.44.11.54,0,.79-.66,1.55-1.36,2.38-2.09l-2.11-1.72Z"/><path d="M81.78,38.37a1.39,1.39,0,0,1-1,1.4,1.26,1.26,0,0,1-1.53-.58A7.78,7.78,0,0,1,78.72,38L74,27.2a6.74,6.74,0,0,1-.3-.74,1.35,1.35,0,0,1,2.26-1.32,2.16,2.16,0,0,1,.42.68q2.6,5.92,5.18,11.85A6.53,6.53,0,0,1,81.78,38.37Z"/><path d="M73.6,21.46a1.31,1.31,0,0,1-1.38,1.34,1.36,1.36,0,0,1-1.33-1.33,1.33,1.33,0,0,1,1.4-1.33A1.27,1.27,0,0,1,73.6,21.46Z"/></svg>