<svg id="Livello_1" data-name="Livello 1" xmlns="http://www.w3.org/2000/svg" viewBox="0 0 100 66"><defs><style>.cls-1{fill:#060606;}</style></defs><title>iconTavola disegno 133</title><path class="cls-1" d="M74.38,24.57h-.49a18.21,18.21,0,0,0-16.15,9.82,15.28,15.28,0,0,0-16.21,2.2,57.09,57.09,0,0,0-.67-7,40.92,40.92,0,0,1-.53-5.07h7.1a4.16,4.16,0,0,0,3-1.24L56,17.71a4.2,4.2,0,0,0,.09-5.83A4.2,4.2,0,0,0,55,6L51.54,3.77A10,10,0,0,0,46,2.09,15.38,15.38,0,0,0,35.05,6.62,59.9,59.9,0,0,0,22.46,24.94c-3.59,8.16-5.41,14.18-5.41,17.9A19.71,19.71,0,0,1,16.51,48a6.22,6.22,0,0,0,3,7.1,67.13,67.13,0,0,0,33.29,8.84h2A66.89,66.89,0,0,0,76,60.47l1-.33a9.82,9.82,0,0,0,6.72-9.33V34.42A9.8,9.8,0,0,0,74.38,24.57Zm6.53,26.24a7,7,0,0,1-4.8,6.67l-1,.33A64.34,64.34,0,0,1,54.8,61.1h-2a64.32,64.32,0,0,1-31.9-8.47,3.43,3.43,0,0,1-1.66-3.89,22,22,0,0,0,.65-5.9c0-3.28,1.79-9.07,5.17-16.77A57,57,0,0,1,37,8.61,12.54,12.54,0,0,1,46,4.9a7.15,7.15,0,0,1,4,1.21l3.41,2.27a1.41,1.41,0,0,1,.22,2.16L49.12,15a1.58,1.58,0,0,1-1.82.3,1.55,1.55,0,0,1-.85-1.16,1.57,1.57,0,0,1,.44-1.37l1.29-1.29a1.4,1.4,0,0,0-2-2l-1.29,1.3a4.38,4.38,0,0,0,1.14,7A4.38,4.38,0,0,0,51.11,17l3.07-3.08a1.41,1.41,0,0,1-.13,1.79l-5.62,5.62a1.45,1.45,0,0,1-1,.41H40.87a1.77,1.77,0,0,1,.29-.41,1.41,1.41,0,0,0-2-2c-2.3,2.3-1.74,6.18-1.09,10.68a51.51,51.51,0,0,1,.68,7.18c0,5.78-4.38,7-4.57,7.07a1.4,1.4,0,0,0,.35,2.76,1.32,1.32,0,0,0,.34,0,9.17,9.17,0,0,0,5.83-5.35s0,0,.07-.06a12.65,12.65,0,0,1,19.53-2.13,1.4,1.4,0,0,0,2-2,15.4,15.4,0,0,0-2.1-1.71,15.39,15.39,0,0,1,13.7-8.39h.41a7,7,0,0,1,6.61,7V50.81Z"/></svg>