<svg id="Livello_1" data-name="Livello 1" xmlns="http://www.w3.org/2000/svg" viewBox="0 0 100 66"><defs><style>.cls-1{fill:#060606;}</style></defs><title>iconTavola disegno 93</title><g id="Solid"><path class="cls-1" d="M45.82,3.5h3.52a1.17,1.17,0,0,1,.83.34l2.35,2.35a1.18,1.18,0,0,1,.35.83V8.2H55.8c.6,0,1.18,0,1.77.05V7.59a5.87,5.87,0,0,0-1.72-4.15l-3-3L52.52.8A1.15,1.15,0,0,1,51.17,1L49.57.23,49,.8A1.17,1.17,0,0,1,47.64,1L46.05.23,45.47.8A1.15,1.15,0,0,1,44.12,1L43.47.7v.45A2.36,2.36,0,0,0,45.82,3.5Z"/><path class="cls-1" d="M81.22,57.36a3.9,3.9,0,0,0-2.85,1L76,60.73a1.17,1.17,0,0,1-.83.34H72.84V58.72h1.39A27.6,27.6,0,0,0,55.8,10.55H44.64a1.18,1.18,0,0,1-.83-.35A6.76,6.76,0,0,0,39,8.2a7.74,7.74,0,0,0-5.53,2.29l-.89.89a1.17,1.17,0,0,1-.83.34H24.39a5.07,5.07,0,0,1-2.23-.52l-.74-.38a2.62,2.62,0,0,0-3.8,2.35v2.08a1.17,1.17,0,0,1,.52.12l1.83.91,1.82-.91a1.18,1.18,0,0,1,.53-.12h1.17a1.24,1.24,0,0,1,.53.12l1.82.91,1.83-.91a1.17,1.17,0,0,1,.52-.12h1.18a1.17,1.17,0,0,1,.52.12l1.83.91,1.82-.91a1.18,1.18,0,0,1,.53-.12h4.78a8.09,8.09,0,0,1,3.89.6,5.6,5.6,0,0,1,3.08,4.93v.68A5.55,5.55,0,0,1,40.28,27H32l5.32,2.65a8.23,8.23,0,0,0,3.68.87h7.18v2.35a1.18,1.18,0,0,1-.35.83l-2.35,2.35a1.18,1.18,0,0,1-.83.35H41.12a2.35,2.35,0,0,0-2.35,2.35v.45l.65-.33a1.15,1.15,0,0,1,1.35.22l.58.58,1.59-.8a1.17,1.17,0,0,1,1.36.22l.57.58,1.6-.8a1.17,1.17,0,0,1,1.35.22l.35.34,3-3a5.89,5.89,0,0,0,1.72-4.16V28.17h2.35v3.49a12.21,12.21,0,0,1-2.64,23l-23.78,5c1.39-.07,2.76-.16,4.1-.26l.18,2.34c-1.54.12-3.13.22-4.73.3l-.11-2.26-4.66,1,0,1.44c-1.2,0-2.43,0-3.64,0v-.09a6.1,6.1,0,0,0-2.24,3.61h.87l0-1.19c1.47,0,3.05-.06,4.68-.12l0,1.31H28l-.08-1.52c1.55-.09,3.12-.18,4.68-.3l.13,1.82h4.73l-.19-2.19c1.58-.14,3.15-.29,4.66-.45l.25,2.34-3,.3H55.8A27.57,27.57,0,0,0,65,64.2l1.6-1.61,1.46,1.46a5.81,5.81,0,0,0,4.16,1.72h4.13V64.6a1.17,1.17,0,0,1,1.17-1.18h1.18V62.25a1.17,1.17,0,0,1,1.17-1.18h1.18V59.9a1.17,1.17,0,0,1,1.17-1.18h.84l-.11-.4A2.39,2.39,0,0,0,81.22,57.36ZM39.94,12.9H37.59V10.55h2.35Zm12.93,9.4h-4.7V20h4.7Zm0-5.88h-4.7V14.07h4.7ZM37.81,61.3,37.54,59c1.58-.17,3.14-.38,4.62-.61l.36,2.33C41,60.91,39.42,61.12,37.81,61.3Zm9.09,3.62-.3-2.33c1.61-.21,3.17-.44,4.62-.67l.37,2.33c-1.48.23-3.06.45-4.69.67Zm.3-5.07-.46-2.31c1.57-.31,3.09-.66,4.51-1l.6,2.27c-1.47.39-3,.75-4.65,1.08Zm8.47-4.69a43.23,43.23,0,0,0,4.24-1.72l1,2.13a48,48,0,0,1-4.47,1.81Zm.6,8.26-.46-2.31c1.66-.32,3.17-.67,4.51-1l.61,2.27c-1.39.37-3,.73-4.66,1.07ZM78.43,46.5l-2.21-.8a21.54,21.54,0,0,0,1.09-4.32l2.33.34A23.93,23.93,0,0,1,78.43,46.5Zm1.42-9.71-2.35.15a21.84,21.84,0,0,0-.72-4.4l2.27-.61a24.29,24.29,0,0,1,.8,4.86ZM74.61,23.18a23.85,23.85,0,0,1,2.67,4.15l-2.09,1.06a21.89,21.89,0,0,0-2.41-3.74ZM74,36.34l-2.34.21a15.64,15.64,0,0,0-1-4.25l2.2-.84A18.23,18.23,0,0,1,74,36.34ZM67.07,16.91a23.6,23.6,0,0,1,4.09,2.75l-1.5,1.81A21.91,21.91,0,0,0,66,19ZM67,23.49a18,18,0,0,1,3.51,3.58l-1.9,1.4a15.5,15.5,0,0,0-3-3.12Zm-9.29-9.34a24.23,24.23,0,0,1,4.85.89l-.66,2.26a21.81,21.81,0,0,0-4.38-.81Zm4.07,9.09a15.37,15.37,0,0,0-4.24-.91L57.65,20A17.51,17.51,0,0,1,62.55,21Zm5.59,25.21L69,50.1a23.79,23.79,0,0,1-3.83,3.11l-1.3-2a21.13,21.13,0,0,0,3.45-2.8Zm.28,11.34a15.78,15.78,0,0,1-2,1l-.92-2.17a12.17,12.17,0,0,0,1.73-.87,23.58,23.58,0,0,0,2-1.4l1.43,1.86a24.37,24.37,0,0,1-2.22,1.54Zm3.8-18.9,2.31.47A17.25,17.25,0,0,1,72,46.08L69.92,45A14.1,14.1,0,0,0,71.4,40.89Zm.26,12.45a24,24,0,0,0,2.65-3.6l2,1.2a25.64,25.64,0,0,1-2.9,4Z"/><path class="cls-1" d="M20,24.65H40.28a3.21,3.21,0,0,0,3.19-3.19v-.68a3.19,3.19,0,0,0-3.19-3.18h-.1a3.17,3.17,0,0,0-2.64,1.56l-.1.2-1.15,2.29a1.18,1.18,0,0,1-1,.65H17.62A2.36,2.36,0,0,0,20,24.65Z"/><path class="cls-1" d="M49.34,44.62V45.8A1.17,1.17,0,0,1,48.17,47H47v1.18a1.17,1.17,0,0,1-1.17,1.17H44.64v4.61l4.7-1V50.5a1.18,1.18,0,0,1,.35-.83L52,47.32a3.9,3.9,0,0,0,1-2.85,2.44,2.44,0,0,0-1-1.75l-.4-.11v.84a1.17,1.17,0,0,1-1.17,1.17Z"/></g></svg>