<svg id="Livello_1" data-name="Livello 1" xmlns="http://www.w3.org/2000/svg" viewBox="0 0 100 66"><defs><style>.cls-1{fill:#060606;}</style></defs><title>iconTavola disegno 130</title><path class="cls-1" d="M87.7,27.16a7.73,7.73,0,0,0-7.7,0l-.17.11a69.13,69.13,0,0,0,1-14.23A7.7,7.7,0,0,0,86.06,1.63a1.38,1.38,0,0,0-1.21-.7h0A7.7,7.7,0,0,0,78,12.16q.06,1.48.06,2.91a7.69,7.69,0,0,0-5.66-2.49h0a1.37,1.37,0,0,0-1.2.7,7.69,7.69,0,0,0,6.2,11.53,44.23,44.23,0,0,1-3.44,12,7.74,7.74,0,0,0-3.46-4.26,1.4,1.4,0,0,0-1.4,0,7.69,7.69,0,0,0-.69,12.88C63.57,51,57.77,54.15,53.05,56.73l-.35.19-.36-.19C47.63,54.15,41.82,51,37,45.46a7.7,7.7,0,0,0-.7-12.88,1.38,1.38,0,0,0-1.39,0,7.69,7.69,0,0,0-3.46,4.26,44.22,44.22,0,0,1-3.45-12A7.69,7.69,0,0,0,34.2,13.28a1.38,1.38,0,0,0-1.21-.7h0a7.69,7.69,0,0,0-5.66,2.49q0-1.43.06-2.91A7.7,7.7,0,0,0,20.55.93h0a1.38,1.38,0,0,0-1.21.7A7.7,7.7,0,0,0,24.57,13a69.16,69.16,0,0,0,1,14.23l-.16-.11a7.73,7.73,0,0,0-7.7,0,1.38,1.38,0,0,0-.7,1.21,7.7,7.7,0,0,0,10.8,7.05,39.41,39.41,0,0,0,5.43,9.89,39.57,39.57,0,0,0,2.6,3,7.74,7.74,0,0,0-6.48,3.85,1.4,1.4,0,0,0,0,1.4A7.71,7.71,0,0,0,42.43,54a78.3,78.3,0,0,0,7.4,4.51h0a1.4,1.4,0,0,0,.71,2.6,1.38,1.38,0,0,0,.7-.2l1.48-.84c2.69,1.5,4.9,2.87,5.91,4.36a1.39,1.39,0,0,0,1.15.61,1.33,1.33,0,0,0,.78-.24,1.39,1.39,0,0,0,.38-1.93,15.86,15.86,0,0,0-5.35-4.37A78.3,78.3,0,0,0,63,54a7.71,7.71,0,0,0,13.08-.41,1.4,1.4,0,0,0,0-1.4,7.74,7.74,0,0,0-6.48-3.85,37.39,37.39,0,0,0,2.59-3,38.79,38.79,0,0,0,5.43-9.89,7.7,7.7,0,0,0,10.81-7,1.4,1.4,0,0,0-.7-1.21ZM69.8,35.48a4.91,4.91,0,0,1,0,7.53,4.91,4.91,0,0,1,0-7.53Zm-34.21,0a4.91,4.91,0,0,1,0,7.53,4.93,4.93,0,0,1,0-7.53ZM28.74,17.82a4.94,4.94,0,0,1,3.4-2.38A4.91,4.91,0,0,1,28.38,22,4.94,4.94,0,0,1,28.74,17.82Zm-7-9.89a4.94,4.94,0,0,1-.36-4.14,4.91,4.91,0,0,1,3.77,6.52A4.91,4.91,0,0,1,21.75,7.93Zm.49,24.69a4.92,4.92,0,0,1-2.38-3.4A4.91,4.91,0,0,1,26.38,33a4.9,4.9,0,0,1-4.14-.36ZM36,54.67a4.92,4.92,0,0,1-3.76-1.76,4.91,4.91,0,0,1,7.53,0A5,5,0,0,1,36,54.67ZM80.6,6.17A4.94,4.94,0,0,1,84,3.79a4.91,4.91,0,0,1-3.76,6.52,4.94,4.94,0,0,1,.36-4.14ZM77,22a4.91,4.91,0,0,1-3.77-6.52A4.91,4.91,0,0,1,77,22ZM73.15,52.91a4.91,4.91,0,0,1-7.53,0,4.91,4.91,0,0,1,7.53,0Zm10-20.29A4.9,4.9,0,0,1,79,33a4.91,4.91,0,0,1,6.52-3.76A4.89,4.89,0,0,1,83.15,32.62Z"/><path class="cls-1" d="M50.81,41.91a2.53,2.53,0,0,0,1.88.85h0a2.53,2.53,0,0,0,1.87-.84c2.89-3.19,5.78-6.51,8.57-9.72l4.24-4.86a2.64,2.64,0,0,0,.16-3.29l-4.83-7.31a2.54,2.54,0,0,0-2.1-1.14H44.78a2.51,2.51,0,0,0-2.18,1.28l-4.8,7.26a2.63,2.63,0,0,0,.21,3.2ZM46.29,27l3.18,9.17-8-9.17Zm8.35-8.6,1.63,5.81H49.12l1.63-5.81ZM56.15,27l-3.45,10L49.24,27ZM61,30.37c-1.7,1.94-3.42,3.93-5.16,5.89L59.11,27H64L61,30.37ZM64.3,24.2H59.17l-1.64-5.81h2.92ZM44.94,18.39h2.92L46.22,24.2H41.1Z"/><path class="cls-1" d="M45.63,62.28h0a1.4,1.4,0,1,0,1.4,1.4A1.4,1.4,0,0,0,45.63,62.28Z"/></svg>