<svg id="Livello_1" data-name="Livello 1" xmlns="http://www.w3.org/2000/svg" viewBox="0 0 100 66"><defs><style>.cls-1{fill:#060606;}</style></defs><title>iconTavola disegno 62</title><path class="cls-1" d="M81.11,35.77,79,34.49a1.74,1.74,0,0,1,0-3l2.09-1.28A1.24,1.24,0,0,0,81.69,29l-.52-3a1.25,1.25,0,0,0-1-1l-2.4-.48a1.75,1.75,0,0,1-1-2.81l1.53-1.91a1.24,1.24,0,0,0,.1-1.4l-1.51-2.63a1.27,1.27,0,0,0-1.27-.61l-2.42.37a1.73,1.73,0,0,1-1.6-.6,1.71,1.71,0,0,1-.32-1.68l.78-2.33a1.22,1.22,0,0,0-.38-1.35L69.35,7.58A1.24,1.24,0,0,0,68,7.44L65.8,8.62a1.74,1.74,0,0,1-2.58-1.5l-.06-2.45a1.25,1.25,0,0,0-.82-1.14l-2.85-1a1.26,1.26,0,0,0-1.36.35L56.51,4.68a1.74,1.74,0,0,1-2.94-.52l-.89-2.28a1.25,1.25,0,0,0-1.17-.79h-3a1.25,1.25,0,0,0-1.17.79l-.89,2.28a1.74,1.74,0,0,1-2.94.52L41.87,2.84a1.26,1.26,0,0,0-1.36-.35l-2.85,1a1.25,1.25,0,0,0-.82,1.14l-.06,2.45a1.74,1.74,0,0,1-2.58,1.5L32.05,7.44a1.24,1.24,0,0,0-1.4.14L28.33,9.53A1.22,1.22,0,0,0,28,10.88l.78,2.33a1.71,1.71,0,0,1-.32,1.68,1.73,1.73,0,0,1-1.6.6l-2.42-.37a1.27,1.27,0,0,0-1.27.61l-1.51,2.63a1.24,1.24,0,0,0,.1,1.4l1.53,1.91a1.75,1.75,0,0,1-1,2.81l-2.4.48a1.25,1.25,0,0,0-1,1l-.52,3a1.24,1.24,0,0,0,.58,1.28L21,31.51a1.74,1.74,0,0,1,0,3l-2.09,1.28a1.24,1.24,0,0,0-.58,1.28l.52,3a1.25,1.25,0,0,0,1,1l2.4.48a1.75,1.75,0,0,1,1,2.81l-1.53,1.91a1.24,1.24,0,0,0-.1,1.4l1.51,2.63a1.27,1.27,0,0,0,1.27.61l2.42-.37a1.73,1.73,0,0,1,1.6.6,1.71,1.71,0,0,1,.32,1.68L28,55.12a1.22,1.22,0,0,0,.38,1.35l2.32,2a1.24,1.24,0,0,0,1.4.14l2.15-1.18a1.74,1.74,0,0,1,2.58,1.5l.06,2.45a1.25,1.25,0,0,0,.82,1.14l2.85,1a1.26,1.26,0,0,0,1.36-.35l1.62-1.84a1.74,1.74,0,0,1,2.94.52l.89,2.28a1.25,1.25,0,0,0,1.17.79h3a1.25,1.25,0,0,0,1.17-.79l.89-2.28a1.74,1.74,0,0,1,2.94-.52l1.62,1.84a1.26,1.26,0,0,0,1.36.35l2.85-1a1.25,1.25,0,0,0,.82-1.14l.06-2.45a1.74,1.74,0,0,1,2.58-1.5L68,58.56a1.24,1.24,0,0,0,1.4-.14l2.32-2a1.22,1.22,0,0,0,.38-1.35l-.78-2.33a1.71,1.71,0,0,1,.32-1.68,1.73,1.73,0,0,1,1.6-.6l2.42.37a1.27,1.27,0,0,0,1.27-.61l1.51-2.63a1.24,1.24,0,0,0-.1-1.4l-1.53-1.91a1.75,1.75,0,0,1,1-2.81l2.4-.48a1.25,1.25,0,0,0,1-1l.52-3A1.24,1.24,0,0,0,81.11,35.77Zm-2.25,3-1.57.32a4.24,4.24,0,0,0-2.48,6.8l1,1.25-.66,1.15L73.56,48a4.24,4.24,0,0,0-4.65,5.55l.51,1.52-1,.85L67,55.2a4.24,4.24,0,0,0-6.28,3.62l0,1.6-1.25.45-1.06-1.2a4.24,4.24,0,0,0-7.13,1.26l-.59,1.49H49.34l-.59-1.49a4.24,4.24,0,0,0-7.13-1.26l-1.06,1.2-1.25-.45,0-1.6A4.24,4.24,0,0,0,33,55.2L31.6,56l-1-.85.51-1.52A4.24,4.24,0,0,0,26.44,48l-1.59.24-.66-1.14,1-1.26a4.24,4.24,0,0,0-2.48-6.8l-1.57-.32-.23-1.31,1.37-.83a4.24,4.24,0,0,0,0-7.24l-1.37-.84.23-1.3,1.57-.32a4.24,4.24,0,0,0,2.48-6.8l-1-1.26.66-1.14,1.59.24a4.24,4.24,0,0,0,4.65-5.55l-.51-1.52,1-.85,1.4.76a4.24,4.24,0,0,0,6.28-3.62l0-1.6,1.25-.45,1.06,1.2a4.24,4.24,0,0,0,7.13-1.26l.59-1.49h1.32l.59,1.49a4.24,4.24,0,0,0,7.13,1.26l1.06-1.2,1.25.45,0,1.6A4.25,4.25,0,0,0,67,10.8L68.4,10l1,.85-.51,1.52A4.24,4.24,0,0,0,73.56,18l1.59-.24.66,1.14-1,1.26a4.24,4.24,0,0,0,2.48,6.8l1.57.32.23,1.3-1.37.84a4.24,4.24,0,0,0,0,7.24l1.37.83Z"/><path class="cls-1" d="M50.08,19.29H50a1.25,1.25,0,1,0,0,2.49h.08a1.25,1.25,0,0,0,0-2.49Z"/><path class="cls-1" d="M55.18,20.3a1.25,1.25,0,1,0-.94,2.31,11.21,11.21,0,1,1-8.82.14,1.24,1.24,0,1,0-1-2.27,13.71,13.71,0,1,0,10.78-.18Z"/><path class="cls-1" d="M33.12,28.29A4,4,0,0,0,30.19,27h-.06a4,4,0,0,0-3.94,3.57c-.08.81-.12,1.63-.12,2.44q0,.91.06,1.83a4,4,0,0,0,3.95,3.63h.06a3.94,3.94,0,0,0,4-4.25c0-.4-.05-.81-.05-1.21s0-1.09.08-1.62A4,4,0,0,0,33.12,28.29Zm-1.48,2.84c-.06.62-.09,1.25-.09,1.87s0,.94.05,1.4a1.43,1.43,0,0,1-.38,1.1,1.48,1.48,0,0,1-1.08.47h-.06a1.46,1.46,0,0,1-1.46-1.33c0-.54-.06-1.1-.06-1.64,0-.73,0-1.46.11-2.18a1.47,1.47,0,0,1,1.46-1.33h.06a1.45,1.45,0,0,1,1.08.48A1.47,1.47,0,0,1,31.64,31.13Z"/><path class="cls-1" d="M68.25,42.86l0,0a4,4,0,0,0-3-1.17,4,4,0,0,0-2.85,1.44h0a15.83,15.83,0,0,1-2,2A4.06,4.06,0,0,0,59,48a4,4,0,0,0,1.16,3l0,0a4,4,0,0,0,5.37.21,25.09,25.09,0,0,0,3-3A4,4,0,0,0,68.25,42.86ZM66.58,46.6a22.87,22.87,0,0,1-2.67,2.72,1.49,1.49,0,0,1-2-.08l0-.05a1.41,1.41,0,0,1-.42-1.08A1.46,1.46,0,0,1,62,47a18.75,18.75,0,0,0,2.29-2.34,1.43,1.43,0,0,1,1-.52,1.5,1.5,0,0,1,1.14.43l0,0A1.46,1.46,0,0,1,66.58,46.6Z"/><path class="cls-1" d="M41,48a4.06,4.06,0,0,0-1.4-2.88,15.83,15.83,0,0,1-2-2,3.9,3.9,0,0,0-2.85-1.43,4,4,0,0,0-3,1.16l0,0a4,4,0,0,0-.26,5.31,24.37,24.37,0,0,0,3,3A4,4,0,0,0,39.84,51l0,0A4,4,0,0,0,41,48Zm-2.92,1.18,0,.05a1.49,1.49,0,0,1-2,.08,22.87,22.87,0,0,1-2.67-2.72,1.46,1.46,0,0,1,.1-2l0,0h0a1.52,1.52,0,0,1,1.06-.44h.08a1.43,1.43,0,0,1,1,.52A18.75,18.75,0,0,0,38,47a1.46,1.46,0,0,1,.52,1.08A1.41,1.41,0,0,1,38.12,49.19Z"/><path class="cls-1" d="M73.81,30.56A4,4,0,0,0,69.87,27h-.06a4,4,0,0,0-3.93,4.39c.05.53.08,1.08.08,1.62s0,.81,0,1.21a3.94,3.94,0,0,0,4,4.25h.06a4,4,0,0,0,4-3.63q.06-.91.06-1.83C73.93,32.19,73.89,31.37,73.81,30.56Zm-2.43,4.08A1.46,1.46,0,0,1,69.92,36h-.06a1.46,1.46,0,0,1-1.08-.47,1.43,1.43,0,0,1-.38-1.1c0-.46,0-.93,0-1.4s0-1.25-.09-1.87A1.47,1.47,0,0,1,68.73,30a1.43,1.43,0,0,1,1.08-.48h.06a1.47,1.47,0,0,1,1.46,1.33c.07.72.11,1.45.11,2.18C71.44,33.54,71.42,34.1,71.38,34.64Z"/><path class="cls-1" d="M52.13,9.16a23.31,23.31,0,0,0-4.26,0,3.93,3.93,0,0,0-3.6,3.94v.09a3.91,3.91,0,0,0,1.27,2.89,4,4,0,0,0,2.68,1h.35a15.18,15.18,0,0,1,2.86,0,4,4,0,0,0,3-1,3.91,3.91,0,0,0,1.27-2.89V13.1A3.93,3.93,0,0,0,52.13,9.16Zm1.11,4a1.39,1.39,0,0,1-.46,1.05,1.43,1.43,0,0,1-1.13.38,20.2,20.2,0,0,0-3.3,0,1.43,1.43,0,0,1-1.13-.38,1.39,1.39,0,0,1-.46-1.05V13.1a1.46,1.46,0,0,1,1.33-1.46c.63-.05,1.27-.08,1.91-.08s1.28,0,1.91.08a1.46,1.46,0,0,1,1.33,1.46Z"/><path class="cls-1" d="M54.46,49.92a4,4,0,0,0-3-1,15.18,15.18,0,0,1-2.86,0,4,4,0,0,0-3,1,3.91,3.91,0,0,0-1.27,2.89v.09a3.93,3.93,0,0,0,3.6,3.94c.7.06,1.42.09,2.13.09s1.43,0,2.13-.09a3.93,3.93,0,0,0,3.6-3.94v-.09A3.91,3.91,0,0,0,54.46,49.92Zm-1.22,3a1.46,1.46,0,0,1-1.33,1.46,22.15,22.15,0,0,1-3.82,0,1.46,1.46,0,0,1-1.33-1.46v-.09a1.39,1.39,0,0,1,.46-1.05,1.43,1.43,0,0,1,1-.39h.13a20.2,20.2,0,0,0,3.3,0,1.43,1.43,0,0,1,1.13.38,1.39,1.39,0,0,1,.46,1.05Z"/><path class="cls-1" d="M40.16,14.78l0,0a4,4,0,0,0-5.31-.26,24.37,24.37,0,0,0-3,3A4,4,0,0,0,32,22.84l0,0A4,4,0,0,0,34.84,24H35a4.06,4.06,0,0,0,2.88-1.4h0a15.83,15.83,0,0,1,2-2,3.9,3.9,0,0,0,1.43-2.85A4,4,0,0,0,40.16,14.78Zm-1.85,4A18.75,18.75,0,0,0,36,21a1.46,1.46,0,0,1-1.08.52,1.41,1.41,0,0,1-1.08-.42l-.05,0a1.49,1.49,0,0,1-.08-2,22.87,22.87,0,0,1,2.72-2.67,1.51,1.51,0,0,1,.93-.33,1.44,1.44,0,0,1,1,.43l0,0a1.48,1.48,0,0,1,.43,1.14A1.43,1.43,0,0,1,38.31,18.73Z"/><path class="cls-1" d="M68.21,17.47a24.37,24.37,0,0,0-3-3,4,4,0,0,0-5.32.26l0,0a4,4,0,0,0-1.17,3,4,4,0,0,0,1.44,2.85,15.83,15.83,0,0,1,2,2A4.06,4.06,0,0,0,65,24h.15A4,4,0,0,0,68,22.88l0,0A4,4,0,0,0,68.21,17.47Zm-2,3.61,0,0a1.41,1.41,0,0,1-1.08.42A1.46,1.46,0,0,1,64,21a18.75,18.75,0,0,0-2.34-2.29,1.43,1.43,0,0,1-.52-1.05,1.48,1.48,0,0,1,.43-1.14l0,0a1.43,1.43,0,0,1,1-.43,1.52,1.52,0,0,1,.94.33,22.13,22.13,0,0,1,2.72,2.67A1.49,1.49,0,0,1,66.24,21.08Z"/></svg>