<svg id="Livello_1" data-name="Livello 1" xmlns="http://www.w3.org/2000/svg" viewBox="0 0 100 66"><defs><style>.cls-1{fill:#060606;}</style></defs><title>iconTavola disegno 96</title><path class="cls-1" d="M64.38,27.83H58.91c-2.43,0-3.8,2-4.89,3.52-.68,1-1.37,2-2,2s-1.28-1-2-2c-1.1-1.57-2.46-3.52-4.89-3.52H39.75a1.29,1.29,0,0,0,0,2.57h5.48c1,0,1.76,1,2.79,2.42s2.13,3,4,3,3-1.62,4-3,1.77-2.42,2.79-2.42h5.47a1.29,1.29,0,1,0,0-2.57Z"/><path class="cls-1" d="M79.81,6.87C76.55,5,73.46,3.27,72.36,1.15a1.28,1.28,0,0,0-2.42.6c0,3.36,2.29,6,4.5,8.51,1.93,2.21,3.75,4.29,3.71,6.52-.06,4.12-8,5.58-9.66,5.58h-.1c-1.23-1.1-3-1.52-4.84-1.92a29,29,0,0,1-2.87-.75,19.85,19.85,0,0,1-2.61-1.15,11.67,11.67,0,0,0-12,0,20.61,20.61,0,0,1-2.62,1.15,29,29,0,0,1-2.87.75c-1.78.4-3.61.82-4.84,1.92h-.09c-1.69,0-9.6-1.46-9.67-5.58,0-2.23,1.79-4.31,3.71-6.52,2.22-2.53,4.5-5.15,4.5-8.51a1.28,1.28,0,0,0-2.42-.6C30.67,3.27,27.59,5,24.32,6.87,18.76,10,12.47,13.6,12.47,20.73c0,4.32,2.83,8.29,8.19,11.5a40.18,40.18,0,0,0,11.27,4.43,24.5,24.5,0,0,0-.3,3.4c0,5.14,5.19,8.54,8.29,10.58.62.4,1.36.89,1.76,1.21a6.31,6.31,0,0,0-.46,1.72A5.63,5.63,0,0,0,45,59.66l.11,0c-.07.26-.13.56-.19.88a4.34,4.34,0,0,0,.7,3.57c1.76,2.1,3.81,1.32,5,.85a4.61,4.61,0,0,1,1.43-.39,4.63,4.63,0,0,1,1.42.39,6.48,6.48,0,0,0,2.28.54,3.47,3.47,0,0,0,2.75-1.39,4.3,4.3,0,0,0,.7-3.57A8.38,8.38,0,0,0,59,59.7l.11,0a5.63,5.63,0,0,0,3.78-6.09,6.67,6.67,0,0,0-.47-1.72c.41-.32,1.14-.81,1.76-1.21,3.11-2,8.3-5.44,8.3-10.58a24.68,24.68,0,0,0-.31-3.4,40.07,40.07,0,0,0,11.27-4.43c5.36-3.21,8.2-7.18,8.2-11.5C91.67,13.6,85.37,10,79.81,6.87ZM22,30c-3.17-1.89-7-5-7-9.29,0-5.64,5.37-8.68,10.56-11.63,1.2-.68,2.38-1.35,3.47-2-.41.5-.85,1-1.3,1.51-2.16,2.48-4.39,5-4.34,8.25.08,5.66,7.61,7.57,10.95,8-.11.5-.24,1.09-.39,1.74-.5,2.18-1.14,5-1.62,7.56A37.18,37.18,0,0,1,22,30ZM56.56,62.5c-.54.64-.84.6-2.15.1A6.59,6.59,0,0,0,52.07,62a6.59,6.59,0,0,0-2.34.56c-1.31.5-1.61.54-2.15-.1-.32-.37-.2-1.44,0-2.28h.3a5.72,5.72,0,0,0,2.56-.56,1.95,1.95,0,0,0,3.19,0,5.76,5.76,0,0,0,2.57.56h.29C56.76,61.07,56.87,62.13,56.56,62.5Zm6.25-14c-.75.49-1.37.9-1.85,1.27-.07-.06-.13-.13-.2-.2-1-1-1.94-1.94-1.94-5.39,0-1,0-2,.09-2.83h0a6.71,6.71,0,0,0,4.94-1.75,7.25,7.25,0,0,0,1.81-5.09h.09a1.28,1.28,0,1,0,0-2.56H64.38c-7.14,0-8.12,5.88-8.12,12.23,0,4.51,1.49,6,2.68,7.2a3.87,3.87,0,0,1,1.44,2.55,3.11,3.11,0,0,1-2.21,3.36,4.41,4.41,0,0,1-3.27.14c.41-.71.75-1,1.27-1a1.29,1.29,0,1,0,0-2.57c-2.43,0-3.43,2.1-4,3.35l-.07.15L52,57.18c-.6-1.25-1.6-3.35-4-3.35a1.29,1.29,0,0,0,0,2.57c.52,0,.87.31,1.27,1A4.41,4.41,0,0,1,46,57.28a3.12,3.12,0,0,1-2.2-3.36,3.9,3.9,0,0,1,1.43-2.55c1.2-1.2,2.69-2.69,2.69-7.2,0-6.35-1-12.23-8.13-12.23H38.38a1.28,1.28,0,0,0,0,2.56h.09a7.3,7.3,0,0,0,1.81,5.09,6.7,6.7,0,0,0,4.93,1.75c.07.84.1,1.78.1,2.83,0,3.45-.9,4.35-1.94,5.39a1.89,1.89,0,0,1-.2.2c-.48-.37-1.1-.78-1.84-1.27-2.84-1.86-7.14-4.68-7.14-8.43,0-3,1.43-9.2,2.29-12.93.16-.69.3-1.31.42-1.84.29-1.33,1.46-1.72,4.25-2.35,1-.22,2-.46,3.11-.82a21,21,0,0,0,3-1.28,9.17,9.17,0,0,1,9.71,0,21.48,21.48,0,0,0,2.95,1.28,30.79,30.79,0,0,0,3.11.82c2.8.64,4,1,4.26,2.35.11.53.26,1.15.42,1.84.85,3.73,2.28,10,2.28,12.93C69.94,43.81,65.65,46.63,62.81,48.49Zm-3.56-9.72c.53-2.37,1.64-3.79,3.84-4.16A4.72,4.72,0,0,1,62,37.78,4,4,0,0,1,59.25,38.77Zm-14.4,0a4.06,4.06,0,0,1-2.75-1A4.82,4.82,0,0,1,41,34.59C42.93,34.87,44.22,35.91,44.85,38.77ZM82.16,30a37.55,37.55,0,0,1-10.38,4.11c-.49-2.61-1.12-5.39-1.62-7.57-.15-.65-.29-1.24-.4-1.74,3.34-.43,10.87-2.34,11-8,0-3.21-2.19-5.77-4.35-8.25-.44-.51-.88-1-1.3-1.51,1.1.69,2.28,1.36,3.48,2,5.19,3,10.55,6,10.55,11.63C89.1,25,85.32,28.13,82.16,30Z"/></svg>