<svg id="Livello_1" data-name="Livello 1" xmlns="http://www.w3.org/2000/svg" viewBox="0 0 100 66"><defs><style>.cls-1{fill:#030402;}</style></defs><title>iconTavola disegno 13</title><circle class="cls-1" cx="49.56" cy="33.24" r="17.27"/><path class="cls-1" d="M49.56,51.27a18,18,0,1,1,18-18A18.05,18.05,0,0,1,49.56,51.27Zm0-34.53a16.5,16.5,0,1,0,16.5,16.5A16.52,16.52,0,0,0,49.56,16.74Z"/><path class="cls-1" d="M49.56,13.13A1.54,1.54,0,0,1,48,11.59V2A1.54,1.54,0,1,1,51.1,2v9.57A1.54,1.54,0,0,1,49.56,13.13Z"/><line class="cls-1" x1="30.82" y1="22.41" x2="22.52" y2="17.63"/><path class="cls-1" d="M30.81,24a1.49,1.49,0,0,1-.76-.2L21.75,19a1.54,1.54,0,0,1,1.54-2.67l8.3,4.79a1.55,1.55,0,0,1,.56,2.1A1.53,1.53,0,0,1,30.81,24Z"/><line class="cls-1" x1="30.82" y1="44.06" x2="22.52" y2="48.85"/><path class="cls-1" d="M22.52,50.39a1.54,1.54,0,0,1-.77-2.88l8.3-4.78a1.54,1.54,0,1,1,1.54,2.66l-8.3,4.79A1.54,1.54,0,0,1,22.52,50.39Z"/><path class="cls-1" d="M49.56,66A1.54,1.54,0,0,1,48,64.46V54.88a1.54,1.54,0,1,1,3.08,0v9.58A1.54,1.54,0,0,1,49.56,66Z"/><line class="cls-1" x1="68.31" y1="44.06" x2="76.6" y2="48.85"/><path class="cls-1" d="M76.6,50.39a1.54,1.54,0,0,1-.77-.21l-8.29-4.79a1.54,1.54,0,1,1,1.54-2.66l8.29,4.78a1.54,1.54,0,0,1-.77,2.88Z"/><line class="cls-1" x1="68.31" y1="22.41" x2="76.6" y2="17.63"/><path class="cls-1" d="M68.31,24a1.54,1.54,0,0,1-.77-2.87l8.29-4.79A1.54,1.54,0,0,1,77.37,19l-8.29,4.79A1.55,1.55,0,0,1,68.31,24Z"/></svg>