<svg id="Livello_1" data-name="Livello 1" xmlns="http://www.w3.org/2000/svg" viewBox="0 0 100 66"><defs><style>.cls-1{fill:#030402;}</style></defs><title>iconTavola disegno 5</title><path class="cls-1" d="M28.23,21A18.1,18.1,0,0,0,23.09,31c-.17,1-.24,1.95-.35,2.93,0,.1,0,.21,0,.32v2.86c.06.65.11,1.3.18,2a39.07,39.07,0,0,0,2.09,9,38.92,38.92,0,0,0,5.89,10.87l.24.31a20.77,20.77,0,0,0,3.63,3.92,10.26,10.26,0,0,0,1,.68,6.59,6.59,0,0,0,6,.78l.17-.06a21.05,21.05,0,0,0,2.77-.95,20.14,20.14,0,0,1,1.93-.68A26.4,26.4,0,0,1,50,62.42h.16a13.45,13.45,0,0,1,3.29.52,20.14,20.14,0,0,1,1.93.68,21.05,21.05,0,0,0,2.77.95l.17.06a6.59,6.59,0,0,0,6-.78,10.26,10.26,0,0,0,1-.68,20.77,20.77,0,0,0,3.63-3.92l.24-.31A38.92,38.92,0,0,0,75,48.07a39.07,39.07,0,0,0,2.09-9l.18-2V34.27c0-.11,0-.21,0-.32-.12-1-.18-2-.35-2.93A18.1,18.1,0,0,0,71.77,21c-.39-.37-.78-.72-1.19-1.05a15.68,15.68,0,0,0-7.74-3.32,16.44,16.44,0,0,0-8.41,1.13c-1.41.51-4.36,1.53-4.43,1.55s-3-1-4.43-1.55a16.47,16.47,0,0,0-8.42-1.13,15.72,15.72,0,0,0-7.74,3.32C29,20.24,28.61,20.59,28.23,21Z"/><path class="cls-1" d="M41.1,12a11.45,11.45,0,0,0,5.33,3.43,9.93,9.93,0,0,0,3.21.34c.26,0,.31-.12.33-.35a12.69,12.69,0,0,0-2.75-8.71A14.61,14.61,0,0,0,38.09,1.1L37.56,1H37.1a14,14,0,0,0,.17,3.66A14.64,14.64,0,0,0,41.1,12Z"/></svg>