<svg id="Livello_1" data-name="Livello 1" xmlns="http://www.w3.org/2000/svg" viewBox="0 0 100 66"><defs><style>.cls-1{fill:#060606;}</style></defs><title>iconTavola disegno 109</title><path class="cls-1" d="M84.39,3.93A2.17,2.17,0,0,0,81.08,2.1C64.76,12.28,47.6,28.1,39.69,28.31c-6.65-6-12-8.22-16.33-6.84-3.74,1.18-6.33,5-7.7,11.34a2.16,2.16,0,0,0,3.09,2.38c3.5-1.78,6-1.84,8.45-.19,4.65,3.72,3.95,15.64,10.09,18.83,4,2.08,9,2.25,14.81.49.94,4.79,5.68,8.4,9.8,11a2.15,2.15,0,0,0,1.82.23c9.79-3.13,17.59-11.35,12.9-20.17a2.16,2.16,0,0,0-2.49-1.07,19.79,19.79,0,0,1-12.61-1l-2-1.29c20-1.92,24.88-18,24.83-38.12Z"/><path class="cls-1" d="M41,23.68c3.93-1.28,9.93-5.51,13.34-7.95a27.19,27.19,0,0,0-8.19-14.5,2.16,2.16,0,0,0-3.59,1L37.68,21.17C38.75,21.91,39.84,22.75,41,23.68Z"/></svg>