<svg id="Livello_1" data-name="Livello 1" xmlns="http://www.w3.org/2000/svg" viewBox="0 0 100 66"><defs><style>.cls-1{fill:#030402;}</style></defs><title>iconTavola disegno 12</title><path class="cls-1" d="M51.12.41s-21.69,25-21.69,43.9a21.69,21.69,0,0,0,43.38,0C72.81,25.36,51.12.41,51.12.41ZM43.55,57.54a1.69,1.69,0,0,1-1.36.67,1.72,1.72,0,0,1-1-.34A16.41,16.41,0,0,1,34.6,44.69a1.71,1.71,0,0,1,3.42,0,13,13,0,0,0,5.2,10.45A1.7,1.7,0,0,1,43.55,57.54Zm7.57,3.67a16.92,16.92,0,0,1-4.48-.61,1.71,1.71,0,0,1,.93-3.3,13.27,13.27,0,0,0,3.55.48,1.72,1.72,0,0,1,0,3.43Z"/></svg>