<svg id="Livello_1" data-name="Livello 1" xmlns="http://www.w3.org/2000/svg" viewBox="0 0 100 66"><defs><style>.cls-1{fill:#030402;}</style></defs><title>iconTavola disegno 11</title><path class="cls-1" d="M50.76,1l7.57,23.29a.79.79,0,0,0,.76.55H83.57A.79.79,0,0,1,84,26.31L64.23,40.71a.79.79,0,0,0-.29.89l7.57,23.29a.8.8,0,0,1-1.23.89L50.47,51.39a.78.78,0,0,0-.94,0L29.72,65.78a.8.8,0,0,1-1.23-.89L36.06,41.6a.79.79,0,0,0-.29-.89L16,26.31a.79.79,0,0,1,.47-1.44H40.91a.79.79,0,0,0,.76-.55L49.24,1A.8.8,0,0,1,50.76,1Z"/></svg>