<svg id="Livello_1" data-name="Livello 1" xmlns="http://www.w3.org/2000/svg" viewBox="0 0 100 66"><defs><style>.cls-1{fill:#060606;}</style></defs><title>iconTavola disegno 81</title><path class="cls-1" d="M49,55.72a1.28,1.28,0,0,0-2.17.9,1.27,1.27,0,0,0,.38.9,1.27,1.27,0,0,0,1.79,0,1.27,1.27,0,0,0,.38-.9A1.29,1.29,0,0,0,49,55.72Z"/><path class="cls-1" d="M66,46.53a1.27,1.27,0,0,0-1.27,1.27A3.75,3.75,0,0,1,61,51.55a1.27,1.27,0,1,0,0,2.54A6.29,6.29,0,0,0,67.3,47.8,1.27,1.27,0,0,0,66,46.53Z"/><path class="cls-1" d="M85.32,62.85H22.8a1.27,1.27,0,1,0,0,2.54H85.32a1.27,1.27,0,1,0,0-2.54Z"/><path class="cls-1" d="M85.32,47.85H71.1V47.8A10.11,10.11,0,0,0,58.54,38l-3.73-9.52H59.3a.5.5,0,0,1,.48.35.51.51,0,0,1-.07.45.53.53,0,0,1-.41.2H58.13a1.27,1.27,0,0,0,0,2.54H59.3a3,3,0,0,0,2.89-4A3,3,0,0,0,59.3,26H53a1.27,1.27,0,0,0-1.05.56,1.24,1.24,0,0,0-.13,1.18L53.86,33H44.57l-.83-1.9-.32-.83a1.27,1.27,0,0,0-1.18-.81h-5a3.05,3.05,0,0,0-2.51,1.33,3,3,0,0,0,2.51,4.75h3.6l-1.69,2.92A10.09,10.09,0,0,0,28.56,55.35H22.78a1.27,1.27,0,0,0,0,2.54H35.24a10.09,10.09,0,0,0,10-8.82h4.39a1.29,1.29,0,0,0,1.07-.58,1.22,1.22,0,0,0,.2-.66,10.07,10.07,0,0,0,3.41,7.52H52.18a1.27,1.27,0,0,0,0,2.54H61a10.11,10.11,0,0,0,9.75-7.5H85.32a1.27,1.27,0,1,0,0-2.54ZM37.24,33a.5.5,0,0,1-.46-.32.46.46,0,0,1,0-.46.49.49,0,0,1,.41-.22h4.13l.39,1Zm-2,22.32a7.55,7.55,0,0,1,0-15.1,7.34,7.34,0,0,1,2.62.47l-3.72,6.44a1.3,1.3,0,0,0,0,1.27,1.27,1.27,0,0,0,1.1.64h3.53a3.74,3.74,0,0,1-3.53,2.48,1.27,1.27,0,0,0,0,2.54,6.31,6.31,0,0,0,6.17-5h1.28A7.57,7.57,0,0,1,35.24,55.35Zm2.2-8.82L40.06,42a7.55,7.55,0,0,1,2.63,4.54Zm7.81,0a10.06,10.06,0,0,0-3.9-6.76l1.93-3.35L47.7,46.53Zm5.56.76L45.69,35.57h9.16l1.32,3.37a10.14,10.14,0,0,0-5.26,8.8A1.18,1.18,0,0,0,50.81,47.29ZM61,55.35a7.55,7.55,0,0,1-3.9-14l2.71,6.93a1.29,1.29,0,0,0,1.19.81,1.27,1.27,0,0,0,1.18-1.73L59.48,40.4A7.63,7.63,0,0,1,61,40.25a7.55,7.55,0,1,1,0,15.1Z"/><path class="cls-1" d="M85.32,55.35H80.81a1.27,1.27,0,1,0,0,2.54h4.51a1.27,1.27,0,1,0,0-2.54Z"/><path class="cls-1" d="M74.84,55.35H70.33a1.27,1.27,0,1,0,0,2.54h4.51a1.27,1.27,0,1,0,0-2.54Z"/><path class="cls-1" d="M74.42,6.93A5.57,5.57,0,1,0,80,12.5,5.58,5.58,0,0,0,74.42,6.93Zm0,8.6a3,3,0,1,1,3-3A3,3,0,0,1,74.42,15.53Z"/><path class="cls-1" d="M85.32,11.23h-2a1.27,1.27,0,1,0,0,2.54h2a1.27,1.27,0,0,0,0-2.54Z"/><path class="cls-1" d="M65.49,11.23h-2a1.27,1.27,0,0,0,0,2.54h2a1.27,1.27,0,0,0,0-2.54Z"/><path class="cls-1" d="M74.42,20.16a1.27,1.27,0,0,0-1.27,1.27v2a1.27,1.27,0,0,0,2.54,0v-2A1.27,1.27,0,0,0,74.42,20.16Z"/><path class="cls-1" d="M74.42.32A1.27,1.27,0,0,0,73.15,1.6v2a1.27,1.27,0,1,0,2.54,0v-2A1.27,1.27,0,0,0,74.42.32Z"/><path class="cls-1" d="M83,19.31l-1.39-1.39a1.27,1.27,0,0,0-1.8,1.79l1.39,1.4a1.27,1.27,0,0,0,1.8-1.8Z"/><path class="cls-1" d="M69,5.28,67.61,3.89a1.27,1.27,0,0,0-1.8,0,1.29,1.29,0,0,0,0,1.8l1.4,1.39a1.23,1.23,0,0,0,.89.37A1.27,1.27,0,0,0,69,5.28Z"/><path class="cls-1" d="M69,17.92a1.26,1.26,0,0,0-1.79,0l-1.4,1.39a1.29,1.29,0,0,0,0,1.8,1.32,1.32,0,0,0,.9.37,1.3,1.3,0,0,0,.9-.37L69,19.71A1.26,1.26,0,0,0,69,17.92Z"/><path class="cls-1" d="M83,3.89a1.27,1.27,0,0,0-1.8,0L79.84,5.28a1.27,1.27,0,0,0,1.8,1.8L83,5.69A1.27,1.27,0,0,0,83,3.89Z"/><path class="cls-1" d="M52.52,6.51a7.74,7.74,0,0,0-13.72,0A6.77,6.77,0,0,0,32.42,12H22.8a1.27,1.27,0,1,0,0,2.54H33.57a1.27,1.27,0,0,0,1.27-1.27,4.23,4.23,0,0,1,4.21-4.24l.43,0a1.27,1.27,0,0,0,1.32-.81,5.19,5.19,0,0,1,9.72,0,1.27,1.27,0,0,0,1.32.81l.43,0a4.21,4.21,0,0,1,4,3H45.91a1.27,1.27,0,0,0,0,2.54H57.75A1.27,1.27,0,0,0,59,13.29,6.78,6.78,0,0,0,52.52,6.51Z"/><path class="cls-1" d="M39.93,12h0a1.27,1.27,0,0,0,0,2.54h0a1.27,1.27,0,1,0,0-2.54Z"/><path class="cls-1" d="M41.67,20.4H27.73a1.28,1.28,0,0,0,0,2.55H41.67a1.28,1.28,0,0,0,0-2.55Z"/></svg>