<svg id="Livello_1" data-name="Livello 1" xmlns="http://www.w3.org/2000/svg" viewBox="0 0 100 66"><defs><style>.cls-1{fill:#060606;}</style></defs><title>iconTavola disegno 43</title><path class="cls-1" d="M97.38,34.06a20,20,0,0,0-24.1-9.85L65.06,7.78H78a1.54,1.54,0,1,1,0,3.08H71.82a1.55,1.55,0,0,0,0,3.09H78a4.63,4.63,0,1,0,0-9.26H62.57a1.55,1.55,0,0,0-1.39,2.24l2,3.93H35.76L34.22,7.78h8.3a1.55,1.55,0,0,0,0-3.09H27.09a1.55,1.55,0,0,0,0,3.09h3.68l2.31,4.63-5.9,11.8A20.05,20.05,0,1,0,40,49.53a20.55,20.55,0,0,0,.95-4.74h9.33a1.55,1.55,0,0,0,.37,0h0l.1,0,.19-.07h0l.06,0,.13-.09.19-.16.06-.06.06-.08s.07-.08.1-.13l0-.06s0,0,0-.06l14-28.09,4.78,9.57a20,20,0,1,0,26.95,8.64ZM20.93,60.22A17,17,0,1,1,25.78,27L18,42.56a1.55,1.55,0,0,0,.69,2.07,1.52,1.52,0,0,0,.69.16H37.81A17,17,0,0,1,20.93,60.22Zm.95-18.51,6.77-13.54a17,17,0,0,1,9.16,13.54Zm19,0A20.06,20.06,0,0,0,30,25.41l4.79-9.56L47.73,41.71Zm9.33-1.91L37.3,14H63.16ZM84.44,59.5A17,17,0,0,1,71.81,28.17L79.7,43.94a1.54,1.54,0,1,0,2.76-1.38L74.68,27a17,17,0,0,1,9.76,32.5Z"/></svg>