<svg id="Livello_1" data-name="Livello 1" xmlns="http://www.w3.org/2000/svg" viewBox="0 0 100 66"><title>iconTavola disegno 52</title><path d="M49.32,65.27a32.27,32.27,0,1,1,32.31-32A32.26,32.26,0,0,1,49.32,65.27Zm-.07-14.19V51h2.62l.63,0c1.9.13,1.9.13,2.26,2,.78,4,3,5.14,6.65,3.23A25.87,25.87,0,0,0,73.56,43a9.37,9.37,0,0,0,.31-.89c.79-2.72.25-4.17-2-5.88a4.82,4.82,0,0,1-1.86-2,36.49,36.49,0,0,1-.93-5.45c-.12-.91.36-1.26,1.28-1.06.54.11,1.07.31,1.62.38,2.2.27,3.58-1.16,3-3.3A5.9,5.9,0,0,0,73,22a13.65,13.65,0,0,1-4.43-6.09,6,6,0,0,0-1.69-2.33c-10.36-9-24.54-9.12-35-.18a7.09,7.09,0,0,0-2,2.73,12.69,12.69,0,0,1-4.21,5.74,6.28,6.28,0,0,0-1.83,2.35,2.67,2.67,0,0,0,2.85,3.95,8,8,0,0,0,1.3-.38c1.23-.36,1.66,0,1.46,1.24a32.52,32.52,0,0,0-.65,4.13,3.21,3.21,0,0,1-1.34,2.56c-.4.33-.82.64-1.25.94a3.77,3.77,0,0,0-1.74,4,12.07,12.07,0,0,0,.8,2.91,26.08,26.08,0,0,0,11.85,12.7,9.09,9.09,0,0,0,2.15.79,3.15,3.15,0,0,0,3.92-2,15.37,15.37,0,0,0,.81-3c.13-.67.42-1,1.1-1C46.52,51.09,47.89,51.08,49.25,51.08Z"/><path d="M68.34,34.16C60.12,36.21,55.4,41.21,54,49.39H44.67c-1.33-8.14-6.11-13.17-14.25-15.22.38-2.11.7-4.17,1.15-6.21a3.17,3.17,0,0,1,2.22-2.3,46.51,46.51,0,0,1,21.06-2.29,43.81,43.81,0,0,1,9.78,2.19,3.57,3.57,0,0,1,2.57,2.76C67.6,30.26,68,32.21,68.34,34.16Zm-14.56-1a4.45,4.45,0,1,0-8.9-.12,4.38,4.38,0,0,0,4.39,4.48A4.47,4.47,0,0,0,53.78,33.13Z"/></svg>