<svg id="Livello_1" data-name="Livello 1" xmlns="http://www.w3.org/2000/svg" viewBox="0 0 100 66"><defs><style>.cls-1{fill:#030402;fill-rule:evenodd;}</style></defs><title>iconTavola disegno 34</title><path class="cls-1" d="M18.85,42.83c0-.17,0-.35,0-.53,1.21-10.86,12-27.45,24.77-20.83,7.88,4.08,15.9,28.21,3.59,31.58-3.38.92-6.58-1.47-9.84-1-3.63.49-5.4,3.81-8.74,4.55C19.7,58.56,18.22,49.54,18.85,42.83Z"/><path class="cls-1" d="M12.87,17.65c-2.72-8.11,8-9.29,10.43-2.12.92,2.67.86,7.31-1.39,9C18,27.61,14,21,12.87,17.65Z"/><path class="cls-1" d="M52.87,12.69C59.34,8,63.42,17.17,57.73,21.4c-2.13,1.58-6.29,2.84-8.48,1.32C45.43,20.09,50.19,14.65,52.87,12.69Z"/><path class="cls-1" d="M22.79,8.22c-.6-9,10.64-8.08,11.9-.38.51,3.1-.42,8.16-3.21,9.65C26.94,19.91,23.16,13.7,22.79,8.22Z"/><path class="cls-1" d="M38.56,6C41-2.65,51.3,2,49.9,9.64c-.57,3.09-3.15,7.54-6.28,8C38.54,18.4,37.06,11.29,38.56,6Z"/><path class="cls-1" d="M62.4,44.61c13.44-7.6,19.75,4.3,20.15,11.57.48,8.87-8.15,9.58-11.27,5.51-2.46-3.22-.88-6.46-5.89-5.73-2.38.35-6,.1-7.28-2.65C56.61,50,59.5,46.25,62.4,44.61Z"/><path class="cls-1" d="M66,33.06c.86-5.85,7.82-3.23,7.1,1.95-.27,1.94-1.76,4.78-3.7,5.15C66.08,40.8,65.68,35.49,66,33.06Z"/><path class="cls-1" d="M88.68,46.37c5.54-.14,4.23,6.7-.67,6.86-1.83.06-4.69-.86-5.34-2.59C81.54,47.65,86.38,46.43,88.68,46.37Z"/><path class="cls-1" d="M74.82,33.19c3.19-5.33,9.23-.4,6.92,4.46-.94,2-3.46,4.48-5.63,4.22C72.58,41.46,72.87,36.45,74.82,33.19Z"/><path class="cls-1" d="M83.29,37.37c5.11-3.53,8.57,3.44,4.46,6.92-1.66,1.41-5,2.65-6.87,1.53C77.84,44,80.17,39.54,83.29,37.37Z"/></svg>