<svg id="Livello_1" data-name="Livello 1" xmlns="http://www.w3.org/2000/svg" viewBox="0 0 100 66"><defs><style>.cls-1{fill:#060606;}</style></defs><title>iconTavola disegno 47</title><path class="cls-1" d="M73.07,46.88V40a3.1,3.1,0,0,0-1-6H70.8a2.94,2.94,0,0,0,.19-1,3.11,3.11,0,0,0-3.1-3.11H61.51a6.15,6.15,0,0,1-5.24-2.88l-1.72-2.69.68-2.71h.23a5.19,5.19,0,0,0,5.18-5.18V8.65A4.23,4.23,0,0,0,58.47.78H54.19a10.13,10.13,0,0,0-6.32,18l.09.07A16.8,16.8,0,0,0,35.78,35.12V37a6.58,6.58,0,0,0,.11,1.19,3.1,3.1,0,0,0,.93,6.06h2.54l2.2,3.43L39.45,49.3a9.31,9.31,0,1,0,2.48,7.41h2.25a5.1,5.1,0,0,0-.11,1,5.18,5.18,0,0,0,10.25,1h.1a2.07,2.07,0,0,0,2.07-2.07,4.07,4.07,0,0,0-.92-2.57l11.28-8.78v1.52a9.32,9.32,0,1,0,6.22,0ZM66.85,54v.61h-4a7.06,7.06,0,0,1,1.36-3.3ZM48.21,47.78l-2.14-3.33a3.11,3.11,0,0,1,2.14,2.94ZM45.1,42.21H43A5.18,5.18,0,0,1,37.85,37V36h8.39a8.19,8.19,0,0,1,8.18,8.18,10.79,10.79,0,0,1-.2,2l-1.28,6.4a3.8,3.8,0,0,0-.59-.06H50.28V47.39A5.18,5.18,0,0,0,45.1,42.21Zm11.15,4.42a12.33,12.33,0,0,0,.24-2.35h8.38l-9.65,7.51Zm10.6-4.42H56.3a10.29,10.29,0,0,0-8.07-8.09,6,6,0,0,1,1.57-3.6l.69.92A11.45,11.45,0,0,0,59.6,36h3.29a2.94,2.94,0,0,0-.18,1,3.11,3.11,0,0,0,3.11,3.11h1ZM71,40.14V52.76a2.94,2.94,0,0,0-1-.19,3,3,0,0,0-1,.19V40.14ZM70,56.71a1,1,0,1,1,0-2.07,1,1,0,0,1,0,2.07Zm-2.92,0,.12.3-3,3a7.24,7.24,0,0,1-1.37-3.3Zm1.59,1.76a2.52,2.52,0,0,0,.29.12v4.25a7.29,7.29,0,0,1-3.3-1.37Zm2.36.12.3-.12,3,3A7.13,7.13,0,0,1,71,62.84ZM72.75,57a1.88,1.88,0,0,0,.12-.3h4.25A7.12,7.12,0,0,1,75.76,60Zm.32-2.37V54l2.69-2.69a7.16,7.16,0,0,1,1.36,3.3Zm1.22-4.76L73.07,51.1v-2A8,8,0,0,1,74.29,49.88ZM73.07,37a1,1,0,0,1-1,1H65.82a1,1,0,1,1,0-2.07H72A1,1,0,0,1,73.07,37ZM61.51,31.85h6.38a1,1,0,0,1,0,2.07H59.6a9.39,9.39,0,0,1-6.7-2.84l2.76-1.66a8.21,8.21,0,0,0,5.85,2.43ZM58.57,16.32a3.11,3.11,0,0,1-3.11,3.1H53.61L53,21.8l-1.63-2.56L52.46,15l-1.88-1.87a1.07,1.07,0,0,1-.3-.74v-.18a1,1,0,0,1,1-1H52l.75-1.5a1,1,0,0,1,.92-.57h4.94ZM46.14,10.91a8.07,8.07,0,0,1,8-8.06h4.28a2.16,2.16,0,0,1,1,4.1l-.08,0H53.63a3.09,3.09,0,0,0-2.78,1.71l-.21.43a3.11,3.11,0,0,0-2.43,3v.18a3.09,3.09,0,0,0,.91,2.2l1.05,1-.5,2-.51-.41a8,8,0,0,1-3-6.29Zm3.64,9.65,4.59,7.22-2.79,1.67L49,26.05,47.38,27.3l1.16,1.54a8.08,8.08,0,0,0-2.37,5.08H37.9A14.76,14.76,0,0,1,49.78,20.56Zm-14,20.61a1,1,0,0,1,.74-1,7,7,0,0,0,1.45,2H36.82a1,1,0,0,1-1-1Zm7.72,3.11,4.71,7.33v2.61l-6.39-9.94ZM32.67,56.71a1,1,0,1,1,1-1A1,1,0,0,1,32.67,56.71Zm-1-4a1.88,1.88,0,0,0-.3.12l-3-3a7.13,7.13,0,0,1,3.3-1.37Zm-1.76,1.58a1.88,1.88,0,0,0-.12.3H25.51a7.12,7.12,0,0,1,1.36-3.3Zm-.12,2.37a1.88,1.88,0,0,0,.12.3l-3,3a7.12,7.12,0,0,1-1.36-3.3Zm1.58,1.76c.1.05.2.08.3.12v4.25a7.24,7.24,0,0,1-3.3-1.37Zm2.37.12a2.52,2.52,0,0,0,.29-.12l3,3a7.18,7.18,0,0,1-3.3,1.37Zm2.07-4L39,52.2a7.24,7.24,0,0,1,.81,2.44Zm-1.39-1.55a3.29,3.29,0,0,0-.68-.33V48.51a7.28,7.28,0,0,1,4.08,2ZM38.47,60l-3-3,.12-.3h4.25A7.24,7.24,0,0,1,38.47,60Zm3.46-5.37A9.32,9.32,0,0,0,40.7,51l2-1.49,2.94,4.59a4.15,4.15,0,0,0-.52.59Zm7.31,6.21a3.08,3.08,0,0,1-2.44-5l1.27,2a2,2,0,0,0,1.74,1h2.35a3.11,3.11,0,0,1-2.92,2.07Zm1-4.14V54.64h2.07a2.07,2.07,0,0,1,2.07,2.07ZM66.85,51.1l-1.22-1.22a7.52,7.52,0,0,1,1.22-.75Z"/><path class="cls-1" d="M21.28,13.21H42v2.07H21.28Z"/><path class="cls-1" d="M15.07,13.21h4.14v2.07H15.07Z"/><path class="cls-1" d="M29.57,17.35h8.28v2.07H29.57Z"/><path class="cls-1" d="M23.35,17.35h4.14v2.07H23.35Z"/><path class="cls-1" d="M17.14,21.5H33.71v2.07H17.14Z"/><path class="cls-1" d="M21.28,25.64h8.29v2.07H21.28Z"/></svg>