<svg id="Livello_1" data-name="Livello 1" xmlns="http://www.w3.org/2000/svg" viewBox="0 0 100 66"><defs><style>.cls-1{fill:#060606;}</style></defs><title>iconTavola disegno 74</title><path class="cls-1" d="M77.94,3.06H76.45A3.83,3.83,0,0,0,72.85.51H67.77a3.83,3.83,0,0,0-3.6,2.55H62.68a3.82,3.82,0,0,0,0,7.63H77.94a3.82,3.82,0,0,0,0-7.63Zm0,5.08H62.68a1.27,1.27,0,0,1,0-2.54h2.55A1.27,1.27,0,0,0,66.5,4.33a1.27,1.27,0,0,1,1.27-1.27h5.08a1.27,1.27,0,0,1,1.28,1.27A1.27,1.27,0,0,0,75.4,5.6h2.54a1.27,1.27,0,0,1,0,2.54Z"/><path class="cls-1" d="M80.48,63.07h-16A6.35,6.35,0,0,0,59.61,52.9l-1.52-9.11a1.27,1.27,0,0,0-1.25-1.07H51.75a1.28,1.28,0,0,0,0,2.55h4l.85,5.08H45.39V47.81h1.27a1.27,1.27,0,1,0,0-2.54H41.58a1.27,1.27,0,1,0,0,2.54h1.27v3.43l-1.42,2.12A6.44,6.44,0,0,0,39,52.89,6.37,6.37,0,0,0,34,63.07h-16a1.27,1.27,0,1,0,0,2.54H80.48a1.27,1.27,0,0,0,0-2.54ZM63.19,59.25a3.82,3.82,0,1,1-5.66-3.34l.59,3.55a1.29,1.29,0,0,0,1.47,1,1.27,1.27,0,0,0,1-1.47L60,55.5A3.8,3.8,0,0,1,63.19,59.25ZM57.1,53.32a6.35,6.35,0,0,0-2.8,9.75H44.12a6.57,6.57,0,0,0,1.15-2.55h3.94a1.28,1.28,0,0,0,1.17-.78l2.85-6.85H57Zm-12.3-.43h5.68L48.36,58h-3.1a6.26,6.26,0,0,0-1.71-3.2Zm-9.58,6.36A3.82,3.82,0,0,1,39,55.44a3.65,3.65,0,0,1,.93.12l-2,3A1.27,1.27,0,0,0,40.09,60l2-3a3.77,3.77,0,0,1,.76,2.28,3.82,3.82,0,1,1-7.63,0Z"/><path class="cls-1" d="M20.47,3.06a3.82,3.82,0,0,0,0,7.63H35.73a3.82,3.82,0,0,0,0-7.63H34.24A3.82,3.82,0,0,0,30.65.51H25.56A3.83,3.83,0,0,0,22,3.06ZM23,5.6a1.27,1.27,0,0,0,1.27-1.27,1.27,1.27,0,0,1,1.27-1.27h5.09a1.27,1.27,0,0,1,1.27,1.27A1.27,1.27,0,0,0,33.19,5.6h2.54a1.27,1.27,0,0,1,0,2.54H20.47a1.27,1.27,0,1,1,0-2.54Z"/><circle class="cls-1" cx="49.21" cy="38.15" r="1.27"/><path class="cls-1" d="M54.93,36.88a1.27,1.27,0,0,0,0,2.54H80.48a1.28,1.28,0,0,0,1.13-.69,1.24,1.24,0,0,0-.09-1.31l-16-22.89a1.28,1.28,0,0,0-2.14.08L60.13,20,50.3,3.67a1.28,1.28,0,0,0-2.18,0L38.29,20,35,14.61A1.27,1.27,0,0,0,34,14a1.29,1.29,0,0,0-1.09.54l-16,22.89a1.26,1.26,0,0,0-.09,1.31,1.29,1.29,0,0,0,1.13.69H43.49a1.27,1.27,0,0,0,0-2.54H31.11L41.53,19.56l3,3a1.29,1.29,0,0,0,1.8,0l2.92-2.92,2.91,2.92a1.29,1.29,0,0,0,1.8,0l3-3L67.3,36.88Zm-26.78,0H20.37L33.87,17.6l2.93,4.89ZM53,19.82l-2.91-2.91a1.27,1.27,0,0,0-1.8,0l-2.92,2.91-2.51-2.51L49.21,6.8l6.32,10.51Zm8.59,2.67,2.94-4.89L78,36.88H70.27Z"/></svg>