<svg id="Livello_1" data-name="Livello 1" xmlns="http://www.w3.org/2000/svg" viewBox="0 0 100 66"><defs><style>.cls-1{fill:#060606;}</style></defs><title>iconTavola disegno 141</title><path class="cls-1" d="M75.08,48.26H72.52l-2.4-5.45h.6a1.09,1.09,0,1,0,0-2.18H69.16l-1-2.18h.33a1.09,1.09,0,1,0,0-2.18H67.24l-1-2.18h.07a1.09,1.09,0,1,0,0-2.18h-1l-1-2.2a1.09,1.09,0,0,0-.18-2.16H63.4l-2.5-5.68V17.74a3.81,3.81,0,0,0,0-.59l15-15a1.1,1.1,0,0,0,0-1.54,1.12,1.12,0,0,0-.77-.32H44.55a1.1,1.1,0,0,0-.77.32L41.27,3.12a3.28,3.28,0,0,0-4.49.12L22,18.06l-1.43,1.43a9.8,9.8,0,0,0,0,13.88h0L31.17,44a3.26,3.26,0,0,0,2.32,1h3.43A1.1,1.1,0,0,1,38,46.05v3.49a3.22,3.22,0,0,0,1,2.31L48,60.92a16.23,16.23,0,0,0,11.56,4.79H77.26a5.45,5.45,0,0,0,5.45-5.45V55.9A7.65,7.65,0,0,0,75.08,48.26Zm0,2.18a5.47,5.47,0,0,1,5.45,5.46V57H67.41a11.91,11.91,0,0,1-8.48-3.52L30.41,25a9.82,9.82,0,0,0,0-12.25l3.24-3.23v.67a14.06,14.06,0,0,0,4.15,10l5.42,5.42a14.1,14.1,0,0,0,10,4.15h3.29l1,2.18H54.36a1.09,1.09,0,1,0,0,2.18h4.09l1,2.18H56.54a1.09,1.09,0,1,0,0,2.18h3.83l1,2.18H58.72a1.09,1.09,0,1,0,0,2.18h3.56l1.93,4.38a5.45,5.45,0,0,0,5,3.25Zm-5-2.18H69.2a3.25,3.25,0,0,1-3-1.95l-1.54-3.5h3.07Zm-3.35-7.63H63.71l-1-2.18h3.07Zm-1.92-4.36H61.79l-1-2.18H63.9Zm-5-4.36-1-2.18H62l1,2.18ZM58,27.55,56,23.19H59.1L61,27.55ZM58.72,21H53.27V17.74a1.09,1.09,0,0,1,1.09-1.09h3.27a1.09,1.09,0,0,1,1.09,1.09ZM45,2.47H72.44L59.71,15.21a3.3,3.3,0,0,0-2.08-.75H54.36a3.29,3.29,0,0,0-3.27,3.28v2.84a7.65,7.65,0,0,1-2.87-1.81L44.6,15.16a7.59,7.59,0,0,1-2.23-5.4V5.56a3,3,0,0,0,0-.43ZM38.33,4.78a1.1,1.1,0,0,1,1.54,0,1.14,1.14,0,0,1,.32.78v4.2a9.76,9.76,0,0,0,2.87,6.94l3.61,3.61a9.78,9.78,0,0,0,6.94,2.88h0l1.92,4.36H53.24A11.93,11.93,0,0,1,44.76,24l-5.42-5.42a11.91,11.91,0,0,1-3.51-8.48V7.28Zm-9.47,9.47a7.67,7.67,0,0,1,0,9.15l-4.58-4.57Zm48.4,49.28H74V62.44a1.09,1.09,0,1,0-2.18,0v1.09H65.26V62.44a1.09,1.09,0,0,0-2.18,0v1.09H59.59a14.09,14.09,0,0,1-9.1-3.31L53,57.76a1.09,1.09,0,1,0-1.54-1.54l-2.5,2.49-5-5,2.5-2.5a1.09,1.09,0,1,0-1.54-1.55l-2.5,2.5-1.86-1.86a1.06,1.06,0,0,1-.32-.77V46.05a3.28,3.28,0,0,0-3.27-3.27H33.49a1.06,1.06,0,0,1-.77-.32l-4-4L31.15,36a1.09,1.09,0,0,0-1.55-1.54l-2.47,2.47-5-5,2.47-2.47a1.09,1.09,0,0,0-1.54-1.54h0L20.8,30.13A7.63,7.63,0,0,1,22.08,21l.66-.66L57.39,55a14.1,14.1,0,0,0,10,4.15H80.53v1.09A3.28,3.28,0,0,1,77.26,63.53Z"/><path class="cls-1" d="M18.38,46.08h9.81a1.09,1.09,0,0,0,0-2.18H18.38a1.09,1.09,0,0,0,0,2.18Z"/><path class="cls-1" d="M41.28,57H18.38a1.09,1.09,0,0,0,0,2.18h22.9a1.09,1.09,0,1,0,0-2.18Z"/><path class="cls-1" d="M18.38,52.63H34.74a1.1,1.1,0,0,0,0-2.19H18.38a1.1,1.1,0,0,0,0,2.19Z"/></svg>