<svg id="Livello_1" data-name="Livello 1" xmlns="http://www.w3.org/2000/svg" viewBox="0 0 100 66"><defs><style>.cls-1{fill:#060606;}</style></defs><title>iconTavola disegno 123</title><path class="cls-1" d="M41,39.8a1.68,1.68,0,0,0-.07-.24l-.12-.23a1.63,1.63,0,0,0-.17-.2,1.29,1.29,0,0,0-1.17-.35,1,1,0,0,0-.25.07A.94.94,0,0,0,39,39a1.08,1.08,0,0,0-.2.16,1.33,1.33,0,0,0-.28.43,1,1,0,0,0-.08.24,2.11,2.11,0,0,0,0,.25,2.28,2.28,0,0,0,0,.26,1.13,1.13,0,0,0,.08.24,1.33,1.33,0,0,0,.28.43,1.08,1.08,0,0,0,.2.16.94.94,0,0,0,.22.12,1,1,0,0,0,.25.07,1.07,1.07,0,0,0,.25,0,1.32,1.32,0,0,0,.92-.38,1.63,1.63,0,0,0,.17-.2l.12-.23a2.17,2.17,0,0,0,.07-.24,1.14,1.14,0,0,0,0-.26A1.06,1.06,0,0,0,41,39.8Z"/><path class="cls-1" d="M82.08,62.32h-2.7V42.65a3.91,3.91,0,0,0-3.9-3.9H73.25V25.88a3.91,3.91,0,0,0-3.9-3.9h-4V18.19a5.12,5.12,0,0,0,2.44-1.38,5.3,5.3,0,0,0,1-6.09L65.21,3.47a1.3,1.3,0,0,0-2.34,0l-3.58,7.25a5.31,5.31,0,0,0,1,6.09,5.2,5.2,0,0,0,2.45,1.38V22H51.3V16.37A5.12,5.12,0,0,0,53.74,15a5.3,5.3,0,0,0,1-6.09L51.17,1.65a1.3,1.3,0,0,0-2.34,0L45.25,8.9a5.3,5.3,0,0,0,1,6.09,5.12,5.12,0,0,0,2.44,1.38V22H37.26V18.2a5.29,5.29,0,0,0,3.45-7.48L37.13,3.47a1.3,1.3,0,0,0-2.34,0l-3.58,7.25a5.31,5.31,0,0,0,3.45,7.48V22h-4a3.91,3.91,0,0,0-3.9,3.9V38.75H24.52a3.91,3.91,0,0,0-3.9,3.9V62.32h-2.7a1.31,1.31,0,1,0,0,2.61H82.08a1.31,1.31,0,1,0,0-2.61ZM62.14,15a2.68,2.68,0,0,1-.51-3.09L64,7l2.41,4.88A2.69,2.69,0,0,1,65.94,15a2.62,2.62,0,0,1-.6.45,2.67,2.67,0,0,1-2.6,0A2.62,2.62,0,0,1,62.14,15Zm-14-1.82a2.69,2.69,0,0,1-.51-3.09L50,5.17l2.41,4.88a2.69,2.69,0,0,1-.51,3.09,2.62,2.62,0,0,1-.6.45,2.67,2.67,0,0,1-2.6,0A2.62,2.62,0,0,1,48.1,13.14ZM34.06,15a2.69,2.69,0,0,1-.51-3.09L36,7l2.41,4.88A2.68,2.68,0,0,1,37.86,15a2.8,2.8,0,0,1-.59.45,2.69,2.69,0,0,1-2.61,0A2.62,2.62,0,0,1,34.06,15Zm-3.41,9.63h38.7a1.29,1.29,0,0,1,1.29,1.29V30a6.28,6.28,0,0,1-1.92.26,6.12,6.12,0,0,1-4-1.34,9.08,9.08,0,0,0-10.8,0,6.52,6.52,0,0,1-7.92,0,9.08,9.08,0,0,0-10.8,0,6.12,6.12,0,0,1-4,1.34A6.28,6.28,0,0,1,29.36,30v-4.1h0A1.29,1.29,0,0,1,30.65,24.59ZM76.77,62.32H23.23V49.79A6.6,6.6,0,0,1,25.88,51a9.08,9.08,0,0,0,10.8,0,6.52,6.52,0,0,1,7.92,0,9.08,9.08,0,0,0,10.8,0,6.52,6.52,0,0,1,7.92,0,9.08,9.08,0,0,0,10.8,0,6.6,6.6,0,0,1,2.65-1.23Zm0-15.17a8.72,8.72,0,0,0-4.09,1.7,6.52,6.52,0,0,1-7.92,0,9.08,9.08,0,0,0-10.8,0,6.52,6.52,0,0,1-7.92,0,9.08,9.08,0,0,0-10.8,0,6.52,6.52,0,0,1-7.92,0,8.72,8.72,0,0,0-4.09-1.7v-4.5a1.29,1.29,0,0,1,1.29-1.29h10a1.31,1.31,0,0,0,0-2.61H29.36V32.67a9.71,9.71,0,0,0,1.92.18,8.57,8.57,0,0,0,5.4-1.78,6.52,6.52,0,0,1,7.92,0,9.08,9.08,0,0,0,10.8,0,6.52,6.52,0,0,1,7.92,0,8.57,8.57,0,0,0,5.4,1.78,9.71,9.71,0,0,0,1.92-.18v6.08H44.93a1.31,1.31,0,0,0,0,2.61H75.48a1.29,1.29,0,0,1,1.29,1.29v4.5Z"/><path class="cls-1" d="M29.33,59.08a2.17,2.17,0,0,0-.07-.24l-.12-.23a1.06,1.06,0,0,0-.17-.2l-.19-.16a1,1,0,0,0-.23-.12,1.09,1.09,0,0,0-.24-.07,1.31,1.31,0,0,0-1.18.35,1.56,1.56,0,0,0-.16.2,1,1,0,0,0-.12.23,2.25,2.25,0,0,0-.08.24,2.28,2.28,0,0,0,0,.26,2.11,2.11,0,0,0,0,.25,2.41,2.41,0,0,0,.08.25,1.19,1.19,0,0,0,.12.22,1.56,1.56,0,0,0,.16.2,1.32,1.32,0,0,0,.92.38l.26,0,.24-.08a1,1,0,0,0,.23-.12l.19-.16a1.06,1.06,0,0,0,.17-.2l.12-.22a2.33,2.33,0,0,0,.07-.25,1.07,1.07,0,0,0,0-.25A1.15,1.15,0,0,0,29.33,59.08Z"/><path class="cls-1" d="M43.35,55.18a2.17,2.17,0,0,0-.07-.24l-.12-.23a1.63,1.63,0,0,0-.17-.2,1.08,1.08,0,0,0-.2-.16,1.55,1.55,0,0,0-.22-.12,1.35,1.35,0,0,0-.75-.07,1,1,0,0,0-.25.07,1.55,1.55,0,0,0-.22.12,1.08,1.08,0,0,0-.2.16,1.33,1.33,0,0,0-.28.43,1.13,1.13,0,0,0-.08.24,2.28,2.28,0,0,0,0,.26,2.11,2.11,0,0,0,0,.25,1.21,1.21,0,0,0,.08.25,1.19,1.19,0,0,0,.12.22,1,1,0,0,0,.16.2,1.08,1.08,0,0,0,.2.16.94.94,0,0,0,.22.12l.25.08.25,0,.26,0,.24-.08a.94.94,0,0,0,.22-.12,1.08,1.08,0,0,0,.2-.16,1.63,1.63,0,0,0,.17-.2l.12-.22a2.33,2.33,0,0,0,.07-.25,1.06,1.06,0,0,0,0-.25A1.14,1.14,0,0,0,43.35,55.18Z"/><path class="cls-1" d="M58.43,59.08a1.13,1.13,0,0,0-.08-.24,1.33,1.33,0,0,0-.28-.43,1.08,1.08,0,0,0-.2-.16.94.94,0,0,0-.22-.12,1,1,0,0,0-.25-.07,1.35,1.35,0,0,0-.75.07.94.94,0,0,0-.22.12,1.08,1.08,0,0,0-.2.16,1.63,1.63,0,0,0-.17.2l-.12.23a2.17,2.17,0,0,0-.07.24,1.14,1.14,0,0,0,0,.26,1.06,1.06,0,0,0,0,.25,2.33,2.33,0,0,0,.07.25l.12.22a1.63,1.63,0,0,0,.17.2,1.08,1.08,0,0,0,.2.16.94.94,0,0,0,.22.12l.24.08.26,0a1.32,1.32,0,0,0,.92-.38,1,1,0,0,0,.16-.2,1.19,1.19,0,0,0,.12-.22,1.21,1.21,0,0,0,.08-.25,2.11,2.11,0,0,0,0-.25A2.28,2.28,0,0,0,58.43,59.08Z"/><path class="cls-1" d="M73.23,56a2.25,2.25,0,0,0-.08-.24,1,1,0,0,0-.12-.23,1.56,1.56,0,0,0-.16-.2,1.32,1.32,0,0,0-.92-.38,1.34,1.34,0,0,0-.93.38,1.56,1.56,0,0,0-.16.2l-.12.23a2.17,2.17,0,0,0-.07.24,1.15,1.15,0,0,0,0,.26,1.07,1.07,0,0,0,0,.25,1.82,1.82,0,0,0,.07.25l.12.22a1.56,1.56,0,0,0,.16.2l.2.16a1,1,0,0,0,.23.12l.24.08.26,0a1.32,1.32,0,0,0,.92-.38,1.56,1.56,0,0,0,.16-.2,1.19,1.19,0,0,0,.12-.22,1.83,1.83,0,0,0,.08-.25,2.11,2.11,0,0,0,0-.25A2.28,2.28,0,0,0,73.23,56Z"/><path class="cls-1" d="M60.25,34.64a1.13,1.13,0,0,0-.08-.24,1,1,0,0,0-.12-.23,1,1,0,0,0-.16-.19,1.06,1.06,0,0,0-.2-.17l-.22-.12-.25-.07a1.1,1.1,0,0,0-.51,0l-.24.07-.22.12a.82.82,0,0,0-.2.17,1,1,0,0,0-.16.19,1,1,0,0,0-.12.23,1.13,1.13,0,0,0-.08.24,1.14,1.14,0,0,0,0,.26,1.06,1.06,0,0,0,0,.25,1,1,0,0,0,.08.25,1.19,1.19,0,0,0,.12.22,1,1,0,0,0,.16.2,1.08,1.08,0,0,0,.2.16.94.94,0,0,0,.22.12l.24.08.26,0,.25,0,.25-.08a.94.94,0,0,0,.22-.12,1.56,1.56,0,0,0,.2-.16,1,1,0,0,0,.16-.2,1.19,1.19,0,0,0,.12-.22,1,1,0,0,0,.08-.25,1.06,1.06,0,0,0,0-.25A1.14,1.14,0,0,0,60.25,34.64Z"/><path class="cls-1" d="M43.22,32.87a1,1,0,0,0-.08-.25A.94.94,0,0,0,43,32.4a1,1,0,0,0-.16-.2.78.78,0,0,0-.2-.16.94.94,0,0,0-.22-.12,1.13,1.13,0,0,0-.24-.08,1.46,1.46,0,0,0-.51,0,1,1,0,0,0-.25.08.94.94,0,0,0-.22.12,1.16,1.16,0,0,0-.36.36.94.94,0,0,0-.12.22,1,1,0,0,0-.08.25,1.06,1.06,0,0,0,0,.25,1.14,1.14,0,0,0,0,.26,1.13,1.13,0,0,0,.08.24,1.27,1.27,0,0,0,.12.23A1,1,0,0,0,41,34l.2.17.22.12.25.07a1,1,0,0,0,.25,0,1.15,1.15,0,0,0,.26,0l.24-.07.22-.12a1.12,1.12,0,0,0,.2-.17,1,1,0,0,0,.16-.19,1.27,1.27,0,0,0,.12-.23,1.13,1.13,0,0,0,.08-.24,1.14,1.14,0,0,0,0-.26A1.06,1.06,0,0,0,43.22,32.87Z"/></svg>