<svg id="Livello_1" data-name="Livello 1" xmlns="http://www.w3.org/2000/svg" viewBox="0 0 100 66"><defs><style>.cls-1{fill:#060606;}</style></defs><title>iconTavola disegno 91</title><g id="Solid"><path class="cls-1" d="M54.11,53a1.07,1.07,0,0,1-.06.35L50.1,65.26h2.18l5.16-11.35V45.26H54.11Z"/><path class="cls-1" d="M38.63,52.65l1.72-4.59-5.57,5.06,5.6,12.14h2.19l-4-11.87A1.11,1.11,0,0,1,38.63,52.65Z"/><path class="cls-1" d="M74.71,17.49H69.39a1.13,1.13,0,0,1-1-.56,3.34,3.34,0,0,0-2.88-1.67H62.42l.49,1.24A3.32,3.32,0,0,0,66,18.6h.69a1.11,1.11,0,0,1,1.11,1.11,1.14,1.14,0,0,1-.28.74L61.6,27.11a1.09,1.09,0,0,1-.83.37H35.22A5.57,5.57,0,0,0,29.67,33v5.42a4.75,4.75,0,0,0,3.6,4.61,1.11,1.11,0,0,1,.81,1.35,1.23,1.23,0,0,1-.19.4l-6.44,8.59V65.26h2.22v-10a1.11,1.11,0,0,1,.36-.82L41.89,43.66V37.48h2.22V43H57.44V37.48h2.22V65.26H62L64.11,44a1,1,0,0,1,.12-.39l8.88-17.77a1.13,1.13,0,0,1,1.21-.6L78,26a1.7,1.7,0,0,0,1.62-2.77Zm-.6,4.44H71.88V19.71h2.23Z"/><path class="cls-1" d="M76.33,15.86V16l2.18,2.55a3.29,3.29,0,0,0,2.35-2l.49-1.24H78.23A3.4,3.4,0,0,0,76.33,15.86Z"/><path class="cls-1" d="M27.45,33a7.67,7.67,0,0,1,1.4-4.44h-.29a3.34,3.34,0,0,0-3.34,3.33v4.33a5.48,5.48,0,0,0,2.23-1Z"/><path class="cls-1" d="M63,8.6h.15a9.87,9.87,0,0,0,1.57,1,7,7,0,0,1,3.82,5.75l2.21-.15a9.18,9.18,0,0,0-2.24-5.42,5.94,5.94,0,0,0,2.26-4.68V3H68.55V5.09a3.75,3.75,0,0,1-1.74,3.17,8,8,0,0,0-1.09-.65,6.88,6.88,0,0,1-3.83-6.2V.82H59.66v.59a9.2,9.2,0,0,0,1.28,4.68,4.78,4.78,0,0,1-2.13-1.31,5.74,5.74,0,0,1-1.37-4H55.22a7.9,7.9,0,0,0,2,5.47A7.65,7.65,0,0,0,63,8.6Z"/><path class="cls-1" d="M87.44.82a5.69,5.69,0,0,1-1.38,4,4.69,4.69,0,0,1-2.12,1.31,9.2,9.2,0,0,0,1.28-4.68V.82H83v.59a6.88,6.88,0,0,1-3.83,6.2,8,8,0,0,0-1.09.65,3.75,3.75,0,0,1-1.74-3.17V3H74.11V5.09a5.94,5.94,0,0,0,2.26,4.68,9.15,9.15,0,0,0-2.24,5.42l2.21.15a7,7,0,0,1,3.82-5.75,9.87,9.87,0,0,0,1.57-1h.15A7.65,7.65,0,0,0,87.7,6.29a7.9,7.9,0,0,0,2-5.47Z"/></g></svg>