<svg id="Livello_1" data-name="Livello 1" xmlns="http://www.w3.org/2000/svg" viewBox="0 0 100 66"><defs><style>.cls-1{fill:#030402;fill-rule:evenodd;}</style></defs><title>iconTavola disegno 23</title><path class="cls-1" d="M73.44,64.15c-.11-.44-.25-.88-.35-1.32a61.72,61.72,0,0,0-2-6.82,17.26,17.26,0,0,0-2.85-5.52A27.84,27.84,0,0,0,64.46,47a39.84,39.84,0,0,0-4.94-3.22,28.91,28.91,0,0,0-4-2.09c-.41-.16-1-.17-1.19-.56s0-.89,0-1.34A1,1,0,0,1,55,38.63a16.15,16.15,0,0,0,7.34-5.54A20,20,0,0,0,66.28,24a8,8,0,0,1,.09-1.11c.13-.43.66-.3,1-.52a3.88,3.88,0,0,0,1-5.17,1.09,1.09,0,0,0-.85-.52c-.27,0-.32-.14-.29-.39a14.07,14.07,0,0,0-.13-2.9,7.13,7.13,0,0,0-.66-2.47,18.65,18.65,0,0,0-3.13-4.77,11.48,11.48,0,0,0-1.91-1.84A28.56,28.56,0,0,0,55.1,1.16,14,14,0,0,0,52,.43a21.39,21.39,0,0,0-7.48.45A27.12,27.12,0,0,0,38.16,3a28.12,28.12,0,0,0-5.34,3.54,9.64,9.64,0,0,0-3.1,4.71A14,14,0,0,0,29,15.88c0,.42,0,.76-.58.85a1.42,1.42,0,0,0-1,1.15,4.76,4.76,0,0,0-.11,2.54c.29,1,.78,1.85,2,2,.21,0,.29.12.32.32s.08.5.12.76a23,23,0,0,0,3.19,8.69,15.53,15.53,0,0,0,8.43,6.75c.45.14.59.31.48.78A3.93,3.93,0,0,0,41.68,41a1,1,0,0,1-.74,1.15,69.67,69.67,0,0,0-8.44,4.5A18.83,18.83,0,0,0,25.66,54a25.15,25.15,0,0,0-1.45,3.47c-.67,1.94-1.05,4-1.56,6-.26,1-.14,1.18.93,1.26.14,0,.29,0,.43,0,1.62.2,3.25,0,4.87,0,4.34.11,8.67.33,13,.29,2.09,0,4.17,0,6.25,0v.11h3.17c4.08-.05,8.16-.12,12.24.08,3,.14,6,.08,9,.13C73.35,65.38,73.65,65,73.44,64.15ZM33.57,31.56a24,24,0,0,1-3.17-7.8l0-.17c-.19-.82-.56-1.63.11-2.53a1.26,1.26,0,0,0-.82.29c-.47.28-.65.26-1-.13a2,2,0,0,1-.54-1,4.21,4.21,0,0,1,.05-2.2c.23-.85.79-1,1.44-.39a2.48,2.48,0,0,1,.64,1.46c.34,1.43.33,1.43,1.8,1.51.94.05,1.18-.14,1.26-1.07s.11-2.05.18-3.08a10.73,10.73,0,0,1,.41-2.09,1,1,0,0,1,1-.76,7,7,0,0,1,3,.75c.8.29,1.57.67,2.37,1a17.62,17.62,0,0,0,5.63.87c.43,0,.86,0,1.29,0a19.1,19.1,0,0,0,8-1.43,35.56,35.56,0,0,0,3.81-1.52,5,5,0,0,1,2-.42,1.43,1.43,0,0,1,1.51,1.25,21.55,21.55,0,0,1,.31,2.28,28.45,28.45,0,0,1,.15,3.33c0,1,0,1.08,1.11,1.17a1.3,1.3,0,0,0,.34,0c1.13-.21,1.18.06,1.33-1.22a3.88,3.88,0,0,1,1-2.05c.45-.56,1-.48,1.24.19a4.36,4.36,0,0,1-.1,3.18c-.33.83-1,1-2,.52-.08.47,0,.93-.06,1.39a21,21,0,0,1-6,12,15.32,15.32,0,0,1-5.51,3.2,18.5,18.5,0,0,1-11.83.23A15.1,15.1,0,0,1,33.57,31.56ZM71.83,64.35c-.46.05-.83,0-.91-.6a1.18,1.18,0,0,0-.36-.57.82.82,0,0,0-.93-.25.76.76,0,0,0-.52.8v.55c-1.11,0-2.13,0-3.16,0-2.31,0-4.62-.15-6.93-.2-.5,0-.71-.14-.76-.66a10,10,0,0,0-.3-1.5A1.7,1.7,0,0,0,57,60.73a1.07,1.07,0,0,0-1.67.89,5.7,5.7,0,0,0,.13,1.79,1.06,1.06,0,0,1,.08.55c-.09.13-.21.11-.32.11-2.2.06-4.4.1-6.59.06a.8.8,0,0,1-.76-.4c-.49-.71-1-.72-1.58,0a.8.8,0,0,1-.7.38h-6.3a2.94,2.94,0,0,1,.27-1.37,4,4,0,0,0,.3-1.07.81.81,0,0,0-1.08-.91,1.61,1.61,0,0,0-1,.84,6.06,6.06,0,0,0-.69,1.92c-.09.38-.24.53-.64.51-1.88-.11-3.76-.18-5.64-.15-.42,0-.54-.18-.6-.55a17,17,0,0,0-.38-1.75c-.22-.77-.62-1.16-1.05-1.05-.61.16-.71.69-.79,1.21a5.11,5.11,0,0,0,.12,2,19.2,19.2,0,0,1-5.05-.06,55.79,55.79,0,0,1,2.52-7.38c.31.06.42.29.6.42a1.45,1.45,0,0,0,.6.32A1.09,1.09,0,0,0,28,56.75a1,1,0,0,0,0-1.19,2.88,2.88,0,0,0-1-1c-.34-.2-.38-.36-.18-.73a15.46,15.46,0,0,1,2.24-3A22.11,22.11,0,0,1,35.44,46a4.81,4.81,0,0,0,1,2.17,2,2,0,0,0,1.34.84c.62.06.9-.21.9-.84a1.69,1.69,0,0,0-.41-1,5.43,5.43,0,0,1-.8-1.87c-.06-.24-.09-.44.18-.58,1.28-.69,2.56-1.36,3.88-1.92.22.2.15.41.14.59A1.35,1.35,0,0,0,42,44.42a12.52,12.52,0,0,1,.82,1,5.4,5.4,0,0,0,4.47,2.13,7.81,7.81,0,0,0,6.5-3.21,1.49,1.49,0,0,0,.37-1c0-.25,0-.51,0-.77,0-.42.17-.52.53-.35a20.71,20.71,0,0,1,2.43,1.33,11.11,11.11,0,0,0-.79,1.31,2.1,2.1,0,0,0-.2,1.41.84.84,0,0,0,1.49.46,3.74,3.74,0,0,0,.71-1c.24-.38.44-.94.82-1s.73.35,1.09.56a23.84,23.84,0,0,1,4.25,3.06,5.42,5.42,0,0,0-1.34,1.32,2.7,2.7,0,0,0-.42.93.87.87,0,0,0,1.32,1,5.31,5.31,0,0,0,1.29-1.12,3.81,3.81,0,0,1,.74-.77,11.35,11.35,0,0,1,3.22,4.43c.11.23.08.35-.15.48a2.52,2.52,0,0,0-.79.77.81.81,0,0,0,0,1,.83.83,0,0,0,1.08.2c.2-.09.39-.23.65-.38a70.85,70.85,0,0,1,2.29,8C72.23,64.47,72,64.34,71.83,64.35Z"/><path class="cls-1" d="M58.32,27.42a1.43,1.43,0,0,1-1.58,1.51,1.51,1.51,0,0,1-1.69-1.52,1.69,1.69,0,0,1,1.64-1.73A1.66,1.66,0,0,1,58.32,27.42Z"/><path class="cls-1" d="M38.54,28.73a1.57,1.57,0,1,1,1.62-1.6A1.54,1.54,0,0,1,38.54,28.73Z"/><path class="cls-1" d="M44,28.08a4.19,4.19,0,0,1,1.43.56,5.59,5.59,0,0,0,5.31-.26c.22-.13.42-.3.64-.43s.44-.24.61,0,0,.39-.16.53a4.94,4.94,0,0,1-1.63,1.08,7,7,0,0,1-4.21.11A3.4,3.4,0,0,1,44,28.08Z"/><path class="cls-1" d="M56.42,21.88a.77.77,0,0,1-.68.83c-.39,0-.67-.32-.67-.8s.3-.91.7-.89A.8.8,0,0,1,56.42,21.88Z"/><path class="cls-1" d="M39.72,22.05c0-.48.26-.84.63-.85a.84.84,0,0,1,0,1.67C40,22.89,39.73,22.55,39.72,22.05Z"/><path class="cls-1" d="M46.79,25.05a1.82,1.82,0,0,1,.87-1,1.14,1.14,0,0,1,1.27.15c.17.13.4.3.24.56s-.39.17-.6.05a1,1,0,0,0-1.3.18A.39.39,0,0,1,46.79,25.05Z"/><path class="cls-1" d="M66.3,20.73a1.8,1.8,0,0,1,.23-1.62.42.42,0,0,1,.5-.22c.25.09.22.32.15.5A2.73,2.73,0,0,1,66.3,20.73Z"/><path class="cls-1" d="M29.5,20a.31.31,0,0,1-.29-.13,1.25,1.25,0,0,1-.35-1.17.15.15,0,0,1,.21-.08c.37.25.39.67.47,1.05A.42.42,0,0,1,29.5,20Z"/><path class="cls-1" d="M32.65,52.32a2,2,0,0,1,.42.12,5.5,5.5,0,0,1,2.79,3.07,2.74,2.74,0,0,1,.15.58,1.25,1.25,0,0,1-.59,1.38A1.33,1.33,0,0,1,34,57c-.06-.07-.13-.13-.14-.21a4.44,4.44,0,0,0-1.61-2.33,1.5,1.5,0,0,1-.5-1.31A.82.82,0,0,1,32.65,52.32Z"/><path class="cls-1" d="M43.15,52.43a11.36,11.36,0,0,1-.3,1.94,2.13,2.13,0,0,1-1,1.43,1,1,0,0,1-1.06.07.82.82,0,0,1-.3-.92,6,6,0,0,1,.21-.91A5.94,5.94,0,0,0,41,52.53a3.16,3.16,0,0,1,.45-1.46.92.92,0,0,1,1-.5c.4.07.53.41.6.75S43.11,52.06,43.15,52.43Z"/><path class="cls-1" d="M49.09,61A2,2,0,0,1,48,60.65a6.57,6.57,0,0,0-1.48-.84,1.67,1.67,0,0,1-.93-1,.93.93,0,0,1,.17-1,.84.84,0,0,1,1-.2l2.43,1a1.84,1.84,0,0,1,.76.53,1.17,1.17,0,0,1,.28,1.19A1.13,1.13,0,0,1,49.09,61Z"/><path class="cls-1" d="M51,49.44a1,1,0,0,1,1.08.53,1,1,0,0,1-.19,1.11,1.7,1.7,0,0,1-.31.29c-.68.53-1.35,1.06-2,1.56s-1.11.49-1.48.16-.41-.86,0-1.49a5.27,5.27,0,0,1,2.62-2.1A1.45,1.45,0,0,1,51,49.44Z"/><path class="cls-1" d="M64,58.13a5.09,5.09,0,0,1,1.9.88c.4.28.77.59,1.15.89s.54.43.38.77a1.15,1.15,0,0,1-.84.78,1.12,1.12,0,0,1-.74-.12,9.65,9.65,0,0,0-2.12-.9,1.28,1.28,0,0,1-.87-.88A1.1,1.1,0,0,1,64,58.13Z"/><path class="cls-1" d="M58.46,55.23a9.18,9.18,0,0,1-2.58-.94,1.31,1.31,0,0,1-.54-.64.82.82,0,0,1,.15-.95.71.71,0,0,1,.85-.19,9.31,9.31,0,0,0,2.37.62,1.82,1.82,0,0,1,.25.07,1.14,1.14,0,0,1,.89,1.26C59.75,55,59.25,55.26,58.46,55.23Z"/></svg>