<svg id="Livello_1" data-name="Livello 1" xmlns="http://www.w3.org/2000/svg" viewBox="0 0 100 66"><defs><style>.cls-1{fill:#060606;}</style></defs><title>iconTavola disegno 80</title><path class="cls-1" d="M84.46,21.9A21.17,21.17,0,0,0,49.1,6.19,21.16,21.16,0,0,0,13.75,21.9a21,21,0,0,0,6.2,15l10.2,10.2h0l3.8,3.8h0L48.32,65.24a1.1,1.1,0,0,0,1.57,0l14-14h11.7a1.11,1.11,0,1,0,0-2.21H71.52a12.14,12.14,0,0,0,5.21-10c0-.2,0-.4,0-.6l1.56-1.56A21,21,0,0,0,84.46,21.9ZM59,25.78l.71,2.13A12.13,12.13,0,0,0,57.63,49h-17a12.06,12.06,0,0,0,5.13-8.85h3.37a.9.9,0,0,0,.28,0l.08,0h0l.06,0h0l0,0a1.33,1.33,0,0,0,.19-.14l.08-.07,0,0a.56.56,0,0,1,.05-.08,1.88,1.88,0,0,0,.12-.18v0l6.45-13.68ZM27.38,41.17A6.42,6.42,0,0,1,27,39,6.6,6.6,0,0,1,36,32.83l-3.27,5.65s0,.05,0,.07a1.18,1.18,0,0,0-.07.2.93.93,0,0,0,0,.22s0,0,0,.07,0,.08,0,.13a.79.79,0,0,0,0,.22.66.66,0,0,0,.09.19,1,1,0,0,0,.11.17l.18.16s.06.06.1.08,0,0,.07,0l.1,0a1.27,1.27,0,0,0,.38.07h6.53a6.64,6.64,0,0,1-6.53,5.52,6.42,6.42,0,0,1-2.14-.37Zm12.79-3.24H35.55l2.31-4A6.61,6.61,0,0,1,40.17,37.93Zm3.34,2.21a9.85,9.85,0,0,1-8.44,8.72l-1-1a8.84,8.84,0,0,0,8.34-7.71Zm5.57-3.63L43.72,25.78H54.13Zm-1.76,1.42H45.73a12.09,12.09,0,0,0-5.09-8.81L41.86,27Zm-3.8,0H42.4A8.84,8.84,0,0,0,39,32l.56-1A10,10,0,0,1,43.52,37.93Zm-6.45-7a8.82,8.82,0,0,0-12.25,7.72l-1-1a9.92,9.92,0,0,1,13.81-7.67Zm12,32L37.41,51.2H60.8ZM64.57,49A9.94,9.94,0,0,1,60.4,30l.35,1.05a8.82,8.82,0,1,0,3.82-.88,8.16,8.16,0,0,0-1.72.18l-.35-1.06a10.1,10.1,0,0,1,2.07-.22,9.95,9.95,0,1,1,0,19.89Zm-1-9.59a1.11,1.11,0,0,0,1,.75,1,1,0,0,0,.35,0,1.1,1.1,0,0,0,.7-1.4l-2.06-6.2a6.77,6.77,0,0,1,1-.09,6.64,6.64,0,1,1-3.11.78Zm12.74-3.65A12.09,12.09,0,0,0,61.8,27.21L57.27,13.62h2.89a1.11,1.11,0,0,0,0-2.21H55.74a.75.75,0,0,0-.16,0,.58.58,0,0,0-.19,0s0,0,0,0l-.2.11a1,1,0,0,0-.16.12.65.65,0,0,0-.13.16,1.13,1.13,0,0,0-.12.18.61.61,0,0,0-.05.18.93.93,0,0,0,0,.24s0,0,0,0a1,1,0,0,0,0,.17,1.1,1.1,0,0,0,0,.18l3.56,10.7H42.61l-.55-1.11h2.63a1.11,1.11,0,1,0,0-2.21H39.16a1.11,1.11,0,0,0,0,2.21h.43l1.08,2.18L38.73,28a12.13,12.13,0,0,0-16.79,7.72l-.43-.42A19,19,0,0,1,48.32,8.49a1.1,1.1,0,0,0,1.57,0A19,19,0,0,1,76.7,35.31Z"/></svg>