<svg id="Livello_1" data-name="Livello 1" xmlns="http://www.w3.org/2000/svg" viewBox="0 0 100 66"><defs><style>.cls-1{fill:#060606;}</style></defs><title>iconTavola disegno 146</title><path class="cls-1" d="M91.67,61.37c-8.94,0-14.25-2.33-19.39-4.57-4.9-2.15-10-4.36-17.82-4.36-6.77,0-13.27,2.66-19,5-4.94,2-9.6,3.93-13.74,3.93H17.2c2.64-1.18,5.66-2.65,9-4.27C38.72,51,54.36,43.32,66.37,43.32a44.19,44.19,0,0,1,24.46,7.17,1.4,1.4,0,0,0,1.68-2.24,44.52,44.52,0,0,0-18.79-7.16V38.72c2.56-.51,4.46-2.38,4.46-4.6a23.85,23.85,0,0,0-1.39-6.19c-1.25-3.53-2.71-5.25-4.47-5.25-1.22,0-2.31.84-3.28,2.55A39.18,39.18,0,0,0,67.43,19c-1.6-4.55-3.4-6.76-5.52-6.76S58,14.47,56.38,19a31.73,31.73,0,0,0-1.82,8.17c0,2.87,2.56,5.27,5.95,5.8v6.73c-8.08-4.17-16.2-5.94-24.16-5.24a37,37,0,0,0-14.5,4.33A37.4,37.4,0,0,0,8.33,36.07a1.4,1.4,0,0,0,0,2.79c8.08,0,15.07,3.47,21.23,6.54a73.09,73.09,0,0,0,7.55,3.41c-4.23,1.9-8.34,3.91-12.18,5.78-7.13,3.49-13.86,6.78-16.6,6.78a1.4,1.4,0,0,0,0,2.79H21.72c4.69,0,9.6-2,14.8-4.14,5.76-2.35,11.72-4.79,17.94-4.79,7.27,0,11.85,2,16.7,4.12,5.4,2.37,11,4.81,20.51,4.81a1.4,1.4,0,0,0,0-2.79ZM66.37,40.53c-1,0-2,0-3.07.15V33a8.17,8.17,0,0,0,3.53-1.42,13.6,13.6,0,0,0-.37,2.55c0,2.22,1.91,4.09,4.47,4.6v2C69.47,40.61,68,40.53,66.37,40.53Zm4-11.29c.87-2.6,1.67-3.55,2-3.75.3.2,1.1,1.15,2,3.75a21.16,21.16,0,0,1,1.1,4.88c0,.72-.7,1.38-1.67,1.72V34.49a1.4,1.4,0,1,0-2.79,0v1.35c-1-.34-1.68-1-1.68-1.72A21.16,21.16,0,0,1,70.35,29.24Zm-13-2A30.46,30.46,0,0,1,59,20c1.43-4.07,2.65-4.9,2.9-4.9s1.46.83,2.89,4.9a30.46,30.46,0,0,1,1.66,7.24c0,1.36-1.35,2.54-3.16,3v-3.1a1.4,1.4,0,1,0-2.79,0v3.1C58.7,29.73,57.35,28.55,57.35,27.19ZM30.81,42.9C29,42,27.17,41.09,25.25,40.23a34.4,34.4,0,0,1,11.34-3,40.49,40.49,0,0,1,21.26,4.26A94.07,94.07,0,0,0,41.24,47c-3-.42-6.45-2.13-10.43-4.11Z"/><path class="cls-1" d="M20.24,15.05h3.2a7.28,7.28,0,0,0,1.13,2.72L22.3,20a1.41,1.41,0,0,0,0,2,1.41,1.41,0,0,0,2,0l2.27-2.27a7.28,7.28,0,0,0,2.72,1.13v3.2a1.4,1.4,0,1,0,2.79,0v-3.2a7.28,7.28,0,0,0,2.72-1.13L37,22a1.4,1.4,0,0,0,2-2l-2.27-2.26a7.28,7.28,0,0,0,1.13-2.72h3.2a1.4,1.4,0,1,0,0-2.79h-3.2a7.28,7.28,0,0,0-1.13-2.72L39,7.27a1.4,1.4,0,0,0-2-2L34.77,7.57a7.28,7.28,0,0,0-2.72-1.13V3.24a1.4,1.4,0,1,0-2.79,0v3.2a7.28,7.28,0,0,0-2.72,1.13L24.27,5.3a1.39,1.39,0,0,0-2,2l2.27,2.27a7.28,7.28,0,0,0-1.13,2.72h-3.2a1.4,1.4,0,1,0,0,2.79Zm10.41-6a4.56,4.56,0,1,1-4.55,4.55A4.56,4.56,0,0,1,30.65,9.1Z"/></svg>