<svg id="Livello_1" data-name="Livello 1" xmlns="http://www.w3.org/2000/svg" viewBox="0 0 100 66"><defs><style>.cls-1{fill:#060606;}</style></defs><title>iconTavola disegno 117</title><path class="cls-1" d="M37.8,64.42a1.86,1.86,0,0,0,2.38-.54L69.84,23A1.85,1.85,0,0,0,68.34,20H60.48L69.93,4.16a1.85,1.85,0,0,0-1.59-2.8H46.09a1.86,1.86,0,0,0-1.8,1.4L36.88,32.55a1.82,1.82,0,0,0,.34,1.59,1.85,1.85,0,0,0,1.46.71h8.45L36.94,62.14a1.84,1.84,0,0,0,.86,2.28ZM51.54,33.65a1.86,1.86,0,0,0-.22-1.71,1.83,1.83,0,0,0-1.52-.79H41.05L47.54,5.06H65.08L55.62,20.93a1.86,1.86,0,0,0,1.6,2.8h7.49L45.19,50.65Z"/></svg>