<svg id="Livello_1" data-name="Livello 1" xmlns="http://www.w3.org/2000/svg" viewBox="0 0 100 66"><defs><style>.cls-1{fill:#030402;}</style></defs><title>iconTavola disegno 28</title><path class="cls-1" d="M90.34,14.59C87.12,7.76,81.94,3.4,75.73,2.3A19,19,0,0,0,61.58,5.68a30.37,30.37,0,0,0-8.5,9.06,30.62,30.62,0,0,0-8.5-9.06A19,19,0,0,0,30.42,2.3C24.22,3.4,19,7.76,15.82,14.59a38.49,38.49,0,0,0-2.54,22.9C14.73,45.67,18.38,53,23.54,58.1c4.5,4.45,9.7,6.79,14.91,6.79a17.35,17.35,0,0,0,3-.27,18.9,18.9,0,0,0,11.59-7.34,18.87,18.87,0,0,0,11.59,7.34,17.27,17.27,0,0,0,3,.27c5.21,0,10.41-2.34,14.9-6.79,5.17-5.1,8.82-12.43,10.27-20.61S93.43,21.17,90.34,14.59ZM40.71,60.27C36,61.12,31,59.23,26.65,55a34,34,0,0,1-9-18.25c-1.3-7.29-.52-14.48,2.19-20.23,2.59-5.5,6.63-9,11.38-9.83,7.18-1.28,14.72,3.68,19.42,12.69a42.54,42.54,0,0,0-3.1,10.09C46,38,47.1,46.6,50.52,53.25,48,57.11,44.54,59.59,40.71,60.27ZM88.53,36.71C87.23,44,84,50.49,79.51,55c-4.32,4.27-9.32,6.15-14.07,5.31-4.16-.74-7.87-3.6-10.45-8.06-3.41-5.9-4.55-13.93-3.12-22a37.87,37.87,0,0,1,3.2-9.95C59.72,10.67,67.53,5.33,75,6.65c4.75.84,8.79,4.33,11.38,9.83C89,22.23,89.82,29.42,88.53,36.71Z"/><path class="cls-1" d="M38,36.89A9.83,9.83,0,0,0,31.7,54.31a1.65,1.65,0,0,1,0-.7c.35-1.17,2.1-1.68,3.91-1.14s3,1.92,2.64,3.09a1.66,1.66,0,0,1-.85,1l.53,0a9.84,9.84,0,0,0,0-19.67Zm5.88,5.54c-.34,1.17-2.09,1.68-3.9,1.15s-3-1.92-2.65-3.09,2.1-1.69,3.91-1.15S44.19,41.26,43.84,42.43Z"/><path class="cls-1" d="M65.28,36.89a9.84,9.84,0,0,0,0,19.67l.53,0a1.66,1.66,0,0,1-.85-1c-.35-1.17.83-2.56,2.64-3.09s3.56,0,3.91,1.14a1.65,1.65,0,0,1,0,.7,9.83,9.83,0,0,0-6.26-17.42Zm-2,6.69c-1.81.53-3.56,0-3.9-1.15s.83-2.55,2.64-3.09,3.56,0,3.91,1.15S65.11,43,63.3,43.58Z"/></svg>