<svg id="Livello_1" data-name="Livello 1" xmlns="http://www.w3.org/2000/svg" viewBox="0 0 100 66"><defs><style>.cls-1{fill:#060606;}</style></defs><title>iconTavola disegno 61</title><path class="cls-1" d="M58.84,14.21h4.42v2.21h-4l-.39-.31ZM52.21,1V12H47.79V1ZM36.74,14.21h4.42v1.9l-.39.31h-4Zm-2.21,4.42h6.63a1.09,1.09,0,0,0,.69-.24l5.22-4.18h5.86l5.22,4.18a1.09,1.09,0,0,0,.69.24h6.63v2.21H56.63v-1.1a1.11,1.11,0,0,0-1.1-1.11H44.47a1.11,1.11,0,0,0-1.1,1.11v1.1H34.53Zm19.89,6.63H45.58a10,10,0,0,0-2.21.26V23.05h1.1A1.11,1.11,0,0,0,45.58,22V20.84h8.84V22a1.11,1.11,0,0,0,1.11,1.1h1.1v2.47A10,10,0,0,0,54.42,25.26ZM41.16,23.05v3.26a10,10,0,0,0-4.42,4.37V23.05Zm0,42H37.6l-.55-2.21h4.11Zm2.21-4.42H34.53V58.42h8.84Zm19,4.42H58.84V62.84H63Zm3.07-4.42H56.63V58.42h8.84Zm-6.63-4.42v-12a6.3,6.3,0,0,0-.67-2.83,4.22,4.22,0,0,1-.43-1.85V37.42a5.54,5.54,0,0,0-5.53-5.53H47.79a5.54,5.54,0,0,0-5.53,5.53V39.5a4.22,4.22,0,0,1-.43,1.85,6.3,6.3,0,0,0-.67,2.83v12H36.74V44.05a1.26,1.26,0,0,0,0-.27l-1-3.93a2.9,2.9,0,0,1-.09-.72A3,3,0,0,1,36.51,37l1-1a1.08,1.08,0,0,0,.32-.78,7.75,7.75,0,0,1,7.74-7.74h8.84a7.75,7.75,0,0,1,7.74,7.74,1.08,1.08,0,0,0,.32.78l1,1a3,3,0,0,1,.88,2.13,3,3,0,0,1-.09.73l-1,3.93a1.09,1.09,0,0,0,0,.26V56.21Zm4.42-25.53a10,10,0,0,0-4.42-4.37V23.05h4.42Z"/></svg>