<svg id="Livello_1" data-name="Livello 1" xmlns="http://www.w3.org/2000/svg" viewBox="0 0 100 66"><defs><style>.cls-1{fill:#030402;}</style></defs><title>iconTavola disegno 29</title><circle class="cls-1" cx="50.41" cy="56.82" r="3.49" transform="translate(-11.71 13.1) rotate(-13.28)"/><circle class="cls-1" cx="77.07" cy="56.82" r="3.49"/><circle class="cls-1" cx="68.18" cy="56.82" r="3.49"/><path class="cls-1" d="M59.3,53.33a3.5,3.5,0,1,0,3.49,3.49A3.5,3.5,0,0,0,59.3,53.33Z"/><path class="cls-1" d="M77.48,50H72.87V47.67h7.69v-18H79V29h-.32c0-.71,0-3.38-1.75-3.38S75.32,28.29,75.38,29H74.9v.69H66.82l-6.55,8.89L32.31.81l-6.74,4.6,1.16,2.12V27.05H25l1,4.49h1.43v.68s-1.24.23-1.24,2a1.28,1.28,0,0,0,.5,1.08l-6,6.89h-.2a2.61,2.61,0,0,0-2.61,2.61H15.45a1,1,0,0,0-1,1V60.39a1,1,0,0,0,1,1H41a1,1,0,0,0,1-1V45.81a1,1,0,0,0-1-1H38.52a2.42,2.42,0,0,0-2.44-2.61,3.06,3.06,0,0,0-.63.06l-6-6.94a1.67,1.67,0,0,0,.32-1.27L29.4,34s0,.79-.94.79-1.13-1.62.94-1.62V31.54h1.14l1-4.49H29.74V13.1L48.07,46.9v.77h6.22V50H50a7.44,7.44,0,0,0,0,14.88H77.48a7.44,7.44,0,0,0,0-14.88Zm-59,8.57a1,1,0,0,1-1,1h-.66a1,1,0,0,1-1-1V47.13a1,1,0,0,1,1-1h.66a1,1,0,0,1,1,1ZM38,47.13a1,1,0,0,1,1-1h.66a1,1,0,0,1,1,1V58.58a1,1,0,0,1-1,1H39a1,1,0,0,1-1-1ZM70.74,33.78H75v7.16H65.6ZM20.39,43.57c1.06,0,1.26,1.26,1.26,1.26H19.44S19.33,43.57,20.39,43.57Zm2.5,15a1,1,0,0,1-1,1h-.66a1,1,0,0,1-1-1V47.13a1,1,0,0,1,1-1h.66a1,1,0,0,1,1,1Zm4.43,0a1,1,0,0,1-1,1h-.66a1,1,0,0,1-1-1V47.13a1,1,0,0,1,1-1h.66a1,1,0,0,1,1,1Zm4.43,0a1,1,0,0,1-1,1H30.1a1,1,0,0,1-1-1V47.13a1,1,0,0,1,1-1h.66a1,1,0,0,1,1,1Zm4.43,0a1,1,0,0,1-1,1h-.66a1,1,0,0,1-1-1V47.13a1,1,0,0,1,1-1h.66a1,1,0,0,1,1,1Zm-.22-15c1.06,0,1.26,1.26,1.26,1.26H35S34.9,43.57,36,43.57Zm-7.37-7.8,6,6.88a3,3,0,0,0-1.09,2.18H23a2.65,2.65,0,0,0-1.24-2.36l5.86-6.76A3.72,3.72,0,0,0,28.59,35.77ZM27.19,6.35V6.09l4.86-3.15.84,1.2-5,3.39Zm1.42,20.7h-.75V9.62L28.61,11Zm1-16.79-.73-1.2,5.06-3.45.81,1.15Zm.93,1.53,5.23-3.56.95,1.37-5.32,3.62Zm1.79,3,5.41-3.68,1.1,1.56L33.3,16.38Zm1.93,3.16,5.6-3.81,1,1.37-5.69,3.87Zm1.79,3,5.78-3.93,1,1.48-5.87,4Zm1.87,3.07,6-4.05L44.61,21l-6,4.11Zm1.63,2.67,6.12-4.17.77,1.1-6.2,4.22Zm1.63,2.68L47.43,25l1,1.37L42,30.71Zm1.79,3,6.46-4.39,1.07,1.53-6.55,4.47Zm1.91,3.14,6.65-4.53,1.23,1.78L46,37.23Zm2.89,4.75-.83-1.37,6.85-4.66.92,1.32Zm2,.81,6-4.06,2.82,4.06ZM77.48,62.43H50a5,5,0,0,1,0-10H77.48a5,5,0,1,1,0,10Z"/></svg>