<svg id="Livello_1" data-name="Livello 1" xmlns="http://www.w3.org/2000/svg" viewBox="0 0 100 66"><defs><style>.cls-1{fill:#060606;}</style></defs><title>iconTavola disegno 149</title><path class="cls-1" d="M58.58,24.12a1.26,1.26,0,0,0-.89-.37A1.26,1.26,0,0,0,56.43,25a1.26,1.26,0,0,0,1.26,1.26A1.26,1.26,0,0,0,59,25,1.26,1.26,0,0,0,58.58,24.12Z"/><path class="cls-1" d="M79.46,9.91a1.26,1.26,0,0,0-1.72.46L72,20.29a6.7,6.7,0,0,0-1.55,0h0a6.27,6.27,0,0,0-1,.24l-.66.22-1.52.4a4,4,0,0,1-2.32-.53L58.2,16.74a1.78,1.78,0,0,1-.65-2.43l1.24-2.15h0l5.52-9.53a1.26,1.26,0,1,0-2.18-1.26L57.24,9.81l-.57-.33c-2.46-1.42-22.79-5.2-26.84-6h0A5.58,5.58,0,0,0,24,6.08L21.9,9.68a5.67,5.67,0,0,0,2.19,7.49l-.5.86a3.2,3.2,0,0,0,1.17,4.37l.26.15a3.15,3.15,0,0,0,1.6.43,2.91,2.91,0,0,0,.83-.11,3.14,3.14,0,0,0,1.94-1.49l.49-.85,3,1.71a22.2,22.2,0,0,0-10.27,7.17,21.39,21.39,0,0,0-1.73,2.5l-.09.15a22.2,22.2,0,0,0-2.85,8.48.49.49,0,0,0,0,.12,21.34,21.34,0,0,0-.15,2.53,22,22,0,0,0,5.79,14.88,1.15,1.15,0,0,0,.21.23,22.15,22.15,0,0,0,8.5,5.62l.16.06a22.05,22.05,0,0,0,15.6-.3l.2-.08a22.17,22.17,0,0,0,8.07-5.73,1.1,1.1,0,0,0,.2-.23,21.91,21.91,0,0,0,5.27-16.89.07.07,0,0,0,0,0l0-.32v0l-.14-.92.34-.59A6,6,0,0,0,64,39.2a5.23,5.23,0,0,0,4.62-2.54l2.08-3.59,4.87-8.44a2.59,2.59,0,0,0-1.06-3.5l0,0,5.46-9.48A1.26,1.26,0,0,0,79.46,9.91ZM49.36,10,50.42,14l-1.81-.31-1.08-4ZM40.17,8.08l1.14,4.23L39.5,12,38.36,7.72Zm-13,12a.69.69,0,0,1-.41.32.72.72,0,0,1-.52-.07L26,20.22h0a.69.69,0,0,1-.32-.41.72.72,0,0,1,.07-.52l.49-.85,1.44.83Zm5.94,4.68-2.87,5-5.64,1.06A19.53,19.53,0,0,1,33.15,24.8Zm4.25,4.4a3.19,3.19,0,0,0,2.77-1.6l.49-.85,2.91,1.68a4.62,4.62,0,0,0,3.25.57,2.2,2.2,0,0,1,1.51.27l3.49,2a5.43,5.43,0,0,1,2.45,2.91,1.23,1.23,0,0,0,.57.68l1.2.7-.51.89a3.19,3.19,0,0,0,1.17,4.37h0L57,41a3.31,3.31,0,0,0,1.23.41l-4.66,4.69L47.32,44.7l-.66-2-1.42-4.35L47.4,35a1.26,1.26,0,0,0-2.11-1.39l-2.11,3.21H36.46l-3.9-6,1.89-3.27a3.17,3.17,0,0,0,1.09,1l.26.15A3.18,3.18,0,0,0,37.4,29.2Zm-.85-3.69.49-.85.88.51.56.32-.49.85a.68.68,0,0,1-.93.25l-.26-.15h0a.69.69,0,0,1-.32-.41A.72.72,0,0,1,36.55,25.51Zm8.31,19.78-2.51,1.82-2.51,1.83-5-3.65,1.92-5.91h6.21ZM22.66,33.77l7.83-1.47,3.9,6L32.32,44.7l-5.1,1.14-1.11.25L20.48,40.3A19.51,19.51,0,0,1,22.66,33.77Zm1,20.4a19.44,19.44,0,0,1-3.37-10.46l4.1,4.21Zm2.23,2.71,1-8.37,5.88-1.32.28-.07,5.53,4v5.93l-6,4.27A19.39,19.39,0,0,1,25.88,56.88Zm13.94,5.86a19.72,19.72,0,0,1-4.23-.46l4.28-3.07,4.78,2.92A19.31,19.31,0,0,1,39.82,62.74Zm7.91-1.68L41.1,57V51.14l4.07-3,1.45-1.06.4.09,5.8,1.31,1.28,8A19.52,19.52,0,0,1,47.73,61.06Zm8.49-7.25-.94-5.9,4.08-4.12A19.45,19.45,0,0,1,56.22,53.81Zm2.93-15.25a.69.69,0,0,1-.93.25L58,38.66a.68.68,0,0,1-.25-.93l.49-.85,1.44.83Zm2.92-2.41-5.58-3.22a8,8,0,0,0-3.41-3.83l-3.49-2a4.69,4.69,0,0,0-3.26-.56,2.25,2.25,0,0,1-1.5-.28l-4-2.31h0l-1.24-.72-9.54-5.5h0l-3.62-2.09h0l-.8-.46a3.28,3.28,0,0,1-1.67-4,6.41,6.41,0,0,0,2.49,2.58l19.2,11.08a4.72,4.72,0,0,0,3.25.57,2.22,2.22,0,0,1,1.51.27l3.48,2a5.55,5.55,0,0,1,2.46,2.92,1.26,1.26,0,0,0,.56.68l6,3.45a6.32,6.32,0,0,0,3.16.87h.24A3.21,3.21,0,0,1,62.07,36.15Zm6.42-4.34A2.54,2.54,0,0,1,66.72,33a3.68,3.68,0,0,1-2.57-.46l-5.59-3.22a8,8,0,0,0-3.41-3.83l-3.48-2a4.72,4.72,0,0,0-3.27-.56,2.22,2.22,0,0,1-1.49-.28L27.71,11.58a3.23,3.23,0,0,1-1.56-4.24A3.1,3.1,0,0,1,29.39,6c1.88.35,4,.75,6.21,1.18l1.68,6.24a1.26,1.26,0,0,0,1,.92l4.54.78a.75.75,0,0,0,.21,0,1.24,1.24,0,0,0,.93-.41,1.26,1.26,0,0,0,.29-1.17L42.93,8.64,44.77,9l1.62,6.06a1.25,1.25,0,0,0,1,.91l4.54.79.21,0a1.26,1.26,0,0,0,1.22-1.59l-1.22-4.54a19,19,0,0,1,3.27,1L56,12l-.61,1.06a4.3,4.3,0,0,0,1.57,5.87l5.9,3.41-1.8.48a1.26,1.26,0,0,0,.32,2.48,1.24,1.24,0,0,0,.33,0l6-1.62a5.28,5.28,0,0,0,1-.23l.73-.24,1.42-.38a4,4,0,0,1,2.34.53.37.37,0,0,1,.11.11Z"/><path class="cls-1" d="M81.88,6.36a1.26,1.26,0,0,0-1.78,0,1.26,1.26,0,1,0,1.78,1.78,1.26,1.26,0,0,0,0-1.78Z"/></svg>