<svg id="Livello_1" data-name="Livello 1" xmlns="http://www.w3.org/2000/svg" viewBox="0 0 100 66"><defs><style>.cls-1{fill:#060606;}</style></defs><title>iconTavola disegno 103</title><path class="cls-1" d="M99.41,6.2C85.47,14.27,65.47,18.28,65.47,18.28c-1.57,8.51-9.79,9.2-9.79,9.2l-.09,0c-1.59-3.16-1.53-7.87-1.53-7.87a2.63,2.63,0,0,1,2.12.14,3.86,3.86,0,0,0-.76-2.26c-.72-.73-2.85-.38-2.85-.38a5,5,0,0,0-3.72-.55A2,2,0,0,0,47.14,18l-3,9.51a11.17,11.17,0,0,1-9.66-9.18s-20-4-33.94-12.08a63.41,63.41,0,0,0,5.3,16.11c1.79,1,5.41,2.52,11.43,3a70.7,70.7,0,0,1-9.52.54A36.62,36.62,0,0,0,20.18,39a22.55,22.55,0,0,0,7-1.41,11.57,11.57,0,0,1-4.89,2.54l.19.1C40.35,48.9,45.71,47,50,61.23h0c4.29-14.24,9.65-12.33,27.55-21l.19-.1a11.57,11.57,0,0,1-4.89-2.54,22.55,22.55,0,0,0,7,1.41A36.62,36.62,0,0,0,92.2,25.89a70.7,70.7,0,0,1-9.52-.54c6-.52,9.64-2,11.43-3A63.41,63.41,0,0,0,99.41,6.2ZM50.52,17.14a1.68,1.68,0,0,1,1,.54s-.62,0-1,0a2.94,2.94,0,0,1-1-.48A5.16,5.16,0,0,1,50.52,17.14Z"/></svg>