<svg id="Livello_1" data-name="Livello 1" xmlns="http://www.w3.org/2000/svg" viewBox="0 0 100 66"><defs><style>.cls-1{fill:#060606;}</style></defs><title>iconTavola disegno 69</title><path class="cls-1" d="M56.1,59.48h0L21.72,25.11l-5.55,5.55V65.6H80.85V59.48ZM79,63.71H53l-6.5-6.5-1.34,1.34,5.16,5.16h-8.2l-7.86-7.86-1.34,1.34,6.52,6.52H18.07V44.86l4,4,1.34-1.34-5.34-5.34V31.44l3.65-3.65L55.31,61.38H79Z"/><rect class="cls-1" x="23.61" y="54.53" width="1.89" height="1.89" transform="translate(-32.04 33.61) rotate(-45)"/><rect class="cls-1" x="28.08" y="59" width="1.89" height="1.89" transform="translate(-33.89 38.08) rotate(-45)"/><rect class="cls-1" x="25.84" y="56.77" width="1.89" height="1.89" transform="translate(-32.96 35.85) rotate(-45)"/><rect class="cls-1" x="23.66" y="34.28" width="1.89" height="1.89" transform="translate(-17.7 27.71) rotate(-45)"/><rect class="cls-1" x="33.54" y="36.5" width="1.89" height="17.23" transform="translate(-21.8 37.6) rotate(-45)"/><rect class="cls-1" x="25.89" y="36.51" width="1.89" height="1.89" transform="translate(-18.63 29.95) rotate(-45)"/><rect class="cls-1" x="35.08" y="17.46" width="6.59" height="1.89" transform="matrix(0.87, -0.5, 0.5, 0.87, -4.06, 21.66)"/><rect class="cls-1" x="29.93" y="21.79" width="1.89" height="1.89" transform="translate(-7.23 18.48) rotate(-30)"/><rect class="cls-1" x="32.66" y="20.21" width="1.89" height="1.89" transform="translate(-6.08 19.64) rotate(-30)"/><rect class="cls-1" x="33.69" y="29.45" width="7.58" height="1.89" transform="translate(-10.18 22.82) rotate(-30)"/><rect class="cls-1" x="42.11" y="25.51" width="4.38" height="1.89" transform="translate(-7.3 25.7) rotate(-30)"/><rect class="cls-1" x="34.69" y="22.55" width="9.63" height="1.89" transform="translate(-6.45 22.9) rotate(-30)"/><path class="cls-1" d="M50.06,45.41l-.58,1.81a5.05,5.05,0,0,0,1.54.24,5,5,0,0,0,.77-.06l-.29-1.87A3.19,3.19,0,0,1,50.06,45.41Z"/><path class="cls-1" d="M47.92,42.47a3.12,3.12,0,0,1,1.55-2.69l-.95-1.64A5,5,0,0,0,46,42.47a5.42,5.42,0,0,0,.06.81L48,43A2.74,2.74,0,0,1,47.92,42.47Z"/><path class="cls-1" d="M48.34,44l-.07-.13-1.69.87.12.2a4.81,4.81,0,0,0,1.39,1.55L49.2,45A3.16,3.16,0,0,1,48.34,44Z"/><path class="cls-1" d="M53.94,41.42a3.09,3.09,0,0,1,0,2.1l1.79.63a5,5,0,0,0,0-3.37Z"/><path class="cls-1" d="M76.46,29.57a3.16,3.16,0,0,1-.59,1.82l1.54,1.11a5.06,5.06,0,0,0,.94-2.93,4.92,4.92,0,0,0,0-.67l-1.88.26A2.73,2.73,0,0,1,76.46,29.57Z"/><path class="cls-1" d="M72.74,24.61,73,26.49a3.17,3.17,0,0,1,1.43.16l.64-1.78A5.18,5.18,0,0,0,72.74,24.61Z"/><path class="cls-1" d="M76.16,28.23l1.7-.81a2.31,2.31,0,0,0-.18-.35,4.94,4.94,0,0,0-1.27-1.46l-1.16,1.5A3.13,3.13,0,0,1,76,28Z"/><path class="cls-1" d="M71.07,31.66a3.36,3.36,0,0,1-.39-.54,3.06,3.06,0,0,1-.29-2.42l-1.82-.53a4.94,4.94,0,0,0,.47,3.9,4.87,4.87,0,0,0,.63.86Z"/><path class="cls-1" d="M44.55,12.74,44,14.87l8.1,14.05L51.15,35H51a7.5,7.5,0,1,0,6.13,3.19l.18-.17.94,1.64L62.91,37l-1.4-2.44,5.34-10.73.82.92a7.42,7.42,0,0,0-1.8,4.86,7.5,7.5,0,1,0,3.21-6.14l-3.34-3.68,1-.59-4.54-6.32a2.57,2.57,0,0,0-.35-1.16,2.68,2.68,0,0,0-3.66-1l-3.35,1.93-1.75-3L51,9a5.86,5.86,0,0,0,.4-2.14,5.92,5.92,0,0,0-.87-3.1l2.07-1.2-1-1.64L49.24,2.32a5.93,5.93,0,1,0-4.69,10.42ZM69,26.12l2.16,2.39a2.48,2.48,0,1,0,2.24-1.42,2.36,2.36,0,0,0-.84.15l-2.16-2.39a5.59,5.59,0,1,1-2.59,4.72A5.55,5.55,0,0,1,69,26.12Zm3.81,3.45a.59.59,0,1,1,.59.59A.6.6,0,0,1,72.77,29.57ZM51,41.88a.59.59,0,1,1-.59.59A.59.59,0,0,1,51,41.88Zm0,6.18a5.59,5.59,0,0,1-.17-11.18l-.49,3.2a2.48,2.48,0,1,0,3.14,2.39,2.41,2.41,0,0,0-.15-.85l2.38-2.16a5.53,5.53,0,0,1,.88,3A5.6,5.6,0,0,1,51,48.06Zm3.43-10-2.16,2,.44-2.89A5.7,5.7,0,0,1,54.45,38.06ZM53,35.25l.58-3.71,2.76,4.78-.49.45A7.55,7.55,0,0,0,53,35.25ZM57.78,35l-3.13-5.43L46,14.6l.38-1.42.92-.53L47,13.77l-.22.79h0l3.86,6.69,5.25-3,.55.94-.57,2.62-2.94,1.7,6.2,10.73ZM59,37.05l-.24-.42,1.35-.78.24.41Zm6.51-14.76L60.37,32.55,57,26.66l8.19-4.73ZM59.55,12.23a.79.79,0,1,1-.78.79A.78.78,0,0,1,59.55,12.23Zm1.34,3.11h0A2.46,2.46,0,0,0,61.4,15L64,18.57l-1.24.71,1.1,1.22L56,25l-.49-.85,2-1.17.09-.41.53-2.41,3,.81.49-1.83-3.6-1-.54-.92Zm-4-1.72a2.71,2.71,0,0,0,.29.74,2.68,2.68,0,0,0,.49.62l-6.37,3.68-2.52-4.37.16-.6.59-.34.61.16,1.73,3Zm-6.5-2.78,1.43.38,1.35,2.36-.6.35-1.19-2-1.9-.51ZM49.3,5.68l-2.44,1.4a1.66,1.66,0,0,1-1.29.17A1.55,1.55,0,0,1,45,7l3.88-2.23A4.34,4.34,0,0,1,49.3,5.68ZM45.44,2.84a4.07,4.07,0,0,1,2,.52l-5.15,3,.62,1.07a3.55,3.55,0,0,0,2.18,1.67,3.38,3.38,0,0,0,.94.13,3.59,3.59,0,0,0,1.79-.48l1.55-.9a4,4,0,1,1-3.92-5Z"/><rect class="cls-1" x="58.83" y="26.81" width="2.9" height="1.89" transform="translate(17.86 78.79) rotate(-75)"/></svg>