<svg id="Livello_1" data-name="Livello 1" xmlns="http://www.w3.org/2000/svg" viewBox="0 0 100 66"><defs><style>.cls-1{fill:#060606;}</style></defs><title>iconTavola disegno 106</title><path class="cls-1" d="M80.24,21.33A105.3,105.3,0,0,0,82.31,2.58a1.88,1.88,0,0,0-.55-1.34A1.93,1.93,0,0,0,80.42.69,105.3,105.3,0,0,0,61.67,2.76,94.37,94.37,0,0,0,51.3,5.45l-.07,0c-2.1.68-4.11,1.43-6,2.25A56.67,56.67,0,0,0,38.7,11a.78.78,0,0,0-.18.11,42.59,42.59,0,0,0-8.44,6.45,25,25,0,0,0-1.29,34L18.24,62.08a1.9,1.9,0,0,0,0,2.68,1.91,1.91,0,0,0,2.68,0L31.47,54.21a25,25,0,0,0,34-1.29,42.59,42.59,0,0,0,6.45-8.44A1.08,1.08,0,0,0,72,44.3a56.67,56.67,0,0,0,3.28-6.52c.82-1.9,1.57-3.92,2.26-6v-.05A92.9,92.9,0,0,0,80.24,21.33ZM62.34,6.49a107.29,107.29,0,0,1,16.13-2,107.29,107.29,0,0,1-2,16.13,87.06,87.06,0,0,1-2.18,8.61H56.41l11-11a1.9,1.9,0,0,0-2.68-2.68l-11,11V8.67A87.06,87.06,0,0,1,62.34,6.49Zm6.87,35H44.15l8.47-8.46H73.06A58.77,58.77,0,0,1,69.21,41.52ZM49.94,9.94V30.38l-8.46,8.46V13.79A58.77,58.77,0,0,1,49.94,9.94ZM26.54,35.25a21.1,21.1,0,0,1,6.21-15,36.69,36.69,0,0,1,4.94-4.1V42.63l-6.21,6.22A21,21,0,0,1,26.54,35.25Zm36.21,15a21.21,21.21,0,0,1-28.6,1.27l6.22-6.21H66.85A36.69,36.69,0,0,1,62.75,50.25Z"/></svg>