<svg id="Livello_1" data-name="Livello 1" xmlns="http://www.w3.org/2000/svg" viewBox="0 0 100 66"><defs><style>.cls-1{fill:#060606;}</style></defs><title>iconTavola disegno 94</title><g id="Solid"><path class="cls-1" d="M67.55,48.56l5.54,3.69a1.7,1.7,0,0,1,.67,2l-2.66,8h4.83l2.89-11.56a12,12,0,0,1-3.92-2.07Z"/><path class="cls-1" d="M26.15,52a1.69,1.69,0,0,1-.23.85l-5.36,9.38h4.6l6.1-10.68V48.56H26.15Z"/><path class="cls-1" d="M92.12,16.71a2.3,2.3,0,0,1,1.63-3.93h4a1.71,1.71,0,1,0,0-3.41h-4a5.71,5.71,0,0,0-4,9.75l5.61,5.61a2.31,2.31,0,0,1-3.1,3.41l-1.75-1.46a8.5,8.5,0,0,0-5.46-2h-.53A16.17,16.17,0,0,0,71.3,17.89,19.71,19.71,0,0,1,59.54,14l-2.61-2a21.73,21.73,0,0,0-27.85,1.5l-.06.05L12,28.11h12.9l.24-.71a6.42,6.42,0,0,1,6.1-4.4A1.7,1.7,0,0,1,33,24.7v6.82a6.81,6.81,0,0,1-6.81,6.81H21v-3.4h5.11a3.41,3.41,0,0,0,3.4-3.41V26.93a3.07,3.07,0,0,0-1.16,1.54l-.63,1.88a1.7,1.7,0,0,1-1.61,1.17H4a1.7,1.7,0,0,1-1.62-1.17l-.62-1.88A3,3,0,0,0,.59,26.93v4.59A3.42,3.42,0,0,0,4,34.93H7.41a1.7,1.7,0,0,1,1.7,1.7V50.26h4.41l4.61-4.61a1.7,1.7,0,0,1,1.2-.5H39.78V41.74h3.4V52a1.68,1.68,0,0,1-.22.85L37.6,62.19h4.6l6.1-10.68V38.33h3.4v6.82H72a12,12,0,0,1-1.55-5.9V36.63h3.41v2.62a8.48,8.48,0,0,0,6.07,8.16l9.75,2.92a1.7,1.7,0,0,1,1.15,2.1L88,62.19h4.89L95.84,49.1,88,41.24a1.7,1.7,0,0,1-.5-1.2v-6a16.19,16.19,0,0,0-1.06-5.76,5.19,5.19,0,0,1,1.87,1L90,30.75a5.71,5.71,0,0,0,7.69-8.43Z"/></g></svg>