<svg id="Livello_1" data-name="Livello 1" xmlns="http://www.w3.org/2000/svg" viewBox="0 0 100 66"><defs><style>.cls-1{fill:#060606;}</style></defs><title>iconTavola disegno 142</title><path class="cls-1" d="M60.19,27.81c.68-.26.9-.35,3,.17l5.95,1.51h0c3.46.85,6.25-3.65,6.87-4.75A4.81,4.81,0,0,0,74.64,18c-.82-.52-2.08-1.56-3.55-2.75A79.24,79.24,0,0,0,60.16,7.41a12.41,12.41,0,0,0-2.62-1.09l0-5.8-2,.08a9.41,9.41,0,0,0-3.9,1.15,8.09,8.09,0,0,0-4.06,5.52,17.63,17.63,0,0,0-4.72,1.19c-3.25,1.31-7.91,4.29-11.59,11C29.49,22.7,28,28.87,27.27,36a65.72,65.72,0,0,0-.2,12.47l.21,1.68h6.28c-.05.1-.09.2-.13.29a10,10,0,0,1-1.64,2.48H30.45A4.06,4.06,0,0,0,26.39,57v4.68H23.15v3.84H75.32V61.64H72.08V57A4.06,4.06,0,0,0,68,52.9H65.66a14,14,0,0,0-1.39-7.79c-2-4.29-4.09-8.32-5.78-11.55-.87-1.66-1.81-3.45-2.46-4.8l.34,0a13.33,13.33,0,0,0,3.82-.92ZM30.74,46.3a72,72,0,0,1,.35-9.92c.67-6.54,2-12.3,3.53-15.05a25,25,0,0,1,3.31-4.76c-2.8,5.5-3.78,13.22-3,23.53a25,25,0,0,1-.24,6.2ZM68,56.74a.22.22,0,0,1,.22.22v4.68h-38V57a.22.22,0,0,1,.22-.22ZM51.69,28.38a67.89,67.89,0,0,0,3.4,7c1.68,3.19,3.76,7.17,5.69,11.37a10,10,0,0,1,1,6.19H36.45c1.44-2.59,2.8-6.8,2.32-13.09C38,29.62,39.05,22,41.94,17.24c2.26-3.73,5.2-5.18,8-6.33l1.12-.46.07-1.21a4.62,4.62,0,0,1,2.23-4.07A2.38,2.38,0,0,1,53.69,5l0,4.56,1.65.22a8.22,8.22,0,0,1,2.91,1,75.54,75.54,0,0,1,10.38,7.49,47.8,47.8,0,0,0,3.91,3,1,1,0,0,1,.42.63.91.91,0,0,1-.15.75l0,.08-.05.07c-.85,1.53-2.17,2.89-2.68,3l-5.91-1.5h0c-3-.73-3.92-.57-5.33,0a9.73,9.73,0,0,1-2.86.67,8.71,8.71,0,0,1-3.09-.19,9.32,9.32,0,0,1-2.34-.94l-1.93,3.31a12.46,12.46,0,0,0,3.11,1.29Z"/><path class="cls-1" d="M57.23,18.68a1.92,1.92,0,1,0-1.92-1.92A2,2,0,0,0,57.23,18.68Z"/></svg>