<svg id="Livello_1" data-name="Livello 1" xmlns="http://www.w3.org/2000/svg" viewBox="0 0 100 66"><defs><style>.cls-1{fill:#060606;}</style></defs><title>iconTavola disegno 127</title><path class="cls-1" d="M28,40a2.51,2.51,0,0,0,1.41.43,2.54,2.54,0,0,0,2.11-1.13,22.09,22.09,0,0,1,36.67,0,2.54,2.54,0,0,0,4.21-2.84A27.09,27.09,0,0,0,59.06,26,14.35,14.35,0,1,0,40.87,26,27,27,0,0,0,27.32,36.48,2.53,2.53,0,0,0,28,40ZM50,5.64a9.27,9.27,0,1,1-9.27,9.27A9.28,9.28,0,0,1,50,5.64ZM60.13,45.52l-3.79,2.73A1.59,1.59,0,0,0,55.76,50l1.52,4.42a1.41,1.41,0,0,1,.08.57,1.67,1.67,0,0,1-2.63,1.21l-3.79-2.73a1.58,1.58,0,0,0-1.88,0l-3.79,2.73A1.67,1.67,0,0,1,42.64,55a1.61,1.61,0,0,1,.08-.57L44.24,50a1.59,1.59,0,0,0-.58-1.79l-3.79-2.73a1.71,1.71,0,0,1,1-3.06H45.5A1.47,1.47,0,0,0,47,41.53l1.44-4.44a1.61,1.61,0,0,1,3.06,0L53,41.53a1.47,1.47,0,0,0,1.53.93h4.68A1.71,1.71,0,0,1,60.13,45.52Zm21.71,8.89-3.79,2.73a1.58,1.58,0,0,0-.58,1.78L79,63.34a1.48,1.48,0,0,1,.08.58,1.68,1.68,0,0,1-2.63,1.21L72.66,62.4a1.61,1.61,0,0,0-1-.31,1.56,1.56,0,0,0-.94.31L67,65.13a1.68,1.68,0,0,1-2.63-1.21,1.69,1.69,0,0,1,.08-.58L66,58.92a1.58,1.58,0,0,0-.58-1.78l-3.79-2.73a1.71,1.71,0,0,1,1-3.06h4.68a1.47,1.47,0,0,0,1.53-.93L70.18,46a1.61,1.61,0,0,1,3.06,0l1.44,4.45a1.47,1.47,0,0,0,1.53.93h4.68A1.71,1.71,0,0,1,81.84,54.41Zm-43.42,0-3.79,2.73a1.58,1.58,0,0,0-.58,1.78l1.52,4.42a1.48,1.48,0,0,1,.08.58A1.68,1.68,0,0,1,33,65.13L29.23,62.4a1.56,1.56,0,0,0-.94-.31,1.61,1.61,0,0,0-.95.31l-3.78,2.73a1.67,1.67,0,0,1-2.63-1.21,1.69,1.69,0,0,1,.08-.58l1.52-4.42A1.58,1.58,0,0,0,22,57.14l-3.79-2.73a1.71,1.71,0,0,1,.95-3.06h4.68a1.47,1.47,0,0,0,1.53-.93L26.76,46a1.61,1.61,0,0,1,3.06,0l1.44,4.45a1.47,1.47,0,0,0,1.53.93h4.68A1.71,1.71,0,0,1,38.42,54.41Z"/></svg>