<svg id="Livello_1" data-name="Livello 1" xmlns="http://www.w3.org/2000/svg" viewBox="0 0 100 66"><defs><style>.cls-1{fill:#030402;}</style></defs><title>iconTavola disegno 40</title><path class="cls-1" d="M80.06,55.44l-5.7-5.71,3.38-3.37h0a3.39,3.39,0,0,0,0-4.79l-.08-.08a3.39,3.39,0,0,0-4.79,0l-2,2-6.33-8.11L75,27.18a.88.88,0,0,0,.33-.49L81.61,3.08a.92.92,0,0,0-.24-.9.94.94,0,0,0-.89-.24L66.4,5.66a.93.93,0,1,0,.48,1.8L79.4,4.15,73.65,25.91,54.38,41a.86.86,0,0,0-.14.13,1,1,0,0,0-.22.58.91.91,0,0,0,.2.6h0l.06.07,0,0,0,0,0,0,0,0,0,0,.06,0,0,0,.06,0h0l.09,0h0l.09,0h.26l.13,0h0l.12-.05,0,0,.12-.07,1.14-.89,8.08,8.09-3.51,3.51-9.72-7.58,1.26-1a.93.93,0,0,0,.35-.71,1,1,0,0,0-.19-.6.94.94,0,0,0-1.31-.16l-12.85,10-3.51-3.51L65.51,19.36A.93.93,0,0,0,64.2,18L33.94,48.3l-3.51-3.51,7.11-9h0l2.8-3.54,6.3-.63a.93.93,0,0,0,.62-1.52L44.62,27,49,21.4,51.6,21h0l2.16-.38a.93.93,0,0,0,.77-.88l.19-5.57,3-4.22,5.21-1.38a.93.93,0,0,0-.48-1.8L56.87,8.18a1,1,0,0,0-.53.37L53,13.28a1,1,0,0,0-.17.5l-.17,5.09-.87.15L43.63,8.51a1,1,0,0,0-.5-.33L19.52,1.94a.94.94,0,0,0-.89.24.92.92,0,0,0-.24.9l3,11.2a.93.93,0,0,0,1.8-.47L20.59,4.15,42.35,9.9l7.4,9.48-1.45.25a.94.94,0,0,0-.57.34l-4.39,5.61L35.8,18a.93.93,0,1,0-1.31,1.32l8.25,8.25,2,2.37-5,.5a1,1,0,0,0-.64.35L36.65,34l-10.3-8-2.17-8.2a.93.93,0,0,0-1.8.48l2.25,8.5a.88.88,0,0,0,.33.49l10.53,8.23-6.38,8.06-2-2a3.39,3.39,0,0,0-4.79,0l-.08.08a3.39,3.39,0,0,0,0,4.79l3.38,3.37-5.7,5.71a5.78,5.78,0,0,0,8.18,8.18l5.7-5.71,3.38,3.38h0a3.39,3.39,0,0,0,4.79,0l.08-.07a3.39,3.39,0,0,0,0-4.79l-2-2L50,46.73l9.91,7.72-2,2a3.39,3.39,0,0,0,0,4.79l.08.07a3.39,3.39,0,0,0,4.79,0l3.38-3.38,5.7,5.71a5.78,5.78,0,1,0,8.18-8.18ZM27.75,61.36,22.2,55.81,24,54.05l5.55,5.55Zm-6.49.94a3.92,3.92,0,0,1-.35-5.15l5.49,5.5A3.92,3.92,0,0,1,21.26,62.3Zm9.56-4-5.55-5.55L27,51.05,32.5,56.6Zm10.38.54a1.51,1.51,0,0,1-.45,1.08l-.08.08a1.53,1.53,0,0,1-2.15,0h0l-4-4-6.86-6.86h0l-4-4a1.52,1.52,0,0,1,0-2.16l.08-.07a1.51,1.51,0,0,1,2.15,0l2.72,2.71L38,55l2.72,2.71A1.51,1.51,0,0,1,41.2,58.82Zm31.05,2.54L70.49,59.6,76,54.05l1.76,1.76Zm-14.11-21,5-3.88,6.46,8.29L66.06,48.3ZM61.48,60a1.53,1.53,0,0,1-2.15,0l-.08-.08a1.54,1.54,0,0,1,0-2.16L62,55h0l9.5-9.51h0l2.72-2.71a1.5,1.5,0,0,1,1.08-.45,1.52,1.52,0,0,1,1.07.44l.08.08a1.52,1.52,0,0,1,0,2.16h0l-4,4h0l-6.86,6.86h0ZM73,51.05l1.69,1.68-5.55,5.55L67.5,56.6Zm5.7,11.25a3.92,3.92,0,0,1-5.14.35l5.49-5.5A3.92,3.92,0,0,1,78.74,62.3Z"/></svg>