<svg id="Livello_1" data-name="Livello 1" xmlns="http://www.w3.org/2000/svg" viewBox="0 0 100 66"><defs><style>.cls-1{fill:#030402;fill-rule:evenodd;}</style></defs><title>iconTavola disegno 24</title><path class="cls-1" d="M55.45,44.34A7.16,7.16,0,0,1,51,47.21,6.21,6.21,0,0,1,47.55,47a4.85,4.85,0,0,1-2.33-1.77c-.26-.32-.13-.72-.18-1.09s0-.62.45-.49c.2,0,.4.15.6.22a11,11,0,0,0,8.76-.41c.49-.24.7-.2.64.38A2,2,0,0,1,55.45,44.34Z"/><path class="cls-1" d="M73.82,62.53A37.1,37.1,0,0,0,71.51,56a27.42,27.42,0,0,0-3.11-5.28,24,24,0,0,0-11.57-8.06c-.68-.22-.67-.25-.66-.95,0-.39.25-.49.51-.63a22.3,22.3,0,0,0,7.5-6.89,15.39,15.39,0,0,0,2.66-5.76,22.89,22.89,0,0,0,.53-5.29,1,1,0,0,1,.07-.63,1.5,1.5,0,0,0,1.83-.78,4.08,4.08,0,0,0,.53-3.49c-.32-1.13-1.11-1.58-2.14-1.11,0,0-.08,0-.21-.1a11.39,11.39,0,0,0-.39-2.31c.26-.08.47-.13.67-.2a13.93,13.93,0,0,0,3.69-1.61,2.72,2.72,0,0,0,.79-.68.85.85,0,0,0-.55-1.42,5.39,5.39,0,0,0-.63-.07,3.79,3.79,0,0,0,.9-1.29C72.3,8.56,72,8,71,7.86a8.16,8.16,0,0,0-.86,0,8,8,0,0,0,.32-1c.34-1.52-.37-2.22-1.89-1.91a12.52,12.52,0,0,0-1.9.65,6.23,6.23,0,0,1-5.6-.4c-1.19-.68-2.34-1.44-3.51-2.15a15,15,0,0,0-10.1-2A21.56,21.56,0,0,0,38.7,4.14c-.19-.19-.35-.4-.55-.57-.38-.31-.66-.23-.78.23a8.85,8.85,0,0,0-.14,1h-.44a3.85,3.85,0,0,0-.48,0c-.6.05-.77.25-.49.77a1.1,1.1,0,0,1-.21,1.31,16.32,16.32,0,0,0-2.3,4.42,28.13,28.13,0,0,0-1.21,5.19c0,.29-.07.48-.45.51a1.67,1.67,0,0,0-1.49,1.29,4,4,0,0,0,.45,3.56,1.75,1.75,0,0,0,2,.91,22.86,22.86,0,0,0,.17,3.65,11.57,11.57,0,0,0,.86,4,23.83,23.83,0,0,0,3.57,5.85,17.7,17.7,0,0,0,6.72,5.18.58.58,0,0,1,.45.64c0,.42-.21.54-.55.66a34.86,34.86,0,0,0-9.73,5.52A18.76,18.76,0,0,0,28.69,55a32.34,32.34,0,0,0-2.63,8.37c-.11.65.14,1,.81,1,3,.06,6,.27,9.06.12,2.75-.13,5.5-.14,8.25-.11,4.4.05,8.79.1,13.19.2,2.32.06,4.64,0,6.95,0l8.34,0a2.82,2.82,0,0,0,1-.15c.23-.08.36-.18.36-.45A6.35,6.35,0,0,0,73.82,62.53ZM32.21,61.12a.32.32,0,0,1-.4.18c-.19-.06-.21-.22-.2-.39a3.52,3.52,0,0,1,.45-1.44c.1-.16.24-.34.44-.26s.17.31.21.44A3.57,3.57,0,0,1,32.21,61.12Zm28.91-13.8a.38.38,0,0,1,.51,0,2.28,2.28,0,0,1,.76,1.39c0,.21,0,.39-.16.47a.41.41,0,0,1-.43-.13A2.9,2.9,0,0,1,61,47.74.35.35,0,0,1,61.12,47.32ZM41.34,33.91a12.24,12.24,0,0,1-3.54-2.38A9.86,9.86,0,0,1,35,26.34c-.22-.94-.47-1.88-.77-2.8a.81.81,0,0,0-.76-.69c-.46-.05-.54-.2-.41-.62.06-.17.24-.3.12-.57l-.68.33c-.53.26-.79.23-1.13-.2a3.5,3.5,0,0,1-.59-3.36A1,1,0,0,1,32.68,18a3.18,3.18,0,0,1,1.24,2.53,3.6,3.6,0,0,0,0,.56.54.54,0,0,0,.5.54,11.3,11.3,0,0,0,1.29.14c.54,0,.77-.24.86-.87.12-.88.24-1.76.32-2.64a24.11,24.11,0,0,0,.37-2.8c0-.29.18-.44.35-.61a6.3,6.3,0,0,1,4.07-1.74,10,10,0,0,1,4.94,1c1,.46,1.94,1,2.94,1.52a16.92,16.92,0,0,0,10.66,1.14,24.23,24.23,0,0,0,4-1.06c.23,1.32.45,2.56.67,3.81,0,.31,0,.66.5.7a1.53,1.53,0,0,0,1.26-.55c.14-.35.23-.71.37-1.06a1.86,1.86,0,0,1,.63-.92.85.85,0,0,1,1.38.4,3.76,3.76,0,0,1-.4,3.48,1.2,1.2,0,0,1-1.14.6c-.65,0-.66,0-.61.65,0,.38.08.75.11,1.13s0,.53-.4.55c-.77,0-1,.49-1.1,1.21A7.76,7.76,0,0,1,63.21,30a25.3,25.3,0,0,1-6.87,4.91,2.31,2.31,0,0,1-2.25-.1,8.77,8.77,0,0,1-1.29-1,5.21,5.21,0,0,0-6.3-.52,3.34,3.34,0,0,0-.55.33C44.48,34.87,42.91,34.61,41.34,33.91ZM37,56.79a.7.7,0,0,1-.5-.22l-2-1.8c-.14-.12-.3-.28-.14-.48s.34-.1.5,0A17.83,17.83,0,0,1,37.1,56a.66.66,0,0,1,.21.58C37.31,56.66,37.2,56.78,37,56.79Zm2.58-4.73c-.21-.1-.31-.19-.28-.34a9.73,9.73,0,0,1,.46-2.27,1.47,1.47,0,0,1,.24-.4.23.23,0,0,1,.41.14s0,.05,0,.08A13,13,0,0,1,39.55,52.06Zm2.31,8.15c0,.13-.08.26-.24.29a.38.38,0,0,1-.41-.19A2.35,2.35,0,0,1,41,59.05a2.51,2.51,0,0,1,.1-.85c.06-.15.13-.31.32-.33a.33.33,0,0,1,.34.28A4.11,4.11,0,0,1,41.86,60.21Zm2.48-5.86a11.94,11.94,0,0,1-2.15.28c-.21,0-.47,0-.52-.28s.21-.41.44-.47a9.34,9.34,0,0,1,1.81-.35,2.58,2.58,0,0,1,.4,0c.19,0,.38.12.4.34S44.57,54.3,44.34,54.35ZM45,44.16a8.26,8.26,0,0,1-.17-2.22,1.64,1.64,0,0,1,.83.19,11.32,11.32,0,0,0,6.49.47A15.72,15.72,0,0,0,55,41.82c.51-.19.58-.16.54.38,0,.72.23,1.44-.06,2.14,0-.27-.05-.53-.08-.85a10.78,10.78,0,0,1-5,1.34,10.4,10.4,0,0,1-5.14-1.1C45,43.84,45.13,44,45,44.16ZM56.2,57.9c-.35.07-.51-.26-.61-.54-.21-.55-.37-1.12-.56-1.68a.41.41,0,0,1,.09-.44.44.44,0,0,1,.53,0,1.1,1.1,0,0,1,.5.6,3.87,3.87,0,0,1,.3,1.45C56.4,57.46,56.53,57.82,56.2,57.9ZM45.88,50.25a.37.37,0,0,1,0-.38.32.32,0,0,1,.36-.1,2.73,2.73,0,0,1,1.1.45.72.72,0,0,1,.26,1c-.39-.17-.78-.33-1.16-.51A1.21,1.21,0,0,1,45.88,50.25Zm3.27,10.14a.32.32,0,0,1-.42.13A4.25,4.25,0,0,1,47,59.09c-.12-.18-.07-.37.21-.39A3,3,0,0,1,49.17,60,.37.37,0,0,1,49.15,60.39Zm3-7.09a6.74,6.74,0,0,1-1.85,1.76.57.57,0,0,1-.38.11.32.32,0,0,1-.27-.51,4.79,4.79,0,0,1,.62-.73c.39-.4.79-.8,1.2-1.18.2-.19.45-.37.71-.16S52.34,53.08,52.18,53.3Zm3.11,8.62a2.47,2.47,0,0,1-.72,0,.29.29,0,0,1-.29-.24c0-.15.1-.23.24-.27a3,3,0,0,1,2.14,0C56.2,61.63,55.75,61.8,55.29,61.92Zm2.3-12.29A4.66,4.66,0,0,1,56,50.5a.43.43,0,0,1-.55-.18.4.4,0,0,1,.13-.5,4.83,4.83,0,0,1,1.57-.94c.36-.12.67.06.68.34A.58.58,0,0,1,57.59,49.63Zm3.21,4.85c-.24.08-.5.08-.63-.19s.06-.41.23-.54A4.89,4.89,0,0,1,61.88,53c.36-.11.65.08.65.24a.62.62,0,0,1-.3.58A5.55,5.55,0,0,1,60.8,54.48Zm1.43,5.13a.34.34,0,0,1-.39.21.35.35,0,0,1-.27-.35v-.32A2.86,2.86,0,0,1,61.84,58c.1-.23.25-.45.54-.35a.45.45,0,0,1,.29.52A3.88,3.88,0,0,1,62.23,59.61ZM68.28,62a.37.37,0,0,1-.42.15,4.65,4.65,0,0,1-2-1,.23.23,0,0,1-.07-.29c.09-.21.28-.21.47-.23a2.9,2.9,0,0,1,1.87,1A.37.37,0,0,1,68.28,62Zm0-3.71c-.17.09-.31,0-.41-.17-.34-.41-.69-.83-1-1.26a.8.8,0,0,1-.21-.59c0-.24.17-.4.45-.32a3,3,0,0,1,1.42,1.86A.51.51,0,0,1,68.26,58.3Z"/><path class="cls-1" d="M42,27.47a3.08,3.08,0,0,1-1.35-.19,1,1,0,0,1-.41-1.67,1.12,1.12,0,0,1,.5-.39,3.71,3.71,0,0,1,2.74.08.93.93,0,0,1,.59.9,1.17,1.17,0,0,1-.67,1A2.43,2.43,0,0,1,42,27.47Z"/><path class="cls-1" d="M58.75,27.31A1.86,1.86,0,0,1,57.51,27a1,1,0,0,1,.1-1.71A3.21,3.21,0,0,1,60,25.15a1,1,0,0,1,.82,1.07c0,.5-.28.76-.93,1A3.46,3.46,0,0,1,58.75,27.31Z"/><path class="cls-1" d="M50.54,29.12a2.83,2.83,0,0,1-.37-.06A21.67,21.67,0,0,1,47,27.81a1.94,1.94,0,0,1-.34-.21.25.25,0,0,1-.09-.29.24.24,0,0,1,.33-.13c.3.11.6.22.9.35.74.31,1.52.54,2.28.79a1.35,1.35,0,0,0,1.08-.06c.73-.34,1.47-.65,2.21-1,.18-.08.35-.14.53-.2s.39-.05.47.17a.31.31,0,0,1-.2.39c-1.06.51-2.13,1-3.23,1.44A1.23,1.23,0,0,1,50.54,29.12Z"/><path class="cls-1" d="M58.18,21.66a.82.82,0,0,1-.67.88.62.62,0,0,1-.65-.67.8.8,0,0,1,.71-.91A.62.62,0,0,1,58.18,21.66Z"/><path class="cls-1" d="M49,24.64a1.55,1.55,0,0,1,1.34-1,1.07,1.07,0,0,1,1,.64c.09.14.18.29,0,.42a.27.27,0,0,1-.37,0c-.54-.69-1.07-.39-1.61,0A.32.32,0,0,1,49,24.64Z"/><path class="cls-1" d="M42.45,21.58c0-.42.26-.64.59-.59a.75.75,0,0,1,.58.84.64.64,0,0,1-.68.64C42.6,22.42,42.41,22.07,42.45,21.58Z"/><path class="cls-1" d="M67.65,20.42a1.73,1.73,0,0,1,.19-1.36.22.22,0,0,1,.26-.14.24.24,0,0,1,.14.26A1.71,1.71,0,0,1,67.65,20.42Z"/><path class="cls-1" d="M31.52,18.92a1.78,1.78,0,0,1,.71,1.57A1.61,1.61,0,0,1,31.52,18.92Z"/></svg>