<svg id="Livello_1" data-name="Livello 1" xmlns="http://www.w3.org/2000/svg" viewBox="0 0 100 66"><defs><style>.cls-1{fill:#060606;}</style></defs><title>iconTavola disegno 75</title><path class="cls-1" d="M85.64,55.39l-8.52-2.62a18.88,18.88,0,0,0-3.24-.69V25.16l6.39,3.66a1.13,1.13,0,0,0,.53.14,1,1,0,0,0,.67-.24,1.05,1.05,0,0,0,.35-1.14l-8-26.26a1.07,1.07,0,0,0-2,0l-4.86,16a1.07,1.07,0,1,0,2,.63L72.81,5.3,79,25.63l-5.2-3a2,2,0,0,0-2,0l-5.19,3,.94-3.09a1.11,1.11,0,0,0-.67-1.37,1.07,1.07,0,0,0-1.36.7L63.8,27.58a1.05,1.05,0,0,0,.35,1.14,1.08,1.08,0,0,0,1.2.1l6.39-3.66V51.93a19.06,19.06,0,0,0-7.69,1.46l-21,8.69a16,16,0,0,1-11.44.31l-4.45-1.55-4.68-19.5a1.06,1.06,0,0,0-1-.82,1.08,1.08,0,0,0-1,.82l-3.79,15.8L15,56.56a1.07,1.07,0,1,0-.71,2L30.9,64.41a18.23,18.23,0,0,0,13-.36l21-8.69a17.25,17.25,0,0,1,11.64-.54l8.56,2.63a1.06,1.06,0,0,0,1.34-.74,1.11,1.11,0,0,0-.76-1.32Zm-67,2.46,2.8-11.68L24.76,60Z"/><path class="cls-1" d="M32.7,46.8a1.07,1.07,0,0,0-1.46-1.56A9.06,9.06,0,1,0,46.45,51l.45,0a3.34,3.34,0,0,0,2.9-5,.25.25,0,0,1,0-.07,1.07,1.07,0,0,0-.54-2l-.68,0,1.37-9L52,37.1a10.22,10.22,0,0,0,4.54,2.61l2.34.63a1.27,1.27,0,0,0,.28,0,1.07,1.07,0,0,0,1-.79,1.08,1.08,0,0,0-.76-1.31l-2.33-.62a8.06,8.06,0,0,1-3.59-2.07l-.12-.11a6.92,6.92,0,0,1,11.76.37,6.92,6.92,0,1,1-12.76,4.94,1.07,1.07,0,0,0-2.09.46,9,9,0,1,0,1.55-7.3L46.58,28.7l2.73-2.26A1.07,1.07,0,0,0,48,24.79L44.1,28l-.52-4.42a3.5,3.5,0,0,0,.65.07,3.35,3.35,0,1,0-1.68-6.26,3.37,3.37,0,0,0-1.61,3.57l-8,4.61a5,5,0,0,0-.64,8.27l0,0h0l-2,1.14a1.05,1.05,0,0,0-.39,1.45,1,1,0,0,0,.92.54,1.1,1.1,0,0,0,.53-.14l1.3-.75L35,38.24h0L36.36,52a1.07,1.07,0,0,0,1.07,1,1,1,0,0,0,.42-.09l6.27-2.74A6.92,6.92,0,1,1,32.7,46.8Zm14.8,2a1.23,1.23,0,0,1-.92.12,1.25,1.25,0,0,1-.74-.57,1.22,1.22,0,0,1,.45-1.66,1.2,1.2,0,0,1,.6-.16,1.22,1.22,0,0,1,.61,2.27Zm.1-16.05.43.43-1.36,9-2.9-7.19ZM44.23,19A1.22,1.22,0,1,1,43,20.26,1.21,1.21,0,0,1,44.23,19Zm-2.27,9,.07.51a1.91,1.91,0,0,0,1.2,1.57,1.93,1.93,0,0,0,1.66-.1L46,31.16l-3.09,1.78a4.5,4.5,0,0,0-1.87-1.87l-2.24-1.19ZM34,27.38l7.36-4.25.31,2.63-5.28,3-3.34-.53A2.8,2.8,0,0,1,34,27.38Zm-1.4,3,3.66.58,3.79,2a2.32,2.32,0,0,1,1.09,1.2l.33.83-7-2.37a2.88,2.88,0,0,1-1.92-2.26Zm3.86,6.31L34.61,35l0,0,3.06,1Zm.9,3.74,3.23,3a9.34,9.34,0,0,0-3-.58Zm1,9.88L37.83,45a6.92,6.92,0,0,1,5.43,3.19Zm-.22-12.1,2.28-1.32,2.14.73,2.86,7.11-.13.07Z"/></svg>